solid piholder
facet normal 0.0 0.0 -1.0
outer loop
vertex 125.0 45.0 0.0
vertex 0.0 0.0 0.0
vertex 0.0 45.0 0.0
endloop
endfacet
facet normal 0.0 0.0 -1.0
outer loop
vertex 0.0 0.0 0.0
vertex 125.0 45.0 0.0
vertex 125.0 0.0 0.0
endloop
endfacet
facet normal -1.0 0.0 0.0
outer loop
vertex 0.0 45.0 35.0
vertex 0.0 0.0 0.0
vertex 0.0 0.0 35.0
endloop
endfacet
facet normal -1.0 0.0 0.0
outer loop
vertex 0.0 0.0 0.0
vertex 0.0 45.0 35.0
vertex 0.0 45.0 0.0
endloop
endfacet
facet normal -0.0 1.0 -0.0
outer loop
vertex 0.0 45.0 0.0
vertex 15.0 45.0 7.0
vertex 125.0 45.0 0.0
endloop
endfacet
facet normal -0.0 1.0 -0.0
outer loop
vertex 15.0 45.0 7.0
vertex 0.0 45.0 0.0
vertex 0.0 45.0 35.0
endloop
endfacet
facet normal -0.0 1.0 -0.0
outer loop
vertex 15.0 45.0 7.0
vertex 0.0 45.0 35.0
vertex 15.0 45.0 35.0
endloop
endfacet
facet normal -0.0 1.0 -0.0
outer loop
vertex 125.0 45.0 0.0
vertex 110.0 45.0 7.0
vertex 125.0 45.0 35.0
endloop
endfacet
facet normal -0.0 1.0 -0.0
outer loop
vertex 110.0 45.0 7.0
vertex 125.0 45.0 0.0
vertex 15.0 45.0 7.0
endloop
endfacet
facet normal -0.0 1.0 -0.0
outer loop
vertex 125.0 45.0 35.0
vertex 110.0 45.0 7.0
vertex 110.0 45.0 35.0
endloop
endfacet
facet normal 1.0 -0.0 -0.0
outer loop
vertex 125.0 45.0 0.0
vertex 125.0 0.0 35.0
vertex 125.0 0.0 0.0
endloop
endfacet
facet normal 1.0 -0.0 -0.0
outer loop
vertex 125.0 0.0 35.0
vertex 125.0 45.0 0.0
vertex 125.0 45.0 35.0
endloop
endfacet
facet normal 0.0 -1.0 0.0
outer loop
vertex 125.0 0.0 0.0
vertex 110.0 0.0 7.0
vertex 0.0 0.0 0.0
endloop
endfacet
facet normal 0.0 -1.0 0.0
outer loop
vertex 110.0 0.0 7.0
vertex 125.0 0.0 0.0
vertex 125.0 0.0 35.0
endloop
endfacet
facet normal 0.0 -1.0 0.0
outer loop
vertex 110.0 0.0 7.0
vertex 125.0 0.0 35.0
vertex 110.0 0.0 35.0
endloop
endfacet
facet normal 0.0 -1.0 0.0
outer loop
vertex 0.0 0.0 0.0
vertex 15.0 0.0 7.0
vertex 0.0 0.0 35.0
endloop
endfacet
facet normal 0.0 -1.0 0.0
outer loop
vertex 15.0 0.0 7.0
vertex 0.0 0.0 0.0
vertex 110.0 0.0 7.0
endloop
endfacet
facet normal 0.0 -1.0 0.0
outer loop
vertex 0.0 0.0 35.0
vertex 15.0 0.0 7.0
vertex 15.0 0.0 35.0
endloop
endfacet
facet normal -0.0 -0.0 1.0
outer loop
vertex 110.0 0.0 7.0
vertex 15.0 45.0 7.0
vertex 15.0 0.0 7.0
endloop
endfacet
facet normal -0.0 -0.0 1.0
outer loop
vertex 15.0 45.0 7.0
vertex 110.0 0.0 7.0
vertex 110.0 45.0 7.0
endloop
endfacet
facet normal 0.0 0.0 1.0
outer loop
vertex 15.0 0.0 35.0
vertex 0.0 45.0 35.0
vertex 0.0 0.0 35.0
endloop
endfacet
facet normal 0.0 0.0 1.0
outer loop
vertex 0.0 45.0 35.0
vertex 15.0 0.0 35.0
vertex 15.0 45.0 35.0
endloop
endfacet
facet normal 1.0 -0.0 0.0
outer loop
vertex 15.0 45.0 7.0
vertex 15.0 0.0 35.0
vertex 15.0 0.0 7.0
endloop
endfacet
facet normal 1.0 -0.0 0.0
outer loop
vertex 15.0 0.0 35.0
vertex 15.0 45.0 7.0
vertex 15.0 45.0 35.0
endloop
endfacet
facet normal 0.0 0.0 1.0
outer loop
vertex 125.0 0.0 35.0
vertex 110.0 45.0 35.0
vertex 110.0 0.0 35.0
endloop
endfacet
facet normal 0.0 0.0 1.0
outer loop
vertex 110.0 45.0 35.0
vertex 125.0 0.0 35.0
vertex 125.0 45.0 35.0
endloop
endfacet
facet normal -1.0 -0.0 -0.0
outer loop
vertex 110.0 45.0 35.0
vertex 110.0 0.0 7.0
vertex 110.0 0.0 35.0
endloop
endfacet
facet normal -1.0 -0.0 -0.0
outer loop
vertex 110.0 0.0 7.0
vertex 110.0 45.0 35.0
vertex 110.0 45.0 7.0
endloop
endfacet
endsolid piholder
