solid Half pipe
facet normal -0.846833370348697 -0.306176158245246 0.434890104493134
outer loop
vertex 2.93749999999999 25.0 9.45
vertex 5.82876724973112 12.5 6.27958896017208
vertex 7.02036065955255 12.5 8.59990173091326
endloop
endfacet
facet normal -0.748285347322466 -0.311301942161203 0.585798719518197
outer loop
vertex 2.1404355977734 25.0 8.21088329062046
vertex 4.22087593489702 12.5 4.22570684863901
vertex 5.82876724973112 12.5 6.27958896017208
endloop
endfacet
facet normal -0.622836617657465 0.318248314262913 0.714697529150495
outer loop
vertex 4.22087593489702 12.5 4.22570684863901
vertex 2.2544182262357 12.5 2.512000255187
vertex 1.15250470106757 0.0 7.1178533623502
endloop
endfacet
facet normal -0.846833370348697 0.306176158245246 0.434890104493134
outer loop
vertex 5.82876724973112 12.5 6.27958896017208
vertex 2.93749999999999 0.0 9.45
vertex 7.02036065955255 12.5 8.59990173091326
endloop
endfacet
facet normal -0.798248320705032 0.3148700558653 0.513474893652046
outer loop
vertex 5.82876724973112 12.5 6.27958896017208
vertex 2.1404355977734 0.0 8.21088329062046
vertex 2.93749999999999 0.0 9.45
endloop
endfacet
facet normal -0.798248320705032 -0.3148700558653 0.513474893652046
outer loop
vertex 2.1404355977734 25.0 8.21088329062046
vertex 5.82876724973112 12.5 6.27958896017208
vertex 2.93749999999999 25.0 9.45
endloop
endfacet
facet normal -0.748285347322466 0.311301942161203 0.585798719518197
outer loop
vertex 4.22087593489702 12.5 4.22570684863901
vertex 2.1404355977734 0.0 8.21088329062046
vertex 5.82876724973112 12.5 6.27958896017208
endloop
endfacet
facet normal -0.622836617657465 -0.318248314262913 0.714697529150495
outer loop
vertex 4.22087593489702 12.5 4.22570684863901
vertex 1.15250470106757 25.0 7.1178533623502
vertex 2.2544182262357 12.5 2.512000255187
endloop
endfacet
facet normal -0.702972507506719 -0.319567181740463 0.635378997169543
outer loop
vertex 1.15250470106757 25.0 7.1178533623502
vertex 4.22087593489702 12.5 4.22570684863901
vertex 2.1404355977734 25.0 8.21088329062046
endloop
endfacet
facet normal -0.702972507506719 0.319567181740463 0.635378997169543
outer loop
vertex 4.22087593489702 12.5 4.22570684863901
vertex 1.15250470106757 0.0 7.1178533623502
vertex 2.1404355977734 0.0 8.21088329062046
endloop
endfacet
facet normal -0.923319074914747 0.306919376656536 0.230829768728687
outer loop
vertex 7.75287187438295 12.5 11.1033340804171
vertex 3.52248491865954 0.0 10.802225767282
vertex 3.87982162597866 0.0 12.2315725965585
endloop
endfacet
facet normal -0.923319074914747 -0.306919376656536 0.230829768728687
outer loop
vertex 3.52248491865954 25.0 10.802225767282
vertex 7.75287187438295 12.5 11.1033340804171
vertex 3.87982162597866 25.0 12.2315725965585
endloop
endfacet
facet normal -0.622836617657466 -0.318248314262912 -0.714697529150495
outer loop
vertex 4.22087593489702 12.5 23.174293151361
vertex 2.2544182262357 12.5 24.887999744813
vertex 1.15250470106757 25.0 20.2821466376498
endloop
endfacet
facet normal -0.748285347322466 -0.311301942161203 -0.585798719518198
outer loop
vertex 2.1404355977734 25.0 19.1891167093795
vertex 5.82876724973112 12.5 21.1204110398279
vertex 4.22087593489702 12.5 23.174293151361
endloop
endfacet
facet normal -0.914613874747205 0.30308707495143 -0.26761854404598
outer loop
vertex 7.75287187438295 12.5 16.2966659195829
vertex 3.52248491865954 0.0 16.597774232718
vertex 7.02036065955255 12.5 18.8000982690867
endloop
endfacet
facet normal -0.872399153791269 -0.310617421901392 0.377407649201247
outer loop
vertex 2.93749999999999 25.0 9.45
vertex 7.02036065955255 12.5 8.59990173091326
vertex 3.52248491865954 25.0 10.802225767282
endloop
endfacet
facet normal -0.923319074914747 -0.306919376656536 -0.230829768728687
outer loop
vertex 3.87982162597866 25.0 15.1684274034415
vertex 7.75287187438295 12.5 16.2966659195829
vertex 3.52248491865954 25.0 16.597774232718
endloop
endfacet
facet normal -0.948962301543457 0.30218195250294 -0.090313995763979
outer loop
vertex 8.00000000000001 12.5 13.7
vertex 3.87982162597866 0.0 15.1684274034415
vertex 7.75287187438295 12.5 16.2966659195829
endloop
endfacet
facet normal -0.872399153791269 0.310617421901392 0.377407649201247
outer loop
vertex 7.02036065955255 12.5 8.59990173091326
vertex 2.93749999999999 0.0 9.45
vertex 3.52248491865954 0.0 10.802225767282
endloop
endfacet
facet normal -0.949543863037835 -0.303854036172108 0.0777121410662693
outer loop
vertex 3.87982162597866 25.0 12.2315725965585
vertex 8.00000000000001 12.5 13.7
vertex 3.99999999999999 25.0 13.7
endloop
endfacet
facet normal -0.949543863037835 -0.303854036172108 -0.0777121410662696
outer loop
vertex 3.99999999999999 25.0 13.7
vertex 8.00000000000001 12.5 13.7
vertex 3.87982162597866 25.0 15.1684274034415
endloop
endfacet
facet normal -0.914613874747205 0.30308707495143 0.26761854404598
outer loop
vertex 7.02036065955255 12.5 8.59990173091326
vertex 3.52248491865954 0.0 10.802225767282
vertex 7.75287187438295 12.5 11.1033340804171
endloop
endfacet
facet normal -0.923319074914747 0.306919376656536 -0.230829768728687
outer loop
vertex 7.75287187438295 12.5 16.2966659195829
vertex 3.87982162597866 0.0 15.1684274034415
vertex 3.52248491865954 0.0 16.597774232718
endloop
endfacet
facet normal -0.949543863037835 0.303854036172108 -0.0777121410662696
outer loop
vertex 8.00000000000001 12.5 13.7
vertex 3.99999999999999 0.0 13.7
vertex 3.87982162597866 0.0 15.1684274034415
endloop
endfacet
facet normal -0.948962301543457 -0.30218195250294 -0.090313995763979
outer loop
vertex 3.87982162597866 25.0 15.1684274034415
vertex 8.00000000000001 12.5 13.7
vertex 7.75287187438295 12.5 16.2966659195829
endloop
endfacet
facet normal -0.914613874747205 -0.30308707495143 -0.26761854404598
outer loop
vertex 3.52248491865954 25.0 16.597774232718
vertex 7.75287187438295 12.5 16.2966659195829
vertex 7.02036065955255 12.5 18.8000982690867
endloop
endfacet
facet normal -0.914613874747205 -0.30308707495143 0.26761854404598
outer loop
vertex 3.52248491865954 25.0 10.802225767282
vertex 7.02036065955255 12.5 8.59990173091326
vertex 7.75287187438295 12.5 11.1033340804171
endloop
endfacet
facet normal -0.948962301543457 0.30218195250294 0.0903139957639791
outer loop
vertex 7.75287187438295 12.5 11.1033340804171
vertex 3.87982162597866 0.0 12.2315725965585
vertex 8.00000000000001 12.5 13.7
endloop
endfacet
facet normal -0.948962301543457 -0.30218195250294 0.0903139957639791
outer loop
vertex 3.87982162597866 25.0 12.2315725965585
vertex 7.75287187438295 12.5 11.1033340804171
vertex 8.00000000000001 12.5 13.7
endloop
endfacet
facet normal -0.949543863037835 0.303854036172108 0.0777121410662693
outer loop
vertex 8.00000000000001 12.5 13.7
vertex 3.87982162597866 0.0 12.2315725965585
vertex 3.99999999999999 0.0 13.7
endloop
endfacet
facet normal -0.846833370348698 -0.306176158245244 -0.434890104493133
outer loop
vertex 2.93750000000001 25.0 17.95
vertex 7.02036065955255 12.5 18.8000982690867
vertex 5.82876724973112 12.5 21.1204110398279
endloop
endfacet
facet normal 0.0 -1.0 0.0
outer loop
vertex 2.76178332577839 0.0 1.21623154341199
vertex 0.0 0.0 6.2
vertex 0.0 0.0 0.0
endloop
endfacet
facet normal 0.0 -1.0 0.0
outer loop
vertex 0.0 0.0 6.2
vertex 2.76178332577839 0.0 1.21623154341199
vertex 5.20904531506479 0.0 2.98189715771496
endloop
endfacet
facet normal 0.0 -1.0 0.0
outer loop
vertex 0.0 0.0 6.2
vertex 5.20904531506479 0.0 2.98189715771496
vertex 7.23407737634002 0.0 5.21928658661312
endloop
endfacet
facet normal 0.0 -1.0 0.0
outer loop
vertex 0.0 0.0 6.2
vertex 7.23407737634002 0.0 5.21928658661312
vertex 8.74775404937304 0.0 7.82992812371728
endloop
endfacet
facet normal 0.0 -1.0 0.0
outer loop
vertex 0.0 0.0 6.2
vertex 8.74775404937304 0.0 7.82992812371728
vertex 1.15250470106757 0.0 7.1178533623502
endloop
endfacet
facet normal 0.0 -1.0 0.0
outer loop
vertex 1.15250470106757 0.0 7.1178533623502
vertex 8.74775404937304 0.0 7.82992812371728
vertex 2.1404355977734 0.0 8.21088329062046
endloop
endfacet
facet normal 0.0 -1.0 0.0
outer loop
vertex 2.1404355977734 0.0 8.21088329062046
vertex 8.74775404937304 0.0 7.82992812371728
vertex 9.68345558393627 0.0 10.6989225370883
endloop
endfacet
facet normal 0.0 -1.0 0.0
outer loop
vertex 2.1404355977734 0.0 8.21088329062046
vertex 9.68345558393627 0.0 10.6989225370883
vertex 2.93749999999999 0.0 9.45
endloop
endfacet
facet normal 0.0 -1.0 0.0
outer loop
vertex 2.93749999999999 0.0 9.45
vertex 9.68345558393627 0.0 10.6989225370883
vertex 3.52248491865954 0.0 10.802225767282
endloop
endfacet
facet normal 0.0 -1.0 0.0
outer loop
vertex 3.52248491865954 0.0 10.802225767282
vertex 9.68345558393627 0.0 10.6989225370883
vertex 10.0 0.0 13.7
endloop
endfacet
facet normal 0.0 -1.0 0.0
outer loop
vertex 3.52248491865954 0.0 10.802225767282
vertex 10.0 0.0 13.7
vertex 3.87982162597866 0.0 12.2315725965585
endloop
endfacet
facet normal 0.0 -1.0 0.0
outer loop
vertex 3.87982162597866 0.0 12.2315725965585
vertex 10.0 0.0 13.7
vertex 3.99999999999999 0.0 13.7
endloop
endfacet
facet normal 0.0 -1.0 0.0
outer loop
vertex 3.99999999999999 0.0 13.7
vertex 10.0 0.0 13.7
vertex 9.68345558393627 0.0 16.7010774629117
endloop
endfacet
facet normal 0.0 -1.0 0.0
outer loop
vertex 3.99999999999999 0.0 13.7
vertex 9.68345558393627 0.0 16.7010774629117
vertex 3.87982162597866 0.0 15.1684274034415
endloop
endfacet
facet normal 0.0 -1.0 0.0
outer loop
vertex 3.87982162597866 0.0 15.1684274034415
vertex 9.68345558393627 0.0 16.7010774629117
vertex 3.52248491865954 0.0 16.597774232718
endloop
endfacet
facet normal 0.0 -1.0 0.0
outer loop
vertex 3.52248491865954 0.0 16.597774232718
vertex 9.68345558393627 0.0 16.7010774629117
vertex 2.93750000000001 0.0 17.95
endloop
endfacet
facet normal 0.0 -1.0 0.0
outer loop
vertex 2.93750000000001 0.0 17.95
vertex 9.68345558393627 0.0 16.7010774629117
vertex 8.74775404937304 0.0 19.5700718762827
endloop
endfacet
facet normal 0.0 -1.0 0.0
outer loop
vertex 2.93750000000001 0.0 17.95
vertex 8.74775404937304 0.0 19.5700718762827
vertex 2.1404355977734 0.0 19.1891167093795
endloop
endfacet
facet normal 0.0 -1.0 0.0
outer loop
vertex 2.1404355977734 0.0 19.1891167093795
vertex 8.74775404937304 0.0 19.5700718762827
vertex 1.15250470106757 0.0 20.2821466376498
endloop
endfacet
facet normal 0.0 -1.0 0.0
outer loop
vertex 1.15250470106757 0.0 20.2821466376498
vertex 8.74775404937304 0.0 19.5700718762827
vertex 7.23407737634002 0.0 22.1807134133869
endloop
endfacet
facet normal 0.0 -1.0 0.0
outer loop
vertex 1.15250470106757 0.0 20.2821466376498
vertex 7.23407737634002 0.0 22.1807134133869
vertex 0.0 0.0 21.2
endloop
endfacet
facet normal 0.0 -1.0 0.0
outer loop
vertex 0.0 0.0 21.2
vertex 7.23407737634002 0.0 22.1807134133869
vertex 0.0 0.0 27.4
endloop
endfacet
facet normal 0.0 -1.0 0.0
outer loop
vertex 0.0 0.0 27.4
vertex 7.23407737634002 0.0 22.1807134133869
vertex 5.20904531506479 0.0 24.418102842285
endloop
endfacet
facet normal 0.0 -1.0 0.0
outer loop
vertex 0.0 0.0 27.4
vertex 5.20904531506479 0.0 24.418102842285
vertex 2.76178332577839 0.0 26.183768456588
endloop
endfacet
facet normal -0.702972507506719 -0.319567181740463 -0.635378997169543
outer loop
vertex 2.1404355977734 25.0 19.1891167093795
vertex 4.22087593489702 12.5 23.174293151361
vertex 1.15250470106757 25.0 20.2821466376498
endloop
endfacet
facet normal -0.846833370348698 0.306176158245244 -0.434890104493133
outer loop
vertex 7.02036065955255 12.5 18.8000982690867
vertex 2.93750000000001 0.0 17.95
vertex 5.82876724973112 12.5 21.1204110398279
endloop
endfacet
facet normal -0.798248320705024 0.314870055865299 -0.513474893652059
outer loop
vertex 5.82876724973112 12.5 21.1204110398279
vertex 2.93750000000001 0.0 17.95
vertex 2.1404355977734 0.0 19.1891167093795
endloop
endfacet
facet normal -0.702972507506719 0.319567181740463 -0.635378997169543
outer loop
vertex 4.22087593489702 12.5 23.174293151361
vertex 2.1404355977734 0.0 19.1891167093795
vertex 1.15250470106757 0.0 20.2821466376498
endloop
endfacet
facet normal -0.475383303555629 -0.326741638882136 -0.816854097205341
outer loop
vertex 2.2544182262357 12.5 24.887999744813
vertex 0.0 12.5 26.2
vertex 0.0 25.0 21.2
endloop
endfacet
facet normal -0.872399153791274 -0.310617421901391 -0.377407649201236
outer loop
vertex 3.52248491865954 25.0 16.597774232718
vertex 7.02036065955255 12.5 18.8000982690867
vertex 2.93750000000001 25.0 17.95
endloop
endfacet
facet normal -0.589248836144926 -0.324570687421384 -0.739891666373301
outer loop
vertex 2.2544182262357 12.5 24.887999744813
vertex 0.0 25.0 21.2
vertex 1.15250470106757 25.0 20.2821466376498
endloop
endfacet
facet normal -0.798248320705024 -0.314870055865299 -0.513474893652059
outer loop
vertex 2.93750000000001 25.0 17.95
vertex 5.82876724973112 12.5 21.1204110398279
vertex 2.1404355977734 25.0 19.1891167093795
endloop
endfacet
facet normal -0.622836617657466 0.318248314262912 -0.714697529150495
outer loop
vertex 4.22087593489702 12.5 23.174293151361
vertex 1.15250470106757 0.0 20.2821466376498
vertex 2.2544182262357 12.5 24.887999744813
endloop
endfacet
facet normal -0.872399153791274 0.310617421901391 -0.377407649201236
outer loop
vertex 7.02036065955255 12.5 18.8000982690867
vertex 3.52248491865954 0.0 16.597774232718
vertex 2.93750000000001 0.0 17.95
endloop
endfacet
facet normal -0.589248836144926 0.324570687421384 -0.739891666373301
outer loop
vertex 2.2544182262357 12.5 24.887999744813
vertex 1.15250470106757 0.0 20.2821466376498
vertex 0.0 0.0 21.2
endloop
endfacet
facet normal -0.589248836144928 0.324570687421384 0.7398916663733
outer loop
vertex 2.2544182262357 12.5 2.512000255187
vertex 0.0 0.0 6.2
vertex 1.15250470106757 0.0 7.1178533623502
endloop
endfacet
facet normal -0.748285347322466 0.311301942161203 -0.585798719518198
outer loop
vertex 5.82876724973112 12.5 21.1204110398279
vertex 2.1404355977734 0.0 19.1891167093795
vertex 4.22087593489702 12.5 23.174293151361
endloop
endfacet
facet normal -0.475383303555629 0.326741638882136 -0.816854097205341
outer loop
vertex 2.2544182262357 12.5 24.887999744813
vertex 0.0 0.0 21.2
vertex 0.0 12.5 26.2
endloop
endfacet
facet normal -0.47538330355563 -0.326741638882136 0.816854097205341
outer loop
vertex 2.2544182262357 12.5 2.512000255187
vertex 0.0 25.0 6.2
vertex 0.0 12.5 1.2
endloop
endfacet
facet normal -0.47538330355563 0.326741638882136 0.816854097205341
outer loop
vertex 2.2544182262357 12.5 2.512000255187
vertex 0.0 12.5 1.2
vertex 0.0 0.0 6.2
endloop
endfacet
facet normal -0.589248836144928 -0.324570687421384 0.7398916663733
outer loop
vertex 2.2544182262357 12.5 2.512000255187
vertex 1.15250470106757 25.0 7.1178533623502
vertex 0.0 25.0 6.2
endloop
endfacet
facet normal 0.496804430169861 0.0 -0.867862522617263
outer loop
vertex 2.76178332577839 25.0 1.21623154341199
vertex 0.0 0.0 0.0
vertex 0.0 25.0 0.0
endloop
endfacet
facet normal 0.403029235987194 0.0 -0.915187103787842
outer loop
vertex 0.0 0.0 0.0
vertex 2.76178332577839 25.0 1.21623154341199
vertex 2.76178332577839 0.0 1.21623154341199
endloop
endfacet
facet normal 0.807715066657863 0.0 0.589573041356102
outer loop
vertex 7.23407737634002 25.0 22.1807134133869
vertex 5.20904531506479 0.0 24.418102842285
vertex 7.23407737634002 0.0 22.1807134133869
endloop
endfacet
facet normal 0.666936307488252 0.0 0.745114730597869
outer loop
vertex 5.20904531506479 0.0 24.418102842285
vertex 7.23407737634002 25.0 22.1807134133869
vertex 5.20904531506479 25.0 24.418102842285
endloop
endfacet
facet normal 4.12458702942958e-015 1.0 -4.7107762409446e-031
outer loop
vertex 0.0 25.0 6.2
vertex 2.76178332577839 25.0 1.21623154341199
vertex 0.0 25.0 0.0
endloop
endfacet
facet normal 4.12458702942958e-015 1.0 -4.7107762409446e-031
outer loop
vertex 2.76178332577839 25.0 1.21623154341199
vertex 0.0 25.0 6.2
vertex 5.20904531506479 25.0 2.98189715771496
endloop
endfacet
facet normal 4.12458702942958e-015 1.0 -4.7107762409446e-031
outer loop
vertex 5.20904531506479 25.0 2.98189715771496
vertex 0.0 25.0 6.2
vertex 7.23407737634002 25.0 5.21928658661312
endloop
endfacet
facet normal 4.12458702942958e-015 1.0 -4.7107762409446e-031
outer loop
vertex 7.23407737634002 25.0 5.21928658661312
vertex 0.0 25.0 6.2
vertex 8.74775404937304 25.0 7.82992812371728
endloop
endfacet
facet normal 4.12458702942958e-015 1.0 -4.7107762409446e-031
outer loop
vertex 8.74775404937304 25.0 7.82992812371728
vertex 0.0 25.0 6.2
vertex 1.15250470106757 25.0 7.1178533623502
endloop
endfacet
facet normal 4.12458702942958e-015 1.0 -4.7107762409446e-031
outer loop
vertex 8.74775404937304 25.0 7.82992812371728
vertex 1.15250470106757 25.0 7.1178533623502
vertex 2.1404355977734 25.0 8.21088329062046
endloop
endfacet
facet normal 4.12458702942958e-015 1.0 -4.7107762409446e-031
outer loop
vertex 8.74775404937304 25.0 7.82992812371728
vertex 2.1404355977734 25.0 8.21088329062046
vertex 9.68345558393627 25.0 10.6989225370883
endloop
endfacet
facet normal 4.12458702942958e-015 1.0 -4.7107762409446e-031
outer loop
vertex 9.68345558393627 25.0 10.6989225370883
vertex 2.1404355977734 25.0 8.21088329062046
vertex 2.93749999999999 25.0 9.45
endloop
endfacet
facet normal 4.12458702942958e-015 1.0 -4.7107762409446e-031
outer loop
vertex 9.68345558393627 25.0 10.6989225370883
vertex 2.93749999999999 25.0 9.45
vertex 3.52248491865954 25.0 10.802225767282
endloop
endfacet
facet normal 4.12458702942958e-015 1.0 -4.7107762409446e-031
outer loop
vertex 9.68345558393627 25.0 10.6989225370883
vertex 3.52248491865954 25.0 10.802225767282
vertex 10.0 25.0 13.7
endloop
endfacet
facet normal 4.12458702942958e-015 1.0 -4.7107762409446e-031
outer loop
vertex 10.0 25.0 13.7
vertex 3.52248491865954 25.0 10.802225767282
vertex 3.87982162597866 25.0 12.2315725965585
endloop
endfacet
facet normal 4.12458702942958e-015 1.0 -4.7107762409446e-031
outer loop
vertex 10.0 25.0 13.7
vertex 3.87982162597866 25.0 12.2315725965585
vertex 3.99999999999999 25.0 13.7
endloop
endfacet
facet normal 4.12458702942958e-015 1.0 -4.7107762409446e-031
outer loop
vertex 10.0 25.0 13.7
vertex 3.99999999999999 25.0 13.7
vertex 9.68345558393627 25.0 16.7010774629117
endloop
endfacet
facet normal 4.12458702942958e-015 1.0 -4.7107762409446e-031
outer loop
vertex 9.68345558393627 25.0 16.7010774629117
vertex 3.99999999999999 25.0 13.7
vertex 3.87982162597866 25.0 15.1684274034415
endloop
endfacet
facet normal 4.12458702942958e-015 1.0 -4.7107762409446e-031
outer loop
vertex 9.68345558393627 25.0 16.7010774629117
vertex 3.87982162597866 25.0 15.1684274034415
vertex 3.52248491865954 25.0 16.597774232718
endloop
endfacet
facet normal 4.12458702942958e-015 1.0 -4.7107762409446e-031
outer loop
vertex 9.68345558393627 25.0 16.7010774629117
vertex 3.52248491865954 25.0 16.597774232718
vertex 2.93750000000001 25.0 17.95
endloop
endfacet
facet normal 4.12458702942958e-015 1.0 -4.7107762409446e-031
outer loop
vertex 9.68345558393627 25.0 16.7010774629117
vertex 2.93750000000001 25.0 17.95
vertex 8.74775404937304 25.0 19.5700718762827
endloop
endfacet
facet normal 4.12458702942958e-015 1.0 -4.7107762409446e-031
outer loop
vertex 8.74775404937304 25.0 19.5700718762827
vertex 2.93750000000001 25.0 17.95
vertex 2.1404355977734 25.0 19.1891167093795
endloop
endfacet
facet normal 4.12458702942958e-015 1.0 -4.7107762409446e-031
outer loop
vertex 8.74775404937304 25.0 19.5700718762827
vertex 2.1404355977734 25.0 19.1891167093795
vertex 1.15250470106757 25.0 20.2821466376498
endloop
endfacet
facet normal 4.12458702942958e-015 1.0 -4.7107762409446e-031
outer loop
vertex 8.74775404937304 25.0 19.5700718762827
vertex 1.15250470106757 25.0 20.2821466376498
vertex 7.23407737634002 25.0 22.1807134133869
endloop
endfacet
facet normal 4.12458702942958e-015 1.0 -4.7107762409446e-031
outer loop
vertex 7.23407737634002 25.0 22.1807134133869
vertex 1.15250470106757 25.0 20.2821466376498
vertex 0.0 25.0 21.2
endloop
endfacet
facet normal 4.12458702942958e-015 1.0 -4.7107762409446e-031
outer loop
vertex 7.23407737634002 25.0 22.1807134133869
vertex 0.0 25.0 21.2
vertex 0.0 25.0 27.4
endloop
endfacet
facet normal 4.12458702942958e-015 1.0 -4.7107762409446e-031
outer loop
vertex 7.23407737634002 25.0 22.1807134133869
vertex 0.0 25.0 27.4
vertex 5.20904531506479 25.0 24.418102842285
endloop
endfacet
facet normal 4.12458702942958e-015 1.0 -4.7107762409446e-031
outer loop
vertex 5.20904531506479 25.0 24.418102842285
vertex 0.0 25.0 27.4
vertex 2.76178332577839 25.0 26.183768456588
endloop
endfacet
facet normal 0.496804430169861 0.0 0.867862522617263
outer loop
vertex 2.76178332577839 0.0 26.183768456588
vertex 0.0 25.0 27.4
vertex 0.0 0.0 27.4
endloop
endfacet
facet normal 0.403029235987195 0.0 0.915187103787842
outer loop
vertex 0.0 25.0 27.4
vertex 2.76178332577839 0.0 26.183768456588
vertex 2.76178332577839 25.0 26.183768456588
endloop
endfacet
facet normal 1.0 0.0 0.0
outer loop
vertex 10.0 25.0 13.7
vertex 9.68345558393627 0.0 16.7010774629117
vertex 10.0 0.0 13.7
endloop
endfacet
facet normal 0.977994061937242 0.0 0.208632727095954
outer loop
vertex 9.68345558393627 0.0 16.7010774629117
vertex 10.0 25.0 13.7
vertex 9.68345558393627 25.0 16.7010774629117
endloop
endfacet
facet normal -1.0 0.0 0.0
outer loop
vertex 0.0 0.0 27.4
vertex 0.0 12.5 26.2
vertex 0.0 0.0 21.2
endloop
endfacet
facet normal -1.0 0.0 0.0
outer loop
vertex 0.0 12.5 26.2
vertex 0.0 0.0 27.4
vertex 0.0 25.0 27.4
endloop
endfacet
facet normal -1.0 0.0 0.0
outer loop
vertex 0.0 12.5 26.2
vertex 0.0 25.0 27.4
vertex 0.0 25.0 21.2
endloop
endfacet
facet normal 0.807715066657863 0.0 -0.589573041356102
outer loop
vertex 7.23407737634002 25.0 5.21928658661312
vertex 8.74775404937304 0.0 7.82992812371728
vertex 7.23407737634002 0.0 5.21928658661312
endloop
endfacet
facet normal 0.912944770369011 0.0 -0.408083136451231
outer loop
vertex 8.74775404937304 0.0 7.82992812371728
vertex 7.23407737634002 25.0 5.21928658661312
vertex 8.74775404937304 25.0 7.82992812371728
endloop
endfacet
facet normal 0.666936307488253 0.0 -0.745114730597869
outer loop
vertex 5.20904531506479 25.0 2.98189715771496
vertex 2.76178332577839 0.0 1.21623154341199
vertex 2.76178332577839 25.0 1.21623154341199
endloop
endfacet
facet normal 0.496804430169861 0.0 -0.867862522617263
outer loop
vertex 2.76178332577839 0.0 1.21623154341199
vertex 5.20904531506479 25.0 2.98189715771496
vertex 5.20904531506479 0.0 2.98189715771496
endloop
endfacet
facet normal 0.912944770369011 0.0 0.408083136451231
outer loop
vertex 8.74775404937304 25.0 19.5700718762827
vertex 7.23407737634002 0.0 22.1807134133869
vertex 8.74775404937304 0.0 19.5700718762827
endloop
endfacet
facet normal 0.807715066657863 0.0 0.589573041356102
outer loop
vertex 7.23407737634002 0.0 22.1807134133869
vertex 8.74775404937304 25.0 19.5700718762827
vertex 7.23407737634002 25.0 22.1807134133869
endloop
endfacet
facet normal 0.977994061937242 0.0 -0.208632727095954
outer loop
vertex 9.68345558393627 25.0 10.6989225370883
vertex 10.0 0.0 13.7
vertex 9.68345558393627 0.0 10.6989225370883
endloop
endfacet
facet normal 1.0 0.0 0.0
outer loop
vertex 10.0 0.0 13.7
vertex 9.68345558393627 25.0 10.6989225370883
vertex 10.0 25.0 13.7
endloop
endfacet
facet normal 0.977994061937242 0.0 0.208632727095954
outer loop
vertex 9.68345558393627 25.0 16.7010774629117
vertex 8.74775404937304 0.0 19.5700718762827
vertex 9.68345558393627 0.0 16.7010774629117
endloop
endfacet
facet normal 0.912944770369011 0.0 0.408083136451231
outer loop
vertex 8.74775404937304 0.0 19.5700718762827
vertex 9.68345558393627 25.0 16.7010774629117
vertex 8.74775404937304 25.0 19.5700718762827
endloop
endfacet
facet normal 0.666936307488252 0.0 0.745114730597869
outer loop
vertex 5.20904531506479 0.0 24.418102842285
vertex 2.76178332577839 25.0 26.183768456588
vertex 2.76178332577839 0.0 26.183768456588
endloop
endfacet
facet normal 0.496804430169861 0.0 0.867862522617263
outer loop
vertex 2.76178332577839 25.0 26.183768456588
vertex 5.20904531506479 0.0 24.418102842285
vertex 5.20904531506479 25.0 24.418102842285
endloop
endfacet
facet normal 0.912944770369011 0.0 -0.408083136451231
outer loop
vertex 8.74775404937304 25.0 7.82992812371728
vertex 9.68345558393627 0.0 10.6989225370883
vertex 8.74775404937304 0.0 7.82992812371728
endloop
endfacet
facet normal 0.977994061937242 0.0 -0.208632727095954
outer loop
vertex 9.68345558393627 0.0 10.6989225370883
vertex 8.74775404937304 25.0 7.82992812371728
vertex 9.68345558393627 25.0 10.6989225370883
endloop
endfacet
facet normal 0.666936307488253 0.0 -0.745114730597869
outer loop
vertex 5.20904531506479 25.0 2.98189715771496
vertex 7.23407737634002 0.0 5.21928658661312
vertex 5.20904531506479 0.0 2.98189715771496
endloop
endfacet
facet normal 0.807715066657863 0.0 -0.589573041356102
outer loop
vertex 7.23407737634002 0.0 5.21928658661312
vertex 5.20904531506479 25.0 2.98189715771496
vertex 7.23407737634002 25.0 5.21928658661312
endloop
endfacet
facet normal -1.0 0.0 0.0
outer loop
vertex 0.0 12.5 1.2
vertex 0.0 0.0 0.0
vertex 0.0 0.0 6.2
endloop
endfacet
facet normal -1.0 0.0 0.0
outer loop
vertex 0.0 0.0 0.0
vertex 0.0 12.5 1.2
vertex 0.0 25.0 0.0
endloop
endfacet
facet normal -1.0 0.0 0.0
outer loop
vertex 0.0 25.0 0.0
vertex 0.0 12.5 1.2
vertex 0.0 25.0 6.2
endloop
endfacet
endsolid Half pipe
