solid glass-holder
facet normal 1.0 -0.0 -0.0
outer loop
vertex 0.0 3.4 19.0
vertex 0.0 0.0 49.0
vertex 0.0 0.0 19.0
endloop
endfacet
facet normal 1.0 -0.0 -0.0
outer loop
vertex 0.0 0.0 49.0
vertex 0.0 3.4 19.0
vertex 0.0 3.4 49.0
endloop
endfacet
facet normal -0.0 -0.0 1.0
outer loop
vertex 183.0 0.0 19.0
vertex 0.0 3.4 19.0
vertex 0.0 0.0 19.0
endloop
endfacet
facet normal -0.0 -0.0 1.0
outer loop
vertex 0.0 3.4 19.0
vertex 183.0 0.0 19.0
vertex 183.0 3.4 19.0
endloop
endfacet
facet normal -1.0 0.0 0.0
outer loop
vertex 183.0 3.4 49.0
vertex 183.0 0.0 19.0
vertex 183.0 0.0 49.0
endloop
endfacet
facet normal -1.0 0.0 0.0
outer loop
vertex 183.0 0.0 19.0
vertex 183.0 3.4 49.0
vertex 183.0 3.4 19.0
endloop
endfacet
facet normal -1.0 0.0 0.0
outer loop
vertex 180.0 4.9 49.0
vertex 180.0 3.4 20.999999999999996
vertex 180.0 3.4 49.0
endloop
endfacet
facet normal -1.0 0.0 0.0
outer loop
vertex 180.0 3.4 20.999999999999996
vertex 180.0 4.9 49.0
vertex 180.0 4.9 20.999999999999996
endloop
endfacet
facet normal -0.0 -0.0 1.0
outer loop
vertex 185.0 -1.5 49.0
vertex 180.0 0.0 49.0
vertex 180.0 -1.5 49.0
endloop
endfacet
facet normal -0.0 -0.0 1.0
outer loop
vertex 180.0 0.0 49.0
vertex 185.0 -1.5 49.0
vertex 183.0 0.0 49.0
endloop
endfacet
facet normal -0.0 -0.0 1.0
outer loop
vertex 183.0 0.0 49.0
vertex 185.0 -1.5 49.0
vertex 183.0 3.4 49.0
endloop
endfacet
facet normal -0.0 -0.0 1.0
outer loop
vertex 183.0 3.4 49.0
vertex 180.0 4.9 49.0
vertex 180.0 3.4 49.0
endloop
endfacet
facet normal -0.0 -0.0 1.0
outer loop
vertex 180.0 4.9 49.0
vertex 183.0 3.4 49.0
vertex 185.0 4.8999999999999995 49.0
endloop
endfacet
facet normal -0.0 -0.0 1.0
outer loop
vertex 185.0 4.8999999999999995 49.0
vertex 183.0 3.4 49.0
vertex 185.0 -1.5 49.0
endloop
endfacet
facet normal -1.0 0.0 0.0
outer loop
vertex 180.0 0.0 49.0
vertex 180.0 -1.5 20.999999999999996
vertex 180.0 -1.5 49.0
endloop
endfacet
facet normal -1.0 0.0 0.0
outer loop
vertex 180.0 -1.5 20.999999999999996
vertex 180.0 0.0 49.0
vertex 180.0 0.0 20.999999999999996
endloop
endfacet
facet normal 1.0 -0.0 -0.0
outer loop
vertex 3.0 0.0 20.999999999999996
vertex 3.0 -1.5 49.0
vertex 3.0 -1.5 20.999999999999996
endloop
endfacet
facet normal 1.0 -0.0 -0.0
outer loop
vertex 3.0 -1.5 49.0
vertex 3.0 0.0 20.999999999999996
vertex 3.0 0.0 49.0
endloop
endfacet
facet normal -0.0 -0.0 1.0
outer loop
vertex -1.9999999999999998 -1.4999999999999993 49.0
vertex 0.0 0.0 49.0
vertex -1.9999999999999998 4.9 49.0
endloop
endfacet
facet normal -0.0 -0.0 1.0
outer loop
vertex 0.0 0.0 49.0
vertex -1.9999999999999998 -1.4999999999999993 49.0
vertex 3.0 -1.5 49.0
endloop
endfacet
facet normal -0.0 -0.0 1.0
outer loop
vertex 0.0 0.0 49.0
vertex 3.0 -1.5 49.0
vertex 3.0 0.0 49.0
endloop
endfacet
facet normal -0.0 -0.0 1.0
outer loop
vertex -1.9999999999999998 4.9 49.0
vertex 0.0 3.4 49.0
vertex 3.0 4.9 49.0
endloop
endfacet
facet normal -0.0 -0.0 1.0
outer loop
vertex 0.0 3.4 49.0
vertex -1.9999999999999998 4.9 49.0
vertex 0.0 0.0 49.0
endloop
endfacet
facet normal -0.0 -0.0 1.0
outer loop
vertex 3.0 4.9 49.0
vertex 0.0 3.4 49.0
vertex 3.0 3.4 49.0
endloop
endfacet
facet normal -5.281924032864129e-18 -4.699944137579826e-16 1.0
outer loop
vertex 4.39999999999999 -1.4999999999999998 20.999999999999996
vertex 3.0 0.0 20.999999999999996
vertex 3.0 -1.5 20.999999999999996
endloop
endfacet
facet normal -5.281924032864129e-18 -4.699944137579826e-16 1.0
outer loop
vertex 3.0 0.0 20.999999999999996
vertex 4.39999999999999 -1.4999999999999998 20.999999999999996
vertex 180.0 0.0 20.999999999999996
endloop
endfacet
facet normal -5.281924032864129e-18 -4.699944137579826e-16 1.0
outer loop
vertex 180.0 0.0 20.999999999999996
vertex 4.39999999999999 -1.4999999999999998 20.999999999999996
vertex 178.60000000000002 -1.5 20.999999999999996
endloop
endfacet
facet normal -5.281924032864129e-18 -4.699944137579826e-16 1.0
outer loop
vertex 180.0 0.0 20.999999999999996
vertex 178.60000000000002 -1.5 20.999999999999996
vertex 180.0 -1.5 20.999999999999996
endloop
endfacet
facet normal -0.0 1.0 -0.0
outer loop
vertex 0.0 0.0 19.0
vertex 3.0 0.0 20.999999999999996
vertex 183.0 0.0 19.0
endloop
endfacet
facet normal -0.0 1.0 -0.0
outer loop
vertex 3.0 0.0 20.999999999999996
vertex 0.0 0.0 19.0
vertex 0.0 0.0 49.0
endloop
endfacet
facet normal -0.0 1.0 -0.0
outer loop
vertex 3.0 0.0 20.999999999999996
vertex 0.0 0.0 49.0
vertex 3.0 0.0 49.0
endloop
endfacet
facet normal -0.0 1.0 -0.0
outer loop
vertex 183.0 0.0 19.0
vertex 180.0 0.0 20.999999999999996
vertex 183.0 0.0 49.0
endloop
endfacet
facet normal -0.0 1.0 -0.0
outer loop
vertex 180.0 0.0 20.999999999999996
vertex 183.0 0.0 19.0
vertex 3.0 0.0 20.999999999999996
endloop
endfacet
facet normal -0.0 1.0 -0.0
outer loop
vertex 183.0 0.0 49.0
vertex 180.0 0.0 20.999999999999996
vertex 180.0 0.0 49.0
endloop
endfacet
facet normal 0.0 -1.0 0.0
outer loop
vertex 0.0 3.4 19.0
vertex 3.0 3.4 20.999999999999996
vertex 0.0 3.4 49.0
endloop
endfacet
facet normal 0.0 -1.0 0.0
outer loop
vertex 3.0 3.4 20.999999999999996
vertex 0.0 3.4 19.0
vertex 180.0 3.4 20.999999999999996
endloop
endfacet
facet normal 0.0 -1.0 0.0
outer loop
vertex 0.0 3.4 49.0
vertex 3.0 3.4 20.999999999999996
vertex 3.0 3.4 49.0
endloop
endfacet
facet normal 0.0 -1.0 0.0
outer loop
vertex 183.0 3.4 19.0
vertex 180.0 3.4 20.999999999999996
vertex 0.0 3.4 19.0
endloop
endfacet
facet normal 0.0 -1.0 0.0
outer loop
vertex 180.0 3.4 20.999999999999996
vertex 183.0 3.4 19.0
vertex 183.0 3.4 49.0
endloop
endfacet
facet normal 0.0 -1.0 0.0
outer loop
vertex 180.0 3.4 20.999999999999996
vertex 183.0 3.4 49.0
vertex 180.0 3.4 49.0
endloop
endfacet
facet normal 1.0 7.217890203269437e-32 4.511656466440238e-16
outer loop
vertex 185.00000000000003 24.5 -5.0
vertex 185.0 4.8999999999999995 20.999999999999996
vertex 185.0 4.8999999999999995 14.599999999999998
endloop
endfacet
facet normal 1.0 7.217890203269437e-32 4.511656466440238e-16
outer loop
vertex 185.0 4.8999999999999995 20.999999999999996
vertex 185.00000000000003 24.5 -5.0
vertex 185.00000000000003 30.899999999999995 -5.0
endloop
endfacet
facet normal 1.0 7.217890203269437e-32 4.511656466440238e-16
outer loop
vertex 185.00000000000003 -21.099999999999998 -5.0
vertex 185.0 -1.5 20.999999999999996
vertex 185.00000000000003 -27.499999999999996 -5.0
endloop
endfacet
facet normal 1.0 7.217890203269437e-32 4.511656466440238e-16
outer loop
vertex 185.0 -1.5 20.999999999999996
vertex 185.00000000000003 -21.099999999999998 -5.0
vertex 185.0 -1.5 14.599999999999998
endloop
endfacet
facet normal 1.0 7.217890203269437e-32 4.511656466440238e-16
outer loop
vertex 185.0 -1.5 20.999999999999996
vertex 185.0 -1.5 14.599999999999998
vertex 185.0 4.8999999999999995 14.599999999999998
endloop
endfacet
facet normal 1.0 7.217890203269437e-32 4.511656466440238e-16
outer loop
vertex 185.0 -1.5 20.999999999999996
vertex 185.0 4.8999999999999995 14.599999999999998
vertex 185.0 -1.5 49.0
endloop
endfacet
facet normal 1.0 7.217890203269437e-32 4.511656466440238e-16
outer loop
vertex 185.0 -1.5 49.0
vertex 185.0 4.8999999999999995 14.599999999999998
vertex 185.0 4.8999999999999995 49.0
endloop
endfacet
facet normal 1.0 7.217890203269437e-32 4.511656466440238e-16
outer loop
vertex 185.0 4.8999999999999995 49.0
vertex 185.0 4.8999999999999995 14.599999999999998
vertex 185.0 4.8999999999999995 20.999999999999996
endloop
endfacet
facet normal 1.5594848161090692e-17 -6.817715499959513e-33 -1.0
outer loop
vertex 4.4 4.9 14.599999999999996
vertex -1.9999999999999998 -1.4999999999999993 14.599999999999996
vertex -1.9999999999999998 4.9 14.599999999999996
endloop
endfacet
facet normal 1.5594848161090692e-17 -6.817715499959513e-33 -1.0
outer loop
vertex -1.9999999999999998 -1.4999999999999993 14.599999999999996
vertex 4.4 4.9 14.599999999999996
vertex 4.399999999999999 -1.4999999999999996 14.599999999999996
endloop
endfacet
facet normal 1.5594848161090692e-17 -6.817715499959513e-33 -1.0
outer loop
vertex 4.399999999999999 -1.4999999999999996 14.599999999999996
vertex 4.4 4.9 14.599999999999996
vertex 178.60000000000002 -1.5 14.599999999999998
endloop
endfacet
facet normal 1.5594848161090692e-17 -6.817715499959513e-33 -1.0
outer loop
vertex 178.60000000000002 -1.5 14.599999999999998
vertex 4.4 4.9 14.599999999999996
vertex 178.60000000000002 4.8999999999999995 14.599999999999998
endloop
endfacet
facet normal 1.5594848161090692e-17 -6.817715499959513e-33 -1.0
outer loop
vertex 178.60000000000002 -1.5 14.599999999999998
vertex 178.60000000000002 4.8999999999999995 14.599999999999998
vertex 185.0 4.8999999999999995 14.599999999999998
endloop
endfacet
facet normal 1.5594848161090692e-17 -6.817715499959513e-33 -1.0
outer loop
vertex 178.60000000000002 -1.5 14.599999999999998
vertex 185.0 4.8999999999999995 14.599999999999998
vertex 185.0 -1.5 14.599999999999998
endloop
endfacet
facet normal -1.0 0.0 0.0
outer loop
vertex 178.60000000000002 30.899999999999995 -5.0
vertex 178.60000000000002 4.8999999999999995 14.599999999999998
vertex 178.60000000000002 4.8999999999999995 20.999999999999996
endloop
endfacet
facet normal -1.0 0.0 0.0
outer loop
vertex 178.60000000000002 4.8999999999999995 14.599999999999998
vertex 178.60000000000002 30.899999999999995 -5.0
vertex 178.60000000000002 24.5 -5.0
endloop
endfacet
facet normal -2.3955191124628788e-18 -1.0 -1.5135793381996114e-17
outer loop
vertex 178.60000000000002 -1.5 14.599999999999998
vertex 4.39999999999999 -1.4999999999999998 18.999999999999996
vertex 4.399999999999999 -1.4999999999999996 14.599999999999996
endloop
endfacet
facet normal -2.3955191124628788e-18 -1.0 -1.5135793381996114e-17
outer loop
vertex 4.39999999999999 -1.4999999999999998 18.999999999999996
vertex 178.60000000000002 -1.5 14.599999999999998
vertex 178.60000000000002 -1.5 20.999999999999996
endloop
endfacet
facet normal -2.3955191124628788e-18 -1.0 -1.5135793381996114e-17
outer loop
vertex 4.39999999999999 -1.4999999999999998 18.999999999999996
vertex 178.60000000000002 -1.5 20.999999999999996
vertex 4.39999999999999 -1.4999999999999998 20.999999999999996
endloop
endfacet
facet normal 0.0 0.0 -1.0
outer loop
vertex 185.00000000000003 -21.099999999999998 -5.0
vertex 178.60000000000002 -27.499999999999996 -5.0
vertex 178.60000000000002 -21.099999999999998 -5.0
endloop
endfacet
facet normal 0.0 0.0 -1.0
outer loop
vertex 178.60000000000002 -27.499999999999996 -5.0
vertex 185.00000000000003 -21.099999999999998 -5.0
vertex 185.00000000000003 -27.499999999999996 -5.0
endloop
endfacet
facet normal 0.0 0.7071067811865475 -0.7071067811865475
outer loop
vertex 178.60000000000002 -1.5 14.599999999999998
vertex 185.00000000000003 -21.099999999999998 -5.0
vertex 178.60000000000002 -21.099999999999998 -5.0
endloop
endfacet
facet normal 0.0 0.7071067811865475 -0.7071067811865475
outer loop
vertex 185.00000000000003 -21.099999999999998 -5.0
vertex 178.60000000000002 -1.5 14.599999999999998
vertex 185.0 -1.5 14.599999999999998
endloop
endfacet
facet normal 1.4099832412739513e-16 1.0 -4.627801341490975e-34
outer loop
vertex 180.0 4.9 20.999999999999996
vertex 185.0 4.8999999999999995 49.0
vertex 185.0 4.8999999999999995 20.999999999999996
endloop
endfacet
facet normal 1.4099832412739513e-16 1.0 -4.627801341490975e-34
outer loop
vertex 185.0 4.8999999999999995 49.0
vertex 180.0 4.9 20.999999999999996
vertex 180.0 4.9 49.0
endloop
endfacet
facet normal 0.0 0.0 -1.0
outer loop
vertex 185.00000000000003 30.899999999999995 -5.0
vertex 178.60000000000002 24.5 -5.0
vertex 178.60000000000002 30.899999999999995 -5.0
endloop
endfacet
facet normal 0.0 0.0 -1.0
outer loop
vertex 178.60000000000002 24.5 -5.0
vertex 185.00000000000003 30.899999999999995 -5.0
vertex 185.00000000000003 24.5 -5.0
endloop
endfacet
facet normal 4.611033030603594e-31 -0.7071067811865475 -0.7071067811865475
outer loop
vertex 185.0 4.8999999999999995 14.599999999999998
vertex 178.60000000000002 24.5 -5.0
vertex 185.00000000000003 24.5 -5.0
endloop
endfacet
facet normal 4.611033030603594e-31 -0.7071067811865475 -0.7071067811865475
outer loop
vertex 178.60000000000002 24.5 -5.0
vertex 185.0 4.8999999999999995 14.599999999999998
vertex 178.60000000000002 4.8999999999999995 14.599999999999998
endloop
endfacet
facet normal 5.838528730328424e-17 0.7071067811865475 0.7071067811865475
outer loop
vertex 178.60000000000002 4.8999999999999995 20.999999999999996
vertex 185.00000000000003 30.899999999999995 -5.0
vertex 178.60000000000002 30.899999999999995 -5.0
endloop
endfacet
facet normal 5.838528730328424e-17 0.7071067811865475 0.7071067811865475
outer loop
vertex 185.00000000000003 30.899999999999995 -5.0
vertex 178.60000000000002 4.8999999999999995 20.999999999999996
vertex 185.0 4.8999999999999995 20.999999999999996
endloop
endfacet
facet normal 5.838528730328424e-17 0.7071067811865475 0.7071067811865475
outer loop
vertex 185.0 4.8999999999999995 20.999999999999996
vertex 178.60000000000002 4.8999999999999995 20.999999999999996
vertex 180.0 4.9 20.999999999999996
endloop
endfacet
facet normal 6.916549545905379e-31 -0.7071067811865476 -0.7071067811865474
outer loop
vertex 4.4 4.9 14.599999999999996
vertex -1.9999999999999998 24.49999999999999 -5.0
vertex 4.400000000000011 24.49999999999999 -5.0
endloop
endfacet
facet normal 6.916549545905379e-31 -0.7071067811865476 -0.7071067811865474
outer loop
vertex -1.9999999999999998 24.49999999999999 -5.0
vertex 4.4 4.9 14.599999999999996
vertex -1.9999999999999998 4.9 14.599999999999996
endloop
endfacet
facet normal 3.3936746681205955e-30 0.7071067811865472 0.7071067811865478
outer loop
vertex -0.5999999999999996 4.9 20.999999999999996
vertex -1.9999999999999998 30.900000000000016 -5.0
vertex -1.9999999999999998 4.9 20.999999999999996
endloop
endfacet
facet normal 3.3936746681205955e-30 0.7071067811865472 0.7071067811865478
outer loop
vertex -1.9999999999999998 30.900000000000016 -5.0
vertex -0.5999999999999996 4.9 20.999999999999996
vertex 4.400000000000011 30.900000000000016 -5.0
endloop
endfacet
facet normal 3.3936746681205955e-30 0.7071067811865472 0.7071067811865478
outer loop
vertex 4.400000000000011 30.900000000000016 -5.0
vertex -0.5999999999999996 4.9 20.999999999999996
vertex 3.0 4.9 20.999999999999996
endloop
endfacet
facet normal 3.3936746681205955e-30 0.7071067811865472 0.7071067811865478
outer loop
vertex 4.400000000000011 30.900000000000016 -5.0
vertex 3.0 4.9 20.999999999999996
vertex 4.399999999999989 4.9 20.999999999999996
endloop
endfacet
facet normal 0.0 0.0 -1.0
outer loop
vertex 4.400000000000011 30.900000000000016 -5.0
vertex -1.9999999999999998 24.49999999999999 -5.0
vertex -1.9999999999999998 30.900000000000016 -5.0
endloop
endfacet
facet normal 0.0 0.0 -1.0
outer loop
vertex -1.9999999999999998 24.49999999999999 -5.0
vertex 4.400000000000011 30.900000000000016 -5.0
vertex 4.400000000000011 24.49999999999999 -5.0
endloop
endfacet
facet normal 1.0 -0.0 -0.0
outer loop
vertex 3.0 4.9 20.999999999999996
vertex 3.0 3.4 49.0
vertex 3.0 3.4 20.999999999999996
endloop
endfacet
facet normal 1.0 -0.0 -0.0
outer loop
vertex 3.0 3.4 49.0
vertex 3.0 4.9 20.999999999999996
vertex 3.0 4.9 49.0
endloop
endfacet
facet normal 1.1728339561578444e-33 9.399888275159655e-16 1.0
outer loop
vertex 180.0 3.4 20.999999999999996
vertex 3.0 4.9 20.999999999999996
vertex 3.0 3.4 20.999999999999996
endloop
endfacet
facet normal 1.1728339561578444e-33 9.399888275159655e-16 1.0
outer loop
vertex 3.0 4.9 20.999999999999996
vertex 180.0 3.4 20.999999999999996
vertex 4.399999999999989 4.9 20.999999999999996
endloop
endfacet
facet normal 1.1728339561578444e-33 9.399888275159655e-16 1.0
outer loop
vertex 4.399999999999989 4.9 20.999999999999996
vertex 180.0 3.4 20.999999999999996
vertex 178.60000000000002 4.8999999999999995 20.999999999999996
endloop
endfacet
facet normal 1.1728339561578444e-33 9.399888275159655e-16 1.0
outer loop
vertex 178.60000000000002 4.8999999999999995 20.999999999999996
vertex 180.0 3.4 20.999999999999996
vertex 180.0 4.9 20.999999999999996
endloop
endfacet
facet normal -0.0 1.0 -0.0
outer loop
vertex -1.9999999999999998 4.9 49.0
vertex -0.5999999999999996 4.9 20.999999999999996
vertex -1.9999999999999998 4.9 20.999999999999996
endloop
endfacet
facet normal -0.0 1.0 -0.0
outer loop
vertex -0.5999999999999996 4.9 20.999999999999996
vertex -1.9999999999999998 4.9 49.0
vertex 3.0 4.9 20.999999999999996
endloop
endfacet
facet normal -0.0 1.0 -0.0
outer loop
vertex 3.0 4.9 20.999999999999996
vertex -1.9999999999999998 4.9 49.0
vertex 3.0 4.9 49.0
endloop
endfacet
facet normal -1.0 -1.3062843597891479e-17 -7.049463228812872e-18
outer loop
vertex -1.9999999999999998 -1.4999999999999998 20.999999999999996
vertex -1.9999999999999991 -21.100000000000016 -5.000000000000003
vertex -1.9999999999999991 -27.500000000000007 -5.000000000000003
endloop
endfacet
facet normal -1.0 -1.3062843597891479e-17 -7.049463228812872e-18
outer loop
vertex -1.9999999999999991 -21.100000000000016 -5.000000000000003
vertex -1.9999999999999998 -1.4999999999999998 20.999999999999996
vertex -1.9999999999999998 -1.4999999999999993 14.599999999999996
endloop
endfacet
facet normal -1.0 -1.3062843597891479e-17 -7.049463228812872e-18
outer loop
vertex -1.9999999999999998 -1.4999999999999993 14.599999999999996
vertex -1.9999999999999998 -1.4999999999999998 20.999999999999996
vertex -1.9999999999999998 -1.4999999999999993 49.0
endloop
endfacet
facet normal -1.0 -1.3062843597891479e-17 -7.049463228812872e-18
outer loop
vertex -1.9999999999999998 -1.4999999999999993 14.599999999999996
vertex -1.9999999999999998 -1.4999999999999993 49.0
vertex -1.9999999999999998 4.9 49.0
endloop
endfacet
facet normal -1.0 -1.3062843597891479e-17 -7.049463228812872e-18
outer loop
vertex -1.9999999999999998 -1.4999999999999993 14.599999999999996
vertex -1.9999999999999998 4.9 49.0
vertex -1.9999999999999998 4.9 14.599999999999996
endloop
endfacet
facet normal -1.0 -1.3062843597891479e-17 -7.049463228812872e-18
outer loop
vertex -1.9999999999999998 4.9 14.599999999999996
vertex -1.9999999999999998 4.9 49.0
vertex -1.9999999999999998 4.9 20.999999999999996
endloop
endfacet
facet normal -1.0 -1.3062843597891479e-17 -7.049463228812872e-18
outer loop
vertex -1.9999999999999998 4.9 14.599999999999996
vertex -1.9999999999999998 4.9 20.999999999999996
vertex -1.9999999999999998 30.900000000000016 -5.0
endloop
endfacet
facet normal -1.0 -1.3062843597891479e-17 -7.049463228812872e-18
outer loop
vertex -1.9999999999999998 4.9 14.599999999999996
vertex -1.9999999999999998 30.900000000000016 -5.0
vertex -1.9999999999999998 24.49999999999999 -5.0
endloop
endfacet
facet normal 4.047024228685271e-18 1.0 -1.6804535367679766e-33
outer loop
vertex 4.399999999999989 4.9 19.0
vertex 178.60000000000002 4.8999999999999995 14.599999999999998
vertex 4.4 4.9 14.599999999999996
endloop
endfacet
facet normal 4.047024228685271e-18 1.0 -1.6804535367679766e-33
outer loop
vertex 178.60000000000002 4.8999999999999995 14.599999999999998
vertex 4.399999999999989 4.9 19.0
vertex 178.60000000000002 4.8999999999999995 20.999999999999996
endloop
endfacet
facet normal 4.047024228685271e-18 1.0 -1.6804535367679766e-33
outer loop
vertex 178.60000000000002 4.8999999999999995 20.999999999999996
vertex 4.399999999999989 4.9 19.0
vertex 4.399999999999989 4.9 20.999999999999996
endloop
endfacet
facet normal -1.0745157741560707e-16 -1.0 5.60348268423399e-18
outer loop
vertex 3.0 -1.5 20.999999999999996
vertex -1.9999999999999998 -1.4999999999999998 20.999999999999996
vertex -0.6000000000000018 -1.4999999999999998 20.999999999999996
endloop
endfacet
facet normal -1.0745157741560707e-16 -1.0 5.60348268423399e-18
outer loop
vertex -1.9999999999999998 -1.4999999999999998 20.999999999999996
vertex 3.0 -1.5 20.999999999999996
vertex -1.9999999999999998 -1.4999999999999993 49.0
endloop
endfacet
facet normal -1.0745157741560707e-16 -1.0 5.60348268423399e-18
outer loop
vertex -1.9999999999999998 -1.4999999999999993 49.0
vertex 3.0 -1.5 20.999999999999996
vertex 3.0 -1.5 49.0
endloop
endfacet
facet normal -6.6726447265256e-17 -0.7071067811865474 0.7071067811865477
outer loop
vertex -1.9999999999999991 -27.500000000000007 -5.000000000000003
vertex -0.6000000000000018 -1.4999999999999998 20.999999999999996
vertex -1.9999999999999998 -1.4999999999999998 20.999999999999996
endloop
endfacet
facet normal -6.6726447265256e-17 -0.7071067811865474 0.7071067811865477
outer loop
vertex -0.6000000000000018 -1.4999999999999998 20.999999999999996
vertex -1.9999999999999991 -27.500000000000007 -5.000000000000003
vertex 4.400000000000013 -27.500000000000007 -5.000000000000003
endloop
endfacet
facet normal -6.6726447265256e-17 -0.7071067811865474 0.7071067811865477
outer loop
vertex -0.6000000000000018 -1.4999999999999998 20.999999999999996
vertex 4.400000000000013 -27.500000000000007 -5.000000000000003
vertex 3.0 -1.5 20.999999999999996
endloop
endfacet
facet normal -6.6726447265256e-17 -0.7071067811865474 0.7071067811865477
outer loop
vertex 3.0 -1.5 20.999999999999996
vertex 4.400000000000013 -27.500000000000007 -5.000000000000003
vertex 4.39999999999999 -1.4999999999999998 20.999999999999996
endloop
endfacet
facet normal 0.0 0.0 -1.0
outer loop
vertex 4.400000000000013 -21.100000000000016 -5.000000000000003
vertex -1.9999999999999991 -27.500000000000007 -5.000000000000003
vertex -1.9999999999999991 -21.100000000000016 -5.000000000000003
endloop
endfacet
facet normal 0.0 0.0 -1.0
outer loop
vertex -1.9999999999999991 -27.500000000000007 -5.000000000000003
vertex 4.400000000000013 -21.100000000000016 -5.000000000000003
vertex 4.400000000000013 -27.500000000000007 -5.000000000000003
endloop
endfacet
facet normal 7.728277974276665e-17 0.7071067811865471 -0.7071067811865478
outer loop
vertex 4.399999999999999 -1.4999999999999996 14.599999999999996
vertex -1.9999999999999991 -21.100000000000016 -5.000000000000003
vertex -1.9999999999999998 -1.4999999999999993 14.599999999999996
endloop
endfacet
facet normal 7.728277974276665e-17 0.7071067811865471 -0.7071067811865478
outer loop
vertex -1.9999999999999991 -21.100000000000016 -5.000000000000003
vertex 4.399999999999999 -1.4999999999999996 14.599999999999996
vertex 4.400000000000013 -21.100000000000016 -5.000000000000003
endloop
endfacet
facet normal 1.0 6.100520919654682e-16 1.419423026732921e-15
outer loop
vertex 4.400000000000011 24.49999999999999 -5.0
vertex 4.399999999999989 4.9 19.0
vertex 4.4 4.9 14.599999999999996
endloop
endfacet
facet normal 1.0 6.100520919654682e-16 1.419423026732921e-15
outer loop
vertex 4.399999999999989 4.9 19.0
vertex 4.400000000000011 24.49999999999999 -5.0
vertex 4.399999999999989 4.9 20.999999999999996
endloop
endfacet
facet normal 1.0 6.100520919654682e-16 1.419423026732921e-15
outer loop
vertex 4.399999999999989 4.9 20.999999999999996
vertex 4.400000000000011 24.49999999999999 -5.0
vertex 4.400000000000011 30.900000000000016 -5.0
endloop
endfacet
facet normal -1.1677057460656848e-16 -0.7071067811865476 0.7071067811865474
outer loop
vertex 185.0 -1.5 20.999999999999996
vertex 178.60000000000002 -27.499999999999996 -5.0
vertex 185.00000000000003 -27.499999999999996 -5.0
endloop
endfacet
facet normal -1.1677057460656848e-16 -0.7071067811865476 0.7071067811865474
outer loop
vertex 178.60000000000002 -27.499999999999996 -5.0
vertex 185.0 -1.5 20.999999999999996
vertex 178.60000000000002 -1.5 20.999999999999996
endloop
endfacet
facet normal -1.1677057460656848e-16 -0.7071067811865476 0.7071067811865474
outer loop
vertex 178.60000000000002 -1.5 20.999999999999996
vertex 185.0 -1.5 20.999999999999996
vertex 180.0 -1.5 20.999999999999996
endloop
endfacet
facet normal 0.0 -1.0 0.0
outer loop
vertex 185.0 -1.5 49.0
vertex 180.0 -1.5 20.999999999999996
vertex 185.0 -1.5 20.999999999999996
endloop
endfacet
facet normal 0.0 -1.0 0.0
outer loop
vertex 180.0 -1.5 20.999999999999996
vertex 185.0 -1.5 49.0
vertex 180.0 -1.5 49.0
endloop
endfacet
facet normal 1.0 -3.513620055745275e-16 1.1973633497885253e-15
outer loop
vertex 4.399999999999999 -1.4999999999999996 14.599999999999996
vertex 4.39999999999999 -1.4999999999999998 18.999999999999996
vertex 4.400000000000013 -21.100000000000016 -5.000000000000003
endloop
endfacet
facet normal 1.0 -3.513620055745275e-16 1.1973633497885253e-15
outer loop
vertex 4.400000000000013 -21.100000000000016 -5.000000000000003
vertex 4.39999999999999 -1.4999999999999998 20.999999999999996
vertex 4.400000000000013 -27.500000000000007 -5.000000000000003
endloop
endfacet
facet normal 1.0 -3.513620055745275e-16 1.1973633497885253e-15
outer loop
vertex 4.39999999999999 -1.4999999999999998 20.999999999999996
vertex 4.400000000000013 -21.100000000000016 -5.000000000000003
vertex 4.39999999999999 -1.4999999999999998 18.999999999999996
endloop
endfacet
facet normal -1.0 0.0 0.0
outer loop
vertex 178.60000000000002 -1.5 20.999999999999996
vertex 178.60000000000002 -21.099999999999998 -5.0
vertex 178.60000000000002 -27.499999999999996 -5.0
endloop
endfacet
facet normal -1.0 0.0 0.0
outer loop
vertex 178.60000000000002 -21.099999999999998 -5.0
vertex 178.60000000000002 -1.5 20.999999999999996
vertex 178.60000000000002 -1.5 14.599999999999998
endloop
endfacet
endsolid glass-holder
