# Alias OBJ Model File
# Exported from SketchUp, (c) 2000-2012 Trimble Navigation Limited
# File units = millimeters

mtllib motor-attachment.mtl

g Mesh1 Model

usemtl FrontColor
v 8.44338 6 -6.12456
vt -0.339587 0.23622
vn -0.940711 0 -0.339208
v 9.04058 6 -7.78074
vt -0.4089 0.23622
v 9.04058 0 -7.78074
vt -0.4089 0
v 8.44338 0 -6.12456
vt -0.339587 0
f 1/1/1 2/2/1 3/3/1 4/4/1 

v 1.75942 6 -7.78074
vt -0.0692686 0.306328
vn 0 -1 -0
v 3.51909 6 -7.72456
vt -0.138547 0.304117
v 4.00942 6 -9.41546
vt -0.157851 0.370687
v 5.4 6 -8.33571
vt -0.212598 0.328177
v 6.79058 6 -9.41546
vt -0.267346 0.370687
v 7.28091 6 -7.72456
vt -0.28665 0.304117
vt -0.355928 0.306328
vt -0.332417 0.241124
v 9.9 6 -5.13571
vt -0.389764 0.202193
v 8.44338 6 -4.14685
vt -0.332417 0.163262
v 9.04058 6 -2.49067
vt -0.355928 0.0980579
v 7.28091 6 -2.54685
vt -0.28665 0.10027
v 6.79058 6 -0.855951
vt -0.267346 0.0336989
v 5.4 6 -1.93571
vt -0.212598 0.0762089
v 4.00942 6 -0.855951
vt -0.157851 0.0336989
v 3.51909 6 -2.54685
vt -0.138547 0.10027
v 1.75942 6 -2.49067
vt -0.0692686 0.0980579
v 2.35662 6 -4.14685
vt -0.0927803 0.163262
v 0.9 6 -5.13571
vt -0.0354331 0.202193
v 2.35662 6 -6.12456
vt -0.0927803 0.241124
f 5/5/2 6/6/2 7/7/2 8/8/2 9/9/2 10/10/2 2/11/2 1/12/2 11/13/2 12/14/2 13/15/2 14/16/2 15/17/2 16/18/2 17/19/2 18/20/2 19/21/2 20/22/2 21/23/2 22/24/2 

vt 0.128772 0.23622
vn -0.0319099 0 0.999491
vt 0.0594585 0.23622
v 1.75942 0 -7.78074
vt 0.0594585 0
v 3.51909 0 -7.72456
vt 0.128772 0
f 6/25/3 5/26/3 23/27/3 24/28/3 

vt 0.26467 0.23622
vn 0.940711 0 -0.339208
vt 0.195357 0.23622
v 2.35662 0 -6.12456
vt 0.195357 0
vt 0.26467 0
f 5/29/4 22/30/4 25/31/4 23/32/4 

vt 0.212195 0.23622
vn 0.56167 0 0.827361
vt 0.142882 0.23622
v 0.9 0 -5.13571
vt 0.142882 0
vt 0.212195 0
f 22/33/5 21/34/5 26/35/5 25/36/5 

vt 0.0842499 0.23622
vn 0.56167 0 -0.827361
vt 0.0149365 0.23622
v 2.35662 0 -4.14685
vt 0.0149365 0
vt 0.0842499 0
f 21/37/6 20/38/6 27/39/6 26/40/6 

vt 0.185054 0.23622
vn 0.940711 0 0.339208
vt 0.115741 0.23622
v 1.75942 0 -2.49067
vt 0.115741 0
vt 0.185054 0
f 20/41/7 19/42/7 28/43/7 27/44/7 

vt -0.0723624 0.23622
vn -0.0319099 0 -0.999491
vt -0.141676 0.23622
v 3.51909 0 -2.54685
vt -0.141676 0
vt -0.0723624 0
f 19/45/8 18/46/8 29/47/8 28/48/8 

vt 0.0577155 0.23622
vn 0.960433 0 -0.278512
vt -0.0115979 0.23622
v 4.00942 0 -0.855951
vt -0.0115979 0
vt 0.0577155 0
f 18/49/9 17/50/9 30/51/9 29/52/9 

vt -0.145346 0.23622
vn -0.613302 0 -0.789849
vt -0.21466 0.23622
v 5.4 0 -1.93571
vt -0.21466 0
vt -0.145346 0
f 17/53/10 16/54/10 31/55/10 30/56/10 

vt -0.121182 0.23622
vn 0.613302 0 -0.789849
vt -0.190495 0.23622
v 6.79058 0 -0.855951
vt -0.190495 0
vt -0.121182 0
f 16/57/11 15/58/11 32/59/11 31/60/11 

vt -0.106824 0.23622
vn -0.960433 0 -0.278512
vt -0.176138 0.23622
v 7.28091 0 -2.54685
vt -0.176138 0
vt -0.106824 0
f 15/61/12 14/62/12 33/63/12 32/64/12 

vt -0.283305 0.23622
vn 0.0319099 0 -0.999491
vt -0.352618 0.23622
v 9.04058 0 -2.49067
vt -0.352618 0
vt -0.283305 0
f 14/65/13 13/66/13 34/67/13 33/68/13 

vt 0.0284894 0.23622
vn -0.940711 0 0.339208
vt -0.040824 0.23622
v 8.44338 0 -4.14685
vt -0.040824 0
vt 0.0284894 0
f 13/69/14 12/70/14 35/71/14 34/72/14 

vt -0.366728 0.23622
vn -0.56167 0 -0.827361
vt -0.436041 0.23622
v 9.9 0 -5.13571
vt -0.436041 0
vt -0.366728 0
f 12/73/15 11/74/15 36/75/15 35/76/15 

vt 0.20891 0.23622
vn -0.56167 0 0.827361
vt 0.139596 0.23622
vt 0.139596 0
vt 0.20891 0
f 11/77/16 1/78/16 4/79/16 36/80/16 

f 3/11/2 36/13/2 4/12/2

v 9.76869 0 -8.30975
vt -0.384594 0.327155
f 36/13/2 3/11/2 37/81/2

v 7.28091 0 -7.72456
f 38/10/2 37/81/2 3/11/2

v 7.06869 0 -10.2714
vt -0.278295 0.404386
f 38/10/2 39/82/2 37/81/2

v 6.79058 0 -9.41546
f 40/9/2 39/82/2 38/10/2

v 5.4 0 -8.33571
f 41/8/2 39/82/2 40/9/2

v 4.00942 0 -9.41546
f 42/7/2 39/82/2 41/8/2

v 3.73131 0 -10.2714
vt -0.146902 0.404386
f 42/7/2 43/83/2 39/82/2

f 24/6/2 43/83/2 42/7/2

f 23/5/2 43/83/2 24/6/2

v 1.03131 0 -8.30975
vt -0.0406027 0.327155
f 43/83/2 23/5/2 44/84/2

f 25/24/2 44/84/2 23/5/2

f 26/23/2 44/84/2 25/24/2

v 0 0 -5.13571
vt 0 0.202193
f 44/84/2 26/23/2 45/85/2

v 1.03131 0 -1.96166
vt -0.0406027 0.0772309
f 26/23/2 46/86/2 45/85/2

f 46/86/2 26/23/2 27/22/2

f 46/86/2 27/22/2 28/21/2

v 3.73131 0 -0
vt -0.146902 0
f 28/21/2 47/87/2 46/86/2

f 47/87/2 28/21/2 29/20/2

f 47/87/2 29/20/2 30/19/2

v 7.06869 0 -0
vt -0.278295 0
f 47/87/2 30/19/2 48/88/2

f 48/88/2 30/19/2 31/18/2

f 48/88/2 31/18/2 32/17/2

f 48/88/2 32/17/2 33/16/2

v 9.76869 0 -1.96166
vt -0.384594 0.0772309
f 48/88/2 33/16/2 49/89/2

f 49/89/2 33/16/2 34/15/2

f 34/15/2 36/13/2 49/89/2

f 36/13/2 34/15/2 35/14/2

v 10.8 0 -5.13571
vt -0.425197 0.202193
f 49/89/2 36/13/2 50/90/2

f 36/13/2 37/81/2 50/90/2

vt 0.192297 0
vn 0.809017 1.98508e-18 -0.587785
v 9.76869 11.6 -8.30975
vt 0.192297 0.456693
v 10.8 11.6 -5.13571
vt 0.060904 0.456693
vn 1 0 -2.04288e-16
vt 0.060904 0
f 37/91/17 51/92/17 52/93/18 50/94/18 

vt 0.0125469 -1.85293e-18
vn 0.309017 1.98508e-18 -0.951057
v 7.06869 11.6 -10.2714
vt 0.0125469 0.456693
vt -0.118846 0.456693
vt -0.118846 -1.85293e-18
f 39/95/19 53/96/19 51/97/17 37/98/17 

vn -0.309017 0 -0.951057
v 3.73131 11.6 -10.2714
vt -0.146902 0.456693
vt -0.278295 0.456693
f 43/87/20 54/99/20 53/100/19 39/88/19 

vt -0.225145 0
vn -0.809017 -1.00441e-18 -0.587785
v 1.03131 11.6 -8.30975
vt -0.225145 0.456693
vt -0.356538 0.456693
vt -0.356538 0
f 44/101/21 55/102/21 54/103/20 43/104/20 

vt -0.192297 1.1937e-19
vn -1 -1.00441e-18 -2.04288e-16
v -5.83753e-16 11.6 -5.13571
vt -0.192297 0.456693
vt -0.32369 0.456693
vt -0.32369 1.1937e-19
f 45/105/22 56/106/22 55/107/21 44/108/21 

vt -0.060904 0
vn -0.809017 0 0.587785
v 1.03131 11.6 -1.96166
vt -0.060904 0.456693
vt -0.192297 0
f 46/109/23 57/110/23 56/106/22 45/111/22 

vt 0.118846 0
vn -0.309017 0 0.951057
v 3.73131 11.6 -3.07668e-15
vt 0.118846 0.456693
vt -0.0125469 0.456693
vt -0.0125469 0
f 47/112/24 58/113/24 57/114/23 46/115/23 

vt 0.278295 0
vn 0.309017 0 0.951057
v 7.06869 11.6 -3.07668e-15
vt 0.278295 0.456693
vt 0.146902 0.456693
vt 0.146902 0
f 48/116/25 59/117/25 58/118/24 47/119/24 

vt 0.356538 0
vn 0.809017 0 0.587785
v 9.76869 11.6 -1.96166
vt 0.356538 0.456693
vt 0.225145 0.456693
vt 0.225145 0
f 49/120/26 60/121/26 59/122/25 48/123/25 

vt 0.32369 0
vt 0.32369 0.456693
f 50/124/18 52/125/18 60/92/26 49/91/26 

vt 0.384594 0.327155
vn -1.42379e-16 1 -7.5041e-16
vt 0.384594 0.0772309
vt 0.425197 0.202193
f 51/126/27 60/127/27 52/128/27

v 7.1 11.6 -5.13571
vt 0.279528 0.202193
f 51/126/27 61/129/27 60/127/27

vt 0.278295 0.404386
f 53/130/27 61/129/27 51/126/27

v 5.4 11.6 -6.83571
vt 0.212598 0.269122
f 53/130/27 62/131/27 61/129/27

vt 0.146902 0.404386
f 54/132/27 62/131/27 53/130/27

v 3.7 11.6 -5.13571
vt 0.145669 0.202193
f 54/132/27 63/133/27 62/131/27

vt 0.0406027 0.327155
f 63/133/27 54/132/27 55/134/27

vt 0.146902 -2.21578e-16
f 55/134/27 58/135/27 63/133/27

vt 0.0406027 0.0772309
f 55/134/27 57/136/27 58/135/27

vt 4.2041e-17 0.202193
f 57/136/27 55/134/27 56/137/27

v 5.4 11.6 -3.43571
vt 0.212598 0.135264
f 63/133/27 58/135/27 64/138/27

vt 0.278295 -2.21578e-16
f 64/138/27 58/135/27 59/139/27

f 64/138/27 59/139/27 61/129/27

f 61/129/27 59/139/27 60/127/27

v 7.1 7.5 -5.13571
vt -0.340628 0.295276
vn -0.707107 -6.31297e-16 -0.707107
v 5.4 7.5 -3.43571
vt -0.245976 0.295276
vt -0.245976 0.456693
vt -0.340628 0.456693
f 65/140/28 66/141/28 64/142/28 61/143/28 

vn 0 1 -0
v 5.4 7.5 -6.83571
v 5.4 7.5 -6.64113
vt 0.212598 0.261462
v 6.90542 7.5 -5.13571
vt 0.271867 0.202193
v 5.4 7.5 -3.63028
vt 0.212598 0.142925
f 66/138/29 65/129/29 67/131/29 68/144/29 69/145/29 70/146/29 

vt -0.0399684 0.295276
vn -0.707107 4.29943e-16 0.707107
vt 0.0546837 0.295276
vt 0.0546837 0.456693
vt -0.0399684 0.456693
f 67/147/30 65/148/30 61/149/30 62/150/30 

v 3.7 7.5 -5.13571
vt 0.245976 0.295276
vn 0.707107 6.31297e-16 0.707107
vt 0.340628 0.295276
vt 0.340628 0.456693
vt 0.245976 0.456693
f 71/151/31 67/152/31 62/153/31 63/154/31 

v 3.89458 7.5 -5.13571
vt 0.15333 0.202193
f 67/131/29 71/133/29 66/138/29 70/146/29 72/155/29 68/144/29 

vt -0.0546837 0.295276
vn 0.707107 -4.29943e-16 -0.707107
vt 0.0399684 0.295276
vt 0.0399684 0.456693
vt -0.0546837 0.456693
f 66/156/32 71/157/32 63/158/32 64/159/32 

vt 0.0345516 0.0189448
vn 0.484144 0.728841 -0.484144
vt -0.0492669 0.0189448
v 5.4 6.5 -5.13571
vt -0.00735766 -0.0385564
f 72/160/33 70/161/33 73/162/33

vt -0.251393 0.238078
vn -0.484144 0.728841 -0.484144
vt -0.335211 0.238078
vt -0.293302 0.180577
f 70/163/34 69/164/34 73/165/34

vt 0.0492669 0.446486
vn -0.484144 0.728841 0.484144
vt -0.0345516 0.446486
vt 0.00735766 0.388985
f 69/166/35 68/167/35 73/168/35

vt 0.335211 0.227353
vn 0.484144 0.728841 0.484144
vt 0.251393 0.227353
vt 0.293302 0.169852
f 68/169/36 72/170/36 73/171/36

vt 0.399984 0.23622
vn 0.960433 0 0.278512
vt 0.33067 0.23622
vt 0.33067 0
vt 0.399984 0
f 7/172/37 6/173/37 24/174/37 42/175/37 

vt -0.0333511 0.23622
vn -0.613302 0 0.789849
vt -0.102664 0.23622
vt -0.102664 0
vt -0.0333511 0
f 8/176/38 7/177/38 42/178/38 41/179/38 

vt 0.438506 0.23622
vn 0.613302 0 0.789849
vt 0.369192 0.23622
vt 0.369192 0
vt 0.438506 0
f 9/180/39 8/181/39 41/182/39 40/183/39 

vt -0.212248 0.23622
vn -0.960433 0 0.278512
vt -0.281562 0.23622
vt -0.281562 0
vt -0.212248 0
f 10/184/40 9/185/40 40/186/40 38/187/40 

vt 0.365522 0.23622
vn 0.0319099 0 0.999491
vt 0.296208 0.23622
vt 0.296208 0
vt 0.365522 0
f 2/188/41 10/189/41 38/190/41 3/191/41 

