solid foot
facet normal -1.0 0.0 0.0
outer loop
vertex 65.0 71.2916512459889 13.0
vertex 65.0 66.2916512459889 0.0
vertex 65.0 66.2916512459889 13.0
endloop
endfacet
facet normal -1.0 0.0 0.0
outer loop
vertex 65.0 66.2916512459889 0.0
vertex 65.0 71.2916512459889 13.0
vertex 65.0 71.2916512459889 0.0
endloop
endfacet
facet normal 0.0 0.0 -1.0
outer loop
vertex 65.0 76.2916512459889 0.0
vertex 65.0 66.2916512459889 0.0
vertex 65.0 71.2916512459889 0.0
endloop
endfacet
facet normal 0.0 0.0 -1.0
outer loop
vertex 77.9903810567666 83.7916512459889 0.0
vertex 67.5980762113533 74.7916512459888 0.0
vertex 65.0 76.2916512459889 0.0
endloop
endfacet
facet normal 0.0 0.0 -1.0
outer loop
vertex 67.5980762113533 74.7916512459888 0.0
vertex 77.9903810567666 83.7916512459889 0.0
vertex 77.9903810567666 80.7916512459888 0.0
endloop
endfacet
facet normal 0.0 0.0 -1.0
outer loop
vertex 77.9903810567666 80.7916512459888 0.0
vertex 77.9903810567666 83.7916512459889 0.0
vertex 82.3205080756888 81.2916512459889 0.0
endloop
endfacet
facet normal 0.0 0.0 -1.0
outer loop
vertex 77.9903810567666 80.7916512459888 0.0
vertex 82.3205080756888 81.2916512459889 0.0
vertex 88.3826859021798 74.7916512459888 0.0
endloop
endfacet
facet normal 0.0 0.0 -1.0
outer loop
vertex 88.3826859021798 74.7916512459888 0.0
vertex 82.3205080756888 81.2916512459889 0.0
vertex 86.650635094611 78.7916512459888 0.0
endloop
endfacet
facet normal 0.0 0.0 -1.0
outer loop
vertex 88.3826859021798 74.7916512459888 0.0
vertex 86.650635094611 78.7916512459888 0.0
vertex 90.9807621135332 76.2916512459889 0.0
endloop
endfacet
facet normal 0.0 0.0 -1.0
outer loop
vertex 88.3826859021798 74.7916512459888 0.0
vertex 90.9807621135332 76.2916512459889 0.0
vertex 88.3826859021799 62.7916512459889 0.0
endloop
endfacet
facet normal 0.0 0.0 -1.0
outer loop
vertex 65.0 61.2916512459888 0.0
vertex 67.5980762113534 62.7916512459889 0.0
vertex 77.9903810567666 53.7916512459888 0.0
endloop
endfacet
facet normal 0.0 0.0 -1.0
outer loop
vertex 67.5980762113534 62.7916512459889 0.0
vertex 65.0 61.2916512459888 0.0
vertex 65.0 66.2916512459889 0.0
endloop
endfacet
facet normal 0.0 0.0 -1.0
outer loop
vertex 67.5980762113534 62.7916512459889 0.0
vertex 65.0 66.2916512459889 0.0
vertex 65.0 76.2916512459889 0.0
endloop
endfacet
facet normal 0.0 0.0 -1.0
outer loop
vertex 67.5980762113534 62.7916512459889 0.0
vertex 65.0 76.2916512459889 0.0
vertex 67.5980762113533 74.7916512459888 0.0
endloop
endfacet
facet normal 0.0 0.0 -1.0
outer loop
vertex 77.9903810567666 53.7916512459888 0.0
vertex 67.5980762113534 62.7916512459889 0.0
vertex 77.9903810567666 56.7916512459889 0.0
endloop
endfacet
facet normal 0.0 0.0 -1.0
outer loop
vertex 77.9903810567666 53.7916512459888 0.0
vertex 77.9903810567666 56.7916512459889 0.0
vertex 88.3826859021799 62.7916512459889 0.0
endloop
endfacet
facet normal 0.0 0.0 -1.0
outer loop
vertex 77.9903810567666 53.7916512459888 0.0
vertex 88.3826859021799 62.7916512459889 0.0
vertex 82.3205080756888 56.2916512459888 0.0
endloop
endfacet
facet normal 0.0 0.0 -1.0
outer loop
vertex 82.3205080756888 56.2916512459888 0.0
vertex 88.3826859021799 62.7916512459889 0.0
vertex 86.650635094611 58.7916512459885 0.0
endloop
endfacet
facet normal 0.0 0.0 -1.0
outer loop
vertex 86.650635094611 58.7916512459885 0.0
vertex 88.3826859021799 62.7916512459889 0.0
vertex 90.9807621135332 61.2916512459888 0.0
endloop
endfacet
facet normal 0.0 0.0 -1.0
outer loop
vertex 90.9807621135332 61.2916512459888 0.0
vertex 88.3826859021799 62.7916512459889 0.0
vertex 90.9807621135332 76.2916512459889 0.0
endloop
endfacet
facet normal -1.0 0.0 0.0
outer loop
vertex 0.0 71.2916512459889 4.0
vertex 0.0 66.2916512459889 0.0
vertex 0.0 66.2916512459889 4.0
endloop
endfacet
facet normal -1.0 0.0 0.0
outer loop
vertex 0.0 66.2916512459889 0.0
vertex 0.0 71.2916512459889 4.0
vertex 0.0 71.2916512459889 0.0
endloop
endfacet
facet normal 0.0 -1.0 0.0
outer loop
vertex 65.0 66.2916512459889 13.0
vertex 0.0 66.2916512459889 0.0
vertex 65.0 66.2916512459889 0.0
endloop
endfacet
facet normal 0.0 -1.0 0.0
outer loop
vertex 0.0 66.2916512459889 0.0
vertex 65.0 66.2916512459889 13.0
vertex 0.0 66.2916512459889 4.0
endloop
endfacet
facet normal -0.137153058475343 0.0 0.990549866766363
outer loop
vertex 65.0 66.2916512459889 13.0
vertex 0.0 71.2916512459889 4.0
vertex 0.0 66.2916512459889 4.0
endloop
endfacet
facet normal -0.137153058475343 0.0 0.990549866766363
outer loop
vertex 0.0 71.2916512459889 4.0
vertex 65.0 66.2916512459889 13.0
vertex 65.0 71.2916512459889 13.0
endloop
endfacet
facet normal 1.0 4.69994413757984e-016 0.0
outer loop
vertex 67.5980762113533 74.7916512459888 0.0
vertex 67.5980762113534 62.7916512459889 5.0
vertex 67.5980762113534 62.7916512459889 0.0
endloop
endfacet
facet normal 1.0 4.69994413757984e-016 0.0
outer loop
vertex 67.5980762113534 62.7916512459889 5.0
vertex 67.5980762113533 74.7916512459888 0.0
vertex 67.5980762113533 74.7916512459888 5.0
endloop
endfacet
facet normal 0.0 1.0 0.0
outer loop
vertex 0.0 71.2916512459889 4.0
vertex 65.0 71.2916512459889 0.0
vertex 0.0 71.2916512459889 0.0
endloop
endfacet
facet normal 0.0 1.0 0.0
outer loop
vertex 65.0 71.2916512459889 0.0
vertex 0.0 71.2916512459889 4.0
vertex 65.0 71.2916512459889 13.0
endloop
endfacet
facet normal 0.0 0.707106781186543 -0.707106781186552
outer loop
vertex 120.980762113533 72.6807385425149 6.61091270347399
vertex 88.3826859021798 70.8964101239968 5.41866257118792
vertex 88.3826859021798 72.6807385425149 6.61091270347399
endloop
endfacet
facet normal -2.20650570618808e-018 0.38268343236509 -0.923879532511287
outer loop
vertex 88.3826859021798 70.8964101239968 5.41866257118792
vertex 120.980762113533 72.6807385425149 6.61091270347399
vertex 120.980762113533 70.8964101239968 5.41866257118792
endloop
endfacet
facet normal -9.41002024370547e-018 0.19509032201613 0.98078528040323
outer loop
vertex 120.980762113533 68.7916512459889 16.0
vertex 88.3826859021798 70.8964101239968 15.5813374288121
vertex 88.3826859021798 68.7916512459889 16.0
endloop
endfacet
facet normal -4.79718671952169e-018 0.38268343236509 0.923879532511287
outer loop
vertex 88.3826859021798 70.8964101239968 15.5813374288121
vertex 120.980762113533 68.7916512459889 16.0
vertex 120.980762113533 70.8964101239968 15.5813374288121
endloop
endfacet
facet normal 0.0 0.923879532511285 -0.382683432365094
outer loop
vertex 88.3826859021798 73.872988674801 8.39524112199201
vertex 120.980762113533 72.6807385425149 6.61091270347399
vertex 88.3826859021798 72.6807385425149 6.61091270347399
endloop
endfacet
facet normal 0.0 0.707106781186543 -0.707106781186552
outer loop
vertex 120.980762113533 72.6807385425149 6.61091270347399
vertex 88.3826859021798 73.872988674801 8.39524112199201
vertex 120.980762113533 73.872988674801 8.39524112199201
endloop
endfacet
facet normal -0.866025403784437 0.500000000000002 0.0
outer loop
vertex 114.820508075689 137.583302491977 4.0
vertex 82.3205080756888 81.2916512459889 0.0
vertex 82.3205080756888 81.2916512459889 13.0
endloop
endfacet
facet normal -0.866025403784437 0.500000000000002 0.0
outer loop
vertex 82.3205080756888 81.2916512459889 0.0
vertex 114.820508075689 137.583302491977 4.0
vertex 114.820508075689 137.583302491977 0.0
endloop
endfacet
facet normal 0.0 0.0 -1.0
outer loop
vertex 77.9903810567666 80.7916512459888 0.0
vertex 67.5980762113534 62.7916512459889 0.0
vertex 67.5980762113533 74.7916512459888 0.0
endloop
endfacet
facet normal 0.0 0.0 -1.0
outer loop
vertex 67.5980762113534 62.7916512459889 0.0
vertex 77.9903810567666 80.7916512459888 0.0
vertex 77.9903810567666 56.7916512459889 0.0
endloop
endfacet
facet normal 0.0 0.0 -1.0
outer loop
vertex 77.9903810567666 56.7916512459889 0.0
vertex 77.9903810567666 80.7916512459888 0.0
vertex 88.3826859021798 74.7916512459888 0.0
endloop
endfacet
facet normal 0.0 0.0 -1.0
outer loop
vertex 77.9903810567666 56.7916512459889 0.0
vertex 88.3826859021798 74.7916512459888 0.0
vertex 88.3826859021799 62.7916512459889 0.0
endloop
endfacet
facet normal 0.0 0.0 1.0
outer loop
vertex 80.5573683548744 70.2737020535577 3.0
vertex 80.7403810567666 74.5547909668032 3.0
vertex 79.413030787577 72.2557528611266 3.0
endloop
endfacet
facet normal 0.0 0.0 1.0
outer loop
vertex 80.7403810567666 74.5547909668032 3.0
vertex 80.5573683548744 70.2737020535577 3.0
vertex 81.7017059221718 68.2916512459888 3.0
endloop
endfacet
facet normal 0.0 0.0 1.0
outer loop
vertex 80.7403810567666 74.5547909668032 3.0
vertex 81.7017059221718 68.2916512459888 3.0
vertex 84.356406460551 68.2916512459888 3.0
endloop
endfacet
facet normal 0.0 0.707106781186543 0.707106781186552
outer loop
vertex 88.3826859021798 72.6807385425149 14.389087296526
vertex 120.980762113533 73.872988674801 12.604758878008
vertex 88.3826859021798 73.872988674801 12.604758878008
endloop
endfacet
facet normal 0.0 0.923879532511285 0.382683432365094
outer loop
vertex 120.980762113533 73.872988674801 12.604758878008
vertex 88.3826859021798 72.6807385425149 14.389087296526
vertex 120.980762113533 72.6807385425149 14.389087296526
endloop
endfacet
facet normal 0.0 0.0 1.0
outer loop
vertex 74.2790561913614 68.2916512459888 3.0
vertex 75.2403810567666 74.5547909668032 3.0
vertex 71.6243556529822 68.2916512459888 3.0
endloop
endfacet
facet normal 0.0 0.0 1.0
outer loop
vertex 75.2403810567666 74.5547909668032 3.0
vertex 74.2790561913614 68.2916512459888 3.0
vertex 75.4233937586588 70.2737020535577 3.0
endloop
endfacet
facet normal 0.0 0.0 1.0
outer loop
vertex 75.2403810567666 74.5547909668032 3.0
vertex 75.4233937586588 70.2737020535577 3.0
vertex 76.5677313259562 72.2557528611266 3.0
endloop
endfacet
facet normal 0.0685765292376715 0.11877803284638 0.990549866766363
outer loop
vertex 86.650635094611 78.7916512459888 13.0
vertex 114.820508075689 137.583302491977 4.0
vertex 82.3205080756888 81.2916512459889 13.0
endloop
endfacet
facet normal 0.0685765292376715 0.11877803284638 0.990549866766363
outer loop
vertex 114.820508075689 137.583302491977 4.0
vertex 86.650635094611 78.7916512459888 13.0
vertex 119.150635094611 135.083302491977 4.0
endloop
endfacet
facet normal 0.0 1.0 0.0
outer loop
vertex 88.3826859021798 74.2916512459889 10.5
vertex 120.980762113533 73.872988674801 8.39524112199201
vertex 88.3826859021798 73.872988674801 8.39524112199201
endloop
endfacet
facet normal 0.0 0.923879532511285 -0.382683432365094
outer loop
vertex 120.980762113533 73.872988674801 8.39524112199201
vertex 88.3826859021798 74.2916512459889 10.5
vertex 120.980762113533 74.2916512459889 10.5
endloop
endfacet
facet normal 0.866025403784438 -0.500000000000001 -8.19213817704434e-016
outer loop
vertex 119.150635094611 135.083302491977 0.0
vertex 86.650635094611 78.7916512459888 13.0
vertex 86.650635094611 78.7916512459888 0.0
endloop
endfacet
facet normal 0.866025403784438 -0.500000000000001 -8.19213817704434e-016
outer loop
vertex 86.650635094611 78.7916512459888 13.0
vertex 119.150635094611 135.083302491977 0.0
vertex 119.150635094611 135.083302491977 4.0
endloop
endfacet
facet normal -2.20650570618807e-018 0.382683432365091 -0.923879532511286
outer loop
vertex 120.980762113533 70.8964101239968 5.41866257118792
vertex 88.3826859021798 68.7916512459889 5.0
vertex 88.3826859021798 70.8964101239968 5.41866257118792
endloop
endfacet
facet normal -4.32821663551001e-018 0.195090322016131 -0.98078528040323
outer loop
vertex 88.3826859021798 68.7916512459889 5.0
vertex 120.980762113533 70.8964101239968 5.41866257118792
vertex 120.980762113533 68.7916512459889 5.0
endloop
endfacet
facet normal 0.0 0.923879532511285 0.382683432365094
outer loop
vertex 88.3826859021798 73.872988674801 12.604758878008
vertex 120.980762113533 74.2916512459889 10.5
vertex 88.3826859021798 74.2916512459889 10.5
endloop
endfacet
facet normal 0.0 1.0 0.0
outer loop
vertex 120.980762113533 74.2916512459889 10.5
vertex 88.3826859021798 73.872988674801 12.604758878008
vertex 120.980762113533 73.872988674801 12.604758878008
endloop
endfacet
facet normal 0.499999999999957 -0.866025403784463 0.0
outer loop
vertex 86.650635094611 58.7916512459885 13.0
vertex 82.3205080756888 56.2916512459888 0.0
vertex 86.650635094611 58.7916512459885 0.0
endloop
endfacet
facet normal 0.499999999999957 -0.866025403784463 0.0
outer loop
vertex 82.3205080756888 56.2916512459888 0.0
vertex 86.650635094611 58.7916512459885 13.0
vertex 82.3205080756888 56.2916512459888 13.0
endloop
endfacet
facet normal 0.0 0.0 1.0
outer loop
vertex 81.606406460551 63.5285115251744 3.0
vertex 75.7017059221718 65.8275496308511 3.0
vertex 74.3743556529821 63.5285115251744 3.0
endloop
endfacet
facet normal 0.0 0.0 1.0
outer loop
vertex 75.7017059221718 65.8275496308511 3.0
vertex 81.606406460551 63.5285115251744 3.0
vertex 77.9903810567666 65.8275496308511 3.0
endloop
endfacet
facet normal 0.0 0.0 1.0
outer loop
vertex 77.9903810567666 65.8275496308511 3.0
vertex 81.606406460551 63.5285115251744 3.0
vertex 80.2790561913614 65.8275496308511 3.0
endloop
endfacet
facet normal 0.0 0.0 -1.0
outer loop
vertex 114.820508075689 137.583302491977 0.0
vertex 86.650635094611 78.7916512459888 0.0
vertex 82.3205080756888 81.2916512459889 0.0
endloop
endfacet
facet normal 0.0 0.0 -1.0
outer loop
vertex 86.650635094611 78.7916512459888 0.0
vertex 114.820508075689 137.583302491977 0.0
vertex 119.150635094611 135.083302491977 0.0
endloop
endfacet
facet normal -4.79718671952167e-018 0.38268343236509 0.923879532511286
outer loop
vertex 120.980762113533 70.8964101239968 15.5813374288121
vertex 88.3826859021798 72.6807385425149 14.389087296526
vertex 88.3826859021798 70.8964101239968 15.5813374288121
endloop
endfacet
facet normal 0.0 0.707106781186543 0.707106781186552
outer loop
vertex 88.3826859021798 72.6807385425149 14.389087296526
vertex 120.980762113533 70.8964101239968 15.5813374288121
vertex 120.980762113533 72.6807385425149 14.389087296526
endloop
endfacet
facet normal 1.0 3.13893429296728e-015 -3.84578751606434e-015
outer loop
vertex 90.9807621135332 62.0741368247166 17.2175144212722
vertex 90.9807621135332 61.2916512459888 20.0
vertex 90.9807621135332 61.2916512459888 16.1977593611918
endloop
endfacet
facet normal 1.0 3.13893429296728e-015 -3.84578751606434e-015
outer loop
vertex 90.9807621135332 61.2916512459888 20.0
vertex 90.9807621135332 62.0741368247166 17.2175144212722
vertex 90.9807621135332 64.0416512459888 18.7272413359521
endloop
endfacet
facet normal 1.0 3.13893429296728e-015 -3.84578751606434e-015
outer loop
vertex 90.9807621135332 61.2916512459888 20.0
vertex 90.9807621135332 64.0416512459888 18.7272413359521
vertex 90.9807621135332 66.3328703175149 19.6762953497461
endloop
endfacet
facet normal 1.0 3.13893429296728e-015 -3.84578751606434e-015
outer loop
vertex 90.9807621135332 61.2916512459888 20.0
vertex 90.9807621135332 66.3328703175149 19.6762953497461
vertex 90.9807621135332 68.7916512459888 20.0
endloop
endfacet
facet normal -1.0 -1.07913660385545e-015 1.84359511424472e-031
outer loop
vertex 88.3826859021799 62.7916512459889 16.0
vertex 88.3826859021798 63.2916512459888 10.5
vertex 88.3826859021799 62.7916512459889 5.0
endloop
endfacet
facet normal -1.0 -1.07913660385545e-015 1.84359511424472e-031
outer loop
vertex 88.3826859021798 63.2916512459888 10.5
vertex 88.3826859021799 62.7916512459889 16.0
vertex 88.3826859021798 63.7103138171768 12.604758878008
endloop
endfacet
facet normal -1.0 -1.07913660385545e-015 1.84359511424472e-031
outer loop
vertex 88.3826859021798 63.7103138171768 12.604758878008
vertex 88.3826859021799 62.7916512459889 16.0
vertex 88.3826859021798 64.9025639494629 14.389087296526
endloop
endfacet
facet normal -1.0 -1.07913660385545e-015 1.84359511424472e-031
outer loop
vertex 88.3826859021798 64.9025639494629 14.389087296526
vertex 88.3826859021799 62.7916512459889 16.0
vertex 88.3826859021798 66.6868923679809 15.5813374288121
endloop
endfacet
facet normal -1.0 -1.07913660385545e-015 1.84359511424472e-031
outer loop
vertex 88.3826859021798 66.6868923679809 15.5813374288121
vertex 88.3826859021799 62.7916512459889 16.0
vertex 88.3826859021798 68.7916512459889 16.0
endloop
endfacet
facet normal -1.0 -1.07913660385545e-015 1.84359511424472e-031
outer loop
vertex 88.3826859021799 62.7916512459889 5.0
vertex 88.3826859021798 66.6868923679809 5.41866257118792
vertex 88.3826859021798 68.7916512459889 5.0
endloop
endfacet
facet normal -1.0 -1.07913660385545e-015 1.84359511424472e-031
outer loop
vertex 88.3826859021798 66.6868923679809 5.41866257118792
vertex 88.3826859021799 62.7916512459889 5.0
vertex 88.3826859021798 64.9025639494629 6.61091270347399
endloop
endfacet
facet normal -1.0 -1.07913660385545e-015 1.84359511424472e-031
outer loop
vertex 88.3826859021798 64.9025639494629 6.61091270347399
vertex 88.3826859021799 62.7916512459889 5.0
vertex 88.3826859021798 63.7103138171768 8.395241121992
endloop
endfacet
facet normal -1.0 -1.07913660385545e-015 1.84359511424472e-031
outer loop
vertex 88.3826859021798 63.7103138171768 8.395241121992
vertex 88.3826859021799 62.7916512459889 5.0
vertex 88.3826859021798 63.2916512459888 10.5
endloop
endfacet
facet normal 0.499999999999987 0.866025403784446 0.0
outer loop
vertex 114.820508075689 137.583302491977 4.0
vertex 119.150635094611 135.083302491977 0.0
vertex 114.820508075689 137.583302491977 0.0
endloop
endfacet
facet normal 0.499999999999987 0.866025403784446 0.0
outer loop
vertex 119.150635094611 135.083302491977 0.0
vertex 114.820508075689 137.583302491977 4.0
vertex 119.150635094611 135.083302491977 4.0
endloop
endfacet
facet normal -1.0 0.0 0.0
outer loop
vertex 88.3826859021798 74.7916512459888 16.0
vertex 88.3826859021798 70.8964101239968 15.5813374288121
vertex 88.3826859021798 68.7916512459889 16.0
endloop
endfacet
facet normal -1.0 0.0 0.0
outer loop
vertex 88.3826859021798 70.8964101239968 15.5813374288121
vertex 88.3826859021798 74.7916512459888 16.0
vertex 88.3826859021798 72.6807385425149 14.389087296526
endloop
endfacet
facet normal -1.0 0.0 0.0
outer loop
vertex 88.3826859021798 72.6807385425149 14.389087296526
vertex 88.3826859021798 74.7916512459888 16.0
vertex 88.3826859021798 73.872988674801 12.604758878008
endloop
endfacet
facet normal -1.0 0.0 0.0
outer loop
vertex 88.3826859021798 73.872988674801 12.604758878008
vertex 88.3826859021798 74.7916512459888 16.0
vertex 88.3826859021798 74.2916512459889 10.5
endloop
endfacet
facet normal -1.0 0.0 0.0
outer loop
vertex 88.3826859021798 70.8964101239968 5.41866257118792
vertex 88.3826859021798 74.7916512459888 5.0
vertex 88.3826859021798 68.7916512459889 5.0
endloop
endfacet
facet normal -1.0 0.0 0.0
outer loop
vertex 88.3826859021798 74.7916512459888 5.0
vertex 88.3826859021798 70.8964101239968 5.41866257118792
vertex 88.3826859021798 72.6807385425149 6.61091270347399
endloop
endfacet
facet normal -1.0 0.0 0.0
outer loop
vertex 88.3826859021798 74.7916512459888 5.0
vertex 88.3826859021798 72.6807385425149 6.61091270347399
vertex 88.3826859021798 73.872988674801 8.39524112199201
endloop
endfacet
facet normal -1.0 0.0 0.0
outer loop
vertex 88.3826859021798 74.7916512459888 5.0
vertex 88.3826859021798 73.872988674801 8.39524112199201
vertex 88.3826859021798 74.2916512459889 10.5
endloop
endfacet
facet normal -1.0 0.0 0.0
outer loop
vertex 88.3826859021798 74.7916512459888 5.0
vertex 88.3826859021798 74.2916512459889 10.5
vertex 88.3826859021798 74.7916512459888 16.0
endloop
endfacet
facet normal 0.866025403784439 0.5 0.0
outer loop
vertex 81.1403810567666 74.2476112898309 16.0
vertex 84.2903810567666 68.7916512459889 20.0
vertex 84.2903810567666 68.7916512459889 16.0
endloop
endfacet
facet normal 0.866025403784439 0.5 0.0
outer loop
vertex 84.2903810567666 68.7916512459889 20.0
vertex 81.1403810567666 74.2476112898309 16.0
vertex 81.1403810567666 74.2476112898309 20.0
endloop
endfacet
facet normal -0.5 -0.866025403784439 0.0
outer loop
vertex 77.9903810567666 53.7916512459888 20.0
vertex 65.0 61.2916512459888 0.0
vertex 77.9903810567666 53.7916512459888 0.0
endloop
endfacet
facet normal -0.5 -0.866025403784439 0.0
outer loop
vertex 65.0 61.2916512459888 0.0
vertex 77.9903810567666 53.7916512459888 20.0
vertex 65.0 61.2916512459888 20.0
endloop
endfacet
facet normal 0.5 -0.866025403784439 0.0
outer loop
vertex 77.9903810567666 80.7916512459888 20.0
vertex 67.5980762113533 74.7916512459888 16.0
vertex 77.9903810567666 80.7916512459888 16.0
endloop
endfacet
facet normal 0.5 -0.866025403784439 0.0
outer loop
vertex 67.5980762113533 74.7916512459888 16.0
vertex 77.9903810567666 80.7916512459888 20.0
vertex 67.5980762113533 74.7916512459888 20.0
endloop
endfacet
facet normal -0.5 -0.866025403784438 0.0
outer loop
vertex 88.3826859021798 74.7916512459888 20.0
vertex 77.9903810567666 80.7916512459888 16.0
vertex 88.3826859021798 74.7916512459888 16.0
endloop
endfacet
facet normal -0.5 -0.866025403784438 0.0
outer loop
vertex 77.9903810567666 80.7916512459888 16.0
vertex 88.3826859021798 74.7916512459888 20.0
vertex 77.9903810567666 80.7916512459888 20.0
endloop
endfacet
facet normal -1.0 -9.39988827515968e-016 4.69994413757983e-016
outer loop
vertex 88.3826859021798 74.7916512459888 20.0
vertex 88.3826859021799 62.7916512459889 16.0
vertex 88.3826859021799 62.7916512459889 20.0
endloop
endfacet
facet normal -1.0 -9.39988827515968e-016 4.69994413757983e-016
outer loop
vertex 88.3826859021799 62.7916512459889 16.0
vertex 88.3826859021798 74.7916512459888 20.0
vertex 88.3826859021798 68.7916512459889 16.0
endloop
endfacet
facet normal -1.0 -9.39988827515968e-016 4.69994413757983e-016
outer loop
vertex 88.3826859021798 68.7916512459889 16.0
vertex 88.3826859021798 74.7916512459888 20.0
vertex 88.3826859021798 74.7916512459888 16.0
endloop
endfacet
facet normal 0.0 0.0 1.0
outer loop
vertex 77.9903810567666 56.7916512459889 16.0
vertex 71.6903810567666 68.7916512459888 16.0
vertex 67.5980762113534 62.7916512459889 16.0
endloop
endfacet
facet normal 0.0 0.0 1.0
outer loop
vertex 71.6903810567666 68.7916512459888 16.0
vertex 77.9903810567666 56.7916512459889 16.0
vertex 74.8403810567666 63.3356912021469 16.0
endloop
endfacet
facet normal 0.0 0.0 1.0
outer loop
vertex 74.8403810567666 63.3356912021469 16.0
vertex 77.9903810567666 56.7916512459889 16.0
vertex 81.1403810567666 63.3356912021469 16.0
endloop
endfacet
facet normal 0.0 0.0 1.0
outer loop
vertex 81.1403810567666 63.3356912021469 16.0
vertex 77.9903810567666 56.7916512459889 16.0
vertex 88.3826859021799 62.7916512459889 16.0
endloop
endfacet
facet normal 0.0 0.0 1.0
outer loop
vertex 81.1403810567666 63.3356912021469 16.0
vertex 88.3826859021799 62.7916512459889 16.0
vertex 84.2903810567666 68.7916512459889 16.0
endloop
endfacet
facet normal 0.0 0.0 1.0
outer loop
vertex 84.2903810567666 68.7916512459889 16.0
vertex 88.3826859021799 62.7916512459889 16.0
vertex 88.3826859021798 68.7916512459889 16.0
endloop
endfacet
facet normal 0.0 0.0 1.0
outer loop
vertex 67.5980762113534 62.7916512459889 16.0
vertex 77.9903810567666 80.7916512459888 16.0
vertex 67.5980762113533 74.7916512459888 16.0
endloop
endfacet
facet normal 0.0 0.0 1.0
outer loop
vertex 77.9903810567666 80.7916512459888 16.0
vertex 67.5980762113534 62.7916512459889 16.0
vertex 71.6903810567666 68.7916512459888 16.0
endloop
endfacet
facet normal 0.0 0.0 1.0
outer loop
vertex 77.9903810567666 80.7916512459888 16.0
vertex 71.6903810567666 68.7916512459888 16.0
vertex 74.8403810567666 74.2476112898308 16.0
endloop
endfacet
facet normal 0.0 0.0 1.0
outer loop
vertex 77.9903810567666 80.7916512459888 16.0
vertex 74.8403810567666 74.2476112898308 16.0
vertex 81.1403810567666 74.2476112898309 16.0
endloop
endfacet
facet normal 0.0 0.0 1.0
outer loop
vertex 77.9903810567666 80.7916512459888 16.0
vertex 81.1403810567666 74.2476112898309 16.0
vertex 88.3826859021798 74.7916512459888 16.0
endloop
endfacet
facet normal 0.0 0.0 1.0
outer loop
vertex 88.3826859021798 74.7916512459888 16.0
vertex 81.1403810567666 74.2476112898309 16.0
vertex 84.2903810567666 68.7916512459889 16.0
endloop
endfacet
facet normal 0.0 0.0 1.0
outer loop
vertex 88.3826859021798 74.7916512459888 16.0
vertex 84.2903810567666 68.7916512459889 16.0
vertex 88.3826859021798 68.7916512459889 16.0
endloop
endfacet
facet normal 0.500000000000003 0.866025403784437 -2.18536973527336e-016
outer loop
vertex 82.3205080756888 81.2916512459889 13.0
vertex 86.650635094611 78.7916512459888 0.0
vertex 82.3205080756888 81.2916512459889 0.0
endloop
endfacet
facet normal 0.500000000000003 0.866025403784437 -2.18536973527336e-016
outer loop
vertex 86.650635094611 78.7916512459888 0.0
vertex 82.3205080756888 81.2916512459889 13.0
vertex 86.650635094611 78.7916512459888 13.0
endloop
endfacet
facet normal 0.0 0.0 1.0
outer loop
vertex 77.9903810567666 65.8275496308511 5.0
vertex 77.9903810567666 68.7916512459889 5.0
vertex 76.7068874077127 68.0506258422044 5.0
endloop
endfacet
facet normal 0.0 0.0 1.0
outer loop
vertex 77.9903810567666 68.7916512459889 5.0
vertex 77.9903810567666 65.8275496308511 5.0
vertex 79.2738747058205 68.0506258422044 5.0
endloop
endfacet
facet normal -0.5 0.866025403784438 0.0
outer loop
vertex 65.0 76.2916512459889 20.0
vertex 77.9903810567666 83.7916512459889 0.0
vertex 65.0 76.2916512459889 0.0
endloop
endfacet
facet normal -0.5 0.866025403784438 0.0
outer loop
vertex 77.9903810567666 83.7916512459889 0.0
vertex 65.0 76.2916512459889 20.0
vertex 77.9903810567666 83.7916512459889 20.0
endloop
endfacet
facet normal -0.5 0.866025403784439 0.0
outer loop
vertex 77.9903810567666 56.7916512459889 20.0
vertex 88.3826859021799 62.7916512459889 16.0
vertex 77.9903810567666 56.7916512459889 16.0
endloop
endfacet
facet normal -0.5 0.866025403784439 0.0
outer loop
vertex 88.3826859021799 62.7916512459889 16.0
vertex 77.9903810567666 56.7916512459889 20.0
vertex 88.3826859021799 62.7916512459889 20.0
endloop
endfacet
facet normal 0.0 0.0 1.0
outer loop
vertex 80.5573683548744 70.2737020535577 5.0
vertex 75.4233937586588 70.2737020535577 5.0
vertex 77.9903810567666 68.7916512459889 5.0
endloop
endfacet
facet normal -1.0 6.76791955811495e-016 1.63358645420657e-031
outer loop
vertex 65.0 61.2916512459888 20.0
vertex 65.0 66.2916512459889 13.0
vertex 65.0 61.2916512459888 0.0
endloop
endfacet
facet normal -1.0 6.76791955811495e-016 1.63358645420657e-031
outer loop
vertex 65.0 66.2916512459889 13.0
vertex 65.0 61.2916512459888 20.0
vertex 65.0 76.2916512459889 20.0
endloop
endfacet
facet normal -1.0 6.76791955811495e-016 1.63358645420657e-031
outer loop
vertex 65.0 66.2916512459889 13.0
vertex 65.0 76.2916512459889 20.0
vertex 65.0 71.2916512459889 13.0
endloop
endfacet
facet normal -1.0 6.76791955811495e-016 1.63358645420657e-031
outer loop
vertex 65.0 71.2916512459889 13.0
vertex 65.0 76.2916512459889 20.0
vertex 65.0 71.2916512459889 0.0
endloop
endfacet
facet normal -1.0 6.76791955811495e-016 1.63358645420657e-031
outer loop
vertex 65.0 71.2916512459889 0.0
vertex 65.0 76.2916512459889 20.0
vertex 65.0 76.2916512459889 0.0
endloop
endfacet
facet normal -1.0 6.76791955811495e-016 1.63358645420657e-031
outer loop
vertex 65.0 66.2916512459889 0.0
vertex 65.0 61.2916512459888 0.0
vertex 65.0 66.2916512459889 13.0
endloop
endfacet
facet normal 0.0 0.0 1.0
outer loop
vertex 77.9903810567666 68.7916512459889 5.0
vertex 75.4233937586588 70.2737020535577 5.0
vertex 76.7068874077127 68.0506258422044 5.0
endloop
endfacet
facet normal -0.5 0.866025403784439 -1.8498747070433e-017
outer loop
vertex 77.9903810567666 56.7916512459889 16.0
vertex 88.3826859021799 62.7916512459889 5.0
vertex 77.9903810567666 56.7916512459889 5.0
endloop
endfacet
facet normal -0.5 0.866025403784439 -1.8498747070433e-017
outer loop
vertex 88.3826859021799 62.7916512459889 5.0
vertex 77.9903810567666 56.7916512459889 16.0
vertex 88.3826859021799 62.7916512459889 16.0
endloop
endfacet
facet normal 0.0 0.0 1.0
outer loop
vertex 77.9903810567666 56.7916512459889 20.0
vertex 71.6903810567666 68.7916512459888 20.0
vertex 67.5980762113534 62.7916512459889 20.0
endloop
endfacet
facet normal 0.0 0.0 1.0
outer loop
vertex 71.6903810567666 68.7916512459888 20.0
vertex 77.9903810567666 56.7916512459889 20.0
vertex 74.8403810567666 63.3356912021469 20.0
endloop
endfacet
facet normal 0.0 0.0 1.0
outer loop
vertex 74.8403810567666 63.3356912021469 20.0
vertex 77.9903810567666 56.7916512459889 20.0
vertex 81.1403810567666 63.3356912021469 20.0
endloop
endfacet
facet normal 0.0 0.0 1.0
outer loop
vertex 81.1403810567666 63.3356912021469 20.0
vertex 77.9903810567666 56.7916512459889 20.0
vertex 88.3826859021799 62.7916512459889 20.0
endloop
endfacet
facet normal 0.0 0.0 1.0
outer loop
vertex 81.1403810567666 63.3356912021469 20.0
vertex 88.3826859021799 62.7916512459889 20.0
vertex 84.2903810567666 68.7916512459889 20.0
endloop
endfacet
facet normal 0.0 0.0 1.0
outer loop
vertex 84.2903810567666 68.7916512459889 20.0
vertex 88.3826859021799 62.7916512459889 20.0
vertex 88.3826859021798 74.7916512459888 20.0
endloop
endfacet
facet normal 0.0 0.0 1.0
outer loop
vertex 67.5980762113534 62.7916512459889 20.0
vertex 77.9903810567666 80.7916512459888 20.0
vertex 67.5980762113533 74.7916512459888 20.0
endloop
endfacet
facet normal 0.0 0.0 1.0
outer loop
vertex 77.9903810567666 80.7916512459888 20.0
vertex 67.5980762113534 62.7916512459889 20.0
vertex 71.6903810567666 68.7916512459888 20.0
endloop
endfacet
facet normal 0.0 0.0 1.0
outer loop
vertex 77.9903810567666 80.7916512459888 20.0
vertex 71.6903810567666 68.7916512459888 20.0
vertex 74.8403810567666 74.2476112898308 20.0
endloop
endfacet
facet normal 0.0 0.0 1.0
outer loop
vertex 77.9903810567666 80.7916512459888 20.0
vertex 74.8403810567666 74.2476112898308 20.0
vertex 81.1403810567666 74.2476112898309 20.0
endloop
endfacet
facet normal 0.0 0.0 1.0
outer loop
vertex 77.9903810567666 80.7916512459888 20.0
vertex 81.1403810567666 74.2476112898309 20.0
vertex 88.3826859021798 74.7916512459888 20.0
endloop
endfacet
facet normal 0.0 0.0 1.0
outer loop
vertex 88.3826859021798 74.7916512459888 20.0
vertex 81.1403810567666 74.2476112898309 20.0
vertex 84.2903810567666 68.7916512459889 20.0
endloop
endfacet
facet normal 0.0 0.0 1.0
outer loop
vertex 80.5573683548744 70.2737020535577 5.0
vertex 77.9903810567666 68.7916512459889 5.0
vertex 79.2738747058205 68.0506258422044 5.0
endloop
endfacet
facet normal -5.27355936696949e-016 1.0 0.0
outer loop
vertex 74.8403810567666 74.2476112898308 20.0
vertex 81.1403810567666 74.2476112898309 16.0
vertex 74.8403810567666 74.2476112898308 16.0
endloop
endfacet
facet normal -5.27355936696949e-016 1.0 0.0
outer loop
vertex 81.1403810567666 74.2476112898309 16.0
vertex 74.8403810567666 74.2476112898308 20.0
vertex 81.1403810567666 74.2476112898309 20.0
endloop
endfacet
facet normal -0.5 -0.866025403784438 -3.2860375878899e-032
outer loop
vertex 88.3826859021798 74.7916512459888 16.0
vertex 77.9903810567666 80.7916512459888 5.0
vertex 88.3826859021798 74.7916512459888 5.0
endloop
endfacet
facet normal -0.5 -0.866025403784438 -3.2860375878899e-032
outer loop
vertex 77.9903810567666 80.7916512459888 5.0
vertex 88.3826859021798 74.7916512459888 16.0
vertex 77.9903810567666 80.7916512459888 16.0
endloop
endfacet
facet normal -0.866025403784439 0.499999999999999 0.0
outer loop
vertex 74.8403810567666 74.2476112898308 20.0
vertex 71.6903810567666 68.7916512459888 16.0
vertex 71.6903810567666 68.7916512459888 20.0
endloop
endfacet
facet normal -0.866025403784439 0.499999999999999 0.0
outer loop
vertex 71.6903810567666 68.7916512459888 16.0
vertex 74.8403810567666 74.2476112898308 20.0
vertex 74.8403810567666 74.2476112898308 16.0
endloop
endfacet
facet normal -0.866025403784439 -0.5 0.0
outer loop
vertex 71.6903810567666 68.7916512459888 20.0
vertex 74.8403810567666 63.3356912021469 16.0
vertex 74.8403810567666 63.3356912021469 20.0
endloop
endfacet
facet normal -0.866025403784439 -0.5 0.0
outer loop
vertex 74.8403810567666 63.3356912021469 16.0
vertex 71.6903810567666 68.7916512459888 20.0
vertex 71.6903810567666 68.7916512459888 16.0
endloop
endfacet
facet normal 5.27355936696949e-016 -1.0 0.0
outer loop
vertex 81.1403810567666 63.3356912021469 20.0
vertex 74.8403810567666 63.3356912021469 16.0
vertex 81.1403810567666 63.3356912021469 16.0
endloop
endfacet
facet normal 5.27355936696949e-016 -1.0 0.0
outer loop
vertex 74.8403810567666 63.3356912021469 16.0
vertex 81.1403810567666 63.3356912021469 20.0
vertex 74.8403810567666 63.3356912021469 20.0
endloop
endfacet
facet normal 0.499999999999999 0.866025403784439 -5.21826158609291e-016
outer loop
vertex 77.9903810567666 83.7916512459889 20.0
vertex 82.3205080756888 81.2916512459889 0.0
vertex 77.9903810567666 83.7916512459889 0.0
endloop
endfacet
facet normal 0.499999999999999 0.866025403784439 -5.21826158609291e-016
outer loop
vertex 82.3205080756888 81.2916512459889 0.0
vertex 77.9903810567666 83.7916512459889 20.0
vertex 82.3205080756888 81.2916512459889 13.0
endloop
endfacet
facet normal 0.499999999999999 0.866025403784439 -5.21826158609291e-016
outer loop
vertex 82.3205080756888 81.2916512459889 13.0
vertex 77.9903810567666 83.7916512459889 20.0
vertex 86.650635094611 78.7916512459888 13.0
endloop
endfacet
facet normal 0.499999999999999 0.866025403784439 -5.21826158609291e-016
outer loop
vertex 86.650635094611 78.7916512459888 13.0
vertex 77.9903810567666 83.7916512459889 20.0
vertex 89.7211431702999 77.018892581941 15.25
endloop
endfacet
facet normal 0.499999999999999 0.866025403784439 -5.21826158609291e-016
outer loop
vertex 89.7211431702999 77.018892581941 15.25
vertex 77.9903810567666 83.7916512459889 20.0
vertex 90.9807621135332 76.2916512459889 16.1977593611918
endloop
endfacet
facet normal 0.499999999999999 0.866025403784439 -5.21826158609291e-016
outer loop
vertex 90.9807621135332 76.2916512459889 16.1977593611918
vertex 77.9903810567666 83.7916512459889 20.0
vertex 90.9807621135332 76.2916512459889 20.0
endloop
endfacet
facet normal 0.499999999999999 0.866025403784439 -5.21826158609291e-016
outer loop
vertex 86.650635094611 78.7916512459888 0.0
vertex 88.0773333992814 77.967946595735 8.04121907152609
vertex 90.9807621135332 76.2916512459889 0.0
endloop
endfacet
facet normal 0.499999999999999 0.866025403784439 -5.21826158609291e-016
outer loop
vertex 88.0773333992814 77.967946595735 8.04121907152609
vertex 86.650635094611 78.7916512459888 0.0
vertex 86.650635094611 78.7916512459888 13.0
endloop
endfacet
facet normal 0.499999999999999 0.866025403784439 -5.21826158609291e-016
outer loop
vertex 90.9807621135332 76.2916512459889 0.0
vertex 88.0773333992814 77.967946595735 8.04121907152609
vertex 89.7211431702998 77.018892581941 5.75000000000003
endloop
endfacet
facet normal 0.499999999999999 0.866025403784439 -5.21826158609291e-016
outer loop
vertex 90.9807621135332 76.2916512459889 0.0
vertex 89.7211431702998 77.018892581941 5.75000000000003
vertex 90.9807621135332 76.2916512459889 4.80224063880821
endloop
endfacet
facet normal 0.499999999999999 0.866025403784439 -5.21826158609291e-016
outer loop
vertex 88.0773333992814 77.967946595735 8.04121907152609
vertex 86.650635094611 78.7916512459888 13.0
vertex 87.5166604983955 78.2916512459889 10.5
endloop
endfacet
facet normal 0.499999999999999 0.866025403784439 -5.21826158609291e-016
outer loop
vertex 87.5166604983955 78.2916512459889 10.5
vertex 86.650635094611 78.7916512459888 13.0
vertex 88.0773333992815 77.967946595735 12.958780928474
endloop
endfacet
facet normal 0.499999999999999 0.866025403784439 -5.21826158609291e-016
outer loop
vertex 88.0773333992815 77.967946595735 12.958780928474
vertex 86.650635094611 78.7916512459888 13.0
vertex 89.7211431702999 77.018892581941 15.25
endloop
endfacet
facet normal 0.866025403784439 -0.499999999999999 0.0
outer loop
vertex 84.2903810567666 68.7916512459889 16.0
vertex 81.1403810567666 63.3356912021469 20.0
vertex 81.1403810567666 63.3356912021469 16.0
endloop
endfacet
facet normal 0.866025403784439 -0.499999999999999 0.0
outer loop
vertex 81.1403810567666 63.3356912021469 20.0
vertex 84.2903810567666 68.7916512459889 16.0
vertex 84.2903810567666 68.7916512459889 20.0
endloop
endfacet
facet normal 0.5 -0.866025403784439 4.63746214541934e-018
outer loop
vertex 77.9903810567666 80.7916512459888 16.0
vertex 67.5980762113533 74.7916512459888 5.0
vertex 77.9903810567666 80.7916512459888 5.0
endloop
endfacet
facet normal 0.5 -0.866025403784439 4.63746214541934e-018
outer loop
vertex 67.5980762113533 74.7916512459888 5.0
vertex 77.9903810567666 80.7916512459888 16.0
vertex 67.5980762113533 74.7916512459888 16.0
endloop
endfacet
facet normal 1.0 4.69994413757984e-016 0.0
outer loop
vertex 67.5980762113533 74.7916512459888 16.0
vertex 67.5980762113534 62.7916512459889 20.0
vertex 67.5980762113534 62.7916512459889 16.0
endloop
endfacet
facet normal 1.0 4.69994413757984e-016 0.0
outer loop
vertex 67.5980762113534 62.7916512459889 20.0
vertex 67.5980762113533 74.7916512459888 16.0
vertex 67.5980762113533 74.7916512459888 20.0
endloop
endfacet
facet normal 1.91542165624088e-017 -6.90972823376226e-032 1.0
outer loop
vertex 65.0 61.2916512459888 20.0
vertex 67.5980762113534 62.7916512459889 20.0
vertex 65.0 76.2916512459889 20.0
endloop
endfacet
facet normal 1.91542165624088e-017 -6.90972823376226e-032 1.0
outer loop
vertex 67.5980762113534 62.7916512459889 20.0
vertex 65.0 61.2916512459888 20.0
vertex 77.9903810567666 53.7916512459888 20.0
endloop
endfacet
facet normal 1.91542165624088e-017 -6.90972823376226e-032 1.0
outer loop
vertex 65.0 76.2916512459889 20.0
vertex 67.5980762113534 62.7916512459889 20.0
vertex 67.5980762113533 74.7916512459888 20.0
endloop
endfacet
facet normal 1.91542165624088e-017 -6.90972823376226e-032 1.0
outer loop
vertex 67.5980762113534 62.7916512459889 20.0
vertex 77.9903810567666 53.7916512459888 20.0
vertex 77.9903810567666 56.7916512459889 20.0
endloop
endfacet
facet normal 1.91542165624088e-017 -6.90972823376226e-032 1.0
outer loop
vertex 77.9903810567666 56.7916512459889 20.0
vertex 77.9903810567666 53.7916512459888 20.0
vertex 90.9807621135332 61.2916512459888 20.0
endloop
endfacet
facet normal 1.91542165624088e-017 -6.90972823376226e-032 1.0
outer loop
vertex 77.9903810567666 56.7916512459889 20.0
vertex 90.9807621135332 61.2916512459888 20.0
vertex 88.3826859021799 62.7916512459889 20.0
endloop
endfacet
facet normal 1.91542165624088e-017 -6.90972823376226e-032 1.0
outer loop
vertex 88.3826859021799 62.7916512459889 20.0
vertex 90.9807621135332 61.2916512459888 20.0
vertex 90.9807621135332 68.7916512459888 20.0
endloop
endfacet
facet normal 1.91542165624088e-017 -6.90972823376226e-032 1.0
outer loop
vertex 67.5980762113533 74.7916512459888 20.0
vertex 77.9903810567666 83.7916512459889 20.0
vertex 65.0 76.2916512459889 20.0
endloop
endfacet
facet normal 1.91542165624088e-017 -6.90972823376226e-032 1.0
outer loop
vertex 77.9903810567666 83.7916512459889 20.0
vertex 67.5980762113533 74.7916512459888 20.0
vertex 77.9903810567666 80.7916512459888 20.0
endloop
endfacet
facet normal 1.91542165624088e-017 -6.90972823376226e-032 1.0
outer loop
vertex 77.9903810567666 83.7916512459889 20.0
vertex 77.9903810567666 80.7916512459888 20.0
vertex 88.3826859021798 74.7916512459888 20.0
endloop
endfacet
facet normal 1.91542165624088e-017 -6.90972823376226e-032 1.0
outer loop
vertex 77.9903810567666 83.7916512459889 20.0
vertex 88.3826859021798 74.7916512459888 20.0
vertex 90.9807621135332 76.2916512459889 20.0
endloop
endfacet
facet normal 1.91542165624088e-017 -6.90972823376226e-032 1.0
outer loop
vertex 90.9807621135332 76.2916512459889 20.0
vertex 88.3826859021798 74.7916512459888 20.0
vertex 88.3826859021799 62.7916512459889 20.0
endloop
endfacet
facet normal 1.91542165624088e-017 -6.90972823376226e-032 1.0
outer loop
vertex 90.9807621135332 76.2916512459889 20.0
vertex 88.3826859021799 62.7916512459889 20.0
vertex 90.9807621135332 68.7916512459888 20.0
endloop
endfacet
facet normal 0.5 0.866025403784438 0.0
outer loop
vertex 67.5980762113534 62.7916512459889 20.0
vertex 77.9903810567666 56.7916512459889 16.0
vertex 67.5980762113534 62.7916512459889 16.0
endloop
endfacet
facet normal 0.5 0.866025403784438 0.0
outer loop
vertex 77.9903810567666 56.7916512459889 16.0
vertex 67.5980762113534 62.7916512459889 20.0
vertex 77.9903810567666 56.7916512459889 20.0
endloop
endfacet
facet normal 1.0 4.69994413757984e-016 1.64755751989507e-032
outer loop
vertex 67.5980762113533 74.7916512459888 5.0
vertex 67.5980762113534 62.7916512459889 16.0
vertex 67.5980762113534 62.7916512459889 5.0
endloop
endfacet
facet normal 1.0 4.69994413757984e-016 1.64755751989507e-032
outer loop
vertex 67.5980762113534 62.7916512459889 16.0
vertex 67.5980762113533 74.7916512459888 5.0
vertex 67.5980762113533 74.7916512459888 16.0
endloop
endfacet
facet normal 0.5 0.866025403784438 -4.63746214541933e-018
outer loop
vertex 67.5980762113534 62.7916512459889 16.0
vertex 77.9903810567666 56.7916512459889 5.0
vertex 67.5980762113534 62.7916512459889 5.0
endloop
endfacet
facet normal 0.5 0.866025403784438 -4.63746214541933e-018
outer loop
vertex 77.9903810567666 56.7916512459889 5.0
vertex 67.5980762113534 62.7916512459889 16.0
vertex 77.9903810567666 56.7916512459889 16.0
endloop
endfacet
facet normal -0.866025403784436 -0.500000000000005 -0.0
outer loop
vertex 80.7403810567666 74.5547909668032 5.0
vertex 84.356406460551 68.2916512459888 3.0
vertex 84.356406460551 68.2916512459888 5.0
endloop
endfacet
facet normal -0.866025403784436 -0.500000000000005 -0.0
outer loop
vertex 84.356406460551 68.2916512459888 3.0
vertex 80.7403810567666 74.5547909668032 5.0
vertex 80.7403810567666 74.5547909668032 3.0
endloop
endfacet
facet normal 0.866025403784428 -0.500000000000018 0.0
outer loop
vertex 80.7403810567666 74.5547909668032 3.0
vertex 79.413030787577 72.2557528611266 5.0
vertex 79.413030787577 72.2557528611266 3.0
endloop
endfacet
facet normal 0.866025403784428 -0.500000000000018 0.0
outer loop
vertex 79.413030787577 72.2557528611266 5.0
vertex 80.7403810567666 74.5547909668032 3.0
vertex 80.7403810567666 74.5547909668032 5.0
endloop
endfacet
facet normal -2.83007444497275e-018 -0.991444861373812 0.130526192220041
outer loop
vertex 120.980762113533 59.6153558962427 12.9587809284739
vertex 87.5166604983954 59.2916512459889 10.5
vertex 120.980762113533 59.2916512459889 10.5
endloop
endfacet
facet normal -2.83007444497275e-018 -0.991444861373812 0.130526192220041
outer loop
vertex 87.5166604983954 59.2916512459889 10.5
vertex 120.980762113533 59.6153558962427 12.9587809284739
vertex 88.0773333992814 59.6153558962427 12.9587809284739
endloop
endfacet
facet normal 0.500000000000001 -0.866025403784438 2.4351887401767e-015
outer loop
vertex 90.9807621135332 61.2916512459888 4.80224063880823
vertex 86.650635094611 58.7916512459885 0.0
vertex 90.9807621135332 61.2916512459888 0.0
endloop
endfacet
facet normal 0.500000000000001 -0.866025403784438 2.4351887401767e-015
outer loop
vertex 86.650635094611 58.7916512459885 0.0
vertex 90.9807621135332 61.2916512459888 4.80224063880823
vertex 89.7211431702998 60.5644099100367 5.74999999999996
endloop
endfacet
facet normal 0.500000000000001 -0.866025403784438 2.4351887401767e-015
outer loop
vertex 86.650635094611 58.7916512459885 0.0
vertex 89.7211431702998 60.5644099100367 5.74999999999996
vertex 88.0773333992814 59.6153558962427 8.04121907152601
endloop
endfacet
facet normal 0.500000000000001 -0.866025403784438 2.4351887401767e-015
outer loop
vertex 86.650635094611 58.7916512459885 0.0
vertex 88.0773333992814 59.6153558962427 8.04121907152601
vertex 86.650635094611 58.7916512459885 13.0
endloop
endfacet
facet normal 0.500000000000001 -0.866025403784438 2.4351887401767e-015
outer loop
vertex 86.650635094611 58.7916512459885 13.0
vertex 88.0773333992814 59.6153558962427 8.04121907152601
vertex 87.5166604983954 59.2916512459889 10.5
endloop
endfacet
facet normal 0.500000000000001 -0.866025403784438 2.4351887401767e-015
outer loop
vertex 86.650635094611 58.7916512459885 13.0
vertex 87.5166604983954 59.2916512459889 10.5
vertex 88.0773333992814 59.6153558962427 12.9587809284739
endloop
endfacet
facet normal 0.500000000000001 -0.866025403784438 2.4351887401767e-015
outer loop
vertex 86.650635094611 58.7916512459885 13.0
vertex 88.0773333992814 59.6153558962427 12.9587809284739
vertex 89.7211431702997 60.5644099100367 15.25
endloop
endfacet
facet normal 0.500000000000001 -0.866025403784438 2.4351887401767e-015
outer loop
vertex 86.650635094611 58.7916512459885 13.0
vertex 89.7211431702997 60.5644099100367 15.25
vertex 82.3205080756888 56.2916512459888 13.0
endloop
endfacet
facet normal 0.500000000000001 -0.866025403784438 2.4351887401767e-015
outer loop
vertex 82.3205080756888 56.2916512459888 13.0
vertex 77.9903810567666 53.7916512459888 0.0
vertex 82.3205080756888 56.2916512459888 0.0
endloop
endfacet
facet normal 0.500000000000001 -0.866025403784438 2.4351887401767e-015
outer loop
vertex 77.9903810567666 53.7916512459888 0.0
vertex 82.3205080756888 56.2916512459888 13.0
vertex 77.9903810567666 53.7916512459888 20.0
endloop
endfacet
facet normal 0.500000000000001 -0.866025403784438 2.4351887401767e-015
outer loop
vertex 77.9903810567666 53.7916512459888 20.0
vertex 82.3205080756888 56.2916512459888 13.0
vertex 89.7211431702997 60.5644099100367 15.25
endloop
endfacet
facet normal 0.500000000000001 -0.866025403784438 2.4351887401767e-015
outer loop
vertex 77.9903810567666 53.7916512459888 20.0
vertex 89.7211431702997 60.5644099100367 15.25
vertex 90.9807621135332 61.2916512459888 16.1977593611918
endloop
endfacet
facet normal 0.500000000000001 -0.866025403784438 2.4351887401767e-015
outer loop
vertex 77.9903810567666 53.7916512459888 20.0
vertex 90.9807621135332 61.2916512459888 16.1977593611918
vertex 90.9807621135332 61.2916512459888 20.0
endloop
endfacet
facet normal 6.35822929505568e-032 -0.707106781186552 0.707106781186543
outer loop
vertex 120.980762113533 62.0741368247166 17.2175144212722
vertex 90.9807621135332 64.0416512459888 18.7272413359521
vertex 90.9807621135332 62.0741368247166 17.2175144212722
endloop
endfacet
facet normal 7.78720872025124e-032 -0.500000000000003 0.866025403784437
outer loop
vertex 90.9807621135332 64.0416512459888 18.7272413359521
vertex 120.980762113533 62.0741368247166 17.2175144212722
vertex 120.980762113533 64.0416512459888 18.7272413359521
endloop
endfacet
facet normal 7.78720872025124e-032 -0.500000000000003 0.866025403784437
outer loop
vertex 120.980762113533 64.0416512459888 18.7272413359521
vertex 90.9807621135332 66.3328703175149 19.6762953497461
vertex 90.9807621135332 64.0416512459888 18.7272413359521
endloop
endfacet
facet normal 8.68550274013253e-032 -0.258819045102524 0.965925826289067
outer loop
vertex 90.9807621135332 66.3328703175149 19.6762953497461
vertex 120.980762113533 64.0416512459888 18.7272413359521
vertex 120.980762113533 66.3328703175149 19.6762953497461
endloop
endfacet
facet normal 0.0 1.0 0.0
outer loop
vertex 81.7017059221718 68.2916512459888 5.0
vertex 84.356406460551 68.2916512459888 3.0
vertex 81.7017059221718 68.2916512459888 3.0
endloop
endfacet
facet normal 0.0 1.0 0.0
outer loop
vertex 84.356406460551 68.2916512459888 3.0
vertex 81.7017059221718 68.2916512459888 5.0
vertex 84.356406460551 68.2916512459888 5.0
endloop
endfacet
facet normal 0.068576529237668 -0.118778032846382 0.990549866766363
outer loop
vertex 114.820508075688 0.0 4.0
vertex 86.650635094611 58.7916512459885 13.0
vertex 82.3205080756888 56.2916512459888 13.0
endloop
endfacet
facet normal 0.068576529237668 -0.118778032846382 0.990549866766363
outer loop
vertex 86.650635094611 58.7916512459885 13.0
vertex 114.820508075688 0.0 4.0
vertex 119.150635094611 2.50000000000011 4.0
endloop
endfacet
facet normal 0.866025403784439 0.499999999999998 -2.73071272568146e-016
outer loop
vertex 86.650635094611 58.7916512459885 0.0
vertex 119.150635094611 2.50000000000011 4.0
vertex 119.150635094611 2.50000000000011 0.0
endloop
endfacet
facet normal 0.866025403784439 0.499999999999998 -2.73071272568146e-016
outer loop
vertex 119.150635094611 2.50000000000011 4.0
vertex 86.650635094611 58.7916512459885 0.0
vertex 86.650635094611 58.7916512459885 13.0
endloop
endfacet
facet normal 8.68550274013253e-032 -0.258819045102524 0.965925826289067
outer loop
vertex 120.980762113533 66.3328703175149 19.6762953497461
vertex 90.9807621135332 68.7916512459888 20.0
vertex 90.9807621135332 66.3328703175149 19.6762953497461
endloop
endfacet
facet normal 8.91496720119327e-032 -0.130526192220057 0.99144486137381
outer loop
vertex 90.9807621135332 68.7916512459888 20.0
vertex 120.980762113533 66.3328703175149 19.6762953497461
vertex 120.980762113533 68.7916512459888 20.0
endloop
endfacet
facet normal 0.0 0.0 -1.0
outer loop
vertex 65.0 71.2916512459889 0.0
vertex 0.0 66.2916512459889 0.0
vertex 0.0 71.2916512459889 0.0
endloop
endfacet
facet normal 0.0 0.0 -1.0
outer loop
vertex 0.0 66.2916512459889 0.0
vertex 65.0 71.2916512459889 0.0
vertex 65.0 66.2916512459889 0.0
endloop
endfacet
facet normal 0.0 -0.991444861373809 -0.13052619222006
outer loop
vertex 120.980762113533 59.2916512459889 10.5
vertex 88.0773333992814 59.6153558962427 8.04121907152601
vertex 120.980762113533 59.6153558962427 8.04121907152601
endloop
endfacet
facet normal 0.0 -0.991444861373809 -0.13052619222006
outer loop
vertex 88.0773333992814 59.6153558962427 8.04121907152601
vertex 120.980762113533 59.2916512459889 10.5
vertex 87.5166604983954 59.2916512459889 10.5
endloop
endfacet
facet normal -5.47391830287389e-032 -0.79335334029123 -0.608761429008728
outer loop
vertex 120.980762113533 61.2916512459888 4.80224063880823
vertex 90.9807621135332 62.0741368247167 3.78248557872777
vertex 120.980762113533 62.0741368247167 3.78248557872777
endloop
endfacet
facet normal -6.35822929505577e-032 -0.707106781186544 -0.707106781186551
outer loop
vertex 90.9807621135332 62.0741368247167 3.78248557872777
vertex 120.980762113533 61.2916512459888 4.80224063880823
vertex 90.9807621135332 61.2916512459888 4.80224063880823
endloop
endfacet
facet normal -8.68550274013253e-032 0.258819045102524 -0.965925826289067
outer loop
vertex 120.980762113533 71.2504321744628 1.32370465025386
vertex 90.9807621135332 68.7916512459889 0.999999999999998
vertex 90.9807621135332 71.2504321744628 1.32370465025386
endloop
endfacet
facet normal -8.99189410174573e-032 3.94762168377158e-015 -1.0
outer loop
vertex 90.9807621135332 68.7916512459889 0.999999999999998
vertex 120.980762113533 71.2504321744628 1.32370465025386
vertex 120.980762113533 68.7916512459889 0.999999999999998
endloop
endfacet
facet normal 8.91496720119329e-032 0.130526192220048 0.991444861373811
outer loop
vertex 120.980762113533 68.7916512459888 20.0
vertex 90.9807621135332 71.2504321744627 19.6762953497462
vertex 90.9807621135332 68.7916512459888 20.0
endloop
endfacet
facet normal 8.68550274013256e-032 0.258819045102516 0.965925826289069
outer loop
vertex 90.9807621135332 71.2504321744627 19.6762953497462
vertex 120.980762113533 68.7916512459888 20.0
vertex 120.980762113533 71.2504321744627 19.6762953497462
endloop
endfacet
facet normal 0.86602540378444 0.499999999999997 0.0
outer loop
vertex 80.5573683548744 70.2737020535577 3.0
vertex 81.7017059221718 68.2916512459888 5.0
vertex 81.7017059221718 68.2916512459888 3.0
endloop
endfacet
facet normal 0.86602540378444 0.499999999999997 0.0
outer loop
vertex 81.7017059221718 68.2916512459888 5.0
vertex 80.5573683548744 70.2737020535577 3.0
vertex 80.5573683548744 70.2737020535577 5.0
endloop
endfacet
facet normal 6.35822929505568e-032 -0.707106781186552 0.707106781186543
outer loop
vertex 120.980762113533 62.0741368247166 17.2175144212722
vertex 90.9807621135332 61.2916512459888 16.1977593611918
vertex 120.980762113533 61.2916512459888 16.1977593611918
endloop
endfacet
facet normal 5.47391830287376e-032 -0.793353340291239 0.608761429008715
outer loop
vertex 90.9807621135332 61.2916512459888 16.1977593611918
vertex 120.980762113533 62.0741368247166 17.2175144212722
vertex 90.9807621135332 62.0741368247166 17.2175144212722
endloop
endfacet
facet normal -8.68550274013256e-032 -0.258819045102516 -0.965925826289069
outer loop
vertex 120.980762113533 66.332870317515 1.32370465025384
vertex 90.9807621135332 64.0416512459889 2.27275866404781
vertex 90.9807621135332 66.332870317515 1.32370465025384
endloop
endfacet
facet normal -7.78720872025128e-032 -0.499999999999997 -0.86602540378444
outer loop
vertex 90.9807621135332 64.0416512459889 2.27275866404781
vertex 120.980762113533 66.332870317515 1.32370465025384
vertex 120.980762113533 64.0416512459889 2.27275866404781
endloop
endfacet
facet normal -0.86602540378444 0.499999999999997 0.0
outer loop
vertex 75.4233937586588 70.2737020535577 5.0
vertex 74.2790561913614 68.2916512459888 3.0
vertex 74.2790561913614 68.2916512459888 5.0
endloop
endfacet
facet normal -0.86602540378444 0.499999999999997 0.0
outer loop
vertex 74.2790561913614 68.2916512459888 3.0
vertex 75.4233937586588 70.2737020535577 5.0
vertex 75.4233937586588 70.2737020535577 3.0
endloop
endfacet
facet normal -0.86602540378444 0.499999999999997 0.0
outer loop
vertex 76.5677313259562 72.2557528611266 5.0
vertex 75.4233937586588 70.2737020535577 3.0
vertex 75.4233937586588 70.2737020535577 5.0
endloop
endfacet
facet normal -0.86602540378444 0.499999999999997 0.0
outer loop
vertex 75.4233937586588 70.2737020535577 3.0
vertex 76.5677313259562 72.2557528611266 5.0
vertex 76.5677313259562 72.2557528611266 3.0
endloop
endfacet
facet normal -0.866025403784428 -0.500000000000018 -0.0
outer loop
vertex 75.2403810567666 74.5547909668032 5.0
vertex 76.5677313259562 72.2557528611266 3.0
vertex 76.5677313259562 72.2557528611266 5.0
endloop
endfacet
facet normal -0.866025403784428 -0.500000000000018 -0.0
outer loop
vertex 76.5677313259562 72.2557528611266 3.0
vertex 75.2403810567666 74.5547909668032 5.0
vertex 75.2403810567666 74.5547909668032 3.0
endloop
endfacet
facet normal 0.866025403784436 -0.500000000000005 0.0
outer loop
vertex 75.2403810567666 74.5547909668032 3.0
vertex 71.6243556529822 68.2916512459888 5.0
vertex 71.6243556529822 68.2916512459888 3.0
endloop
endfacet
facet normal 0.866025403784436 -0.500000000000005 0.0
outer loop
vertex 71.6243556529822 68.2916512459888 5.0
vertex 75.2403810567666 74.5547909668032 3.0
vertex 75.2403810567666 74.5547909668032 5.0
endloop
endfacet
facet normal 0.0 1.0 0.0
outer loop
vertex 71.6243556529822 68.2916512459888 5.0
vertex 74.2790561913614 68.2916512459888 3.0
vertex 71.6243556529822 68.2916512459888 3.0
endloop
endfacet
facet normal 0.0 1.0 0.0
outer loop
vertex 74.2790561913614 68.2916512459888 3.0
vertex 71.6243556529822 68.2916512459888 5.0
vertex 74.2790561913614 68.2916512459888 5.0
endloop
endfacet
facet normal -0.866025403784443 -0.499999999999993 2.73071272568144e-016
outer loop
vertex 82.3205080756888 56.2916512459888 13.0
vertex 114.820508075688 0.0 0.0
vertex 114.820508075688 0.0 4.0
endloop
endfacet
facet normal -0.866025403784443 -0.499999999999993 2.73071272568144e-016
outer loop
vertex 114.820508075688 0.0 0.0
vertex 82.3205080756888 56.2916512459888 13.0
vertex 82.3205080756888 56.2916512459888 0.0
endloop
endfacet
facet normal -0.866025403784442 -0.499999999999995 -0.0
outer loop
vertex 80.2790561913614 65.8275496308511 5.0
vertex 81.606406460551 63.5285115251744 3.0
vertex 81.606406460551 63.5285115251744 5.0
endloop
endfacet
facet normal -0.866025403784442 -0.499999999999995 -0.0
outer loop
vertex 81.606406460551 63.5285115251744 3.0
vertex 80.2790561913614 65.8275496308511 5.0
vertex 80.2790561913614 65.8275496308511 3.0
endloop
endfacet
facet normal 0.499999999999995 -0.866025403784441 0.0
outer loop
vertex 119.150635094611 2.50000000000011 4.0
vertex 114.820508075688 0.0 0.0
vertex 119.150635094611 2.50000000000011 0.0
endloop
endfacet
facet normal 0.499999999999995 -0.866025403784441 0.0
outer loop
vertex 114.820508075688 0.0 0.0
vertex 119.150635094611 2.50000000000011 4.0
vertex 114.820508075688 0.0 4.0
endloop
endfacet
facet normal -7.78720872025124e-032 0.500000000000003 -0.866025403784437
outer loop
vertex 120.980762113533 73.5416512459889 2.27275866404785
vertex 90.9807621135332 71.2504321744628 1.32370465025386
vertex 90.9807621135332 73.5416512459889 2.27275866404785
endloop
endfacet
facet normal -8.68550274013253e-032 0.258819045102524 -0.965925826289067
outer loop
vertex 90.9807621135332 71.2504321744628 1.32370465025386
vertex 120.980762113533 73.5416512459889 2.27275866404785
vertex 120.980762113533 71.2504321744628 1.32370465025386
endloop
endfacet
facet normal 0.0 0.0 -1.0
outer loop
vertex 86.650635094611 58.7916512459885 0.0
vertex 114.820508075688 0.0 0.0
vertex 82.3205080756888 56.2916512459888 0.0
endloop
endfacet
facet normal 0.0 0.0 -1.0
outer loop
vertex 114.820508075688 0.0 0.0
vertex 86.650635094611 58.7916512459885 0.0
vertex 119.150635094611 2.50000000000011 0.0
endloop
endfacet
facet normal 0.0 -1.0 0.0
outer loop
vertex 80.2790561913614 65.8275496308511 5.0
vertex 77.9903810567666 65.8275496308511 3.0
vertex 80.2790561913614 65.8275496308511 3.0
endloop
endfacet
facet normal 0.0 -1.0 0.0
outer loop
vertex 77.9903810567666 65.8275496308511 3.0
vertex 80.2790561913614 65.8275496308511 5.0
vertex 77.9903810567666 65.8275496308511 5.0
endloop
endfacet
facet normal 8.68550274013256e-032 0.258819045102516 0.965925826289069
outer loop
vertex 120.980762113533 71.2504321744627 19.6762953497462
vertex 90.9807621135332 73.5416512459888 18.7272413359522
vertex 90.9807621135332 71.2504321744627 19.6762953497462
endloop
endfacet
facet normal 7.78720872025128e-032 0.499999999999997 0.86602540378444
outer loop
vertex 90.9807621135332 73.5416512459888 18.7272413359522
vertex 120.980762113533 71.2504321744627 19.6762953497462
vertex 120.980762113533 73.5416512459888 18.7272413359522
endloop
endfacet
facet normal -8.99189410174573e-032 3.94762168377158e-015 -1.0
outer loop
vertex 120.980762113533 68.7916512459889 0.999999999999998
vertex 90.9807621135332 66.332870317515 1.32370465025384
vertex 90.9807621135332 68.7916512459889 0.999999999999998
endloop
endfacet
facet normal -8.68550274013256e-032 -0.258819045102516 -0.965925826289069
outer loop
vertex 90.9807621135332 66.332870317515 1.32370465025384
vertex 120.980762113533 68.7916512459889 0.999999999999998
vertex 120.980762113533 66.332870317515 1.32370465025384
endloop
endfacet
facet normal 0.0 -1.0 0.0
outer loop
vertex 77.9903810567666 65.8275496308511 5.0
vertex 75.7017059221718 65.8275496308511 3.0
vertex 77.9903810567666 65.8275496308511 3.0
endloop
endfacet
facet normal 0.0 -1.0 0.0
outer loop
vertex 75.7017059221718 65.8275496308511 3.0
vertex 77.9903810567666 65.8275496308511 5.0
vertex 75.7017059221718 65.8275496308511 5.0
endloop
endfacet
facet normal 0.866025403784438 -0.500000000000001 0.0
outer loop
vertex 75.7017059221718 65.8275496308511 3.0
vertex 74.3743556529821 63.5285115251744 5.0
vertex 74.3743556529821 63.5285115251744 3.0
endloop
endfacet
facet normal 0.866025403784438 -0.500000000000001 0.0
outer loop
vertex 74.3743556529821 63.5285115251744 5.0
vertex 75.7017059221718 65.8275496308511 3.0
vertex 75.7017059221718 65.8275496308511 5.0
endloop
endfacet
facet normal 7.78720872025128e-032 0.499999999999997 0.86602540378444
outer loop
vertex 120.980762113533 73.5416512459888 18.7272413359522
vertex 90.9807621135332 75.509165667261 17.2175144212722
vertex 90.9807621135332 73.5416512459888 18.7272413359522
endloop
endfacet
facet normal 6.35822929505576e-032 0.707106781186544 0.707106781186551
outer loop
vertex 90.9807621135332 75.509165667261 17.2175144212722
vertex 120.980762113533 73.5416512459888 18.7272413359522
vertex 120.980762113533 75.509165667261 17.2175144212722
endloop
endfacet
facet normal 6.35822929505576e-032 0.707106781186544 0.707106781186551
outer loop
vertex 90.9807621135332 75.509165667261 17.2175144212722
vertex 120.980762113533 76.2916512459889 16.1977593611918
vertex 90.9807621135332 76.2916512459889 16.1977593611918
endloop
endfacet
facet normal 5.47391830287388e-032 0.793353340291231 0.608761429008727
outer loop
vertex 120.980762113533 76.2916512459889 16.1977593611918
vertex 90.9807621135332 75.509165667261 17.2175144212722
vertex 120.980762113533 75.509165667261 17.2175144212722
endloop
endfacet
facet normal 0.86602540378444 0.499999999999997 0.0
outer loop
vertex 79.413030787577 72.2557528611266 3.0
vertex 80.5573683548744 70.2737020535577 5.0
vertex 80.5573683548744 70.2737020535577 3.0
endloop
endfacet
facet normal 0.86602540378444 0.499999999999997 0.0
outer loop
vertex 80.5573683548744 70.2737020535577 5.0
vertex 79.413030787577 72.2557528611266 3.0
vertex 79.413030787577 72.2557528611266 5.0
endloop
endfacet
facet normal 1.0 -9.84806935062988e-047 -8.99189410174573e-032
outer loop
vertex 120.980762113533 64.0416512459889 2.27275866404781
vertex 120.980762113533 63.2916512459888 10.5
vertex 120.980762113533 62.0741368247167 3.78248557872777
endloop
endfacet
facet normal 1.0 -9.84806935062988e-047 -8.99189410174573e-032
outer loop
vertex 120.980762113533 63.2916512459888 10.5
vertex 120.980762113533 64.0416512459889 2.27275866404781
vertex 120.980762113533 63.7103138171768 8.395241121992
endloop
endfacet
facet normal 1.0 -9.84806935062988e-047 -8.99189410174573e-032
outer loop
vertex 120.980762113533 63.7103138171768 8.395241121992
vertex 120.980762113533 64.0416512459889 2.27275866404781
vertex 120.980762113533 64.9025639494629 6.61091270347399
endloop
endfacet
facet normal 1.0 -9.84806935062988e-047 -8.99189410174573e-032
outer loop
vertex 120.980762113533 64.9025639494629 6.61091270347399
vertex 120.980762113533 64.0416512459889 2.27275866404781
vertex 120.980762113533 66.332870317515 1.32370465025384
endloop
endfacet
facet normal 1.0 -9.84806935062988e-047 -8.99189410174573e-032
outer loop
vertex 120.980762113533 64.9025639494629 6.61091270347399
vertex 120.980762113533 66.332870317515 1.32370465025384
vertex 120.980762113533 66.6868923679809 5.41866257118792
endloop
endfacet
facet normal 1.0 -9.84806935062988e-047 -8.99189410174573e-032
outer loop
vertex 120.980762113533 66.6868923679809 5.41866257118792
vertex 120.980762113533 66.332870317515 1.32370465025384
vertex 120.980762113533 68.7916512459889 0.999999999999998
endloop
endfacet
facet normal 1.0 -9.84806935062988e-047 -8.99189410174573e-032
outer loop
vertex 120.980762113533 66.6868923679809 5.41866257118792
vertex 120.980762113533 68.7916512459889 0.999999999999998
vertex 120.980762113533 68.7916512459889 5.0
endloop
endfacet
facet normal 1.0 -9.84806935062988e-047 -8.99189410174573e-032
outer loop
vertex 120.980762113533 68.7916512459889 5.0
vertex 120.980762113533 68.7916512459889 0.999999999999998
vertex 120.980762113533 70.8964101239968 5.41866257118792
endloop
endfacet
facet normal 1.0 -9.84806935062988e-047 -8.99189410174573e-032
outer loop
vertex 120.980762113533 70.8964101239968 5.41866257118792
vertex 120.980762113533 68.7916512459889 0.999999999999998
vertex 120.980762113533 71.2504321744628 1.32370465025386
endloop
endfacet
facet normal 1.0 -9.84806935062988e-047 -8.99189410174573e-032
outer loop
vertex 120.980762113533 70.8964101239968 5.41866257118792
vertex 120.980762113533 71.2504321744628 1.32370465025386
vertex 120.980762113533 72.6807385425149 6.61091270347399
endloop
endfacet
facet normal 1.0 -9.84806935062988e-047 -8.99189410174573e-032
outer loop
vertex 120.980762113533 72.6807385425149 6.61091270347399
vertex 120.980762113533 71.2504321744628 1.32370465025386
vertex 120.980762113533 73.5416512459889 2.27275866404785
endloop
endfacet
facet normal 1.0 -9.84806935062988e-047 -8.99189410174573e-032
outer loop
vertex 120.980762113533 72.6807385425149 6.61091270347399
vertex 120.980762113533 73.5416512459889 2.27275866404785
vertex 120.980762113533 73.872988674801 8.39524112199201
endloop
endfacet
facet normal 1.0 -9.84806935062988e-047 -8.99189410174573e-032
outer loop
vertex 120.980762113533 73.872988674801 8.39524112199201
vertex 120.980762113533 73.5416512459889 2.27275866404785
vertex 120.980762113533 75.5091656672611 3.78248557872783
endloop
endfacet
facet normal 1.0 -9.84806935062988e-047 -8.99189410174573e-032
outer loop
vertex 120.980762113533 73.872988674801 8.39524112199201
vertex 120.980762113533 75.5091656672611 3.78248557872783
vertex 120.980762113533 74.2916512459889 10.5
endloop
endfacet
facet normal 1.0 -9.84806935062988e-047 -8.99189410174573e-032
outer loop
vertex 120.980762113533 74.2916512459889 10.5
vertex 120.980762113533 75.5091656672611 3.78248557872783
vertex 120.980762113533 75.509165667261 17.2175144212722
endloop
endfacet
facet normal 1.0 -9.84806935062988e-047 -8.99189410174573e-032
outer loop
vertex 120.980762113533 75.509165667261 17.2175144212722
vertex 120.980762113533 75.5091656672611 3.78248557872783
vertex 120.980762113533 76.2916512459889 16.1977593611918
endloop
endfacet
facet normal 1.0 -9.84806935062988e-047 -8.99189410174573e-032
outer loop
vertex 120.980762113533 76.2916512459889 16.1977593611918
vertex 120.980762113533 75.5091656672611 3.78248557872783
vertex 120.980762113533 76.2916512459889 4.80224063880821
endloop
endfacet
facet normal 1.0 -9.84806935062988e-047 -8.99189410174573e-032
outer loop
vertex 120.980762113533 76.2916512459889 16.1977593611918
vertex 120.980762113533 76.2916512459889 4.80224063880821
vertex 120.980762113533 77.018892581941 5.75000000000003
endloop
endfacet
facet normal 1.0 -9.84806935062988e-047 -8.99189410174573e-032
outer loop
vertex 120.980762113533 76.2916512459889 16.1977593611918
vertex 120.980762113533 77.018892581941 5.75000000000003
vertex 120.980762113533 77.018892581941 15.25
endloop
endfacet
facet normal 1.0 -9.84806935062988e-047 -8.99189410174573e-032
outer loop
vertex 120.980762113533 77.018892581941 15.25
vertex 120.980762113533 77.018892581941 5.75000000000003
vertex 120.980762113533 77.967946595735 12.958780928474
endloop
endfacet
facet normal 1.0 -9.84806935062988e-047 -8.99189410174573e-032
outer loop
vertex 120.980762113533 77.967946595735 12.958780928474
vertex 120.980762113533 77.018892581941 5.75000000000003
vertex 120.980762113533 77.967946595735 8.04121907152609
endloop
endfacet
facet normal 1.0 -9.84806935062988e-047 -8.99189410174573e-032
outer loop
vertex 120.980762113533 77.967946595735 12.958780928474
vertex 120.980762113533 77.967946595735 8.04121907152609
vertex 120.980762113533 78.2916512459889 10.5
endloop
endfacet
facet normal 1.0 -9.84806935062988e-047 -8.99189410174573e-032
outer loop
vertex 120.980762113533 59.6153558962427 8.04121907152601
vertex 120.980762113533 59.6153558962427 12.9587809284739
vertex 120.980762113533 59.2916512459889 10.5
endloop
endfacet
facet normal 1.0 -9.84806935062988e-047 -8.99189410174573e-032
outer loop
vertex 120.980762113533 59.6153558962427 12.9587809284739
vertex 120.980762113533 59.6153558962427 8.04121907152601
vertex 120.980762113533 60.5644099100367 15.25
endloop
endfacet
facet normal 1.0 -9.84806935062988e-047 -8.99189410174573e-032
outer loop
vertex 120.980762113533 60.5644099100367 15.25
vertex 120.980762113533 59.6153558962427 8.04121907152601
vertex 120.980762113533 60.5644099100367 5.74999999999996
endloop
endfacet
facet normal 1.0 -9.84806935062988e-047 -8.99189410174573e-032
outer loop
vertex 120.980762113533 60.5644099100367 15.25
vertex 120.980762113533 60.5644099100367 5.74999999999996
vertex 120.980762113533 61.2916512459888 16.1977593611918
endloop
endfacet
facet normal 1.0 -9.84806935062988e-047 -8.99189410174573e-032
outer loop
vertex 120.980762113533 61.2916512459888 16.1977593611918
vertex 120.980762113533 60.5644099100367 5.74999999999996
vertex 120.980762113533 61.2916512459888 4.80224063880823
endloop
endfacet
facet normal 1.0 -9.84806935062988e-047 -8.99189410174573e-032
outer loop
vertex 120.980762113533 61.2916512459888 16.1977593611918
vertex 120.980762113533 61.2916512459888 4.80224063880823
vertex 120.980762113533 62.0741368247167 3.78248557872777
endloop
endfacet
facet normal 1.0 -9.84806935062988e-047 -8.99189410174573e-032
outer loop
vertex 120.980762113533 61.2916512459888 16.1977593611918
vertex 120.980762113533 62.0741368247167 3.78248557872777
vertex 120.980762113533 62.0741368247166 17.2175144212722
endloop
endfacet
facet normal 1.0 -9.84806935062988e-047 -8.99189410174573e-032
outer loop
vertex 120.980762113533 62.0741368247166 17.2175144212722
vertex 120.980762113533 62.0741368247167 3.78248557872777
vertex 120.980762113533 64.0416512459888 18.7272413359521
endloop
endfacet
facet normal 1.0 -9.84806935062988e-047 -8.99189410174573e-032
outer loop
vertex 120.980762113533 64.0416512459888 18.7272413359521
vertex 120.980762113533 62.0741368247167 3.78248557872777
vertex 120.980762113533 63.2916512459888 10.5
endloop
endfacet
facet normal 1.0 -9.84806935062988e-047 -8.99189410174573e-032
outer loop
vertex 120.980762113533 64.0416512459888 18.7272413359521
vertex 120.980762113533 63.2916512459888 10.5
vertex 120.980762113533 63.7103138171768 12.604758878008
endloop
endfacet
facet normal 1.0 -9.84806935062988e-047 -8.99189410174573e-032
outer loop
vertex 120.980762113533 64.0416512459888 18.7272413359521
vertex 120.980762113533 63.7103138171768 12.604758878008
vertex 120.980762113533 64.9025639494629 14.389087296526
endloop
endfacet
facet normal 1.0 -9.84806935062988e-047 -8.99189410174573e-032
outer loop
vertex 120.980762113533 64.0416512459888 18.7272413359521
vertex 120.980762113533 64.9025639494629 14.389087296526
vertex 120.980762113533 66.3328703175149 19.6762953497461
endloop
endfacet
facet normal 1.0 -9.84806935062988e-047 -8.99189410174573e-032
outer loop
vertex 120.980762113533 66.3328703175149 19.6762953497461
vertex 120.980762113533 64.9025639494629 14.389087296526
vertex 120.980762113533 66.6868923679809 15.5813374288121
endloop
endfacet
facet normal 1.0 -9.84806935062988e-047 -8.99189410174573e-032
outer loop
vertex 120.980762113533 66.3328703175149 19.6762953497461
vertex 120.980762113533 66.6868923679809 15.5813374288121
vertex 120.980762113533 68.7916512459888 20.0
endloop
endfacet
facet normal 1.0 -9.84806935062988e-047 -8.99189410174573e-032
outer loop
vertex 120.980762113533 68.7916512459888 20.0
vertex 120.980762113533 66.6868923679809 15.5813374288121
vertex 120.980762113533 68.7916512459889 16.0
endloop
endfacet
facet normal 1.0 -9.84806935062988e-047 -8.99189410174573e-032
outer loop
vertex 120.980762113533 68.7916512459888 20.0
vertex 120.980762113533 68.7916512459889 16.0
vertex 120.980762113533 71.2504321744627 19.6762953497462
endloop
endfacet
facet normal 1.0 -9.84806935062988e-047 -8.99189410174573e-032
outer loop
vertex 120.980762113533 71.2504321744627 19.6762953497462
vertex 120.980762113533 68.7916512459889 16.0
vertex 120.980762113533 70.8964101239968 15.5813374288121
endloop
endfacet
facet normal 1.0 -9.84806935062988e-047 -8.99189410174573e-032
outer loop
vertex 120.980762113533 71.2504321744627 19.6762953497462
vertex 120.980762113533 70.8964101239968 15.5813374288121
vertex 120.980762113533 72.6807385425149 14.389087296526
endloop
endfacet
facet normal 1.0 -9.84806935062988e-047 -8.99189410174573e-032
outer loop
vertex 120.980762113533 71.2504321744627 19.6762953497462
vertex 120.980762113533 72.6807385425149 14.389087296526
vertex 120.980762113533 73.5416512459888 18.7272413359522
endloop
endfacet
facet normal 1.0 -9.84806935062988e-047 -8.99189410174573e-032
outer loop
vertex 120.980762113533 73.5416512459888 18.7272413359522
vertex 120.980762113533 72.6807385425149 14.389087296526
vertex 120.980762113533 73.872988674801 12.604758878008
endloop
endfacet
facet normal 1.0 -9.84806935062988e-047 -8.99189410174573e-032
outer loop
vertex 120.980762113533 73.5416512459888 18.7272413359522
vertex 120.980762113533 73.872988674801 12.604758878008
vertex 120.980762113533 75.509165667261 17.2175144212722
endloop
endfacet
facet normal 1.0 -9.84806935062988e-047 -8.99189410174573e-032
outer loop
vertex 120.980762113533 75.509165667261 17.2175144212722
vertex 120.980762113533 73.872988674801 12.604758878008
vertex 120.980762113533 74.2916512459889 10.5
endloop
endfacet
facet normal -5.47391830287376e-032 0.79335334029124 -0.608761429008715
outer loop
vertex 90.9807621135332 76.2916512459889 4.80224063880821
vertex 120.980762113533 75.5091656672611 3.78248557872783
vertex 90.9807621135332 75.5091656672611 3.78248557872783
endloop
endfacet
facet normal -6.35822929505568e-032 0.707106781186552 -0.707106781186543
outer loop
vertex 120.980762113533 75.5091656672611 3.78248557872783
vertex 90.9807621135332 76.2916512459889 4.80224063880821
vertex 120.980762113533 76.2916512459889 4.80224063880821
endloop
endfacet
facet normal -7.78720872025128e-032 -0.499999999999997 -0.86602540378444
outer loop
vertex 120.980762113533 64.0416512459889 2.27275866404781
vertex 90.9807621135332 62.0741368247167 3.78248557872777
vertex 90.9807621135332 64.0416512459889 2.27275866404781
endloop
endfacet
facet normal -6.35822929505577e-032 -0.707106781186544 -0.707106781186551
outer loop
vertex 90.9807621135332 62.0741368247167 3.78248557872777
vertex 120.980762113533 64.0416512459889 2.27275866404781
vertex 120.980762113533 62.0741368247167 3.78248557872777
endloop
endfacet
facet normal 0.0 1.0 0.0
outer loop
vertex 74.3743556529821 63.5285115251744 5.0
vertex 81.606406460551 63.5285115251744 3.0
vertex 74.3743556529821 63.5285115251744 3.0
endloop
endfacet
facet normal 0.0 1.0 0.0
outer loop
vertex 81.606406460551 63.5285115251744 3.0
vertex 74.3743556529821 63.5285115251744 5.0
vertex 81.606406460551 63.5285115251744 5.0
endloop
endfacet
facet normal -6.35822929505568e-032 0.707106781186552 -0.707106781186543
outer loop
vertex 120.980762113533 75.5091656672611 3.78248557872783
vertex 90.9807621135332 73.5416512459889 2.27275866404785
vertex 90.9807621135332 75.5091656672611 3.78248557872783
endloop
endfacet
facet normal -7.78720872025124e-032 0.500000000000003 -0.866025403784437
outer loop
vertex 90.9807621135332 73.5416512459889 2.27275866404785
vertex 120.980762113533 75.5091656672611 3.78248557872783
vertex 120.980762113533 73.5416512459889 2.27275866404785
endloop
endfacet
facet normal 0.0 -0.923879532511285 -0.382683432365094
outer loop
vertex 120.980762113533 59.6153558962427 8.04121907152601
vertex 89.7211431702998 60.5644099100367 5.74999999999996
vertex 120.980762113533 60.5644099100367 5.74999999999996
endloop
endfacet
facet normal 0.0 -0.923879532511285 -0.382683432365094
outer loop
vertex 89.7211431702998 60.5644099100367 5.74999999999996
vertex 120.980762113533 59.6153558962427 8.04121907152601
vertex 88.0773333992814 59.6153558962427 8.04121907152601
endloop
endfacet
facet normal -3.67983685403014e-017 -0.793353340291229 -0.608761429008728
outer loop
vertex 120.980762113533 60.5644099100367 5.74999999999996
vertex 90.9807621135332 61.2916512459888 4.80224063880823
vertex 120.980762113533 61.2916512459888 4.80224063880823
endloop
endfacet
facet normal -3.67983685403014e-017 -0.793353340291229 -0.608761429008728
outer loop
vertex 90.9807621135332 61.2916512459888 4.80224063880823
vertex 120.980762113533 60.5644099100367 5.74999999999996
vertex 89.7211431702998 60.5644099100367 5.74999999999996
endloop
endfacet
facet normal 2.47776221172805e-017 -0.923879532511285 0.382683432365093
outer loop
vertex 120.980762113533 60.5644099100367 15.25
vertex 88.0773333992814 59.6153558962427 12.9587809284739
vertex 120.980762113533 59.6153558962427 12.9587809284739
endloop
endfacet
facet normal 2.47776221172805e-017 -0.923879532511285 0.382683432365093
outer loop
vertex 88.0773333992814 59.6153558962427 12.9587809284739
vertex 120.980762113533 60.5644099100367 15.25
vertex 89.7211431702997 60.5644099100367 15.25
endloop
endfacet
facet normal -1.0 -9.39988827515967e-016 -3.75995531006386e-016
outer loop
vertex 88.3826859021798 68.7916512459889 5.0
vertex 88.3826859021799 62.7916512459889 0.0
vertex 88.3826859021799 62.7916512459889 5.0
endloop
endfacet
facet normal -1.0 -9.39988827515967e-016 -3.75995531006386e-016
outer loop
vertex 88.3826859021799 62.7916512459889 0.0
vertex 88.3826859021798 68.7916512459889 5.0
vertex 88.3826859021798 74.7916512459888 0.0
endloop
endfacet
facet normal -1.0 -9.39988827515967e-016 -3.75995531006386e-016
outer loop
vertex 88.3826859021798 74.7916512459888 0.0
vertex 88.3826859021798 68.7916512459889 5.0
vertex 88.3826859021798 74.7916512459888 5.0
endloop
endfacet
facet normal -7.35967370805786e-017 -0.79335334029124 0.608761429008714
outer loop
vertex 120.980762113533 61.2916512459888 16.1977593611918
vertex 89.7211431702997 60.5644099100367 15.25
vertex 120.980762113533 60.5644099100367 15.25
endloop
endfacet
facet normal -7.35967370805786e-017 -0.79335334029124 0.608761429008714
outer loop
vertex 89.7211431702997 60.5644099100367 15.25
vertex 120.980762113533 61.2916512459888 16.1977593611918
vertex 90.9807621135332 61.2916512459888 16.1977593611918
endloop
endfacet
facet normal 0.0 0.0 1.0
outer loop
vertex 74.3743556529821 63.5285115251744 5.0
vertex 75.4233937586588 70.2737020535577 5.0
vertex 74.2790561913614 68.2916512459888 5.0
endloop
endfacet
facet normal 0.0 0.0 1.0
outer loop
vertex 75.4233937586588 70.2737020535577 5.0
vertex 74.3743556529821 63.5285115251744 5.0
vertex 75.7017059221718 65.8275496308511 5.0
endloop
endfacet
facet normal 0.0 0.0 1.0
outer loop
vertex 75.4233937586588 70.2737020535577 5.0
vertex 75.7017059221718 65.8275496308511 5.0
vertex 76.7068874077127 68.0506258422044 5.0
endloop
endfacet
facet normal 0.0 0.0 1.0
outer loop
vertex 76.7068874077127 68.0506258422044 5.0
vertex 75.7017059221718 65.8275496308511 5.0
vertex 77.9903810567666 65.8275496308511 5.0
endloop
endfacet
facet normal 0.0 0.0 1.0
outer loop
vertex 67.5980762113534 62.7916512459889 5.0
vertex 77.9903810567666 80.7916512459888 5.0
vertex 67.5980762113533 74.7916512459888 5.0
endloop
endfacet
facet normal 0.0 0.0 1.0
outer loop
vertex 77.9903810567666 80.7916512459888 5.0
vertex 67.5980762113534 62.7916512459889 5.0
vertex 71.6243556529822 68.2916512459888 5.0
endloop
endfacet
facet normal 0.0 0.0 1.0
outer loop
vertex 77.9903810567666 80.7916512459888 5.0
vertex 71.6243556529822 68.2916512459888 5.0
vertex 75.2403810567666 74.5547909668032 5.0
endloop
endfacet
facet normal 0.0 0.0 1.0
outer loop
vertex 77.9903810567666 80.7916512459888 5.0
vertex 75.2403810567666 74.5547909668032 5.0
vertex 76.5677313259562 72.2557528611266 5.0
endloop
endfacet
facet normal 0.0 0.0 1.0
outer loop
vertex 77.9903810567666 56.7916512459889 5.0
vertex 71.6243556529822 68.2916512459888 5.0
vertex 67.5980762113534 62.7916512459889 5.0
endloop
endfacet
facet normal 0.0 0.0 1.0
outer loop
vertex 71.6243556529822 68.2916512459888 5.0
vertex 77.9903810567666 56.7916512459889 5.0
vertex 74.3743556529821 63.5285115251744 5.0
endloop
endfacet
facet normal 0.0 0.0 1.0
outer loop
vertex 71.6243556529822 68.2916512459888 5.0
vertex 74.3743556529821 63.5285115251744 5.0
vertex 74.2790561913614 68.2916512459888 5.0
endloop
endfacet
facet normal 0.0 0.0 1.0
outer loop
vertex 74.3743556529821 63.5285115251744 5.0
vertex 77.9903810567666 56.7916512459889 5.0
vertex 81.606406460551 63.5285115251744 5.0
endloop
endfacet
facet normal 0.0 0.0 1.0
outer loop
vertex 81.606406460551 63.5285115251744 5.0
vertex 77.9903810567666 56.7916512459889 5.0
vertex 88.3826859021799 62.7916512459889 5.0
endloop
endfacet
facet normal 0.0 0.0 1.0
outer loop
vertex 81.606406460551 63.5285115251744 5.0
vertex 88.3826859021799 62.7916512459889 5.0
vertex 81.7017059221718 68.2916512459888 5.0
endloop
endfacet
facet normal 0.0 0.0 1.0
outer loop
vertex 81.7017059221718 68.2916512459888 5.0
vertex 88.3826859021799 62.7916512459889 5.0
vertex 84.356406460551 68.2916512459888 5.0
endloop
endfacet
facet normal 0.0 0.0 1.0
outer loop
vertex 84.356406460551 68.2916512459888 5.0
vertex 88.3826859021799 62.7916512459889 5.0
vertex 88.3826859021798 68.7916512459889 5.0
endloop
endfacet
facet normal 0.0 0.0 1.0
outer loop
vertex 77.9903810567666 80.7916512459888 5.0
vertex 80.7403810567666 74.5547909668032 5.0
vertex 88.3826859021798 74.7916512459888 5.0
endloop
endfacet
facet normal 0.0 0.0 1.0
outer loop
vertex 80.7403810567666 74.5547909668032 5.0
vertex 77.9903810567666 80.7916512459888 5.0
vertex 79.413030787577 72.2557528611266 5.0
endloop
endfacet
facet normal 0.0 0.0 1.0
outer loop
vertex 88.3826859021798 74.7916512459888 5.0
vertex 80.7403810567666 74.5547909668032 5.0
vertex 84.356406460551 68.2916512459888 5.0
endloop
endfacet
facet normal 0.0 0.0 1.0
outer loop
vertex 88.3826859021798 74.7916512459888 5.0
vertex 84.356406460551 68.2916512459888 5.0
vertex 88.3826859021798 68.7916512459889 5.0
endloop
endfacet
facet normal 0.0 0.0 1.0
outer loop
vertex 80.2790561913614 65.8275496308511 5.0
vertex 79.2738747058205 68.0506258422044 5.0
vertex 77.9903810567666 65.8275496308511 5.0
endloop
endfacet
facet normal 0.0 0.0 1.0
outer loop
vertex 79.2738747058205 68.0506258422044 5.0
vertex 80.2790561913614 65.8275496308511 5.0
vertex 80.5573683548744 70.2737020535577 5.0
endloop
endfacet
facet normal 0.0 0.0 1.0
outer loop
vertex 80.5573683548744 70.2737020535577 5.0
vertex 80.2790561913614 65.8275496308511 5.0
vertex 81.606406460551 63.5285115251744 5.0
endloop
endfacet
facet normal 0.0 0.0 1.0
outer loop
vertex 80.5573683548744 70.2737020535577 5.0
vertex 81.606406460551 63.5285115251744 5.0
vertex 81.7017059221718 68.2916512459888 5.0
endloop
endfacet
facet normal 0.0 0.0 1.0
outer loop
vertex 80.5573683548744 70.2737020535577 5.0
vertex 76.5677313259562 72.2557528611266 5.0
vertex 75.4233937586588 70.2737020535577 5.0
endloop
endfacet
facet normal 0.0 0.0 1.0
outer loop
vertex 76.5677313259562 72.2557528611266 5.0
vertex 80.5573683548744 70.2737020535577 5.0
vertex 79.413030787577 72.2557528611266 5.0
endloop
endfacet
facet normal 0.0 0.0 1.0
outer loop
vertex 76.5677313259562 72.2557528611266 5.0
vertex 79.413030787577 72.2557528611266 5.0
vertex 77.9903810567666 80.7916512459888 5.0
endloop
endfacet
facet normal 3.09763439202642e-016 -0.38268343236509 0.923879532511287
outer loop
vertex 120.980762113533 66.6868923679809 15.5813374288121
vertex 88.3826859021798 68.7916512459889 16.0
vertex 88.3826859021798 66.6868923679809 15.5813374288121
endloop
endfacet
facet normal 8.08666869011255e-018 -0.195090322016131 0.98078528040323
outer loop
vertex 88.3826859021798 68.7916512459889 16.0
vertex 120.980762113533 66.6868923679809 15.5813374288121
vertex 120.980762113533 68.7916512459889 16.0
endloop
endfacet
facet normal 8.08666869011021e-018 -0.19509032201613 -0.98078528040323
outer loop
vertex 120.980762113533 68.7916512459889 5.0
vertex 88.3826859021798 66.6868923679809 5.41866257118792
vertex 88.3826859021798 68.7916512459889 5.0
endloop
endfacet
facet normal 3.09763439202641e-016 -0.38268343236509 -0.923879532511287
outer loop
vertex 88.3826859021798 66.6868923679809 5.41866257118792
vertex 120.980762113533 68.7916512459889 5.0
vertex 120.980762113533 66.6868923679809 5.41866257118792
endloop
endfacet
facet normal 1.07913660385545e-015 -1.0 0.0
outer loop
vertex 120.980762113533 63.2916512459888 10.5
vertex 88.3826859021798 63.7103138171768 8.395241121992
vertex 120.980762113533 63.7103138171768 8.395241121992
endloop
endfacet
facet normal 9.96992221085789e-016 -0.923879532511285 -0.382683432365095
outer loop
vertex 88.3826859021798 63.7103138171768 8.395241121992
vertex 120.980762113533 63.2916512459888 10.5
vertex 88.3826859021798 63.2916512459888 10.5
endloop
endfacet
facet normal 9.96992221085789e-016 -0.923879532511285 0.382683432365095
outer loop
vertex 120.980762113533 63.7103138171768 12.604758878008
vertex 88.3826859021798 63.2916512459888 10.5
vertex 120.980762113533 63.2916512459888 10.5
endloop
endfacet
facet normal 1.07913660385545e-015 -1.0 0.0
outer loop
vertex 88.3826859021798 63.2916512459888 10.5
vertex 120.980762113533 63.7103138171768 12.604758878008
vertex 88.3826859021798 63.7103138171768 12.604758878008
endloop
endfacet
facet normal 3.09763439202641e-016 -0.38268343236509 -0.923879532511287
outer loop
vertex 120.980762113533 66.6868923679809 5.41866257118792
vertex 88.3826859021798 64.9025639494629 6.61091270347399
vertex 88.3826859021798 66.6868923679809 5.41866257118792
endloop
endfacet
facet normal 7.63064810412805e-016 -0.707106781186543 -0.707106781186552
outer loop
vertex 88.3826859021798 64.9025639494629 6.61091270347399
vertex 120.980762113533 66.6868923679809 5.41866257118792
vertex 120.980762113533 64.9025639494629 6.61091270347399
endloop
endfacet
facet normal 7.63064810412805e-016 -0.707106781186543 0.707106781186552
outer loop
vertex 120.980762113533 64.9025639494629 14.389087296526
vertex 88.3826859021798 63.7103138171768 12.604758878008
vertex 120.980762113533 63.7103138171768 12.604758878008
endloop
endfacet
facet normal 9.96992221085789e-016 -0.923879532511285 0.382683432365095
outer loop
vertex 88.3826859021798 63.7103138171768 12.604758878008
vertex 120.980762113533 64.9025639494629 14.389087296526
vertex 88.3826859021798 64.9025639494629 14.389087296526
endloop
endfacet
facet normal 9.96992221085789e-016 -0.923879532511285 -0.382683432365095
outer loop
vertex 120.980762113533 63.7103138171768 8.395241121992
vertex 88.3826859021798 64.9025639494629 6.61091270347399
vertex 120.980762113533 64.9025639494629 6.61091270347399
endloop
endfacet
facet normal 7.63064810412805e-016 -0.707106781186543 -0.707106781186552
outer loop
vertex 88.3826859021798 64.9025639494629 6.61091270347399
vertex 120.980762113533 63.7103138171768 8.395241121992
vertex 88.3826859021798 63.7103138171768 8.395241121992
endloop
endfacet
facet normal 7.63064810412805e-016 -0.707106781186543 0.707106781186552
outer loop
vertex 120.980762113533 64.9025639494629 14.389087296526
vertex 88.3826859021798 66.6868923679809 15.5813374288121
vertex 88.3826859021798 64.9025639494629 14.389087296526
endloop
endfacet
facet normal 3.09763439202642e-016 -0.38268343236509 0.923879532511287
outer loop
vertex 88.3826859021798 66.6868923679809 15.5813374288121
vertex 120.980762113533 64.9025639494629 14.389087296526
vertex 120.980762113533 66.6868923679809 15.5813374288121
endloop
endfacet
facet normal 3.67983685403067e-017 0.793353340291229 0.608761429008728
outer loop
vertex 90.9807621135332 76.2916512459889 16.1977593611918
vertex 120.980762113533 77.018892581941 15.25
vertex 89.7211431702999 77.018892581941 15.25
endloop
endfacet
facet normal 3.67983685403067e-017 0.793353340291229 0.608761429008728
outer loop
vertex 120.980762113533 77.018892581941 15.25
vertex 90.9807621135332 76.2916512459889 16.1977593611918
vertex 120.980762113533 76.2916512459889 16.1977593611918
endloop
endfacet
facet normal 1.0 3.30861085844952e-030 1.53426930063836e-015
outer loop
vertex 90.9807621135332 61.2916512459888 0.0
vertex 90.9807621135332 62.0741368247167 3.78248557872777
vertex 90.9807621135332 61.2916512459888 4.80224063880823
endloop
endfacet
facet normal 1.0 3.30861085844952e-030 1.53426930063836e-015
outer loop
vertex 90.9807621135332 62.0741368247167 3.78248557872777
vertex 90.9807621135332 61.2916512459888 0.0
vertex 90.9807621135332 64.0416512459889 2.27275866404781
endloop
endfacet
facet normal 1.0 3.30861085844952e-030 1.53426930063836e-015
outer loop
vertex 90.9807621135332 64.0416512459889 2.27275866404781
vertex 90.9807621135332 61.2916512459888 0.0
vertex 90.9807621135332 66.332870317515 1.32370465025384
endloop
endfacet
facet normal 1.0 3.30861085844952e-030 1.53426930063836e-015
outer loop
vertex 90.9807621135332 66.332870317515 1.32370465025384
vertex 90.9807621135332 61.2916512459888 0.0
vertex 90.9807621135332 76.2916512459889 0.0
endloop
endfacet
facet normal 1.0 3.30861085844952e-030 1.53426930063836e-015
outer loop
vertex 90.9807621135332 66.332870317515 1.32370465025384
vertex 90.9807621135332 76.2916512459889 0.0
vertex 90.9807621135332 68.7916512459889 0.999999999999998
endloop
endfacet
facet normal 1.0 3.30861085844952e-030 1.53426930063836e-015
outer loop
vertex 90.9807621135332 68.7916512459889 0.999999999999998
vertex 90.9807621135332 76.2916512459889 0.0
vertex 90.9807621135332 71.2504321744628 1.32370465025386
endloop
endfacet
facet normal 1.0 3.30861085844952e-030 1.53426930063836e-015
outer loop
vertex 90.9807621135332 71.2504321744628 1.32370465025386
vertex 90.9807621135332 76.2916512459889 0.0
vertex 90.9807621135332 73.5416512459889 2.27275866404785
endloop
endfacet
facet normal 1.0 3.30861085844952e-030 1.53426930063836e-015
outer loop
vertex 90.9807621135332 73.5416512459889 2.27275866404785
vertex 90.9807621135332 76.2916512459889 0.0
vertex 90.9807621135332 75.5091656672611 3.78248557872783
endloop
endfacet
facet normal 1.0 3.30861085844952e-030 1.53426930063836e-015
outer loop
vertex 90.9807621135332 75.5091656672611 3.78248557872783
vertex 90.9807621135332 76.2916512459889 0.0
vertex 90.9807621135332 76.2916512459889 4.80224063880821
endloop
endfacet
facet normal 7.35967370805893e-017 0.79335334029124 -0.608761429008714
outer loop
vertex 89.7211431702998 77.018892581941 5.75000000000003
vertex 120.980762113533 76.2916512459889 4.80224063880821
vertex 90.9807621135332 76.2916512459889 4.80224063880821
endloop
endfacet
facet normal 7.35967370805893e-017 0.79335334029124 -0.608761429008714
outer loop
vertex 120.980762113533 76.2916512459889 4.80224063880821
vertex 89.7211431702998 77.018892581941 5.75000000000003
vertex 120.980762113533 77.018892581941 5.75000000000003
endloop
endfacet
facet normal 1.0 -3.13893429296724e-015 -3.84578751606426e-015
outer loop
vertex 90.9807621135332 71.2504321744627 19.6762953497462
vertex 90.9807621135332 76.2916512459889 20.0
vertex 90.9807621135332 68.7916512459888 20.0
endloop
endfacet
facet normal 1.0 -3.13893429296724e-015 -3.84578751606426e-015
outer loop
vertex 90.9807621135332 76.2916512459889 20.0
vertex 90.9807621135332 71.2504321744627 19.6762953497462
vertex 90.9807621135332 73.5416512459888 18.7272413359522
endloop
endfacet
facet normal 1.0 -3.13893429296724e-015 -3.84578751606426e-015
outer loop
vertex 90.9807621135332 76.2916512459889 20.0
vertex 90.9807621135332 73.5416512459888 18.7272413359522
vertex 90.9807621135332 75.509165667261 17.2175144212722
endloop
endfacet
facet normal 1.0 -3.13893429296724e-015 -3.84578751606426e-015
outer loop
vertex 90.9807621135332 76.2916512459889 20.0
vertex 90.9807621135332 75.509165667261 17.2175144212722
vertex 90.9807621135332 76.2916512459889 16.1977593611918
endloop
endfacet
facet normal -2.83007444497295e-018 0.991444861373812 -0.130526192220041
outer loop
vertex 87.5166604983955 78.2916512459889 10.5
vertex 120.980762113533 77.967946595735 8.04121907152609
vertex 88.0773333992814 77.967946595735 8.04121907152609
endloop
endfacet
facet normal -2.83007444497295e-018 0.991444861373812 -0.130526192220041
outer loop
vertex 120.980762113533 77.967946595735 8.04121907152609
vertex 87.5166604983955 78.2916512459889 10.5
vertex 120.980762113533 78.2916512459889 10.5
endloop
endfacet
facet normal -1.41503722248652e-018 0.991444861373809 0.13052619222006
outer loop
vertex 88.0773333992815 77.967946595735 12.958780928474
vertex 120.980762113533 78.2916512459889 10.5
vertex 87.5166604983955 78.2916512459889 10.5
endloop
endfacet
facet normal -1.41503722248652e-018 0.991444861373809 0.13052619222006
outer loop
vertex 120.980762113533 78.2916512459889 10.5
vertex 88.0773333992815 77.967946595735 12.958780928474
vertex 120.980762113533 77.967946595735 12.958780928474
endloop
endfacet
facet normal 0.0 0.923879532511285 0.382683432365094
outer loop
vertex 89.7211431702999 77.018892581941 15.25
vertex 120.980762113533 77.967946595735 12.958780928474
vertex 88.0773333992815 77.967946595735 12.958780928474
endloop
endfacet
facet normal 0.0 0.923879532511285 0.382683432365094
outer loop
vertex 120.980762113533 77.967946595735 12.958780928474
vertex 89.7211431702999 77.018892581941 15.25
vertex 120.980762113533 77.018892581941 15.25
endloop
endfacet
facet normal 0.0 0.923879532511285 -0.382683432365093
outer loop
vertex 88.0773333992814 77.967946595735 8.04121907152609
vertex 120.980762113533 77.018892581941 5.75000000000003
vertex 89.7211431702998 77.018892581941 5.75000000000003
endloop
endfacet
facet normal 0.0 0.923879532511285 -0.382683432365093
outer loop
vertex 120.980762113533 77.018892581941 5.75000000000003
vertex 88.0773333992814 77.967946595735 8.04121907152609
vertex 120.980762113533 77.967946595735 8.04121907152609
endloop
endfacet
endsolid foot
