solid foot
facet normal 0.0 0.0 -1.0
outer loop
vertex 65.0 71.2916512459889 0.0
vertex 0.0 66.2916512459889 0.0
vertex 0.0 71.2916512459889 0.0
endloop
endfacet
facet normal 0.0 0.0 -1.0
outer loop
vertex 0.0 66.2916512459889 0.0
vertex 65.0 71.2916512459889 0.0
vertex 65.0 66.2916512459889 0.0
endloop
endfacet
facet normal 0.0 0.0 -1.0
outer loop
vertex 65.0 66.2916512459889 0.0
vertex 65.0 71.2916512459889 0.0
vertex 65.0 76.2916512459889 0.0
endloop
endfacet
facet normal 0.0 0.0 -1.0
outer loop
vertex 65.0 66.2916512459889 0.0
vertex 77.9903810567666 53.7916512459888 0.0
vertex 65.0 61.2916512459888 0.0
endloop
endfacet
facet normal 0.0 0.0 -1.0
outer loop
vertex 77.9903810567666 53.7916512459888 0.0
vertex 65.0 66.2916512459889 0.0
vertex 65.0 76.2916512459889 0.0
endloop
endfacet
facet normal 0.0 0.0 -1.0
outer loop
vertex 77.9903810567666 53.7916512459888 0.0
vertex 65.0 76.2916512459889 0.0
vertex 77.9903810567666 83.7916512459889 0.0
endloop
endfacet
facet normal 0.0 0.0 -1.0
outer loop
vertex 77.9903810567666 53.7916512459888 0.0
vertex 77.9903810567666 83.7916512459889 0.0
vertex 82.3205080756888 81.2916512459889 0.0
endloop
endfacet
facet normal 0.0 0.0 -1.0
outer loop
vertex 77.9903810567666 53.7916512459888 0.0
vertex 82.3205080756888 81.2916512459889 0.0
vertex 82.3205080756888 56.2916512459888 0.0
endloop
endfacet
facet normal 0.0 0.0 -1.0
outer loop
vertex 82.3205080756888 56.2916512459888 0.0
vertex 82.3205080756888 81.2916512459889 0.0
vertex 86.650635094611 58.7916512459885 0.0
endloop
endfacet
facet normal 0.0 0.0 -1.0
outer loop
vertex 82.3205080756888 56.2916512459888 0.0
vertex 86.650635094611 58.7916512459885 0.0
vertex 114.820508075688 0.0 0.0
endloop
endfacet
facet normal 0.0 0.0 -1.0
outer loop
vertex 114.820508075688 0.0 0.0
vertex 86.650635094611 58.7916512459885 0.0
vertex 119.150635094611 2.50000000000011 0.0
endloop
endfacet
facet normal 0.0 0.0 -1.0
outer loop
vertex 82.3205080756888 81.2916512459889 0.0
vertex 86.650635094611 78.7916512459888 0.0
vertex 86.650635094611 58.7916512459885 0.0
endloop
endfacet
facet normal 0.0 0.0 -1.0
outer loop
vertex 86.650635094611 78.7916512459888 0.0
vertex 82.3205080756888 81.2916512459889 0.0
vertex 114.820508075689 137.583302491977 0.0
endloop
endfacet
facet normal 0.0 0.0 -1.0
outer loop
vertex 86.650635094611 78.7916512459888 0.0
vertex 114.820508075689 137.583302491977 0.0
vertex 119.150635094611 135.083302491977 0.0
endloop
endfacet
facet normal 0.0 0.0 -1.0
outer loop
vertex 86.650635094611 78.7916512459888 0.0
vertex 90.9807621135332 61.2916512459888 0.0
vertex 86.650635094611 58.7916512459885 0.0
endloop
endfacet
facet normal 0.0 0.0 -1.0
outer loop
vertex 90.9807621135332 61.2916512459888 0.0
vertex 86.650635094611 78.7916512459888 0.0
vertex 90.9807621135332 76.2916512459889 0.0
endloop
endfacet
facet normal -1.0 0.0 0.0
outer loop
vertex 0.0 71.2916512459889 4.0
vertex 0.0 66.2916512459889 0.0
vertex 0.0 66.2916512459889 4.0
endloop
endfacet
facet normal -1.0 0.0 0.0
outer loop
vertex 0.0 66.2916512459889 0.0
vertex 0.0 71.2916512459889 4.0
vertex 0.0 71.2916512459889 0.0
endloop
endfacet
facet normal 0.0 -1.0 0.0
outer loop
vertex 65.0 66.2916512459889 13.0
vertex 0.0 66.2916512459889 0.0
vertex 65.0 66.2916512459889 0.0
endloop
endfacet
facet normal 0.0 -1.0 0.0
outer loop
vertex 0.0 66.2916512459889 0.0
vertex 65.0 66.2916512459889 13.0
vertex 0.0 66.2916512459889 4.0
endloop
endfacet
facet normal -0.137153058475343 0.0 0.990549866766363
outer loop
vertex 65.0 66.2916512459889 13.0
vertex 0.0 71.2916512459889 4.0
vertex 0.0 66.2916512459889 4.0
endloop
endfacet
facet normal -0.137153058475343 0.0 0.990549866766363
outer loop
vertex 0.0 71.2916512459889 4.0
vertex 65.0 66.2916512459889 13.0
vertex 65.0 71.2916512459889 13.0
endloop
endfacet
facet normal 0.0 1.0 0.0
outer loop
vertex 0.0 71.2916512459889 4.0
vertex 65.0 71.2916512459889 0.0
vertex 0.0 71.2916512459889 0.0
endloop
endfacet
facet normal 0.0 1.0 0.0
outer loop
vertex 65.0 71.2916512459889 0.0
vertex 0.0 71.2916512459889 4.0
vertex 65.0 71.2916512459889 13.0
endloop
endfacet
facet normal 0.0 0.707106781186543 -0.707106781186552
outer loop
vertex 120.980762113533 72.6807385425149 6.61091270347399
vertex 88.3826859021798 70.8964101239968 5.41866257118792
vertex 88.3826859021798 72.6807385425149 6.61091270347399
endloop
endfacet
facet normal -2.20650570618808e-018 0.38268343236509 -0.923879532511287
outer loop
vertex 88.3826859021798 70.8964101239968 5.41866257118792
vertex 120.980762113533 72.6807385425149 6.61091270347399
vertex 120.980762113533 70.8964101239969 5.41866257118792
endloop
endfacet
facet normal -9.41002024370547e-018 0.19509032201613 0.98078528040323
outer loop
vertex 120.980762113533 68.7916512459889 16.0
vertex 88.3826859021798 70.8964101239968 15.5813374288121
vertex 88.3826859021798 68.7916512459889 16.0
endloop
endfacet
facet normal -4.79718671952169e-018 0.38268343236509 0.923879532511287
outer loop
vertex 88.3826859021798 70.8964101239968 15.5813374288121
vertex 120.980762113533 68.7916512459889 16.0
vertex 120.980762113533 70.8964101239969 15.5813374288121
endloop
endfacet
facet normal 0.0 0.923879532511285 -0.382683432365094
outer loop
vertex 88.3826859021798 73.872988674801 8.39524112199201
vertex 120.980762113533 72.6807385425149 6.61091270347399
vertex 88.3826859021798 72.6807385425149 6.61091270347399
endloop
endfacet
facet normal 0.0 0.707106781186543 -0.707106781186552
outer loop
vertex 120.980762113533 72.6807385425149 6.61091270347399
vertex 88.3826859021798 73.872988674801 8.39524112199201
vertex 120.980762113533 73.872988674801 8.39524112199201
endloop
endfacet
facet normal -0.866025403784437 0.500000000000002 0.0
outer loop
vertex 114.820508075689 137.583302491977 4.0
vertex 82.3205080756888 81.2916512459889 0.0
vertex 82.3205080756888 81.2916512459889 13.0
endloop
endfacet
facet normal -0.866025403784437 0.500000000000002 0.0
outer loop
vertex 82.3205080756888 81.2916512459889 0.0
vertex 114.820508075689 137.583302491977 4.0
vertex 114.820508075689 137.583302491977 0.0
endloop
endfacet
facet normal 0.0 0.0 1.0
outer loop
vertex 80.5573683548744 70.2737020535577 3.0
vertex 80.7403810567666 74.5547909668032 3.0
vertex 79.413030787577 72.2557528611266 3.0
endloop
endfacet
facet normal 0.0 0.0 1.0
outer loop
vertex 80.7403810567666 74.5547909668032 3.0
vertex 80.5573683548744 70.2737020535577 3.0
vertex 81.7017059221718 68.2916512459888 3.0
endloop
endfacet
facet normal 0.0 0.0 1.0
outer loop
vertex 80.7403810567666 74.5547909668032 3.0
vertex 81.7017059221718 68.2916512459888 3.0
vertex 84.356406460551 68.2916512459888 3.0
endloop
endfacet
facet normal 0.0 0.707106781186543 0.707106781186552
outer loop
vertex 88.3826859021798 72.6807385425149 14.389087296526
vertex 120.980762113533 73.872988674801 12.604758878008
vertex 88.3826859021798 73.872988674801 12.604758878008
endloop
endfacet
facet normal 0.0 0.923879532511285 0.382683432365094
outer loop
vertex 120.980762113533 73.872988674801 12.604758878008
vertex 88.3826859021798 72.6807385425149 14.389087296526
vertex 120.980762113533 72.6807385425149 14.389087296526
endloop
endfacet
facet normal 0.0 0.0 1.0
outer loop
vertex 74.2790561913614 68.2916512459888 3.0
vertex 75.2403810567666 74.5547909668032 3.0
vertex 71.6243556529822 68.2916512459888 3.0
endloop
endfacet
facet normal 0.0 0.0 1.0
outer loop
vertex 75.2403810567666 74.5547909668032 3.0
vertex 74.2790561913614 68.2916512459888 3.0
vertex 75.4233937586588 70.2737020535577 3.0
endloop
endfacet
facet normal 0.0 0.0 1.0
outer loop
vertex 75.2403810567666 74.5547909668032 3.0
vertex 75.4233937586588 70.2737020535577 3.0
vertex 76.5677313259562 72.2557528611266 3.0
endloop
endfacet
facet normal 0.0685765292376715 0.11877803284638 0.990549866766363
outer loop
vertex 86.650635094611 78.7916512459888 13.0
vertex 114.820508075689 137.583302491977 4.0
vertex 82.3205080756888 81.2916512459889 13.0
endloop
endfacet
facet normal 0.0685765292376715 0.11877803284638 0.990549866766363
outer loop
vertex 114.820508075689 137.583302491977 4.0
vertex 86.650635094611 78.7916512459888 13.0
vertex 119.150635094611 135.083302491977 4.0
endloop
endfacet
facet normal 0.0 1.0 0.0
outer loop
vertex 88.3826859021798 74.2916512459889 10.5
vertex 120.980762113533 73.872988674801 8.39524112199201
vertex 88.3826859021798 73.872988674801 8.39524112199201
endloop
endfacet
facet normal 0.0 0.923879532511285 -0.382683432365094
outer loop
vertex 120.980762113533 73.872988674801 8.39524112199201
vertex 88.3826859021798 74.2916512459889 10.5
vertex 120.980762113533 74.2916512459889 10.5
endloop
endfacet
facet normal 0.866025403784438 -0.500000000000001 -8.19213817704434e-016
outer loop
vertex 119.150635094611 135.083302491977 0.0
vertex 86.650635094611 78.7916512459888 13.0
vertex 86.650635094611 78.7916512459888 0.0
endloop
endfacet
facet normal 0.866025403784438 -0.500000000000001 -8.19213817704434e-016
outer loop
vertex 86.650635094611 78.7916512459888 13.0
vertex 119.150635094611 135.083302491977 0.0
vertex 119.150635094611 135.083302491977 4.0
endloop
endfacet
facet normal -2.20650570618808e-018 0.38268343236509 -0.923879532511287
outer loop
vertex 120.980762113533 70.8964101239969 5.41866257118792
vertex 88.3826859021798 68.7916512459889 5.0
vertex 88.3826859021798 70.8964101239968 5.41866257118792
endloop
endfacet
facet normal -4.32821663551001e-018 0.195090322016131 -0.98078528040323
outer loop
vertex 88.3826859021798 68.7916512459889 5.0
vertex 120.980762113533 70.8964101239969 5.41866257118792
vertex 120.980762113533 68.7916512459889 5.0
endloop
endfacet
facet normal 0.0 0.923879532511285 0.382683432365094
outer loop
vertex 88.3826859021798 73.872988674801 12.604758878008
vertex 120.980762113533 74.2916512459889 10.5
vertex 88.3826859021798 74.2916512459889 10.5
endloop
endfacet
facet normal 0.0 1.0 0.0
outer loop
vertex 120.980762113533 74.2916512459889 10.5
vertex 88.3826859021798 73.872988674801 12.604758878008
vertex 120.980762113533 73.872988674801 12.604758878008
endloop
endfacet
facet normal 0.0 0.0 1.0
outer loop
vertex 81.606406460551 63.5285115251744 3.0
vertex 75.7017059221718 65.8275496308511 3.0
vertex 74.3743556529821 63.5285115251744 3.0
endloop
endfacet
facet normal 0.0 0.0 1.0
outer loop
vertex 75.7017059221718 65.8275496308511 3.0
vertex 81.606406460551 63.5285115251744 3.0
vertex 77.9903810567666 65.8275496308511 3.0
endloop
endfacet
facet normal 0.0 0.0 1.0
outer loop
vertex 77.9903810567666 65.8275496308511 3.0
vertex 81.606406460551 63.5285115251744 3.0
vertex 80.2790561913614 65.8275496308511 3.0
endloop
endfacet
facet normal -4.79718671952169e-018 0.38268343236509 0.923879532511287
outer loop
vertex 120.980762113533 70.8964101239969 15.5813374288121
vertex 88.3826859021798 72.6807385425149 14.389087296526
vertex 88.3826859021798 70.8964101239968 15.5813374288121
endloop
endfacet
facet normal 0.0 0.707106781186543 0.707106781186552
outer loop
vertex 88.3826859021798 72.6807385425149 14.389087296526
vertex 120.980762113533 70.8964101239969 15.5813374288121
vertex 120.980762113533 72.6807385425149 14.389087296526
endloop
endfacet
facet normal -1.0 -1.07913660385545e-015 1.84359511424472e-031
outer loop
vertex 88.3826859021799 62.7916512459889 16.0
vertex 88.3826859021798 63.2916512459888 10.5
vertex 88.3826859021799 62.7916512459889 5.0
endloop
endfacet
facet normal -1.0 -1.07913660385545e-015 1.84359511424472e-031
outer loop
vertex 88.3826859021798 63.2916512459888 10.5
vertex 88.3826859021799 62.7916512459889 16.0
vertex 88.3826859021798 63.7103138171768 12.604758878008
endloop
endfacet
facet normal -1.0 -1.07913660385545e-015 1.84359511424472e-031
outer loop
vertex 88.3826859021798 63.7103138171768 12.604758878008
vertex 88.3826859021799 62.7916512459889 16.0
vertex 88.3826859021798 64.9025639494629 14.389087296526
endloop
endfacet
facet normal -1.0 -1.07913660385545e-015 1.84359511424472e-031
outer loop
vertex 88.3826859021798 64.9025639494629 14.389087296526
vertex 88.3826859021799 62.7916512459889 16.0
vertex 88.3826859021798 66.6868923679809 15.5813374288121
endloop
endfacet
facet normal -1.0 -1.07913660385545e-015 1.84359511424472e-031
outer loop
vertex 88.3826859021798 66.6868923679809 15.5813374288121
vertex 88.3826859021799 62.7916512459889 16.0
vertex 88.3826859021798 68.7916512459889 16.0
endloop
endfacet
facet normal -1.0 -1.07913660385545e-015 1.84359511424472e-031
outer loop
vertex 88.3826859021799 62.7916512459889 5.0
vertex 88.3826859021798 66.6868923679809 5.41866257118792
vertex 88.3826859021798 68.7916512459889 5.0
endloop
endfacet
facet normal -1.0 -1.07913660385545e-015 1.84359511424472e-031
outer loop
vertex 88.3826859021798 66.6868923679809 5.41866257118792
vertex 88.3826859021799 62.7916512459889 5.0
vertex 88.3826859021798 64.9025639494629 6.61091270347399
endloop
endfacet
facet normal -1.0 -1.07913660385545e-015 1.84359511424472e-031
outer loop
vertex 88.3826859021798 64.9025639494629 6.61091270347399
vertex 88.3826859021799 62.7916512459889 5.0
vertex 88.3826859021798 63.7103138171768 8.395241121992
endloop
endfacet
facet normal -1.0 -1.07913660385545e-015 1.84359511424472e-031
outer loop
vertex 88.3826859021798 63.7103138171768 8.395241121992
vertex 88.3826859021799 62.7916512459889 5.0
vertex 88.3826859021798 63.2916512459888 10.5
endloop
endfacet
facet normal 0.499999999999987 0.866025403784446 0.0
outer loop
vertex 114.820508075689 137.583302491977 4.0
vertex 119.150635094611 135.083302491977 0.0
vertex 114.820508075689 137.583302491977 0.0
endloop
endfacet
facet normal 0.499999999999987 0.866025403784446 0.0
outer loop
vertex 119.150635094611 135.083302491977 0.0
vertex 114.820508075689 137.583302491977 4.0
vertex 119.150635094611 135.083302491977 4.0
endloop
endfacet
facet normal -1.0 0.0 0.0
outer loop
vertex 88.3826859021798 74.7916512459888 16.0
vertex 88.3826859021798 70.8964101239968 15.5813374288121
vertex 88.3826859021798 68.7916512459889 16.0
endloop
endfacet
facet normal -1.0 0.0 0.0
outer loop
vertex 88.3826859021798 70.8964101239968 15.5813374288121
vertex 88.3826859021798 74.7916512459888 16.0
vertex 88.3826859021798 72.6807385425149 14.389087296526
endloop
endfacet
facet normal -1.0 0.0 0.0
outer loop
vertex 88.3826859021798 72.6807385425149 14.389087296526
vertex 88.3826859021798 74.7916512459888 16.0
vertex 88.3826859021798 73.872988674801 12.604758878008
endloop
endfacet
facet normal -1.0 0.0 0.0
outer loop
vertex 88.3826859021798 73.872988674801 12.604758878008
vertex 88.3826859021798 74.7916512459888 16.0
vertex 88.3826859021798 74.2916512459889 10.5
endloop
endfacet
facet normal -1.0 0.0 0.0
outer loop
vertex 88.3826859021798 70.8964101239968 5.41866257118792
vertex 88.3826859021798 74.7916512459888 5.0
vertex 88.3826859021798 68.7916512459889 5.0
endloop
endfacet
facet normal -1.0 0.0 0.0
outer loop
vertex 88.3826859021798 74.7916512459888 5.0
vertex 88.3826859021798 70.8964101239968 5.41866257118792
vertex 88.3826859021798 72.6807385425149 6.61091270347399
endloop
endfacet
facet normal -1.0 0.0 0.0
outer loop
vertex 88.3826859021798 74.7916512459888 5.0
vertex 88.3826859021798 72.6807385425149 6.61091270347399
vertex 88.3826859021798 73.872988674801 8.39524112199201
endloop
endfacet
facet normal -1.0 0.0 0.0
outer loop
vertex 88.3826859021798 74.7916512459888 5.0
vertex 88.3826859021798 73.872988674801 8.39524112199201
vertex 88.3826859021798 74.2916512459889 10.5
endloop
endfacet
facet normal -1.0 0.0 0.0
outer loop
vertex 88.3826859021798 74.7916512459888 5.0
vertex 88.3826859021798 74.2916512459889 10.5
vertex 88.3826859021798 74.7916512459888 16.0
endloop
endfacet
facet normal 0.866025403784439 0.5 0.0
outer loop
vertex 81.1403810567666 74.2476112898309 16.0
vertex 84.2903810567666 68.7916512459889 20.0
vertex 84.2903810567666 68.7916512459889 16.0
endloop
endfacet
facet normal 0.866025403784439 0.5 0.0
outer loop
vertex 84.2903810567666 68.7916512459889 20.0
vertex 81.1403810567666 74.2476112898309 16.0
vertex 81.1403810567666 74.2476112898309 20.0
endloop
endfacet
facet normal -0.5 -0.866025403784439 0.0
outer loop
vertex 77.9903810567666 53.7916512459888 20.0
vertex 65.0 61.2916512459888 0.0
vertex 77.9903810567666 53.7916512459888 0.0
endloop
endfacet
facet normal -0.5 -0.866025403784439 0.0
outer loop
vertex 65.0 61.2916512459888 0.0
vertex 77.9903810567666 53.7916512459888 20.0
vertex 65.0 61.2916512459888 20.0
endloop
endfacet
facet normal 0.0 0.0 1.0
outer loop
vertex 77.9903810567666 56.7916512459889 16.0
vertex 71.6903810567666 68.7916512459888 16.0
vertex 67.5980762113534 62.7916512459889 16.0
endloop
endfacet
facet normal 0.0 0.0 1.0
outer loop
vertex 71.6903810567666 68.7916512459888 16.0
vertex 77.9903810567666 56.7916512459889 16.0
vertex 74.8403810567666 63.3356912021469 16.0
endloop
endfacet
facet normal 0.0 0.0 1.0
outer loop
vertex 74.8403810567666 63.3356912021469 16.0
vertex 77.9903810567666 56.7916512459889 16.0
vertex 81.1403810567666 63.3356912021469 16.0
endloop
endfacet
facet normal 0.0 0.0 1.0
outer loop
vertex 81.1403810567666 63.3356912021469 16.0
vertex 77.9903810567666 56.7916512459889 16.0
vertex 88.3826859021799 62.7916512459889 16.0
endloop
endfacet
facet normal 0.0 0.0 1.0
outer loop
vertex 81.1403810567666 63.3356912021469 16.0
vertex 88.3826859021799 62.7916512459889 16.0
vertex 84.2903810567666 68.7916512459889 16.0
endloop
endfacet
facet normal 0.0 0.0 1.0
outer loop
vertex 84.2903810567666 68.7916512459889 16.0
vertex 88.3826859021799 62.7916512459889 16.0
vertex 88.3826859021798 68.7916512459889 16.0
endloop
endfacet
facet normal 0.0 0.0 1.0
outer loop
vertex 67.5980762113534 62.7916512459889 16.0
vertex 77.9903810567666 80.7916512459888 16.0
vertex 67.5980762113533 74.7916512459888 16.0
endloop
endfacet
facet normal 0.0 0.0 1.0
outer loop
vertex 77.9903810567666 80.7916512459888 16.0
vertex 67.5980762113534 62.7916512459889 16.0
vertex 71.6903810567666 68.7916512459888 16.0
endloop
endfacet
facet normal 0.0 0.0 1.0
outer loop
vertex 77.9903810567666 80.7916512459888 16.0
vertex 71.6903810567666 68.7916512459888 16.0
vertex 74.8403810567666 74.2476112898308 16.0
endloop
endfacet
facet normal 0.0 0.0 1.0
outer loop
vertex 77.9903810567666 80.7916512459888 16.0
vertex 74.8403810567666 74.2476112898308 16.0
vertex 81.1403810567666 74.2476112898309 16.0
endloop
endfacet
facet normal 0.0 0.0 1.0
outer loop
vertex 77.9903810567666 80.7916512459888 16.0
vertex 81.1403810567666 74.2476112898309 16.0
vertex 88.3826859021798 74.7916512459888 16.0
endloop
endfacet
facet normal 0.0 0.0 1.0
outer loop
vertex 88.3826859021798 74.7916512459888 16.0
vertex 81.1403810567666 74.2476112898309 16.0
vertex 84.2903810567666 68.7916512459889 16.0
endloop
endfacet
facet normal 0.0 0.0 1.0
outer loop
vertex 88.3826859021798 74.7916512459888 16.0
vertex 84.2903810567666 68.7916512459889 16.0
vertex 88.3826859021798 68.7916512459889 16.0
endloop
endfacet
facet normal -0.5 0.866025403784438 0.0
outer loop
vertex 65.0 76.2916512459889 20.0
vertex 77.9903810567666 83.7916512459889 0.0
vertex 65.0 76.2916512459889 0.0
endloop
endfacet
facet normal -0.5 0.866025403784438 0.0
outer loop
vertex 77.9903810567666 83.7916512459889 0.0
vertex 65.0 76.2916512459889 20.0
vertex 77.9903810567666 83.7916512459889 20.0
endloop
endfacet
facet normal -1.0 6.76791955811495e-016 1.63358645420657e-031
outer loop
vertex 65.0 61.2916512459888 20.0
vertex 65.0 66.2916512459889 13.0
vertex 65.0 61.2916512459888 0.0
endloop
endfacet
facet normal -1.0 6.76791955811495e-016 1.63358645420657e-031
outer loop
vertex 65.0 66.2916512459889 13.0
vertex 65.0 61.2916512459888 20.0
vertex 65.0 76.2916512459889 20.0
endloop
endfacet
facet normal -1.0 6.76791955811495e-016 1.63358645420657e-031
outer loop
vertex 65.0 66.2916512459889 13.0
vertex 65.0 76.2916512459889 20.0
vertex 65.0 71.2916512459889 13.0
endloop
endfacet
facet normal -1.0 6.76791955811495e-016 1.63358645420657e-031
outer loop
vertex 65.0 71.2916512459889 13.0
vertex 65.0 76.2916512459889 20.0
vertex 65.0 71.2916512459889 0.0
endloop
endfacet
facet normal -1.0 6.76791955811495e-016 1.63358645420657e-031
outer loop
vertex 65.0 71.2916512459889 0.0
vertex 65.0 76.2916512459889 20.0
vertex 65.0 76.2916512459889 0.0
endloop
endfacet
facet normal -1.0 6.76791955811495e-016 1.63358645420657e-031
outer loop
vertex 65.0 66.2916512459889 0.0
vertex 65.0 61.2916512459888 0.0
vertex 65.0 66.2916512459889 13.0
endloop
endfacet
facet normal -0.5 0.866025403784439 -1.8498747070433e-017
outer loop
vertex 77.9903810567666 56.7916512459889 16.0
vertex 88.3826859021799 62.7916512459889 5.0
vertex 77.9903810567666 56.7916512459889 5.0
endloop
endfacet
facet normal -0.5 0.866025403784439 -1.8498747070433e-017
outer loop
vertex 88.3826859021799 62.7916512459889 5.0
vertex 77.9903810567666 56.7916512459889 16.0
vertex 88.3826859021799 62.7916512459889 16.0
endloop
endfacet
facet normal -5.27355936696949e-016 1.0 0.0
outer loop
vertex 74.8403810567666 74.2476112898308 20.0
vertex 81.1403810567666 74.2476112898309 16.0
vertex 74.8403810567666 74.2476112898308 16.0
endloop
endfacet
facet normal -5.27355936696949e-016 1.0 0.0
outer loop
vertex 81.1403810567666 74.2476112898309 16.0
vertex 74.8403810567666 74.2476112898308 20.0
vertex 81.1403810567666 74.2476112898309 20.0
endloop
endfacet
facet normal -0.5 -0.866025403784438 -3.2860375878899e-032
outer loop
vertex 88.3826859021798 74.7916512459888 16.0
vertex 77.9903810567666 80.7916512459888 5.0
vertex 88.3826859021798 74.7916512459888 5.0
endloop
endfacet
facet normal -0.5 -0.866025403784438 -3.2860375878899e-032
outer loop
vertex 77.9903810567666 80.7916512459888 5.0
vertex 88.3826859021798 74.7916512459888 16.0
vertex 77.9903810567666 80.7916512459888 16.0
endloop
endfacet
facet normal -0.866025403784439 0.499999999999999 0.0
outer loop
vertex 74.8403810567666 74.2476112898308 20.0
vertex 71.6903810567666 68.7916512459888 16.0
vertex 71.6903810567666 68.7916512459888 20.0
endloop
endfacet
facet normal -0.866025403784439 0.499999999999999 0.0
outer loop
vertex 71.6903810567666 68.7916512459888 16.0
vertex 74.8403810567666 74.2476112898308 20.0
vertex 74.8403810567666 74.2476112898308 16.0
endloop
endfacet
facet normal -0.866025403784439 -0.5 0.0
outer loop
vertex 71.6903810567666 68.7916512459888 20.0
vertex 74.8403810567666 63.3356912021469 16.0
vertex 74.8403810567666 63.3356912021469 20.0
endloop
endfacet
facet normal -0.866025403784439 -0.5 0.0
outer loop
vertex 74.8403810567666 63.3356912021469 16.0
vertex 71.6903810567666 68.7916512459888 20.0
vertex 71.6903810567666 68.7916512459888 16.0
endloop
endfacet
facet normal 5.27355936696949e-016 -1.0 0.0
outer loop
vertex 81.1403810567666 63.3356912021469 20.0
vertex 74.8403810567666 63.3356912021469 16.0
vertex 81.1403810567666 63.3356912021469 16.0
endloop
endfacet
facet normal 5.27355936696949e-016 -1.0 0.0
outer loop
vertex 74.8403810567666 63.3356912021469 16.0
vertex 81.1403810567666 63.3356912021469 20.0
vertex 74.8403810567666 63.3356912021469 20.0
endloop
endfacet
facet normal 0.866025403784439 -0.499999999999999 0.0
outer loop
vertex 84.2903810567666 68.7916512459889 16.0
vertex 81.1403810567666 63.3356912021469 20.0
vertex 81.1403810567666 63.3356912021469 16.0
endloop
endfacet
facet normal 0.866025403784439 -0.499999999999999 0.0
outer loop
vertex 81.1403810567666 63.3356912021469 20.0
vertex 84.2903810567666 68.7916512459889 16.0
vertex 84.2903810567666 68.7916512459889 20.0
endloop
endfacet
facet normal 0.5 -0.866025403784439 4.63746214541934e-018
outer loop
vertex 77.9903810567666 80.7916512459888 16.0
vertex 67.5980762113533 74.7916512459888 5.0
vertex 77.9903810567666 80.7916512459888 5.0
endloop
endfacet
facet normal 0.5 -0.866025403784439 4.63746214541934e-018
outer loop
vertex 67.5980762113533 74.7916512459888 5.0
vertex 77.9903810567666 80.7916512459888 16.0
vertex 67.5980762113533 74.7916512459888 16.0
endloop
endfacet
facet normal -0.0 -0.0 1.0
outer loop
vertex 77.9903810567666 53.7916512459888 20.0
vertex 65.0 76.2916512459889 20.0
vertex 65.0 61.2916512459888 20.0
endloop
endfacet
facet normal -0.0 -0.0 1.0
outer loop
vertex 65.0 76.2916512459889 20.0
vertex 77.9903810567666 53.7916512459888 20.0
vertex 71.6903810567666 68.7916512459888 20.0
endloop
endfacet
facet normal -0.0 -0.0 1.0
outer loop
vertex 71.6903810567666 68.7916512459888 20.0
vertex 77.9903810567666 53.7916512459888 20.0
vertex 74.8403810567666 63.3356912021469 20.0
endloop
endfacet
facet normal -0.0 -0.0 1.0
outer loop
vertex 74.8403810567666 63.3356912021469 20.0
vertex 77.9903810567666 53.7916512459888 20.0
vertex 81.1403810567666 63.3356912021469 20.0
endloop
endfacet
facet normal -0.0 -0.0 1.0
outer loop
vertex 81.1403810567666 63.3356912021469 20.0
vertex 77.9903810567666 53.7916512459888 20.0
vertex 90.9807621135332 61.2916512459888 20.0
endloop
endfacet
facet normal -0.0 -0.0 1.0
outer loop
vertex 81.1403810567666 63.3356912021469 20.0
vertex 90.9807621135332 61.2916512459888 20.0
vertex 84.2903810567666 68.7916512459889 20.0
endloop
endfacet
facet normal -0.0 -0.0 1.0
outer loop
vertex 84.2903810567666 68.7916512459889 20.0
vertex 90.9807621135332 61.2916512459888 20.0
vertex 90.9807621135332 68.7916512459888 20.0
endloop
endfacet
facet normal -0.0 -0.0 1.0
outer loop
vertex 71.6903810567666 68.7916512459888 20.0
vertex 77.9903810567666 83.7916512459889 20.0
vertex 65.0 76.2916512459889 20.0
endloop
endfacet
facet normal -0.0 -0.0 1.0
outer loop
vertex 77.9903810567666 83.7916512459889 20.0
vertex 71.6903810567666 68.7916512459888 20.0
vertex 74.8403810567666 74.2476112898308 20.0
endloop
endfacet
facet normal -0.0 -0.0 1.0
outer loop
vertex 77.9903810567666 83.7916512459889 20.0
vertex 74.8403810567666 74.2476112898308 20.0
vertex 81.1403810567666 74.2476112898309 20.0
endloop
endfacet
facet normal -0.0 -0.0 1.0
outer loop
vertex 77.9903810567666 83.7916512459889 20.0
vertex 81.1403810567666 74.2476112898309 20.0
vertex 90.9807621135332 76.2916512459889 20.0
endloop
endfacet
facet normal -0.0 -0.0 1.0
outer loop
vertex 90.9807621135332 76.2916512459889 20.0
vertex 81.1403810567666 74.2476112898309 20.0
vertex 84.2903810567666 68.7916512459889 20.0
endloop
endfacet
facet normal -0.0 -0.0 1.0
outer loop
vertex 90.9807621135332 76.2916512459889 20.0
vertex 84.2903810567666 68.7916512459889 20.0
vertex 90.9807621135332 68.7916512459888 20.0
endloop
endfacet
facet normal 1.0 4.69994413757984e-016 1.64755751989507e-032
outer loop
vertex 67.5980762113533 74.7916512459888 5.0
vertex 67.5980762113534 62.7916512459889 16.0
vertex 67.5980762113534 62.7916512459889 5.0
endloop
endfacet
facet normal 1.0 4.69994413757984e-016 1.64755751989507e-032
outer loop
vertex 67.5980762113534 62.7916512459889 16.0
vertex 67.5980762113533 74.7916512459888 5.0
vertex 67.5980762113533 74.7916512459888 16.0
endloop
endfacet
facet normal 0.5 0.866025403784438 -4.63746214541933e-018
outer loop
vertex 67.5980762113534 62.7916512459889 16.0
vertex 77.9903810567666 56.7916512459889 5.0
vertex 67.5980762113534 62.7916512459889 5.0
endloop
endfacet
facet normal 0.5 0.866025403784438 -4.63746214541933e-018
outer loop
vertex 77.9903810567666 56.7916512459889 5.0
vertex 67.5980762113534 62.7916512459889 16.0
vertex 77.9903810567666 56.7916512459889 16.0
endloop
endfacet
facet normal -0.866025403784436 -0.500000000000005 -0.0
outer loop
vertex 80.7403810567666 74.5547909668032 5.0
vertex 84.356406460551 68.2916512459888 3.0
vertex 84.356406460551 68.2916512459888 5.0
endloop
endfacet
facet normal -0.866025403784436 -0.500000000000005 -0.0
outer loop
vertex 84.356406460551 68.2916512459888 3.0
vertex 80.7403810567666 74.5547909668032 5.0
vertex 80.7403810567666 74.5547909668032 3.0
endloop
endfacet
facet normal 0.866025403784428 -0.500000000000018 0.0
outer loop
vertex 80.7403810567666 74.5547909668032 3.0
vertex 79.413030787577 72.2557528611266 5.0
vertex 79.413030787577 72.2557528611266 3.0
endloop
endfacet
facet normal 0.866025403784428 -0.500000000000018 0.0
outer loop
vertex 79.413030787577 72.2557528611266 5.0
vertex 80.7403810567666 74.5547909668032 3.0
vertex 80.7403810567666 74.5547909668032 5.0
endloop
endfacet
facet normal 0.499878314840555 -0.866095647164284 -1.77551754525319e-005
outer loop
vertex 90.9807621135332 61.2916512459888 10.443573690712
vertex 86.650635094611 58.7916512459885 0.0
vertex 90.9807621135332 61.2916512459888 0.0
endloop
endfacet
facet normal 0.499878314840555 -0.866095647164284 -1.77551754525319e-005
outer loop
vertex 86.650635094611 58.7916512459885 0.0
vertex 90.9807621135332 61.2916512459888 10.443573690712
vertex 86.650635094611 58.7916512459885 13.0
endloop
endfacet
facet normal 0.499878314840555 -0.866095647164284 -1.77551754525319e-005
outer loop
vertex 86.650635094611 58.7916512459885 13.0
vertex 90.9807621135332 61.2916512459888 10.443573690712
vertex 90.9807621135332 61.2804273552259 10.5
endloop
endfacet
facet normal 0.499878314840555 -0.866095647164284 -1.77551754525319e-005
outer loop
vertex 86.650635094611 58.7916512459885 13.0
vertex 90.9807621135332 61.2804273552259 10.5
vertex 90.9807621135332 61.2916512459888 10.556426309288
endloop
endfacet
facet normal 0.499878314840555 -0.866095647164284 -1.77551754525319e-005
outer loop
vertex 86.650635094611 58.7916512459885 13.0
vertex 90.9807621135332 61.2916512459888 10.556426309288
vertex 90.9807621135332 61.2916512459888 20.0
endloop
endfacet
facet normal 0.499878314840555 -0.866095647164284 -1.77551754525319e-005
outer loop
vertex 86.650635094611 58.7916512459885 13.0
vertex 90.9807621135332 61.2916512459888 20.0
vertex 82.3205080756888 56.2916512459888 13.0
endloop
endfacet
facet normal 0.499878314840555 -0.866095647164284 -1.77551754525319e-005
outer loop
vertex 82.3205080756888 56.2916512459888 13.0
vertex 77.9903810567666 53.7916512459888 0.0
vertex 82.3205080756888 56.2916512459888 0.0
endloop
endfacet
facet normal 0.499878314840555 -0.866095647164284 -1.77551754525319e-005
outer loop
vertex 77.9903810567666 53.7916512459888 0.0
vertex 82.3205080756888 56.2916512459888 13.0
vertex 77.9903810567666 53.7916512459888 20.0
endloop
endfacet
facet normal 0.499878314840555 -0.866095647164284 -1.77551754525319e-005
outer loop
vertex 77.9903810567666 53.7916512459888 20.0
vertex 82.3205080756888 56.2916512459888 13.0
vertex 90.9807621135332 61.2916512459888 20.0
endloop
endfacet
facet normal 0.0 1.0 0.0
outer loop
vertex 81.7017059221718 68.2916512459888 5.0
vertex 84.356406460551 68.2916512459888 3.0
vertex 81.7017059221718 68.2916512459888 3.0
endloop
endfacet
facet normal 0.0 1.0 0.0
outer loop
vertex 84.356406460551 68.2916512459888 3.0
vertex 81.7017059221718 68.2916512459888 5.0
vertex 84.356406460551 68.2916512459888 5.0
endloop
endfacet
facet normal 0.068576529237668 -0.118778032846382 0.990549866766363
outer loop
vertex 114.820508075688 0.0 4.0
vertex 86.650635094611 58.7916512459885 13.0
vertex 82.3205080756888 56.2916512459888 13.0
endloop
endfacet
facet normal 0.068576529237668 -0.118778032846382 0.990549866766363
outer loop
vertex 86.650635094611 58.7916512459885 13.0
vertex 114.820508075688 0.0 4.0
vertex 119.150635094611 2.50000000000011 4.0
endloop
endfacet
facet normal 0.866025403784439 0.499999999999998 -2.73071272568146e-016
outer loop
vertex 86.650635094611 58.7916512459885 0.0
vertex 119.150635094611 2.50000000000011 4.0
vertex 119.150635094611 2.50000000000011 0.0
endloop
endfacet
facet normal 0.866025403784439 0.499999999999998 -2.73071272568146e-016
outer loop
vertex 119.150635094611 2.50000000000011 4.0
vertex 86.650635094611 58.7916512459885 0.0
vertex 86.650635094611 58.7916512459885 13.0
endloop
endfacet
facet normal 0.86602540378444 0.499999999999997 -0.0
outer loop
vertex 80.5573683548744 70.2737020535577 3.0
vertex 81.7017059221718 68.2916512459888 5.0
vertex 81.7017059221718 68.2916512459888 3.0
endloop
endfacet
facet normal 0.86602540378444 0.499999999999997 -0.0
outer loop
vertex 81.7017059221718 68.2916512459888 5.0
vertex 80.5573683548744 70.2737020535577 3.0
vertex 80.5573683548744 70.2737020535577 5.0
endloop
endfacet
facet normal 0.86602540378444 0.499999999999997 -0.0
outer loop
vertex 80.5573683548744 70.2737020535577 5.0
vertex 80.5573683548744 70.2737020535577 3.0
vertex 79.413030787577 72.2557528611266 3.0
endloop
endfacet
facet normal 0.86602540378444 0.499999999999997 -0.0
outer loop
vertex 80.5573683548744 70.2737020535577 5.0
vertex 79.413030787577 72.2557528611266 3.0
vertex 79.413030787577 72.2557528611266 5.0
endloop
endfacet
facet normal -0.86602540378444 0.499999999999997 0.0
outer loop
vertex 75.4233937586588 70.2737020535577 5.0
vertex 74.2790561913614 68.2916512459888 3.0
vertex 74.2790561913614 68.2916512459888 5.0
endloop
endfacet
facet normal -0.86602540378444 0.499999999999997 0.0
outer loop
vertex 74.2790561913614 68.2916512459888 3.0
vertex 75.4233937586588 70.2737020535577 5.0
vertex 75.4233937586588 70.2737020535577 3.0
endloop
endfacet
facet normal -0.86602540378444 0.499999999999997 0.0
outer loop
vertex 75.4233937586588 70.2737020535577 3.0
vertex 75.4233937586588 70.2737020535577 5.0
vertex 76.5677313259562 72.2557528611266 5.0
endloop
endfacet
facet normal -0.86602540378444 0.499999999999997 0.0
outer loop
vertex 75.4233937586588 70.2737020535577 3.0
vertex 76.5677313259562 72.2557528611266 5.0
vertex 76.5677313259562 72.2557528611266 3.0
endloop
endfacet
facet normal -0.866025403784428 -0.500000000000018 -0.0
outer loop
vertex 75.2403810567666 74.5547909668032 5.0
vertex 76.5677313259562 72.2557528611266 3.0
vertex 76.5677313259562 72.2557528611266 5.0
endloop
endfacet
facet normal -0.866025403784428 -0.500000000000018 -0.0
outer loop
vertex 76.5677313259562 72.2557528611266 3.0
vertex 75.2403810567666 74.5547909668032 5.0
vertex 75.2403810567666 74.5547909668032 3.0
endloop
endfacet
facet normal 0.866025403784436 -0.500000000000005 0.0
outer loop
vertex 75.2403810567666 74.5547909668032 3.0
vertex 71.6243556529822 68.2916512459888 5.0
vertex 71.6243556529822 68.2916512459888 3.0
endloop
endfacet
facet normal 0.866025403784436 -0.500000000000005 0.0
outer loop
vertex 71.6243556529822 68.2916512459888 5.0
vertex 75.2403810567666 74.5547909668032 3.0
vertex 75.2403810567666 74.5547909668032 5.0
endloop
endfacet
facet normal 0.0 1.0 0.0
outer loop
vertex 71.6243556529822 68.2916512459888 5.0
vertex 74.2790561913614 68.2916512459888 3.0
vertex 71.6243556529822 68.2916512459888 3.0
endloop
endfacet
facet normal 0.0 1.0 0.0
outer loop
vertex 74.2790561913614 68.2916512459888 3.0
vertex 71.6243556529822 68.2916512459888 5.0
vertex 74.2790561913614 68.2916512459888 5.0
endloop
endfacet
facet normal -0.866025403784443 -0.499999999999993 2.73071272568144e-016
outer loop
vertex 82.3205080756888 56.2916512459888 13.0
vertex 114.820508075688 0.0 0.0
vertex 114.820508075688 0.0 4.0
endloop
endfacet
facet normal -0.866025403784443 -0.499999999999993 2.73071272568144e-016
outer loop
vertex 114.820508075688 0.0 0.0
vertex 82.3205080756888 56.2916512459888 13.0
vertex 82.3205080756888 56.2916512459888 0.0
endloop
endfacet
facet normal -0.866025403784442 -0.499999999999995 -0.0
outer loop
vertex 80.2790561913614 65.8275496308511 5.0
vertex 81.606406460551 63.5285115251744 3.0
vertex 81.606406460551 63.5285115251744 5.0
endloop
endfacet
facet normal -0.866025403784442 -0.499999999999995 -0.0
outer loop
vertex 81.606406460551 63.5285115251744 3.0
vertex 80.2790561913614 65.8275496308511 5.0
vertex 80.2790561913614 65.8275496308511 3.0
endloop
endfacet
facet normal 0.499999999999995 -0.866025403784441 0.0
outer loop
vertex 119.150635094611 2.50000000000011 4.0
vertex 114.820508075688 0.0 0.0
vertex 119.150635094611 2.50000000000011 0.0
endloop
endfacet
facet normal 0.499999999999995 -0.866025403784441 0.0
outer loop
vertex 114.820508075688 0.0 0.0
vertex 119.150635094611 2.50000000000011 4.0
vertex 114.820508075688 0.0 4.0
endloop
endfacet
facet normal 0.0 -1.0 0.0
outer loop
vertex 80.2790561913614 65.8275496308511 5.0
vertex 77.9903810567666 65.8275496308511 3.0
vertex 80.2790561913614 65.8275496308511 3.0
endloop
endfacet
facet normal 0.0 -1.0 0.0
outer loop
vertex 77.9903810567666 65.8275496308511 3.0
vertex 80.2790561913614 65.8275496308511 5.0
vertex 75.7017059221718 65.8275496308511 3.0
endloop
endfacet
facet normal 0.0 -1.0 0.0
outer loop
vertex 75.7017059221718 65.8275496308511 3.0
vertex 80.2790561913614 65.8275496308511 5.0
vertex 75.7017059221718 65.8275496308511 5.0
endloop
endfacet
facet normal 0.0 -1.0 0.0
outer loop
vertex 75.7017059221718 65.8275496308511 5.0
vertex 80.2790561913614 65.8275496308511 5.0
vertex 77.9903810567666 65.8275496308511 5.0
endloop
endfacet
facet normal 0.866025403784438 -0.500000000000001 0.0
outer loop
vertex 75.7017059221718 65.8275496308511 3.0
vertex 74.3743556529821 63.5285115251744 5.0
vertex 74.3743556529821 63.5285115251744 3.0
endloop
endfacet
facet normal 0.866025403784438 -0.500000000000001 0.0
outer loop
vertex 74.3743556529821 63.5285115251744 5.0
vertex 75.7017059221718 65.8275496308511 3.0
vertex 75.7017059221718 65.8275496308511 5.0
endloop
endfacet
facet normal 0.0 1.0 0.0
outer loop
vertex 74.3743556529821 63.5285115251744 5.0
vertex 81.606406460551 63.5285115251744 3.0
vertex 74.3743556529821 63.5285115251744 3.0
endloop
endfacet
facet normal 0.0 1.0 0.0
outer loop
vertex 81.606406460551 63.5285115251744 3.0
vertex 74.3743556529821 63.5285115251744 5.0
vertex 81.606406460551 63.5285115251744 5.0
endloop
endfacet
facet normal -0.0 -0.0 1.0
outer loop
vertex 74.3743556529821 63.5285115251744 5.0
vertex 75.4233937586588 70.2737020535577 5.0
vertex 74.2790561913614 68.2916512459888 5.0
endloop
endfacet
facet normal -0.0 -0.0 1.0
outer loop
vertex 75.4233937586588 70.2737020535577 5.0
vertex 74.3743556529821 63.5285115251744 5.0
vertex 75.7017059221718 65.8275496308511 5.0
endloop
endfacet
facet normal -0.0 -0.0 1.0
outer loop
vertex 75.4233937586588 70.2737020535577 5.0
vertex 75.7017059221718 65.8275496308511 5.0
vertex 76.5677313259562 72.2557528611266 5.0
endloop
endfacet
facet normal -0.0 -0.0 1.0
outer loop
vertex 76.5677313259562 72.2557528611266 5.0
vertex 75.7017059221718 65.8275496308511 5.0
vertex 77.9903810567666 65.8275496308511 5.0
endloop
endfacet
facet normal -0.0 -0.0 1.0
outer loop
vertex 77.9903810567666 56.7916512459889 5.0
vertex 71.6243556529822 68.2916512459888 5.0
vertex 67.5980762113534 62.7916512459889 5.0
endloop
endfacet
facet normal -0.0 -0.0 1.0
outer loop
vertex 71.6243556529822 68.2916512459888 5.0
vertex 77.9903810567666 56.7916512459889 5.0
vertex 74.3743556529821 63.5285115251744 5.0
endloop
endfacet
facet normal -0.0 -0.0 1.0
outer loop
vertex 71.6243556529822 68.2916512459888 5.0
vertex 74.3743556529821 63.5285115251744 5.0
vertex 74.2790561913614 68.2916512459888 5.0
endloop
endfacet
facet normal -0.0 -0.0 1.0
outer loop
vertex 74.3743556529821 63.5285115251744 5.0
vertex 77.9903810567666 56.7916512459889 5.0
vertex 81.606406460551 63.5285115251744 5.0
endloop
endfacet
facet normal -0.0 -0.0 1.0
outer loop
vertex 81.606406460551 63.5285115251744 5.0
vertex 77.9903810567666 56.7916512459889 5.0
vertex 88.3826859021799 62.7916512459889 5.0
endloop
endfacet
facet normal -0.0 -0.0 1.0
outer loop
vertex 81.606406460551 63.5285115251744 5.0
vertex 88.3826859021799 62.7916512459889 5.0
vertex 81.7017059221718 68.2916512459888 5.0
endloop
endfacet
facet normal -0.0 -0.0 1.0
outer loop
vertex 81.7017059221718 68.2916512459888 5.0
vertex 88.3826859021799 62.7916512459889 5.0
vertex 84.356406460551 68.2916512459888 5.0
endloop
endfacet
facet normal -0.0 -0.0 1.0
outer loop
vertex 84.356406460551 68.2916512459888 5.0
vertex 88.3826859021799 62.7916512459889 5.0
vertex 88.3826859021798 68.7916512459889 5.0
endloop
endfacet
facet normal -0.0 -0.0 1.0
outer loop
vertex 77.9903810567666 80.7916512459888 5.0
vertex 80.7403810567666 74.5547909668032 5.0
vertex 88.3826859021798 74.7916512459888 5.0
endloop
endfacet
facet normal -0.0 -0.0 1.0
outer loop
vertex 80.7403810567666 74.5547909668032 5.0
vertex 77.9903810567666 80.7916512459888 5.0
vertex 79.413030787577 72.2557528611266 5.0
endloop
endfacet
facet normal -0.0 -0.0 1.0
outer loop
vertex 88.3826859021798 74.7916512459888 5.0
vertex 80.7403810567666 74.5547909668032 5.0
vertex 84.356406460551 68.2916512459888 5.0
endloop
endfacet
facet normal -0.0 -0.0 1.0
outer loop
vertex 88.3826859021798 74.7916512459888 5.0
vertex 84.356406460551 68.2916512459888 5.0
vertex 88.3826859021798 68.7916512459889 5.0
endloop
endfacet
facet normal -0.0 -0.0 1.0
outer loop
vertex 67.5980762113534 62.7916512459889 5.0
vertex 77.9903810567666 80.7916512459888 5.0
vertex 67.5980762113533 74.7916512459888 5.0
endloop
endfacet
facet normal -0.0 -0.0 1.0
outer loop
vertex 77.9903810567666 80.7916512459888 5.0
vertex 67.5980762113534 62.7916512459889 5.0
vertex 71.6243556529822 68.2916512459888 5.0
endloop
endfacet
facet normal -0.0 -0.0 1.0
outer loop
vertex 77.9903810567666 80.7916512459888 5.0
vertex 71.6243556529822 68.2916512459888 5.0
vertex 75.2403810567666 74.5547909668032 5.0
endloop
endfacet
facet normal -0.0 -0.0 1.0
outer loop
vertex 77.9903810567666 80.7916512459888 5.0
vertex 75.2403810567666 74.5547909668032 5.0
vertex 76.5677313259562 72.2557528611266 5.0
endloop
endfacet
facet normal -0.0 -0.0 1.0
outer loop
vertex 77.9903810567666 80.7916512459888 5.0
vertex 76.5677313259562 72.2557528611266 5.0
vertex 77.9903810567666 65.8275496308511 5.0
endloop
endfacet
facet normal -0.0 -0.0 1.0
outer loop
vertex 77.9903810567666 80.7916512459888 5.0
vertex 77.9903810567666 65.8275496308511 5.0
vertex 80.2790561913614 65.8275496308511 5.0
endloop
endfacet
facet normal -0.0 -0.0 1.0
outer loop
vertex 77.9903810567666 80.7916512459888 5.0
vertex 80.2790561913614 65.8275496308511 5.0
vertex 79.413030787577 72.2557528611266 5.0
endloop
endfacet
facet normal -0.0 -0.0 1.0
outer loop
vertex 79.413030787577 72.2557528611266 5.0
vertex 80.2790561913614 65.8275496308511 5.0
vertex 80.5573683548744 70.2737020535577 5.0
endloop
endfacet
facet normal -0.0 -0.0 1.0
outer loop
vertex 80.5573683548744 70.2737020535577 5.0
vertex 80.2790561913614 65.8275496308511 5.0
vertex 81.606406460551 63.5285115251744 5.0
endloop
endfacet
facet normal -0.0 -0.0 1.0
outer loop
vertex 80.5573683548744 70.2737020535577 5.0
vertex 81.606406460551 63.5285115251744 5.0
vertex 81.7017059221718 68.2916512459888 5.0
endloop
endfacet
facet normal 3.09763439202642e-016 -0.38268343236509 0.923879532511287
outer loop
vertex 120.980762113533 66.6868923679809 15.5813374288121
vertex 88.3826859021798 68.7916512459889 16.0
vertex 88.3826859021798 66.6868923679809 15.5813374288121
endloop
endfacet
facet normal 8.08666869011255e-018 -0.195090322016131 0.98078528040323
outer loop
vertex 88.3826859021798 68.7916512459889 16.0
vertex 120.980762113533 66.6868923679809 15.5813374288121
vertex 120.980762113533 68.7916512459889 16.0
endloop
endfacet
facet normal 8.08666869011021e-018 -0.19509032201613 -0.98078528040323
outer loop
vertex 120.980762113533 68.7916512459889 5.0
vertex 88.3826859021798 66.6868923679809 5.41866257118792
vertex 88.3826859021798 68.7916512459889 5.0
endloop
endfacet
facet normal 3.09763439202641e-016 -0.38268343236509 -0.923879532511287
outer loop
vertex 88.3826859021798 66.6868923679809 5.41866257118792
vertex 120.980762113533 68.7916512459889 5.0
vertex 120.980762113533 66.6868923679809 5.41866257118792
endloop
endfacet
facet normal 1.07913660385545e-015 -1.0 0.0
outer loop
vertex 120.980762113533 63.2916512459889 10.5
vertex 88.3826859021798 63.7103138171768 8.395241121992
vertex 120.980762113533 63.7103138171768 8.395241121992
endloop
endfacet
facet normal 9.96992221085789e-016 -0.923879532511285 -0.382683432365094
outer loop
vertex 88.3826859021798 63.7103138171768 8.395241121992
vertex 120.980762113533 63.2916512459889 10.5
vertex 88.3826859021798 63.2916512459888 10.5
endloop
endfacet
facet normal 9.96992221085789e-016 -0.923879532511285 0.382683432365095
outer loop
vertex 120.980762113533 63.7103138171768 12.604758878008
vertex 88.3826859021798 63.2916512459888 10.5
vertex 120.980762113533 63.2916512459889 10.5
endloop
endfacet
facet normal 1.07913660385545e-015 -1.0 0.0
outer loop
vertex 88.3826859021798 63.2916512459888 10.5
vertex 120.980762113533 63.7103138171768 12.604758878008
vertex 88.3826859021798 63.7103138171768 12.604758878008
endloop
endfacet
facet normal 3.09763439202641e-016 -0.38268343236509 -0.923879532511287
outer loop
vertex 120.980762113533 66.6868923679809 5.41866257118792
vertex 88.3826859021798 64.9025639494629 6.61091270347399
vertex 88.3826859021798 66.6868923679809 5.41866257118792
endloop
endfacet
facet normal 7.63064810412805e-016 -0.707106781186543 -0.707106781186552
outer loop
vertex 88.3826859021798 64.9025639494629 6.61091270347399
vertex 120.980762113533 66.6868923679809 5.41866257118792
vertex 120.980762113533 64.9025639494629 6.61091270347399
endloop
endfacet
facet normal 7.63064810412805e-016 -0.707106781186543 0.707106781186552
outer loop
vertex 120.980762113533 64.9025639494629 14.389087296526
vertex 88.3826859021798 63.7103138171768 12.604758878008
vertex 120.980762113533 63.7103138171768 12.604758878008
endloop
endfacet
facet normal 9.96992221085789e-016 -0.923879532511285 0.382683432365094
outer loop
vertex 88.3826859021798 63.7103138171768 12.604758878008
vertex 120.980762113533 64.9025639494629 14.389087296526
vertex 88.3826859021798 64.9025639494629 14.389087296526
endloop
endfacet
facet normal 9.96992221085789e-016 -0.923879532511285 -0.382683432365095
outer loop
vertex 120.980762113533 63.7103138171768 8.395241121992
vertex 88.3826859021798 64.9025639494629 6.61091270347399
vertex 120.980762113533 64.9025639494629 6.61091270347399
endloop
endfacet
facet normal 7.63064810412805e-016 -0.707106781186543 -0.707106781186552
outer loop
vertex 88.3826859021798 64.9025639494629 6.61091270347399
vertex 120.980762113533 63.7103138171768 8.395241121992
vertex 88.3826859021798 63.7103138171768 8.395241121992
endloop
endfacet
facet normal 7.63064810412805e-016 -0.707106781186543 0.707106781186552
outer loop
vertex 120.980762113533 64.9025639494629 14.389087296526
vertex 88.3826859021798 66.6868923679809 15.5813374288121
vertex 88.3826859021798 64.9025639494629 14.389087296526
endloop
endfacet
facet normal 3.09763439202642e-016 -0.38268343236509 0.923879532511286
outer loop
vertex 88.3826859021798 66.6868923679809 15.5813374288121
vertex 120.980762113533 64.9025639494629 14.389087296526
vertex 120.980762113533 66.6868923679809 15.5813374288121
endloop
endfacet
facet normal 0.499878314840554 0.866095647164285 -1.7755175455499e-005
outer loop
vertex 77.9903810567666 83.7916512459889 20.0
vertex 82.3205080756888 81.2916512459889 0.0
vertex 77.9903810567666 83.7916512459889 0.0
endloop
endfacet
facet normal 0.499878314840554 0.866095647164285 -1.7755175455499e-005
outer loop
vertex 82.3205080756888 81.2916512459889 0.0
vertex 77.9903810567666 83.7916512459889 20.0
vertex 82.3205080756888 81.2916512459889 13.0
endloop
endfacet
facet normal 0.499878314840554 0.866095647164285 -1.7755175455499e-005
outer loop
vertex 82.3205080756888 81.2916512459889 13.0
vertex 77.9903810567666 83.7916512459889 20.0
vertex 86.650635094611 78.7916512459888 13.0
endloop
endfacet
facet normal 0.499878314840554 0.866095647164285 -1.7755175455499e-005
outer loop
vertex 86.650635094611 78.7916512459888 13.0
vertex 90.9807621135332 76.2916512459889 0.0
vertex 86.650635094611 78.7916512459888 0.0
endloop
endfacet
facet normal 0.499878314840554 0.866095647164285 -1.7755175455499e-005
outer loop
vertex 90.9807621135332 76.2916512459889 0.0
vertex 86.650635094611 78.7916512459888 13.0
vertex 90.9807621135332 76.2916512459889 10.4435736907113
endloop
endfacet
facet normal 0.499878314840554 0.866095647164285 -1.7755175455499e-005
outer loop
vertex 90.9807621135332 76.2916512459889 10.4435736907113
vertex 86.650635094611 78.7916512459888 13.0
vertex 90.9807621135333 76.302875136752 10.5
endloop
endfacet
facet normal 0.499878314840554 0.866095647164285 -1.7755175455499e-005
outer loop
vertex 90.9807621135333 76.302875136752 10.5
vertex 86.650635094611 78.7916512459888 13.0
vertex 90.9807621135332 76.2916512459889 10.5564263092887
endloop
endfacet
facet normal 0.499878314840554 0.866095647164285 -1.7755175455499e-005
outer loop
vertex 90.9807621135332 76.2916512459889 10.5564263092887
vertex 86.650635094611 78.7916512459888 13.0
vertex 90.9807621135332 76.2916512459889 20.0
endloop
endfacet
facet normal 0.499878314840554 0.866095647164285 -1.7755175455499e-005
outer loop
vertex 90.9807621135332 76.2916512459889 20.0
vertex 86.650635094611 78.7916512459888 13.0
vertex 77.9903810567666 83.7916512459889 20.0
endloop
endfacet
facet normal 1.0 -8.65476294781472e-016 -1.90689401698047e-015
outer loop
vertex 90.9807621135332 61.2916512459888 0.0
vertex 90.9807621135332 61.8521852292031 7.62557906022013
vertex 90.9807621135332 61.2916512459888 10.443573690712
endloop
endfacet
facet normal 1.0 -8.65476294781472e-016 -1.90689401698047e-015
outer loop
vertex 90.9807621135332 61.8521852292031 7.62557906022013
vertex 90.9807621135332 61.2916512459888 0.0
vertex 90.9807621135332 63.48041389782 5.18876265183104
endloop
endfacet
facet normal 1.0 -8.65476294781472e-016 -1.90689401698047e-015
outer loop
vertex 90.9807621135332 63.48041389782 5.18876265183104
vertex 90.9807621135332 61.2916512459888 0.0
vertex 90.9807621135332 65.9172303062091 3.56053398321424
endloop
endfacet
facet normal 1.0 -8.65476294781472e-016 -1.90689401698047e-015
outer loop
vertex 90.9807621135332 65.9172303062091 3.56053398321424
vertex 90.9807621135332 61.2916512459888 0.0
vertex 90.9807621135332 76.2916512459889 0.0
endloop
endfacet
facet normal 1.0 -8.65476294781472e-016 -1.90689401698047e-015
outer loop
vertex 90.9807621135332 65.9172303062091 3.56053398321424
vertex 90.9807621135332 76.2916512459889 0.0
vertex 90.9807621135332 68.7916512459889 2.98877610923696
endloop
endfacet
facet normal 1.0 -8.65476294781472e-016 -1.90689401698047e-015
outer loop
vertex 90.9807621135332 68.7916512459889 2.98877610923696
vertex 90.9807621135332 76.2916512459889 0.0
vertex 90.9807621135333 71.6660721857688 3.56053398321424
endloop
endfacet
facet normal 1.0 -8.65476294781472e-016 -1.90689401698047e-015
outer loop
vertex 90.9807621135333 71.6660721857688 3.56053398321424
vertex 90.9807621135332 76.2916512459889 0.0
vertex 90.9807621135333 74.1028885941578 5.18876265183104
endloop
endfacet
facet normal 1.0 -8.65476294781472e-016 -1.90689401698047e-015
outer loop
vertex 90.9807621135333 74.1028885941578 5.18876265183104
vertex 90.9807621135332 76.2916512459889 0.0
vertex 90.9807621135333 75.7311172627747 7.62557906022014
endloop
endfacet
facet normal 1.0 -8.65476294781472e-016 -1.90689401698047e-015
outer loop
vertex 90.9807621135333 75.7311172627747 7.62557906022014
vertex 90.9807621135332 76.2916512459889 0.0
vertex 90.9807621135332 76.2916512459889 10.4435736907113
endloop
endfacet
facet normal 1.0 -8.65476294781498e-016 3.10950551446177e-015
outer loop
vertex 90.9807621135332 61.8521852292031 13.3744209397799
vertex 90.9807621135332 61.2916512459888 20.0
vertex 90.9807621135332 61.2916512459888 10.556426309288
endloop
endfacet
facet normal 1.0 -8.65476294781498e-016 3.10950551446177e-015
outer loop
vertex 90.9807621135332 61.2916512459888 20.0
vertex 90.9807621135332 61.8521852292031 13.3744209397799
vertex 90.9807621135332 63.48041389782 15.811237348169
endloop
endfacet
facet normal 1.0 -8.65476294781498e-016 3.10950551446177e-015
outer loop
vertex 90.9807621135332 61.2916512459888 20.0
vertex 90.9807621135332 63.48041389782 15.811237348169
vertex 90.9807621135332 68.7916512459888 20.0
endloop
endfacet
facet normal 1.0 -8.65476294781498e-016 3.10950551446177e-015
outer loop
vertex 90.9807621135332 68.7916512459888 20.0
vertex 90.9807621135332 63.48041389782 15.811237348169
vertex 90.9807621135332 65.9172303062091 17.4394660167858
endloop
endfacet
facet normal 1.0 -8.65476294781498e-016 3.10950551446177e-015
outer loop
vertex 90.9807621135332 68.7916512459888 20.0
vertex 90.9807621135332 65.9172303062091 17.4394660167858
vertex 90.9807621135332 68.7916512459889 18.011223890763
endloop
endfacet
facet normal 1.0 -8.65476294781498e-016 3.10950551446177e-015
outer loop
vertex 90.9807621135332 68.7916512459888 20.0
vertex 90.9807621135332 68.7916512459889 18.011223890763
vertex 90.9807621135332 76.2916512459889 20.0
endloop
endfacet
facet normal 1.0 -8.65476294781498e-016 3.10950551446177e-015
outer loop
vertex 90.9807621135332 76.2916512459889 20.0
vertex 90.9807621135332 68.7916512459889 18.011223890763
vertex 90.9807621135333 71.6660721857688 17.4394660167858
endloop
endfacet
facet normal 1.0 -8.65476294781498e-016 3.10950551446177e-015
outer loop
vertex 90.9807621135332 76.2916512459889 20.0
vertex 90.9807621135333 71.6660721857688 17.4394660167858
vertex 90.9807621135333 74.1028885941578 15.811237348169
endloop
endfacet
facet normal 1.0 -8.65476294781498e-016 3.10950551446177e-015
outer loop
vertex 90.9807621135332 76.2916512459889 20.0
vertex 90.9807621135333 74.1028885941578 15.811237348169
vertex 90.9807621135333 75.7311172627747 13.3744209397799
endloop
endfacet
facet normal 1.0 -8.65476294781498e-016 3.10950551446177e-015
outer loop
vertex 90.9807621135332 76.2916512459889 20.0
vertex 90.9807621135333 75.7311172627747 13.3744209397799
vertex 90.9807621135332 76.2916512459889 10.5564263092887
endloop
endfacet
facet normal 1.0 -1.25954220620516e-015 -3.86939058394572e-031
outer loop
vertex 120.980762113533 61.2916512459888 10.443573690712
vertex 120.980762113533 61.2916512459888 10.556426309288
vertex 120.980762113533 61.2804273552258 10.5
endloop
endfacet
facet normal 1.0 -1.25954220620516e-015 -3.86939058394572e-031
outer loop
vertex 120.980762113533 61.2916512459888 10.556426309288
vertex 120.980762113533 61.2916512459888 10.443573690712
vertex 120.980762113533 61.8521852292031 7.62557906022013
endloop
endfacet
facet normal 1.0 -1.25954220620516e-015 -3.86939058394572e-031
outer loop
vertex 120.980762113533 61.2916512459888 10.556426309288
vertex 120.980762113533 61.8521852292031 7.62557906022013
vertex 120.980762113533 61.8521852292031 13.3744209397799
endloop
endfacet
facet normal 1.0 -1.25954220620516e-015 -3.86939058394572e-031
outer loop
vertex 120.980762113533 61.8521852292031 13.3744209397799
vertex 120.980762113533 61.8521852292031 7.62557906022013
vertex 120.980762113533 63.48041389782 5.18876265183104
endloop
endfacet
facet normal 1.0 -1.25954220620516e-015 -3.86939058394572e-031
outer loop
vertex 120.980762113533 61.8521852292031 13.3744209397799
vertex 120.980762113533 63.48041389782 5.18876265183104
vertex 120.980762113533 63.2916512459889 10.5
endloop
endfacet
facet normal 1.0 -1.25954220620516e-015 -3.86939058394572e-031
outer loop
vertex 120.980762113533 63.2916512459889 10.5
vertex 120.980762113533 63.48041389782 5.18876265183104
vertex 120.980762113533 63.7103138171768 8.395241121992
endloop
endfacet
facet normal 1.0 -1.25954220620516e-015 -3.86939058394572e-031
outer loop
vertex 120.980762113533 63.7103138171768 8.395241121992
vertex 120.980762113533 63.48041389782 5.18876265183104
vertex 120.980762113533 65.917230306209 3.56053398321424
endloop
endfacet
facet normal 1.0 -1.25954220620516e-015 -3.86939058394572e-031
outer loop
vertex 120.980762113533 63.7103138171768 8.395241121992
vertex 120.980762113533 65.917230306209 3.56053398321424
vertex 120.980762113533 64.9025639494629 6.61091270347399
endloop
endfacet
facet normal 1.0 -1.25954220620516e-015 -3.86939058394572e-031
outer loop
vertex 120.980762113533 64.9025639494629 6.61091270347399
vertex 120.980762113533 65.917230306209 3.56053398321424
vertex 120.980762113533 66.6868923679809 5.41866257118792
endloop
endfacet
facet normal 1.0 -1.25954220620516e-015 -3.86939058394572e-031
outer loop
vertex 120.980762113533 66.6868923679809 5.41866257118792
vertex 120.980762113533 65.917230306209 3.56053398321424
vertex 120.980762113533 68.7916512459889 2.98877610923696
endloop
endfacet
facet normal 1.0 -1.25954220620516e-015 -3.86939058394572e-031
outer loop
vertex 120.980762113533 66.6868923679809 5.41866257118792
vertex 120.980762113533 68.7916512459889 2.98877610923696
vertex 120.980762113533 68.7916512459889 5.0
endloop
endfacet
facet normal 1.0 -1.25954220620516e-015 -3.86939058394572e-031
outer loop
vertex 120.980762113533 68.7916512459889 5.0
vertex 120.980762113533 68.7916512459889 2.98877610923696
vertex 120.980762113533 71.6660721857687 3.56053398321424
endloop
endfacet
facet normal 1.0 -1.25954220620516e-015 -3.86939058394572e-031
outer loop
vertex 120.980762113533 68.7916512459889 5.0
vertex 120.980762113533 71.6660721857687 3.56053398321424
vertex 120.980762113533 70.8964101239969 5.41866257118792
endloop
endfacet
facet normal 1.0 -1.25954220620516e-015 -3.86939058394572e-031
outer loop
vertex 120.980762113533 70.8964101239969 5.41866257118792
vertex 120.980762113533 71.6660721857687 3.56053398321424
vertex 120.980762113533 72.6807385425149 6.61091270347399
endloop
endfacet
facet normal 1.0 -1.25954220620516e-015 -3.86939058394572e-031
outer loop
vertex 120.980762113533 72.6807385425149 6.61091270347399
vertex 120.980762113533 71.6660721857687 3.56053398321424
vertex 120.980762113533 74.1028885941578 5.18876265183104
endloop
endfacet
facet normal 1.0 -1.25954220620516e-015 -3.86939058394572e-031
outer loop
vertex 120.980762113533 72.6807385425149 6.61091270347399
vertex 120.980762113533 74.1028885941578 5.18876265183104
vertex 120.980762113533 73.872988674801 8.39524112199201
endloop
endfacet
facet normal 1.0 -1.25954220620516e-015 -3.86939058394572e-031
outer loop
vertex 120.980762113533 73.872988674801 8.39524112199201
vertex 120.980762113533 74.1028885941578 5.18876265183104
vertex 120.980762113533 74.2916512459889 10.5
endloop
endfacet
facet normal 1.0 -1.25954220620516e-015 -3.86939058394572e-031
outer loop
vertex 120.980762113533 74.2916512459889 10.5
vertex 120.980762113533 74.1028885941578 5.18876265183104
vertex 120.980762113533 75.7311172627747 7.62557906022014
endloop
endfacet
facet normal 1.0 -1.25954220620516e-015 -3.86939058394572e-031
outer loop
vertex 120.980762113533 63.2916512459889 10.5
vertex 120.980762113533 63.48041389782 15.811237348169
vertex 120.980762113533 61.8521852292031 13.3744209397799
endloop
endfacet
facet normal 1.0 -1.25954220620516e-015 -3.86939058394572e-031
outer loop
vertex 120.980762113533 63.48041389782 15.811237348169
vertex 120.980762113533 63.2916512459889 10.5
vertex 120.980762113533 63.7103138171768 12.604758878008
endloop
endfacet
facet normal 1.0 -1.25954220620516e-015 -3.86939058394572e-031
outer loop
vertex 120.980762113533 63.48041389782 15.811237348169
vertex 120.980762113533 63.7103138171768 12.604758878008
vertex 120.980762113533 65.917230306209 17.4394660167858
endloop
endfacet
facet normal 1.0 -1.25954220620516e-015 -3.86939058394572e-031
outer loop
vertex 120.980762113533 65.917230306209 17.4394660167858
vertex 120.980762113533 63.7103138171768 12.604758878008
vertex 120.980762113533 64.9025639494629 14.389087296526
endloop
endfacet
facet normal 1.0 -1.25954220620516e-015 -3.86939058394572e-031
outer loop
vertex 120.980762113533 65.917230306209 17.4394660167858
vertex 120.980762113533 64.9025639494629 14.389087296526
vertex 120.980762113533 66.6868923679809 15.5813374288121
endloop
endfacet
facet normal 1.0 -1.25954220620516e-015 -3.86939058394572e-031
outer loop
vertex 120.980762113533 65.917230306209 17.4394660167858
vertex 120.980762113533 66.6868923679809 15.5813374288121
vertex 120.980762113533 68.7916512459889 18.011223890763
endloop
endfacet
facet normal 1.0 -1.25954220620516e-015 -3.86939058394572e-031
outer loop
vertex 120.980762113533 68.7916512459889 18.011223890763
vertex 120.980762113533 66.6868923679809 15.5813374288121
vertex 120.980762113533 68.7916512459889 16.0
endloop
endfacet
facet normal 1.0 -1.25954220620516e-015 -3.86939058394572e-031
outer loop
vertex 120.980762113533 68.7916512459889 18.011223890763
vertex 120.980762113533 68.7916512459889 16.0
vertex 120.980762113533 70.8964101239969 15.5813374288121
endloop
endfacet
facet normal 1.0 -1.25954220620516e-015 -3.86939058394572e-031
outer loop
vertex 120.980762113533 68.7916512459889 18.011223890763
vertex 120.980762113533 70.8964101239969 15.5813374288121
vertex 120.980762113533 71.6660721857687 17.4394660167858
endloop
endfacet
facet normal 1.0 -1.25954220620516e-015 -3.86939058394572e-031
outer loop
vertex 120.980762113533 71.6660721857687 17.4394660167858
vertex 120.980762113533 70.8964101239969 15.5813374288121
vertex 120.980762113533 72.6807385425149 14.389087296526
endloop
endfacet
facet normal 1.0 -1.25954220620516e-015 -3.86939058394572e-031
outer loop
vertex 120.980762113533 71.6660721857687 17.4394660167858
vertex 120.980762113533 72.6807385425149 14.389087296526
vertex 120.980762113533 74.1028885941578 15.811237348169
endloop
endfacet
facet normal 1.0 -1.25954220620516e-015 -3.86939058394572e-031
outer loop
vertex 120.980762113533 74.1028885941578 15.811237348169
vertex 120.980762113533 72.6807385425149 14.389087296526
vertex 120.980762113533 73.872988674801 12.604758878008
endloop
endfacet
facet normal 1.0 -1.25954220620516e-015 -3.86939058394572e-031
outer loop
vertex 120.980762113533 74.1028885941578 15.811237348169
vertex 120.980762113533 73.872988674801 12.604758878008
vertex 120.980762113533 74.2916512459889 10.5
endloop
endfacet
facet normal 1.0 -1.25954220620516e-015 -3.86939058394572e-031
outer loop
vertex 120.980762113533 74.1028885941578 15.811237348169
vertex 120.980762113533 74.2916512459889 10.5
vertex 120.980762113533 75.7311172627747 13.3744209397799
endloop
endfacet
facet normal 1.0 -1.25954220620516e-015 -3.86939058394572e-031
outer loop
vertex 120.980762113533 75.7311172627747 13.3744209397799
vertex 120.980762113533 74.2916512459889 10.5
vertex 120.980762113533 75.7311172627747 7.62557906022014
endloop
endfacet
facet normal 1.0 -1.25954220620516e-015 -3.86939058394572e-031
outer loop
vertex 120.980762113533 75.7311172627747 13.3744209397799
vertex 120.980762113533 75.7311172627747 7.62557906022014
vertex 120.980762113533 76.2916512459888 10.4435736907113
endloop
endfacet
facet normal 1.0 -1.25954220620516e-015 -3.86939058394572e-031
outer loop
vertex 120.980762113533 75.7311172627747 13.3744209397799
vertex 120.980762113533 76.2916512459888 10.4435736907113
vertex 120.980762113533 76.2916512459888 10.5564263092887
endloop
endfacet
facet normal 1.0 -1.25954220620516e-015 -3.86939058394572e-031
outer loop
vertex 120.980762113533 76.2916512459888 10.5564263092887
vertex 120.980762113533 76.2916512459888 10.4435736907113
vertex 120.980762113533 76.3028751367519 10.5
endloop
endfacet
facet normal 1.23534045589263e-015 0.98078528040323 0.195090322016128
outer loop
vertex 90.9807621135332 76.2916512459889 10.5564263092887
vertex 120.980762113533 76.3028751367519 10.5
vertex 90.9807621135333 76.302875136752 10.5
endloop
endfacet
facet normal 1.23534045589263e-015 0.98078528040323 0.195090322016128
outer loop
vertex 120.980762113533 76.3028751367519 10.5
vertex 90.9807621135332 76.2916512459889 10.5564263092887
vertex 120.980762113533 76.2916512459888 10.5564263092887
endloop
endfacet
facet normal 1.23534045589263e-015 0.980785280403231 0.195090322016126
outer loop
vertex 90.9807621135333 75.7311172627747 13.3744209397799
vertex 120.980762113533 76.2916512459888 10.5564263092887
vertex 90.9807621135332 76.2916512459889 10.5564263092887
endloop
endfacet
facet normal 1.23534045589263e-015 0.980785280403231 0.195090322016126
outer loop
vertex 120.980762113533 76.2916512459888 10.5564263092887
vertex 90.9807621135333 75.7311172627747 13.3744209397799
vertex 120.980762113533 75.7311172627747 13.3744209397799
endloop
endfacet
facet normal 1.04727106987209e-015 0.831469612302539 0.555570233019611
outer loop
vertex 90.9807621135333 74.1028885941578 15.811237348169
vertex 120.980762113533 75.7311172627747 13.3744209397799
vertex 90.9807621135333 75.7311172627747 13.3744209397799
endloop
endfacet
facet normal 1.04727106987209e-015 0.831469612302539 0.555570233019611
outer loop
vertex 120.980762113533 75.7311172627747 13.3744209397799
vertex 90.9807621135333 74.1028885941578 15.811237348169
vertex 120.980762113533 74.1028885941578 15.811237348169
endloop
endfacet
facet normal 6.9976415699942e-016 0.5555702330196 0.831469612302547
outer loop
vertex 120.980762113533 71.6660721857687 17.4394660167858
vertex 90.9807621135333 74.1028885941578 15.811237348169
vertex 90.9807621135333 71.6660721857688 17.4394660167858
endloop
endfacet
facet normal 6.9976415699942e-016 0.5555702330196 0.831469612302547
outer loop
vertex 90.9807621135333 74.1028885941578 15.811237348169
vertex 120.980762113533 71.6660721857687 17.4394660167858
vertex 120.980762113533 74.1028885941578 15.811237348169
endloop
endfacet
facet normal 2.45724494601471e-016 0.19509032201613 0.98078528040323
outer loop
vertex 120.980762113533 68.7916512459889 18.011223890763
vertex 90.9807621135333 71.6660721857688 17.4394660167858
vertex 90.9807621135332 68.7916512459889 18.011223890763
endloop
endfacet
facet normal 2.45724494601471e-016 0.19509032201613 0.98078528040323
outer loop
vertex 90.9807621135333 71.6660721857688 17.4394660167858
vertex 120.980762113533 68.7916512459889 18.011223890763
vertex 120.980762113533 71.6660721857687 17.4394660167858
endloop
endfacet
facet normal -2.4572449460147e-016 -0.19509032201613 0.98078528040323
outer loop
vertex 120.980762113533 65.917230306209 17.4394660167858
vertex 90.9807621135332 68.7916512459889 18.011223890763
vertex 90.9807621135332 65.9172303062091 17.4394660167858
endloop
endfacet
facet normal -2.4572449460147e-016 -0.19509032201613 0.98078528040323
outer loop
vertex 90.9807621135332 68.7916512459889 18.011223890763
vertex 120.980762113533 65.917230306209 17.4394660167858
vertex 120.980762113533 68.7916512459889 18.011223890763
endloop
endfacet
facet normal -6.9976415699942e-016 -0.555570233019601 0.831469612302546
outer loop
vertex 120.980762113533 63.48041389782 15.811237348169
vertex 90.9807621135332 65.9172303062091 17.4394660167858
vertex 90.9807621135332 63.48041389782 15.811237348169
endloop
endfacet
facet normal -6.9976415699942e-016 -0.555570233019601 0.831469612302546
outer loop
vertex 90.9807621135332 65.9172303062091 17.4394660167858
vertex 120.980762113533 63.48041389782 15.811237348169
vertex 120.980762113533 65.917230306209 17.4394660167858
endloop
endfacet
facet normal -1.04727106987209e-015 -0.831469612302539 0.555570233019611
outer loop
vertex 120.980762113533 63.48041389782 15.811237348169
vertex 90.9807621135332 61.8521852292031 13.3744209397799
vertex 120.980762113533 61.8521852292031 13.3744209397799
endloop
endfacet
facet normal -1.04727106987209e-015 -0.831469612302539 0.555570233019611
outer loop
vertex 90.9807621135332 61.8521852292031 13.3744209397799
vertex 120.980762113533 63.48041389782 15.811237348169
vertex 90.9807621135332 63.48041389782 15.811237348169
endloop
endfacet
facet normal -1.23534045589263e-015 -0.980785280403231 0.195090322016125
outer loop
vertex 120.980762113533 61.8521852292031 13.3744209397799
vertex 90.9807621135332 61.2916512459888 10.556426309288
vertex 120.980762113533 61.2916512459888 10.556426309288
endloop
endfacet
facet normal -1.23534045589263e-015 -0.980785280403231 0.195090322016125
outer loop
vertex 90.9807621135332 61.2916512459888 10.556426309288
vertex 120.980762113533 61.8521852292031 13.3744209397799
vertex 90.9807621135332 61.8521852292031 13.3744209397799
endloop
endfacet
facet normal -1.23534045589263e-015 -0.980785280403231 0.195090322016125
outer loop
vertex 120.980762113533 61.2916512459888 10.556426309288
vertex 90.9807621135332 61.2804273552259 10.5
vertex 120.980762113533 61.2804273552258 10.5
endloop
endfacet
facet normal -1.23534045589263e-015 -0.980785280403231 0.195090322016125
outer loop
vertex 90.9807621135332 61.2804273552259 10.5
vertex 120.980762113533 61.2916512459888 10.556426309288
vertex 90.9807621135332 61.2916512459888 10.556426309288
endloop
endfacet
facet normal -1.23534045589263e-015 -0.980785280403231 -0.195090322016125
outer loop
vertex 120.980762113533 61.2804273552258 10.5
vertex 90.9807621135332 61.2916512459888 10.443573690712
vertex 120.980762113533 61.2916512459888 10.443573690712
endloop
endfacet
facet normal -1.23534045589263e-015 -0.980785280403231 -0.195090322016125
outer loop
vertex 90.9807621135332 61.2916512459888 10.443573690712
vertex 120.980762113533 61.2804273552258 10.5
vertex 90.9807621135332 61.2804273552259 10.5
endloop
endfacet
facet normal -1.23534045589263e-015 -0.980785280403231 -0.195090322016126
outer loop
vertex 120.980762113533 61.2916512459888 10.443573690712
vertex 90.9807621135332 61.8521852292031 7.62557906022013
vertex 120.980762113533 61.8521852292031 7.62557906022013
endloop
endfacet
facet normal -1.23534045589263e-015 -0.980785280403231 -0.195090322016126
outer loop
vertex 90.9807621135332 61.8521852292031 7.62557906022013
vertex 120.980762113533 61.2916512459888 10.443573690712
vertex 90.9807621135332 61.2916512459888 10.443573690712
endloop
endfacet
facet normal -1.04727106987208e-015 -0.831469612302538 -0.555570233019612
outer loop
vertex 120.980762113533 61.8521852292031 7.62557906022013
vertex 90.9807621135332 63.48041389782 5.18876265183104
vertex 120.980762113533 63.48041389782 5.18876265183104
endloop
endfacet
facet normal -1.04727106987208e-015 -0.831469612302538 -0.555570233019612
outer loop
vertex 90.9807621135332 63.48041389782 5.18876265183104
vertex 120.980762113533 61.8521852292031 7.62557906022013
vertex 90.9807621135332 61.8521852292031 7.62557906022013
endloop
endfacet
facet normal -6.99764156999421e-016 -0.555570233019601 -0.831469612302546
outer loop
vertex 120.980762113533 65.917230306209 3.56053398321424
vertex 90.9807621135332 63.48041389782 5.18876265183104
vertex 90.9807621135332 65.9172303062091 3.56053398321424
endloop
endfacet
facet normal -6.99764156999421e-016 -0.555570233019601 -0.831469612302546
outer loop
vertex 90.9807621135332 63.48041389782 5.18876265183104
vertex 120.980762113533 65.917230306209 3.56053398321424
vertex 120.980762113533 63.48041389782 5.18876265183104
endloop
endfacet
facet normal -2.45724494601471e-016 -0.19509032201613 -0.98078528040323
outer loop
vertex 120.980762113533 68.7916512459889 2.98877610923696
vertex 90.9807621135332 65.9172303062091 3.56053398321424
vertex 90.9807621135332 68.7916512459889 2.98877610923696
endloop
endfacet
facet normal -2.45724494601471e-016 -0.19509032201613 -0.98078528040323
outer loop
vertex 90.9807621135332 65.9172303062091 3.56053398321424
vertex 120.980762113533 68.7916512459889 2.98877610923696
vertex 120.980762113533 65.917230306209 3.56053398321424
endloop
endfacet
facet normal 2.45724494601471e-016 0.195090322016131 -0.98078528040323
outer loop
vertex 90.9807621135333 71.6660721857688 3.56053398321424
vertex 120.980762113533 68.7916512459889 2.98877610923696
vertex 90.9807621135332 68.7916512459889 2.98877610923696
endloop
endfacet
facet normal 2.45724494601471e-016 0.195090322016131 -0.98078528040323
outer loop
vertex 120.980762113533 68.7916512459889 2.98877610923696
vertex 90.9807621135333 71.6660721857688 3.56053398321424
vertex 120.980762113533 71.6660721857687 3.56053398321424
endloop
endfacet
facet normal 6.9976415699942e-016 0.555570233019601 -0.831469612302546
outer loop
vertex 120.980762113533 74.1028885941578 5.18876265183104
vertex 90.9807621135333 71.6660721857688 3.56053398321424
vertex 90.9807621135333 74.1028885941578 5.18876265183104
endloop
endfacet
facet normal 6.9976415699942e-016 0.555570233019601 -0.831469612302546
outer loop
vertex 90.9807621135333 71.6660721857688 3.56053398321424
vertex 120.980762113533 74.1028885941578 5.18876265183104
vertex 120.980762113533 71.6660721857687 3.56053398321424
endloop
endfacet
facet normal 1.04727106987209e-015 0.831469612302539 -0.555570233019611
outer loop
vertex 90.9807621135333 75.7311172627747 7.62557906022014
vertex 120.980762113533 74.1028885941578 5.18876265183104
vertex 90.9807621135333 74.1028885941578 5.18876265183104
endloop
endfacet
facet normal 1.04727106987209e-015 0.831469612302539 -0.555570233019611
outer loop
vertex 120.980762113533 74.1028885941578 5.18876265183104
vertex 90.9807621135333 75.7311172627747 7.62557906022014
vertex 120.980762113533 75.7311172627747 7.62557906022014
endloop
endfacet
facet normal 1.23534045589263e-015 0.980785280403231 -0.195090322016126
outer loop
vertex 90.9807621135332 76.2916512459889 10.4435736907113
vertex 120.980762113533 75.7311172627747 7.62557906022014
vertex 90.9807621135333 75.7311172627747 7.62557906022014
endloop
endfacet
facet normal 1.23534045589263e-015 0.980785280403231 -0.195090322016126
outer loop
vertex 120.980762113533 75.7311172627747 7.62557906022014
vertex 90.9807621135332 76.2916512459889 10.4435736907113
vertex 120.980762113533 76.2916512459888 10.4435736907113
endloop
endfacet
facet normal 1.23534045589263e-015 0.98078528040323 -0.195090322016128
outer loop
vertex 90.9807621135333 76.302875136752 10.5
vertex 120.980762113533 76.2916512459888 10.4435736907113
vertex 90.9807621135332 76.2916512459889 10.4435736907113
endloop
endfacet
facet normal 1.23534045589263e-015 0.98078528040323 -0.195090322016128
outer loop
vertex 120.980762113533 76.2916512459888 10.4435736907113
vertex 90.9807621135333 76.302875136752 10.5
vertex 120.980762113533 76.3028751367519 10.5
endloop
endfacet
endsolid foot
