solid foot
facet normal 0.0 0.0 -1.0
outer loop
vertex 65.0 71.2916512459889 1.0
vertex 0.0 66.2916512459889 1.0
vertex 0.0 71.2916512459889 1.0
endloop
endfacet
facet normal 0.0 0.0 -1.0
outer loop
vertex 0.0 66.2916512459889 1.0
vertex 65.0 71.2916512459889 1.0
vertex 65.0 66.2916512459889 1.0
endloop
endfacet
facet normal 0.0 0.0 -1.0
outer loop
vertex 65.0 66.2916512459889 1.0
vertex 65.0 71.2916512459889 1.0
vertex 65.0 76.2916512459889 1.0
endloop
endfacet
facet normal 0.0 0.0 -1.0
outer loop
vertex 65.0 66.2916512459889 1.0
vertex 77.9903810567666 53.7916512459888 1.0
vertex 65.0 61.2916512459888 1.0
endloop
endfacet
facet normal 0.0 0.0 -1.0
outer loop
vertex 77.9903810567666 53.7916512459888 1.0
vertex 65.0 66.2916512459889 1.0
vertex 65.0 76.2916512459889 1.0
endloop
endfacet
facet normal 0.0 0.0 -1.0
outer loop
vertex 77.9903810567666 53.7916512459888 1.0
vertex 65.0 76.2916512459889 1.0
vertex 77.9903810567666 83.7916512459889 1.0
endloop
endfacet
facet normal 0.0 0.0 -1.0
outer loop
vertex 77.9903810567666 53.7916512459888 1.0
vertex 77.9903810567666 83.7916512459889 1.0
vertex 82.3205080756888 81.2916512459889 1.0
endloop
endfacet
facet normal 0.0 0.0 -1.0
outer loop
vertex 77.9903810567666 53.7916512459888 1.0
vertex 82.3205080756888 81.2916512459889 1.0
vertex 82.3205080756888 56.2916512459888 1.0
endloop
endfacet
facet normal 0.0 0.0 -1.0
outer loop
vertex 82.3205080756888 56.2916512459888 1.0
vertex 82.3205080756888 81.2916512459889 1.0
vertex 86.650635094611 58.7916512459885 1.0
endloop
endfacet
facet normal 0.0 0.0 -1.0
outer loop
vertex 82.3205080756888 56.2916512459888 1.0
vertex 86.650635094611 58.7916512459885 1.0
vertex 114.820508075688 0.0 1.0
endloop
endfacet
facet normal 0.0 0.0 -1.0
outer loop
vertex 114.820508075688 0.0 1.0
vertex 86.650635094611 58.7916512459885 1.0
vertex 119.150635094611 2.50000000000011 1.0
endloop
endfacet
facet normal 0.0 0.0 -1.0
outer loop
vertex 82.3205080756888 81.2916512459889 1.0
vertex 86.650635094611 78.7916512459888 1.0
vertex 86.650635094611 58.7916512459885 1.0
endloop
endfacet
facet normal 0.0 0.0 -1.0
outer loop
vertex 86.650635094611 78.7916512459888 1.0
vertex 82.3205080756888 81.2916512459889 1.0
vertex 114.820508075689 137.583302491977 1.0
endloop
endfacet
facet normal 0.0 0.0 -1.0
outer loop
vertex 86.650635094611 78.7916512459888 1.0
vertex 114.820508075689 137.583302491977 1.0
vertex 119.150635094611 135.083302491977 1.0
endloop
endfacet
facet normal 0.0 0.0 -1.0
outer loop
vertex 86.650635094611 78.7916512459888 1.0
vertex 90.9807621135332 61.2916512459888 1.0
vertex 86.650635094611 58.7916512459885 1.0
endloop
endfacet
facet normal 0.0 0.0 -1.0
outer loop
vertex 90.9807621135332 61.2916512459888 1.0
vertex 86.650635094611 78.7916512459888 1.0
vertex 90.9807621135332 76.2916512459889 1.0
endloop
endfacet
facet normal -1.0 0.0 0.0
outer loop
vertex 0.0 71.2916512459889 5.0
vertex 0.0 66.2916512459889 1.0
vertex 0.0 66.2916512459889 5.0
endloop
endfacet
facet normal -1.0 0.0 0.0
outer loop
vertex 0.0 66.2916512459889 1.0
vertex 0.0 71.2916512459889 5.0
vertex 0.0 71.2916512459889 1.0
endloop
endfacet
facet normal 0.0 -1.0 0.0
outer loop
vertex 65.0 66.2916512459889 13.0
vertex 0.0 66.2916512459889 1.0
vertex 65.0 66.2916512459889 1.0
endloop
endfacet
facet normal 0.0 -1.0 0.0
outer loop
vertex 0.0 66.2916512459889 1.0
vertex 65.0 66.2916512459889 13.0
vertex 0.0 66.2916512459889 5.0
endloop
endfacet
facet normal -0.122155201343216 -0.0 0.992511010913631
outer loop
vertex 65.0 66.2916512459889 13.0
vertex 0.0 71.2916512459889 5.0
vertex 0.0 66.2916512459889 5.0
endloop
endfacet
facet normal -0.122155201343216 -0.0 0.992511010913631
outer loop
vertex 0.0 71.2916512459889 5.0
vertex 65.0 66.2916512459889 13.0
vertex 65.0 71.2916512459889 13.0
endloop
endfacet
facet normal -0.0 1.0 -0.0
outer loop
vertex 0.0 71.2916512459889 5.0
vertex 65.0 71.2916512459889 1.0
vertex 0.0 71.2916512459889 1.0
endloop
endfacet
facet normal -0.0 1.0 -0.0
outer loop
vertex 65.0 71.2916512459889 1.0
vertex 0.0 71.2916512459889 5.0
vertex 65.0 71.2916512459889 13.0
endloop
endfacet
facet normal -0.866025403784437 0.500000000000002 3.15738658906919e-016
outer loop
vertex 114.820508075689 137.583302491977 5.0
vertex 82.3205080756888 81.2916512459889 1.0
vertex 82.3205080756888 81.2916512459889 13.0
endloop
endfacet
facet normal -0.866025403784437 0.500000000000002 3.15738658906919e-016
outer loop
vertex 82.3205080756888 81.2916512459889 1.0
vertex 114.820508075689 137.583302491977 5.0
vertex 114.820508075689 137.583302491977 1.0
endloop
endfacet
facet normal 0.0 0.0 1.0
outer loop
vertex 80.5573683548744 70.2737020535577 3.0
vertex 80.7403810567666 74.5547909668032 3.0
vertex 79.413030787577 72.2557528611266 3.0
endloop
endfacet
facet normal 0.0 0.0 1.0
outer loop
vertex 80.7403810567666 74.5547909668032 3.0
vertex 80.5573683548744 70.2737020535577 3.0
vertex 81.7017059221718 68.2916512459888 3.0
endloop
endfacet
facet normal 0.0 0.0 1.0
outer loop
vertex 80.7403810567666 74.5547909668032 3.0
vertex 81.7017059221718 68.2916512459888 3.0
vertex 84.356406460551 68.2916512459888 3.0
endloop
endfacet
facet normal 0.0 0.0 1.0
outer loop
vertex 74.2790561913614 68.2916512459888 3.0
vertex 75.2403810567666 74.5547909668032 3.0
vertex 71.6243556529822 68.2916512459888 3.0
endloop
endfacet
facet normal 0.0 0.0 1.0
outer loop
vertex 75.2403810567666 74.5547909668032 3.0
vertex 74.2790561913614 68.2916512459888 3.0
vertex 75.4233937586588 70.2737020535577 3.0
endloop
endfacet
facet normal 0.0 0.0 1.0
outer loop
vertex 75.2403810567666 74.5547909668032 3.0
vertex 75.4233937586588 70.2737020535577 3.0
vertex 76.5677313259562 72.2557528611266 3.0
endloop
endfacet
facet normal 0.0610776006716065 0.10578950756763 0.992511010913631
outer loop
vertex 86.650635094611 78.7916512459888 13.0
vertex 114.820508075689 137.583302491977 5.0
vertex 82.3205080756888 81.2916512459889 13.0
endloop
endfacet
facet normal 0.0610776006716065 0.10578950756763 0.992511010913631
outer loop
vertex 114.820508075689 137.583302491977 5.0
vertex 86.650635094611 78.7916512459888 13.0
vertex 119.150635094611 135.083302491977 5.0
endloop
endfacet
facet normal 0.866025403784438 -0.500000000000001 -1.42082396508113e-015
outer loop
vertex 119.150635094611 135.083302491977 1.0
vertex 86.650635094611 78.7916512459888 13.0
vertex 86.650635094611 78.7916512459888 1.0
endloop
endfacet
facet normal 0.866025403784438 -0.500000000000001 -1.42082396508113e-015
outer loop
vertex 86.650635094611 78.7916512459888 13.0
vertex 119.150635094611 135.083302491977 1.0
vertex 119.150635094611 135.083302491977 5.0
endloop
endfacet
facet normal 0.0 0.0 1.0
outer loop
vertex 81.606406460551 63.5285115251744 3.0
vertex 75.7017059221718 65.8275496308511 3.0
vertex 74.3743556529821 63.5285115251744 3.0
endloop
endfacet
facet normal 0.0 0.0 1.0
outer loop
vertex 75.7017059221718 65.8275496308511 3.0
vertex 81.606406460551 63.5285115251744 3.0
vertex 77.9903810567666 65.8275496308511 3.0
endloop
endfacet
facet normal 0.0 0.0 1.0
outer loop
vertex 77.9903810567666 65.8275496308511 3.0
vertex 81.606406460551 63.5285115251744 3.0
vertex 80.2790561913614 65.8275496308511 3.0
endloop
endfacet
facet normal 0.499999999999987 0.866025403784446 -2.48506592584167e-031
outer loop
vertex 114.820508075689 137.583302491977 5.0
vertex 119.150635094611 135.083302491977 1.0
vertex 114.820508075689 137.583302491977 1.0
endloop
endfacet
facet normal 0.499999999999987 0.866025403784446 -2.48506592584167e-031
outer loop
vertex 119.150635094611 135.083302491977 1.0
vertex 114.820508075689 137.583302491977 5.0
vertex 119.150635094611 135.083302491977 5.0
endloop
endfacet
facet normal -0.5 -0.866025403784439 0.0
outer loop
vertex 77.9903810567666 53.7916512459888 20.0
vertex 65.0 61.2916512459888 1.0
vertex 77.9903810567666 53.7916512459888 1.0
endloop
endfacet
facet normal -0.5 -0.866025403784439 0.0
outer loop
vertex 65.0 61.2916512459888 1.0
vertex 77.9903810567666 53.7916512459888 20.0
vertex 65.0 61.2916512459888 20.0
endloop
endfacet
facet normal -0.219544608439139 -0.380262416344403 0.898443464899835
outer loop
vertex 77.9903810567666 56.7916512459889 16.0
vertex 74.8403810567666 63.3356912021469 18.0
vertex 67.5980762113534 62.7916512459889 16.0
endloop
endfacet
facet normal -0.5 0.866025403784438 0.0
outer loop
vertex 65.0 76.2916512459889 20.0
vertex 77.9903810567666 83.7916512459889 1.0
vertex 65.0 76.2916512459889 1.0
endloop
endfacet
facet normal -0.5 0.866025403784438 0.0
outer loop
vertex 77.9903810567666 83.7916512459889 1.0
vertex 65.0 76.2916512459889 20.0
vertex 77.9903810567666 83.7916512459889 20.0
endloop
endfacet
facet normal -1.0 6.76791955811495e-016 1.63358645420657e-031
outer loop
vertex 65.0 61.2916512459888 20.0
vertex 65.0 66.2916512459889 13.0
vertex 65.0 61.2916512459888 1.0
endloop
endfacet
facet normal -1.0 6.76791955811495e-016 1.63358645420657e-031
outer loop
vertex 65.0 66.2916512459889 13.0
vertex 65.0 61.2916512459888 20.0
vertex 65.0 76.2916512459889 20.0
endloop
endfacet
facet normal -1.0 6.76791955811495e-016 1.63358645420657e-031
outer loop
vertex 65.0 66.2916512459889 13.0
vertex 65.0 76.2916512459889 20.0
vertex 65.0 71.2916512459889 13.0
endloop
endfacet
facet normal -1.0 6.76791955811495e-016 1.63358645420657e-031
outer loop
vertex 65.0 71.2916512459889 13.0
vertex 65.0 76.2916512459889 20.0
vertex 65.0 71.2916512459889 1.0
endloop
endfacet
facet normal -1.0 6.76791955811495e-016 1.63358645420657e-031
outer loop
vertex 65.0 71.2916512459889 1.0
vertex 65.0 76.2916512459889 20.0
vertex 65.0 76.2916512459889 1.0
endloop
endfacet
facet normal -1.0 6.76791955811495e-016 1.63358645420657e-031
outer loop
vertex 65.0 66.2916512459889 1.0
vertex 65.0 61.2916512459888 1.0
vertex 65.0 66.2916512459889 13.0
endloop
endfacet
facet normal -0.5 0.866025403784439 -1.8498747070433e-017
outer loop
vertex 77.9903810567666 56.7916512459889 16.0
vertex 88.3826859021799 62.7916512459889 5.0
vertex 77.9903810567666 56.7916512459889 5.0
endloop
endfacet
facet normal -0.5 0.866025403784439 -1.8498747070433e-017
outer loop
vertex 88.3826859021799 62.7916512459889 5.0
vertex 77.9903810567666 56.7916512459889 16.0
vertex 88.3826859021799 62.7916512459889 16.0
endloop
endfacet
facet normal 0.5 -0.866025403784439 4.63746214541934e-018
outer loop
vertex 77.9903810567666 80.7916512459888 16.0
vertex 67.5980762113533 74.7916512459888 5.0
vertex 77.9903810567666 80.7916512459888 5.0
endloop
endfacet
facet normal 0.5 -0.866025403784439 4.63746214541934e-018
outer loop
vertex 67.5980762113533 74.7916512459888 5.0
vertex 77.9903810567666 80.7916512459888 16.0
vertex 67.5980762113533 74.7916512459888 16.0
endloop
endfacet
facet normal -0.0 -0.0 1.0
outer loop
vertex 77.9903810567666 53.7916512459888 20.0
vertex 65.0 76.2916512459889 20.0
vertex 65.0 61.2916512459888 20.0
endloop
endfacet
facet normal -0.0 -0.0 1.0
outer loop
vertex 65.0 76.2916512459889 20.0
vertex 77.9903810567666 53.7916512459888 20.0
vertex 71.6903810567666 68.7916512459888 20.0
endloop
endfacet
facet normal -0.0 -0.0 1.0
outer loop
vertex 71.6903810567666 68.7916512459888 20.0
vertex 77.9903810567666 53.7916512459888 20.0
vertex 74.8403810567666 63.3356912021469 20.0
endloop
endfacet
facet normal -0.0 -0.0 1.0
outer loop
vertex 74.8403810567666 63.3356912021469 20.0
vertex 77.9903810567666 53.7916512459888 20.0
vertex 81.1403810567666 63.3356912021469 20.0
endloop
endfacet
facet normal -0.0 -0.0 1.0
outer loop
vertex 81.1403810567666 63.3356912021469 20.0
vertex 77.9903810567666 53.7916512459888 20.0
vertex 90.9807621135332 61.2916512459888 20.0
endloop
endfacet
facet normal -0.0 -0.0 1.0
outer loop
vertex 81.1403810567666 63.3356912021469 20.0
vertex 90.9807621135332 61.2916512459888 20.0
vertex 84.2903810567666 68.7916512459889 20.0
endloop
endfacet
facet normal -0.0 -0.0 1.0
outer loop
vertex 84.2903810567666 68.7916512459889 20.0
vertex 90.9807621135332 61.2916512459888 20.0
vertex 90.9807621135332 68.7916512459888 20.0
endloop
endfacet
facet normal -0.0 -0.0 1.0
outer loop
vertex 71.6903810567666 68.7916512459888 20.0
vertex 77.9903810567666 83.7916512459889 20.0
vertex 65.0 76.2916512459889 20.0
endloop
endfacet
facet normal -0.0 -0.0 1.0
outer loop
vertex 77.9903810567666 83.7916512459889 20.0
vertex 71.6903810567666 68.7916512459888 20.0
vertex 74.8403810567666 74.2476112898308 20.0
endloop
endfacet
facet normal -0.0 -0.0 1.0
outer loop
vertex 77.9903810567666 83.7916512459889 20.0
vertex 74.8403810567666 74.2476112898308 20.0
vertex 81.1403810567666 74.2476112898309 20.0
endloop
endfacet
facet normal -0.0 -0.0 1.0
outer loop
vertex 77.9903810567666 83.7916512459889 20.0
vertex 81.1403810567666 74.2476112898309 20.0
vertex 90.9807621135332 76.2916512459889 20.0
endloop
endfacet
facet normal -0.0 -0.0 1.0
outer loop
vertex 90.9807621135332 76.2916512459889 20.0
vertex 81.1403810567666 74.2476112898309 20.0
vertex 84.2903810567666 68.7916512459889 20.0
endloop
endfacet
facet normal -0.0 -0.0 1.0
outer loop
vertex 90.9807621135332 76.2916512459889 20.0
vertex 84.2903810567666 68.7916512459889 20.0
vertex 90.9807621135332 68.7916512459888 20.0
endloop
endfacet
facet normal 1.0 4.69994413757984e-016 1.64755751989507e-032
outer loop
vertex 67.5980762113533 74.7916512459888 5.0
vertex 67.5980762113534 62.7916512459889 16.0
vertex 67.5980762113534 62.7916512459889 5.0
endloop
endfacet
facet normal 1.0 4.69994413757984e-016 1.64755751989507e-032
outer loop
vertex 67.5980762113534 62.7916512459889 16.0
vertex 67.5980762113533 74.7916512459888 5.0
vertex 67.5980762113533 74.7916512459888 16.0
endloop
endfacet
facet normal 0.5 0.866025403784438 -4.63746214541933e-018
outer loop
vertex 67.5980762113534 62.7916512459889 16.0
vertex 77.9903810567666 56.7916512459889 5.0
vertex 67.5980762113534 62.7916512459889 5.0
endloop
endfacet
facet normal 0.5 0.866025403784438 -4.63746214541933e-018
outer loop
vertex 77.9903810567666 56.7916512459889 5.0
vertex 67.5980762113534 62.7916512459889 16.0
vertex 77.9903810567666 56.7916512459889 16.0
endloop
endfacet
facet normal -0.866025403784436 -0.500000000000005 -0.0
outer loop
vertex 80.7403810567666 74.5547909668032 5.0
vertex 84.356406460551 68.2916512459888 3.0
vertex 84.356406460551 68.2916512459888 5.0
endloop
endfacet
facet normal -0.866025403784436 -0.500000000000005 -0.0
outer loop
vertex 84.356406460551 68.2916512459888 3.0
vertex 80.7403810567666 74.5547909668032 5.0
vertex 80.7403810567666 74.5547909668032 3.0
endloop
endfacet
facet normal 0.866025403784428 -0.500000000000018 0.0
outer loop
vertex 80.7403810567666 74.5547909668032 3.0
vertex 79.413030787577 72.2557528611266 5.0
vertex 79.413030787577 72.2557528611266 3.0
endloop
endfacet
facet normal 0.866025403784428 -0.500000000000018 0.0
outer loop
vertex 79.413030787577 72.2557528611266 5.0
vertex 80.7403810567666 74.5547909668032 3.0
vertex 80.7403810567666 74.5547909668032 5.0
endloop
endfacet
facet normal 0.499999999999999 -0.866025403784439 2.04108463348438e-015
outer loop
vertex 90.9807621135332 61.2916512459888 20.0
vertex 86.650635094611 58.7916512459885 1.0
vertex 90.9807621135332 61.2916512459888 1.0
endloop
endfacet
facet normal 0.499999999999999 -0.866025403784439 2.04108463348438e-015
outer loop
vertex 86.650635094611 58.7916512459885 1.0
vertex 90.9807621135332 61.2916512459888 20.0
vertex 86.650635094611 58.7916512459885 13.0
endloop
endfacet
facet normal 0.499999999999999 -0.866025403784439 2.04108463348438e-015
outer loop
vertex 86.650635094611 58.7916512459885 13.0
vertex 90.9807621135332 61.2916512459888 20.0
vertex 82.3205080756888 56.2916512459888 13.0
endloop
endfacet
facet normal 0.499999999999999 -0.866025403784439 2.04108463348438e-015
outer loop
vertex 82.3205080756888 56.2916512459888 13.0
vertex 77.9903810567666 53.7916512459888 1.0
vertex 82.3205080756888 56.2916512459888 1.0
endloop
endfacet
facet normal 0.499999999999999 -0.866025403784439 2.04108463348438e-015
outer loop
vertex 77.9903810567666 53.7916512459888 1.0
vertex 82.3205080756888 56.2916512459888 13.0
vertex 77.9903810567666 53.7916512459888 20.0
endloop
endfacet
facet normal 0.499999999999999 -0.866025403784439 2.04108463348438e-015
outer loop
vertex 77.9903810567666 53.7916512459888 20.0
vertex 82.3205080756888 56.2916512459888 13.0
vertex 90.9807621135332 61.2916512459888 20.0
endloop
endfacet
facet normal 0.0 1.0 0.0
outer loop
vertex 81.7017059221718 68.2916512459888 5.0
vertex 84.356406460551 68.2916512459888 3.0
vertex 81.7017059221718 68.2916512459888 3.0
endloop
endfacet
facet normal 0.0 1.0 0.0
outer loop
vertex 84.356406460551 68.2916512459888 3.0
vertex 81.7017059221718 68.2916512459888 5.0
vertex 84.356406460551 68.2916512459888 5.0
endloop
endfacet
facet normal 0.0610776006716053 -0.10578950756763 0.992511010913631
outer loop
vertex 114.820508075688 0.0 5.0
vertex 86.650635094611 58.7916512459885 13.0
vertex 82.3205080756888 56.2916512459888 13.0
endloop
endfacet
facet normal 0.0610776006716053 -0.10578950756763 0.992511010913631
outer loop
vertex 86.650635094611 58.7916512459885 13.0
vertex 114.820508075688 0.0 5.0
vertex 119.150635094611 2.50000000000011 5.0
endloop
endfacet
facet normal 0.866025403784439 0.499999999999998 -3.15738658906919e-016
outer loop
vertex 86.650635094611 58.7916512459885 1.0
vertex 119.150635094611 2.50000000000011 5.0
vertex 119.150635094611 2.50000000000011 1.0
endloop
endfacet
facet normal 0.866025403784439 0.499999999999998 -3.15738658906919e-016
outer loop
vertex 119.150635094611 2.50000000000011 5.0
vertex 86.650635094611 58.7916512459885 1.0
vertex 86.650635094611 58.7916512459885 13.0
endloop
endfacet
facet normal 0.86602540378444 0.499999999999997 -0.0
outer loop
vertex 80.5573683548744 70.2737020535577 3.0
vertex 81.7017059221718 68.2916512459888 5.0
vertex 81.7017059221718 68.2916512459888 3.0
endloop
endfacet
facet normal 0.86602540378444 0.499999999999997 -0.0
outer loop
vertex 81.7017059221718 68.2916512459888 5.0
vertex 80.5573683548744 70.2737020535577 3.0
vertex 80.5573683548744 70.2737020535577 5.0
endloop
endfacet
facet normal 0.86602540378444 0.499999999999997 -0.0
outer loop
vertex 80.5573683548744 70.2737020535577 5.0
vertex 80.5573683548744 70.2737020535577 3.0
vertex 79.413030787577 72.2557528611266 3.0
endloop
endfacet
facet normal 0.86602540378444 0.499999999999997 -0.0
outer loop
vertex 80.5573683548744 70.2737020535577 5.0
vertex 79.413030787577 72.2557528611266 3.0
vertex 79.413030787577 72.2557528611266 5.0
endloop
endfacet
facet normal -0.86602540378444 0.499999999999997 0.0
outer loop
vertex 75.4233937586588 70.2737020535577 5.0
vertex 74.2790561913614 68.2916512459888 3.0
vertex 74.2790561913614 68.2916512459888 5.0
endloop
endfacet
facet normal -0.86602540378444 0.499999999999997 0.0
outer loop
vertex 74.2790561913614 68.2916512459888 3.0
vertex 75.4233937586588 70.2737020535577 5.0
vertex 75.4233937586588 70.2737020535577 3.0
endloop
endfacet
facet normal -0.86602540378444 0.499999999999997 0.0
outer loop
vertex 75.4233937586588 70.2737020535577 3.0
vertex 75.4233937586588 70.2737020535577 5.0
vertex 76.5677313259562 72.2557528611266 5.0
endloop
endfacet
facet normal -0.86602540378444 0.499999999999997 0.0
outer loop
vertex 75.4233937586588 70.2737020535577 3.0
vertex 76.5677313259562 72.2557528611266 5.0
vertex 76.5677313259562 72.2557528611266 3.0
endloop
endfacet
facet normal -0.866025403784428 -0.500000000000018 -0.0
outer loop
vertex 75.2403810567666 74.5547909668032 5.0
vertex 76.5677313259562 72.2557528611266 3.0
vertex 76.5677313259562 72.2557528611266 5.0
endloop
endfacet
facet normal -0.866025403784428 -0.500000000000018 -0.0
outer loop
vertex 76.5677313259562 72.2557528611266 3.0
vertex 75.2403810567666 74.5547909668032 5.0
vertex 75.2403810567666 74.5547909668032 3.0
endloop
endfacet
facet normal 0.866025403784436 -0.500000000000005 0.0
outer loop
vertex 75.2403810567666 74.5547909668032 3.0
vertex 71.6243556529822 68.2916512459888 5.0
vertex 71.6243556529822 68.2916512459888 3.0
endloop
endfacet
facet normal 0.866025403784436 -0.500000000000005 0.0
outer loop
vertex 71.6243556529822 68.2916512459888 5.0
vertex 75.2403810567666 74.5547909668032 3.0
vertex 75.2403810567666 74.5547909668032 5.0
endloop
endfacet
facet normal 0.0 1.0 0.0
outer loop
vertex 71.6243556529822 68.2916512459888 5.0
vertex 74.2790561913614 68.2916512459888 3.0
vertex 71.6243556529822 68.2916512459888 3.0
endloop
endfacet
facet normal 0.0 1.0 0.0
outer loop
vertex 74.2790561913614 68.2916512459888 3.0
vertex 71.6243556529822 68.2916512459888 5.0
vertex 74.2790561913614 68.2916512459888 5.0
endloop
endfacet
facet normal -0.866025403784443 -0.499999999999993 -1.57869329453458e-016
outer loop
vertex 82.3205080756888 56.2916512459888 13.0
vertex 114.820508075688 0.0 1.0
vertex 114.820508075688 0.0 5.0
endloop
endfacet
facet normal -0.866025403784443 -0.499999999999993 -1.57869329453458e-016
outer loop
vertex 114.820508075688 0.0 1.0
vertex 82.3205080756888 56.2916512459888 13.0
vertex 82.3205080756888 56.2916512459888 1.0
endloop
endfacet
facet normal -0.866025403784442 -0.499999999999995 -0.0
outer loop
vertex 80.2790561913614 65.8275496308511 5.0
vertex 81.606406460551 63.5285115251744 3.0
vertex 81.606406460551 63.5285115251744 5.0
endloop
endfacet
facet normal -0.866025403784442 -0.499999999999995 -0.0
outer loop
vertex 81.606406460551 63.5285115251744 3.0
vertex 80.2790561913614 65.8275496308511 5.0
vertex 80.2790561913614 65.8275496308511 3.0
endloop
endfacet
facet normal 0.499999999999995 -0.866025403784441 0.0
outer loop
vertex 119.150635094611 2.50000000000011 5.0
vertex 114.820508075688 0.0 1.0
vertex 119.150635094611 2.50000000000011 1.0
endloop
endfacet
facet normal 0.499999999999995 -0.866025403784441 0.0
outer loop
vertex 114.820508075688 0.0 1.0
vertex 119.150635094611 2.50000000000011 5.0
vertex 114.820508075688 0.0 5.0
endloop
endfacet
facet normal 0.0 -1.0 0.0
outer loop
vertex 80.2790561913614 65.8275496308511 5.0
vertex 77.9903810567666 65.8275496308511 3.0
vertex 80.2790561913614 65.8275496308511 3.0
endloop
endfacet
facet normal 0.0 -1.0 0.0
outer loop
vertex 77.9903810567666 65.8275496308511 3.0
vertex 80.2790561913614 65.8275496308511 5.0
vertex 75.7017059221718 65.8275496308511 3.0
endloop
endfacet
facet normal 0.0 -1.0 0.0
outer loop
vertex 75.7017059221718 65.8275496308511 3.0
vertex 80.2790561913614 65.8275496308511 5.0
vertex 75.7017059221718 65.8275496308511 5.0
endloop
endfacet
facet normal 0.0 -1.0 0.0
outer loop
vertex 75.7017059221718 65.8275496308511 5.0
vertex 80.2790561913614 65.8275496308511 5.0
vertex 77.9903810567666 65.8275496308511 5.0
endloop
endfacet
facet normal 0.866025403784438 -0.500000000000001 0.0
outer loop
vertex 75.7017059221718 65.8275496308511 3.0
vertex 74.3743556529821 63.5285115251744 5.0
vertex 74.3743556529821 63.5285115251744 3.0
endloop
endfacet
facet normal 0.866025403784438 -0.500000000000001 0.0
outer loop
vertex 74.3743556529821 63.5285115251744 5.0
vertex 75.7017059221718 65.8275496308511 3.0
vertex 75.7017059221718 65.8275496308511 5.0
endloop
endfacet
facet normal 0.0 1.0 0.0
outer loop
vertex 74.3743556529821 63.5285115251744 5.0
vertex 81.606406460551 63.5285115251744 3.0
vertex 74.3743556529821 63.5285115251744 3.0
endloop
endfacet
facet normal 0.0 1.0 0.0
outer loop
vertex 81.606406460551 63.5285115251744 3.0
vertex 74.3743556529821 63.5285115251744 5.0
vertex 81.606406460551 63.5285115251744 5.0
endloop
endfacet
facet normal -0.0 -0.0 1.0
outer loop
vertex 74.3743556529821 63.5285115251744 5.0
vertex 75.4233937586588 70.2737020535577 5.0
vertex 74.2790561913614 68.2916512459888 5.0
endloop
endfacet
facet normal -0.0 -0.0 1.0
outer loop
vertex 75.4233937586588 70.2737020535577 5.0
vertex 74.3743556529821 63.5285115251744 5.0
vertex 75.7017059221718 65.8275496308511 5.0
endloop
endfacet
facet normal -0.0 -0.0 1.0
outer loop
vertex 75.4233937586588 70.2737020535577 5.0
vertex 75.7017059221718 65.8275496308511 5.0
vertex 76.5677313259562 72.2557528611266 5.0
endloop
endfacet
facet normal -0.0 -0.0 1.0
outer loop
vertex 76.5677313259562 72.2557528611266 5.0
vertex 75.7017059221718 65.8275496308511 5.0
vertex 77.9903810567666 65.8275496308511 5.0
endloop
endfacet
facet normal -0.0 -0.0 1.0
outer loop
vertex 77.9903810567666 56.7916512459889 5.0
vertex 71.6243556529822 68.2916512459888 5.0
vertex 67.5980762113534 62.7916512459889 5.0
endloop
endfacet
facet normal -0.0 -0.0 1.0
outer loop
vertex 71.6243556529822 68.2916512459888 5.0
vertex 77.9903810567666 56.7916512459889 5.0
vertex 74.3743556529821 63.5285115251744 5.0
endloop
endfacet
facet normal -0.0 -0.0 1.0
outer loop
vertex 71.6243556529822 68.2916512459888 5.0
vertex 74.3743556529821 63.5285115251744 5.0
vertex 74.2790561913614 68.2916512459888 5.0
endloop
endfacet
facet normal -0.0 -0.0 1.0
outer loop
vertex 74.3743556529821 63.5285115251744 5.0
vertex 77.9903810567666 56.7916512459889 5.0
vertex 81.606406460551 63.5285115251744 5.0
endloop
endfacet
facet normal -0.0 -0.0 1.0
outer loop
vertex 81.606406460551 63.5285115251744 5.0
vertex 77.9903810567666 56.7916512459889 5.0
vertex 88.3826859021799 62.7916512459889 5.0
endloop
endfacet
facet normal -0.0 -0.0 1.0
outer loop
vertex 81.606406460551 63.5285115251744 5.0
vertex 88.3826859021799 62.7916512459889 5.0
vertex 81.7017059221718 68.2916512459888 5.0
endloop
endfacet
facet normal -0.0 -0.0 1.0
outer loop
vertex 81.7017059221718 68.2916512459888 5.0
vertex 88.3826859021799 62.7916512459889 5.0
vertex 84.356406460551 68.2916512459888 5.0
endloop
endfacet
facet normal -0.0 -0.0 1.0
outer loop
vertex 84.356406460551 68.2916512459888 5.0
vertex 88.3826859021799 62.7916512459889 5.0
vertex 88.3826859021798 74.7916512459888 5.0
endloop
endfacet
facet normal -0.0 -0.0 1.0
outer loop
vertex 88.3826859021798 74.7916512459888 5.0
vertex 88.3826859021799 62.7916512459889 5.0
vertex 88.3826859021798 68.7916512459889 5.0
endloop
endfacet
facet normal -0.0 -0.0 1.0
outer loop
vertex 77.9903810567666 80.7916512459888 5.0
vertex 80.7403810567666 74.5547909668032 5.0
vertex 88.3826859021798 74.7916512459888 5.0
endloop
endfacet
facet normal -0.0 -0.0 1.0
outer loop
vertex 80.7403810567666 74.5547909668032 5.0
vertex 77.9903810567666 80.7916512459888 5.0
vertex 79.413030787577 72.2557528611266 5.0
endloop
endfacet
facet normal -0.0 -0.0 1.0
outer loop
vertex 88.3826859021798 74.7916512459888 5.0
vertex 80.7403810567666 74.5547909668032 5.0
vertex 84.356406460551 68.2916512459888 5.0
endloop
endfacet
facet normal -0.0 -0.0 1.0
outer loop
vertex 67.5980762113534 62.7916512459889 5.0
vertex 77.9903810567666 80.7916512459888 5.0
vertex 67.5980762113533 74.7916512459888 5.0
endloop
endfacet
facet normal -0.0 -0.0 1.0
outer loop
vertex 77.9903810567666 80.7916512459888 5.0
vertex 67.5980762113534 62.7916512459889 5.0
vertex 71.6243556529822 68.2916512459888 5.0
endloop
endfacet
facet normal -0.0 -0.0 1.0
outer loop
vertex 77.9903810567666 80.7916512459888 5.0
vertex 71.6243556529822 68.2916512459888 5.0
vertex 75.2403810567666 74.5547909668032 5.0
endloop
endfacet
facet normal -0.0 -0.0 1.0
outer loop
vertex 77.9903810567666 80.7916512459888 5.0
vertex 75.2403810567666 74.5547909668032 5.0
vertex 76.5677313259562 72.2557528611266 5.0
endloop
endfacet
facet normal -0.0 -0.0 1.0
outer loop
vertex 77.9903810567666 80.7916512459888 5.0
vertex 76.5677313259562 72.2557528611266 5.0
vertex 77.9903810567666 65.8275496308511 5.0
endloop
endfacet
facet normal -0.0 -0.0 1.0
outer loop
vertex 77.9903810567666 80.7916512459888 5.0
vertex 77.9903810567666 65.8275496308511 5.0
vertex 80.2790561913614 65.8275496308511 5.0
endloop
endfacet
facet normal -0.0 -0.0 1.0
outer loop
vertex 77.9903810567666 80.7916512459888 5.0
vertex 80.2790561913614 65.8275496308511 5.0
vertex 79.413030787577 72.2557528611266 5.0
endloop
endfacet
facet normal -0.0 -0.0 1.0
outer loop
vertex 79.413030787577 72.2557528611266 5.0
vertex 80.2790561913614 65.8275496308511 5.0
vertex 80.5573683548744 70.2737020535577 5.0
endloop
endfacet
facet normal -0.0 -0.0 1.0
outer loop
vertex 80.5573683548744 70.2737020535577 5.0
vertex 80.2790561913614 65.8275496308511 5.0
vertex 81.606406460551 63.5285115251744 5.0
endloop
endfacet
facet normal -0.0 -0.0 1.0
outer loop
vertex 80.5573683548744 70.2737020535577 5.0
vertex 81.606406460551 63.5285115251744 5.0
vertex 81.7017059221718 68.2916512459888 5.0
endloop
endfacet
facet normal 0.5 0.866025403784438 -2.69437935342422e-016
outer loop
vertex 77.9903810567666 83.7916512459889 20.0
vertex 82.3205080756888 81.2916512459889 1.0
vertex 77.9903810567666 83.7916512459889 1.0
endloop
endfacet
facet normal 0.5 0.866025403784438 -2.69437935342422e-016
outer loop
vertex 82.3205080756888 81.2916512459889 1.0
vertex 77.9903810567666 83.7916512459889 20.0
vertex 82.3205080756888 81.2916512459889 13.0
endloop
endfacet
facet normal 0.5 0.866025403784438 -2.69437935342422e-016
outer loop
vertex 82.3205080756888 81.2916512459889 13.0
vertex 77.9903810567666 83.7916512459889 20.0
vertex 86.650635094611 78.7916512459888 13.0
endloop
endfacet
facet normal 0.5 0.866025403784438 -2.69437935342422e-016
outer loop
vertex 86.650635094611 78.7916512459888 13.0
vertex 90.9807621135332 76.2916512459889 1.0
vertex 86.650635094611 78.7916512459888 1.0
endloop
endfacet
facet normal 0.5 0.866025403784438 -2.69437935342422e-016
outer loop
vertex 90.9807621135332 76.2916512459889 1.0
vertex 86.650635094611 78.7916512459888 13.0
vertex 90.9807621135332 76.2916512459889 20.0
endloop
endfacet
facet normal 0.5 0.866025403784438 -2.69437935342422e-016
outer loop
vertex 90.9807621135332 76.2916512459889 20.0
vertex 86.650635094611 78.7916512459888 13.0
vertex 77.9903810567666 83.7916512459889 20.0
endloop
endfacet
facet normal 1.0 3.69259144330164e-016 4.72874345369988e-016
outer loop
vertex 90.9807621135332 61.2916512459888 1.0
vertex 90.9807621135332 61.3574774947826 10.5
vertex 90.9807621135332 61.2916512459888 20.0
endloop
endfacet
facet normal 1.0 3.69259144330164e-016 4.72874345369988e-016
outer loop
vertex 90.9807621135332 61.3574774947826 10.5
vertex 90.9807621135332 61.2916512459888 1.0
vertex 90.9807621135332 61.6107908225785 8.57589424858657
endloop
endfacet
facet normal 1.0 3.69259144330164e-016 4.72874345369988e-016
outer loop
vertex 90.9807621135332 61.6107908225785 8.57589424858657
vertex 90.9807621135332 61.2916512459888 1.0
vertex 90.9807621135332 62.3534679212968 6.78291312439685
endloop
endfacet
facet normal 1.0 3.69259144330164e-016 4.72874345369988e-016
outer loop
vertex 90.9807621135332 62.3534679212968 6.78291312439685
vertex 90.9807621135332 61.2916512459888 1.0
vertex 90.9807621135332 63.5348965739919 5.24324532800304
endloop
endfacet
facet normal 1.0 3.69259144330164e-016 4.72874345369988e-016
outer loop
vertex 90.9807621135332 63.5348965739919 5.24324532800304
vertex 90.9807621135332 61.2916512459888 1.0
vertex 90.9807621135332 65.0745643703858 4.06181667530792
endloop
endfacet
facet normal 1.0 3.69259144330164e-016 4.72874345369988e-016
outer loop
vertex 90.9807621135332 65.0745643703858 4.06181667530792
vertex 90.9807621135332 61.2916512459888 1.0
vertex 90.9807621135332 66.8675454945755 3.31913957658959
endloop
endfacet
facet normal 1.0 3.69259144330164e-016 4.72874345369988e-016
outer loop
vertex 90.9807621135332 66.8675454945755 3.31913957658959
vertex 90.9807621135332 61.2916512459888 1.0
vertex 90.9807621135332 76.2916512459889 1.0
endloop
endfacet
facet normal 1.0 3.69259144330164e-016 4.72874345369988e-016
outer loop
vertex 90.9807621135332 66.8675454945755 3.31913957658959
vertex 90.9807621135332 76.2916512459889 1.0
vertex 90.9807621135332 68.7916512459889 3.06582624879374
endloop
endfacet
facet normal 1.0 3.69259144330164e-016 4.72874345369988e-016
outer loop
vertex 90.9807621135332 68.7916512459889 3.06582624879374
vertex 90.9807621135332 76.2916512459889 1.0
vertex 90.9807621135332 70.7157569974023 3.31913957658959
endloop
endfacet
facet normal 1.0 3.69259144330164e-016 4.72874345369988e-016
outer loop
vertex 90.9807621135332 70.7157569974023 3.31913957658959
vertex 90.9807621135332 76.2916512459889 1.0
vertex 90.9807621135332 72.508738121592 4.06181667530793
endloop
endfacet
facet normal 1.0 3.69259144330164e-016 4.72874345369988e-016
outer loop
vertex 90.9807621135332 72.508738121592 4.06181667530793
vertex 90.9807621135332 76.2916512459889 1.0
vertex 90.9807621135332 74.0484059179859 5.24324532800301
endloop
endfacet
facet normal 1.0 3.69259144330164e-016 4.72874345369988e-016
outer loop
vertex 90.9807621135332 74.0484059179859 5.24324532800301
vertex 90.9807621135332 76.2916512459889 1.0
vertex 90.9807621135331 75.229834570681 6.78291312439686
endloop
endfacet
facet normal 1.0 3.69259144330164e-016 4.72874345369988e-016
outer loop
vertex 90.9807621135331 75.229834570681 6.78291312439686
vertex 90.9807621135332 76.2916512459889 1.0
vertex 90.9807621135331 75.9725116693993 8.57589424858656
endloop
endfacet
facet normal 1.0 3.69259144330164e-016 4.72874345369988e-016
outer loop
vertex 90.9807621135331 75.9725116693993 8.57589424858656
vertex 90.9807621135332 76.2916512459889 1.0
vertex 90.9807621135331 76.2258249971952 10.5
endloop
endfacet
facet normal 1.0 3.69259144330164e-016 4.72874345369988e-016
outer loop
vertex 90.9807621135332 61.2916512459888 20.0
vertex 90.9807621135332 63.5348965739919 15.756754671997
vertex 90.9807621135332 68.7916512459888 20.0
endloop
endfacet
facet normal 1.0 3.69259144330164e-016 4.72874345369988e-016
outer loop
vertex 90.9807621135332 63.5348965739919 15.756754671997
vertex 90.9807621135332 61.2916512459888 20.0
vertex 90.9807621135332 62.3534679212968 14.2170868756031
endloop
endfacet
facet normal 1.0 3.69259144330164e-016 4.72874345369988e-016
outer loop
vertex 90.9807621135332 62.3534679212968 14.2170868756031
vertex 90.9807621135332 61.2916512459888 20.0
vertex 90.9807621135332 61.6107908225785 12.4241057514134
endloop
endfacet
facet normal 1.0 3.69259144330164e-016 4.72874345369988e-016
outer loop
vertex 90.9807621135332 61.6107908225785 12.4241057514134
vertex 90.9807621135332 61.2916512459888 20.0
vertex 90.9807621135332 61.3574774947826 10.5
endloop
endfacet
facet normal 1.0 3.69259144330164e-016 4.72874345369988e-016
outer loop
vertex 90.9807621135332 68.7916512459888 20.0
vertex 90.9807621135332 63.5348965739919 15.756754671997
vertex 90.9807621135332 65.0745643703858 16.9381833246921
endloop
endfacet
facet normal 1.0 3.69259144330164e-016 4.72874345369988e-016
outer loop
vertex 90.9807621135332 68.7916512459888 20.0
vertex 90.9807621135332 65.0745643703858 16.9381833246921
vertex 90.9807621135331 66.8675454945754 17.6808604234104
endloop
endfacet
facet normal 1.0 3.69259144330164e-016 4.72874345369988e-016
outer loop
vertex 90.9807621135332 68.7916512459888 20.0
vertex 90.9807621135331 66.8675454945754 17.6808604234104
vertex 90.9807621135332 68.7916512459889 17.9341737512063
endloop
endfacet
facet normal 1.0 3.69259144330164e-016 4.72874345369988e-016
outer loop
vertex 90.9807621135332 68.7916512459888 20.0
vertex 90.9807621135332 68.7916512459889 17.9341737512063
vertex 90.9807621135332 76.2916512459889 20.0
endloop
endfacet
facet normal 1.0 3.69259144330164e-016 4.72874345369988e-016
outer loop
vertex 90.9807621135332 76.2916512459889 20.0
vertex 90.9807621135332 68.7916512459889 17.9341737512063
vertex 90.9807621135331 70.7157569974023 17.6808604234104
endloop
endfacet
facet normal 1.0 3.69259144330164e-016 4.72874345369988e-016
outer loop
vertex 90.9807621135332 76.2916512459889 20.0
vertex 90.9807621135331 70.7157569974023 17.6808604234104
vertex 90.9807621135331 72.508738121592 16.9381833246921
endloop
endfacet
facet normal 1.0 3.69259144330164e-016 4.72874345369988e-016
outer loop
vertex 90.9807621135332 76.2916512459889 20.0
vertex 90.9807621135331 72.508738121592 16.9381833246921
vertex 90.9807621135331 74.0484059179859 15.756754671997
endloop
endfacet
facet normal 1.0 3.69259144330164e-016 4.72874345369988e-016
outer loop
vertex 90.9807621135332 76.2916512459889 20.0
vertex 90.9807621135331 74.0484059179859 15.756754671997
vertex 90.9807621135331 75.229834570681 14.2170868756031
endloop
endfacet
facet normal 1.0 3.69259144330164e-016 4.72874345369988e-016
outer loop
vertex 90.9807621135332 76.2916512459889 20.0
vertex 90.9807621135331 75.229834570681 14.2170868756031
vertex 90.9807621135331 75.9725116693993 12.4241057514134
endloop
endfacet
facet normal 1.0 3.69259144330164e-016 4.72874345369988e-016
outer loop
vertex 90.9807621135332 76.2916512459889 20.0
vertex 90.9807621135331 75.9725116693993 12.4241057514134
vertex 90.9807621135331 76.2258249971952 10.5
endloop
endfacet
facet normal 1.0 3.69259144330164e-016 4.72874345369988e-016
outer loop
vertex 90.9807621135332 76.2916512459889 20.0
vertex 90.9807621135331 76.2258249971952 10.5
vertex 90.9807621135332 76.2916512459889 1.0
endloop
endfacet
facet normal -1.74999414006638e-015 -0.130526192220052 0.99144486137381
outer loop
vertex 115.980762113533 68.791651245989 5.00000000000006
vertex 88.3826859021798 70.2151559940527 5.18740795541012
vertex 88.3826859021798 68.7916512459889 5.0
endloop
endfacet
facet normal -1.30399151729367e-015 -0.25881904510252 0.965925826289068
outer loop
vertex 88.3826859021798 70.2151559940527 5.18740795541012
vertex 115.980762113533 68.791651245989 5.00000000000006
vertex 115.980762113533 70.2151559940528 5.18740795541018
endloop
endfacet
facet normal -2.88050324632489e-015 0.258819045102522 0.965925826289068
outer loop
vertex 115.980762113533 67.3681464979251 5.18740795541018
vertex 88.3826859021798 68.7916512459889 5.0
vertex 88.3826859021798 67.368146497925 5.18740795541012
endloop
endfacet
facet normal -2.54505183336396e-015 0.130526192220051 0.99144486137381
outer loop
vertex 88.3826859021798 68.7916512459889 5.0
vertex 115.980762113533 67.3681464979251 5.18740795541018
vertex 115.980762113533 68.791651245989 5.00000000000006
endloop
endfacet
facet normal -3.39865107875692e-015 0.500000000000001 0.866025403784438
outer loop
vertex 88.3826859021799 66.0416512459888 5.73686027918559
vertex 115.980762113533 67.3681464979251 5.18740795541018
vertex 88.3826859021798 67.368146497925 5.18740795541012
endloop
endfacet
facet normal -2.88050324632489e-015 0.258819045102522 0.965925826289068
outer loop
vertex 115.980762113533 67.3681464979251 5.18740795541018
vertex 88.3826859021799 66.0416512459888 5.73686027918559
vertex 115.980762113533 66.041651245989 5.73686027918564
endloop
endfacet
facet normal -3.68518645670813e-015 0.707106781186549 0.707106781186546
outer loop
vertex 115.980762113533 64.902563949463 6.61091270347405
vertex 88.3826859021799 66.0416512459888 5.73686027918559
vertex 88.3826859021799 64.9025639494628 6.61091270347399
endloop
endfacet
facet normal -3.39865107875692e-015 0.500000000000001 0.866025403784438
outer loop
vertex 88.3826859021799 66.0416512459888 5.73686027918559
vertex 115.980762113533 64.902563949463 6.61091270347405
vertex 115.980762113533 66.041651245989 5.73686027918564
endloop
endfacet
facet normal -3.72058246769324e-015 0.866025403784438 0.500000000000002
outer loop
vertex 88.3826859021799 64.0285115251745 7.75
vertex 115.980762113533 64.902563949463 6.61091270347405
vertex 88.3826859021799 64.9025639494628 6.61091270347399
endloop
endfacet
facet normal -3.68518645670813e-015 0.707106781186549 0.707106781186546
outer loop
vertex 115.980762113533 64.902563949463 6.61091270347405
vertex 88.3826859021799 64.0285115251745 7.75
vertex 115.980762113533 64.0285115251746 7.75000000000006
endloop
endfacet
facet normal -3.50242693205831e-015 0.965925826289068 0.258819045102523
outer loop
vertex 88.3826859021799 63.479059201399 9.07649525193614
vertex 115.980762113533 64.0285115251746 7.75000000000006
vertex 88.3826859021799 64.0285115251745 7.75
endloop
endfacet
facet normal -3.72058246769324e-015 0.866025403784438 0.500000000000002
outer loop
vertex 115.980762113533 64.0285115251746 7.75000000000006
vertex 88.3826859021799 63.479059201399 9.07649525193614
vertex 115.980762113533 63.4790592013991 9.07649525193619
endloop
endfacet
facet normal -3.04558678903777e-015 1.0 -8.01999890608224e-017
outer loop
vertex 88.3826859021798 63.2916512459889 10.5
vertex 115.980762113533 63.4790592013991 9.07649525193619
vertex 88.3826859021799 63.479059201399 9.07649525193614
endloop
endfacet
facet normal -3.50242693205831e-015 0.965925826289067 0.258819045102524
outer loop
vertex 115.980762113533 63.4790592013991 9.07649525193619
vertex 88.3826859021798 63.2916512459889 10.5
vertex 115.980762113533 63.291651245989 10.5000000000001
endloop
endfacet
facet normal -2.38119493941445e-015 0.965925826289068 -0.258819045102523
outer loop
vertex 88.3826859021798 63.479059201399 11.9235047480639
vertex 115.980762113533 63.291651245989 10.5000000000001
vertex 88.3826859021798 63.2916512459889 10.5
endloop
endfacet
facet normal -3.04558678903778e-015 1.0 1.22082205570361e-015
outer loop
vertex 115.980762113533 63.291651245989 10.5000000000001
vertex 88.3826859021798 63.479059201399 11.9235047480639
vertex 115.980762113533 63.4790592013991 11.9235047480639
endloop
endfacet
facet normal -1.55452858978073e-015 0.866025403784438 -0.500000000000002
outer loop
vertex 88.3826859021798 64.0285115251745 13.25
vertex 115.980762113533 63.4790592013991 11.9235047480639
vertex 88.3826859021798 63.479059201399 11.9235047480639
endloop
endfacet
facet normal -2.38119493941445e-015 0.965925826289068 -0.258819045102523
outer loop
vertex 115.980762113533 63.4790592013991 11.9235047480639
vertex 88.3826859021798 64.0285115251745 13.25
vertex 115.980762113533 64.0285115251746 13.2500000000001
endloop
endfacet
facet normal -6.21923685733421e-016 0.707106781186548 -0.707106781186547
outer loop
vertex 88.3826859021798 64.9025639494628 14.389087296526
vertex 115.980762113533 64.0285115251746 13.2500000000001
vertex 88.3826859021798 64.0285115251745 13.25
endloop
endfacet
facet normal -1.55452858978073e-015 0.866025403784437 -0.500000000000002
outer loop
vertex 115.980762113533 64.0285115251746 13.2500000000001
vertex 88.3826859021798 64.9025639494628 14.389087296526
vertex 115.980762113533 64.902563949463 14.3890872965261
endloop
endfacet
facet normal 3.53064289719141e-016 0.5 -0.866025403784438
outer loop
vertex 115.980762113533 66.041651245989 15.2631397208145
vertex 88.3826859021798 64.9025639494628 14.389087296526
vertex 88.3826859021798 66.0416512459889 15.2631397208144
endloop
endfacet
facet normal -6.21923685733421e-016 0.707106781186548 -0.707106781186547
outer loop
vertex 88.3826859021798 64.9025639494628 14.389087296526
vertex 115.980762113533 66.041651245989 15.2631397208145
vertex 115.980762113533 64.902563949463 14.3890872965261
endloop
endfacet
facet normal 1.30399151729367e-015 0.258819045102522 -0.965925826289068
outer loop
vertex 115.980762113533 67.3681464979251 15.8125920445899
vertex 88.3826859021798 66.0416512459889 15.2631397208144
vertex 88.3826859021798 67.368146497925 15.8125920445899
endloop
endfacet
facet normal 3.5306428971914e-016 0.500000000000001 -0.866025403784438
outer loop
vertex 88.3826859021798 66.0416512459889 15.2631397208144
vertex 115.980762113533 67.3681464979251 15.8125920445899
vertex 115.980762113533 66.041651245989 15.2631397208145
endloop
endfacet
facet normal 3.39865107875692e-015 -0.500000000000002 -0.866025403784438
outer loop
vertex 115.980762113533 71.541651245989 15.2631397208145
vertex 88.3826859021798 70.2151559940527 15.8125920445899
vertex 88.3826859021798 71.5416512459889 15.2631397208144
endloop
endfacet
facet normal 2.88050324632489e-015 -0.258819045102521 -0.965925826289068
outer loop
vertex 88.3826859021798 70.2151559940527 15.8125920445899
vertex 115.980762113533 71.541651245989 15.2631397208145
vertex 115.980762113533 70.2151559940529 15.8125920445899
endloop
endfacet
facet normal 3.68518645670812e-015 -0.707106781186548 -0.707106781186547
outer loop
vertex 115.980762113533 72.680738542515 14.3890872965261
vertex 88.3826859021798 71.5416512459889 15.2631397208144
vertex 88.3826859021798 72.6807385425149 14.389087296526
endloop
endfacet
facet normal 3.39865107875692e-015 -0.500000000000001 -0.866025403784438
outer loop
vertex 88.3826859021798 71.5416512459889 15.2631397208144
vertex 115.980762113533 72.680738542515 14.3890872965261
vertex 115.980762113533 71.541651245989 15.2631397208145
endloop
endfacet
facet normal 3.72058246769324e-015 -0.866025403784438 -0.500000000000001
outer loop
vertex 115.980762113533 73.5547909668034 13.2500000000001
vertex 88.3826859021798 72.6807385425149 14.389087296526
vertex 88.3826859021798 73.5547909668033 13.25
endloop
endfacet
facet normal 3.68518645670813e-015 -0.707106781186548 -0.707106781186548
outer loop
vertex 88.3826859021798 72.6807385425149 14.389087296526
vertex 115.980762113533 73.5547909668034 13.2500000000001
vertex 115.980762113533 72.680738542515 14.3890872965261
endloop
endfacet
facet normal 3.50242693205831e-015 -0.965925826289069 -0.25881904510252
outer loop
vertex 115.980762113533 74.1042432905789 11.9235047480639
vertex 88.3826859021798 73.5547909668033 13.25
vertex 88.3826859021798 74.1042432905787 11.9235047480639
endloop
endfacet
facet normal 3.72058246769324e-015 -0.866025403784438 -0.500000000000001
outer loop
vertex 88.3826859021798 73.5547909668033 13.25
vertex 115.980762113533 74.1042432905789 11.9235047480639
vertex 115.980762113533 73.5547909668034 13.2500000000001
endloop
endfacet
facet normal 3.04558678903777e-015 -1.0 -3.56444395825876e-016
outer loop
vertex 115.980762113533 74.291651245989 10.5000000000001
vertex 88.3826859021798 74.1042432905787 11.9235047480639
vertex 88.3826859021798 74.2916512459889 10.5
endloop
endfacet
facet normal 3.50242693205831e-015 -0.965925826289069 -0.25881904510252
outer loop
vertex 88.3826859021798 74.1042432905787 11.9235047480639
vertex 115.980762113533 74.291651245989 10.5000000000001
vertex 115.980762113533 74.1042432905789 11.9235047480639
endloop
endfacet
facet normal 2.38119493941445e-015 -0.965925826289068 0.258819045102523
outer loop
vertex 115.980762113533 74.1042432905789 9.07649525193619
vertex 88.3826859021798 74.2916512459889 10.5
vertex 88.3826859021798 74.1042432905787 9.07649525193613
endloop
endfacet
facet normal 3.04558678903777e-015 -1.0 -3.38622176034581e-016
outer loop
vertex 88.3826859021798 74.2916512459889 10.5
vertex 115.980762113533 74.1042432905789 9.07649525193619
vertex 115.980762113533 74.291651245989 10.5000000000001
endloop
endfacet
facet normal 1.55452858978073e-015 -0.866025403784438 0.500000000000002
outer loop
vertex 115.980762113533 73.5547909668034 7.75000000000006
vertex 88.3826859021798 74.1042432905787 9.07649525193613
vertex 88.3826859021798 73.5547909668033 7.75
endloop
endfacet
facet normal 2.38119493941445e-015 -0.965925826289068 0.258819045102523
outer loop
vertex 88.3826859021798 74.1042432905787 9.07649525193613
vertex 115.980762113533 73.5547909668034 7.75000000000006
vertex 115.980762113533 74.1042432905789 9.07649525193619
endloop
endfacet
facet normal 6.21923685733421e-016 -0.707106781186548 0.707106781186547
outer loop
vertex 115.980762113533 72.680738542515 6.61091270347404
vertex 88.3826859021798 73.5547909668033 7.75
vertex 88.3826859021798 72.6807385425149 6.61091270347398
endloop
endfacet
facet normal 1.55452858978073e-015 -0.866025403784438 0.500000000000002
outer loop
vertex 88.3826859021798 73.5547909668033 7.75
vertex 115.980762113533 72.680738542515 6.61091270347404
vertex 115.980762113533 73.5547909668034 7.75000000000006
endloop
endfacet
facet normal -3.53064289719147e-016 -0.499999999999999 0.866025403784439
outer loop
vertex 115.980762113533 71.541651245989 5.73686027918564
vertex 88.3826859021798 72.6807385425149 6.61091270347398
vertex 88.3826859021798 71.5416512459888 5.73686027918559
endloop
endfacet
facet normal 6.2192368573342e-016 -0.707106781186547 0.707106781186548
outer loop
vertex 88.3826859021798 72.6807385425149 6.61091270347398
vertex 115.980762113533 71.541651245989 5.73686027918564
vertex 115.980762113533 72.680738542515 6.61091270347404
endloop
endfacet
facet normal -1.30399151729367e-015 -0.25881904510252 0.965925826289068
outer loop
vertex 88.3826859021798 70.2151559940527 5.18740795541012
vertex 115.980762113533 71.541651245989 5.73686027918564
vertex 88.3826859021798 71.5416512459888 5.73686027918559
endloop
endfacet
facet normal -3.53064289719147e-016 -0.499999999999999 0.866025403784439
outer loop
vertex 115.980762113533 71.541651245989 5.73686027918564
vertex 88.3826859021798 70.2151559940527 5.18740795541012
vertex 115.980762113533 70.2151559940528 5.18740795541018
endloop
endfacet
facet normal 1.0 3.27461624693723e-015 2.06577411560678e-015
outer loop
vertex 115.980762113533 63.534896573992 5.24324532800309
vertex 115.980762113533 63.291651245989 10.5000000000001
vertex 115.980762113533 62.3534679212969 6.7829131243969
endloop
endfacet
facet normal 1.0 3.27461624693723e-015 2.06577411560678e-015
outer loop
vertex 115.980762113533 63.291651245989 10.5000000000001
vertex 115.980762113533 63.534896573992 5.24324532800309
vertex 115.980762113533 63.4790592013991 9.07649525193619
endloop
endfacet
facet normal 1.0 3.27461624693723e-015 2.06577411560678e-015
outer loop
vertex 115.980762113533 63.4790592013991 9.07649525193619
vertex 115.980762113533 63.534896573992 5.24324532800309
vertex 115.980762113533 64.0285115251746 7.75000000000006
endloop
endfacet
facet normal 1.0 3.27461624693723e-015 2.06577411560678e-015
outer loop
vertex 115.980762113533 64.0285115251746 7.75000000000006
vertex 115.980762113533 63.534896573992 5.24324532800309
vertex 115.980762113533 65.0745643703858 4.06181667530798
endloop
endfacet
facet normal 1.0 3.27461624693723e-015 2.06577411560678e-015
outer loop
vertex 115.980762113533 64.0285115251746 7.75000000000006
vertex 115.980762113533 65.0745643703858 4.06181667530798
vertex 115.980762113533 64.902563949463 6.61091270347405
endloop
endfacet
facet normal 1.0 3.27461624693723e-015 2.06577411560678e-015
outer loop
vertex 115.980762113533 64.902563949463 6.61091270347405
vertex 115.980762113533 65.0745643703858 4.06181667530798
vertex 115.980762113533 66.041651245989 5.73686027918564
endloop
endfacet
facet normal 1.0 3.27461624693723e-015 2.06577411560678e-015
outer loop
vertex 115.980762113533 66.041651245989 5.73686027918564
vertex 115.980762113533 65.0745643703858 4.06181667530798
vertex 115.980762113533 66.8675454945756 3.31913957658964
endloop
endfacet
facet normal 1.0 3.27461624693723e-015 2.06577411560678e-015
outer loop
vertex 115.980762113533 66.041651245989 5.73686027918564
vertex 115.980762113533 66.8675454945756 3.31913957658964
vertex 115.980762113533 67.3681464979251 5.18740795541018
endloop
endfacet
facet normal 1.0 3.27461624693723e-015 2.06577411560678e-015
outer loop
vertex 115.980762113533 67.3681464979251 5.18740795541018
vertex 115.980762113533 66.8675454945756 3.31913957658964
vertex 115.980762113533 68.791651245989 3.06582624879379
endloop
endfacet
facet normal 1.0 3.27461624693723e-015 2.06577411560678e-015
outer loop
vertex 115.980762113533 67.3681464979251 5.18740795541018
vertex 115.980762113533 68.791651245989 3.06582624879379
vertex 115.980762113533 68.791651245989 5.00000000000006
endloop
endfacet
facet normal 1.0 3.27461624693723e-015 2.06577411560678e-015
outer loop
vertex 115.980762113533 68.791651245989 5.00000000000006
vertex 115.980762113533 68.791651245989 3.06582624879379
vertex 115.980762113533 70.7157569974024 3.31913957658964
endloop
endfacet
facet normal 1.0 3.27461624693723e-015 2.06577411560678e-015
outer loop
vertex 115.980762113533 68.791651245989 5.00000000000006
vertex 115.980762113533 70.7157569974024 3.31913957658964
vertex 115.980762113533 70.2151559940528 5.18740795541018
endloop
endfacet
facet normal 1.0 3.27461624693723e-015 2.06577411560678e-015
outer loop
vertex 115.980762113533 70.2151559940528 5.18740795541018
vertex 115.980762113533 70.7157569974024 3.31913957658964
vertex 115.980762113533 71.541651245989 5.73686027918564
endloop
endfacet
facet normal 1.0 3.27461624693723e-015 2.06577411560678e-015
outer loop
vertex 115.980762113533 71.541651245989 5.73686027918564
vertex 115.980762113533 70.7157569974024 3.31913957658964
vertex 115.980762113533 72.5087381215921 4.06181667530798
endloop
endfacet
facet normal 1.0 3.27461624693723e-015 2.06577411560678e-015
outer loop
vertex 115.980762113533 71.541651245989 5.73686027918564
vertex 115.980762113533 72.5087381215921 4.06181667530798
vertex 115.980762113533 72.680738542515 6.61091270347404
endloop
endfacet
facet normal 1.0 3.27461624693723e-015 2.06577411560678e-015
outer loop
vertex 115.980762113533 72.680738542515 6.61091270347404
vertex 115.980762113533 72.5087381215921 4.06181667530798
vertex 115.980762113533 74.048405917986 5.24324532800307
endloop
endfacet
facet normal 1.0 3.27461624693723e-015 2.06577411560678e-015
outer loop
vertex 115.980762113533 72.680738542515 6.61091270347404
vertex 115.980762113533 74.048405917986 5.24324532800307
vertex 115.980762113533 73.5547909668034 7.75000000000006
endloop
endfacet
facet normal 1.0 3.27461624693723e-015 2.06577411560678e-015
outer loop
vertex 115.980762113533 73.5547909668034 7.75000000000006
vertex 115.980762113533 74.048405917986 5.24324532800307
vertex 115.980762113533 74.1042432905789 9.07649525193619
endloop
endfacet
facet normal 1.0 3.27461624693723e-015 2.06577411560678e-015
outer loop
vertex 115.980762113533 74.1042432905789 9.07649525193619
vertex 115.980762113533 74.048405917986 5.24324532800307
vertex 115.980762113533 75.229834570681 6.78291312439691
endloop
endfacet
facet normal 1.0 3.27461624693723e-015 2.06577411560678e-015
outer loop
vertex 115.980762113533 74.1042432905789 9.07649525193619
vertex 115.980762113533 75.229834570681 6.78291312439691
vertex 115.980762113533 74.291651245989 10.5000000000001
endloop
endfacet
facet normal 1.0 3.27461624693723e-015 2.06577411560678e-015
outer loop
vertex 115.980762113533 61.6107908225786 8.57589424858663
vertex 115.980762113533 61.6107908225786 12.4241057514135
vertex 115.980762113533 61.3574774947827 10.5000000000001
endloop
endfacet
facet normal 1.0 3.27461624693723e-015 2.06577411560678e-015
outer loop
vertex 115.980762113533 61.6107908225786 12.4241057514135
vertex 115.980762113533 61.6107908225786 8.57589424858663
vertex 115.980762113533 62.3534679212969 6.7829131243969
endloop
endfacet
facet normal 1.0 3.27461624693723e-015 2.06577411560678e-015
outer loop
vertex 115.980762113533 61.6107908225786 12.4241057514135
vertex 115.980762113533 62.3534679212969 6.7829131243969
vertex 115.980762113533 62.3534679212969 14.2170868756032
endloop
endfacet
facet normal 1.0 3.27461624693723e-015 2.06577411560678e-015
outer loop
vertex 115.980762113533 62.3534679212969 14.2170868756032
vertex 115.980762113533 62.3534679212969 6.7829131243969
vertex 115.980762113533 63.534896573992 15.756754671997
endloop
endfacet
facet normal 1.0 3.27461624693723e-015 2.06577411560678e-015
outer loop
vertex 115.980762113533 63.534896573992 15.756754671997
vertex 115.980762113533 62.3534679212969 6.7829131243969
vertex 115.980762113533 63.291651245989 10.5000000000001
endloop
endfacet
facet normal 1.0 3.27461624693723e-015 2.06577411560678e-015
outer loop
vertex 115.980762113533 63.534896573992 15.756754671997
vertex 115.980762113533 63.291651245989 10.5000000000001
vertex 115.980762113533 63.4790592013991 11.9235047480639
endloop
endfacet
facet normal 1.0 3.27461624693723e-015 2.06577411560678e-015
outer loop
vertex 115.980762113533 63.534896573992 15.756754671997
vertex 115.980762113533 63.4790592013991 11.9235047480639
vertex 115.980762113533 64.0285115251746 13.2500000000001
endloop
endfacet
facet normal 1.0 3.27461624693723e-015 2.06577411560678e-015
outer loop
vertex 115.980762113533 63.534896573992 15.756754671997
vertex 115.980762113533 64.0285115251746 13.2500000000001
vertex 115.980762113533 65.0745643703859 16.9381833246921
endloop
endfacet
facet normal 1.0 3.27461624693723e-015 2.06577411560678e-015
outer loop
vertex 115.980762113533 65.0745643703859 16.9381833246921
vertex 115.980762113533 64.0285115251746 13.2500000000001
vertex 115.980762113533 64.902563949463 14.3890872965261
endloop
endfacet
facet normal 1.0 3.27461624693723e-015 2.06577411560678e-015
outer loop
vertex 115.980762113533 65.0745643703859 16.9381833246921
vertex 115.980762113533 64.902563949463 14.3890872965261
vertex 115.980762113533 66.041651245989 15.2631397208145
endloop
endfacet
facet normal 1.0 3.27461624693723e-015 2.06577411560678e-015
outer loop
vertex 115.980762113533 65.0745643703859 16.9381833246921
vertex 115.980762113533 66.041651245989 15.2631397208145
vertex 115.980762113533 66.8675454945755 17.6808604234105
endloop
endfacet
facet normal 1.0 3.27461624693723e-015 2.06577411560678e-015
outer loop
vertex 115.980762113533 66.8675454945755 17.6808604234105
vertex 115.980762113533 66.041651245989 15.2631397208145
vertex 115.980762113533 67.3681464979251 15.8125920445899
endloop
endfacet
facet normal 1.0 3.27461624693723e-015 2.06577411560678e-015
outer loop
vertex 115.980762113533 66.8675454945755 17.6808604234105
vertex 115.980762113533 67.3681464979251 15.8125920445899
vertex 115.980762113533 68.791651245989 17.9341737512063
endloop
endfacet
facet normal 1.0 3.27461624693723e-015 2.06577411560678e-015
outer loop
vertex 115.980762113533 68.791651245989 17.9341737512063
vertex 115.980762113533 67.3681464979251 15.8125920445899
vertex 115.980762113533 68.791651245989 16.0000000000001
endloop
endfacet
facet normal 1.0 3.27461624693723e-015 2.06577411560678e-015
outer loop
vertex 115.980762113533 68.791651245989 17.9341737512063
vertex 115.980762113533 68.791651245989 16.0000000000001
vertex 115.980762113533 70.2151559940529 15.8125920445899
endloop
endfacet
facet normal 1.0 3.27461624693723e-015 2.06577411560678e-015
outer loop
vertex 115.980762113533 68.791651245989 17.9341737512063
vertex 115.980762113533 70.2151559940529 15.8125920445899
vertex 115.980762113533 70.7157569974024 17.6808604234105
endloop
endfacet
facet normal 1.0 3.27461624693723e-015 2.06577411560678e-015
outer loop
vertex 115.980762113533 70.7157569974024 17.6808604234105
vertex 115.980762113533 70.2151559940529 15.8125920445899
vertex 115.980762113533 71.541651245989 15.2631397208145
endloop
endfacet
facet normal 1.0 3.27461624693723e-015 2.06577411560678e-015
outer loop
vertex 115.980762113533 70.7157569974024 17.6808604234105
vertex 115.980762113533 71.541651245989 15.2631397208145
vertex 115.980762113533 72.5087381215921 16.9381833246921
endloop
endfacet
facet normal 1.0 3.27461624693723e-015 2.06577411560678e-015
outer loop
vertex 115.980762113533 72.5087381215921 16.9381833246921
vertex 115.980762113533 71.541651245989 15.2631397208145
vertex 115.980762113533 72.680738542515 14.3890872965261
endloop
endfacet
facet normal 1.0 3.27461624693723e-015 2.06577411560678e-015
outer loop
vertex 115.980762113533 72.5087381215921 16.9381833246921
vertex 115.980762113533 72.680738542515 14.3890872965261
vertex 115.980762113533 74.048405917986 15.756754671997
endloop
endfacet
facet normal 1.0 3.27461624693723e-015 2.06577411560678e-015
outer loop
vertex 115.980762113533 74.048405917986 15.756754671997
vertex 115.980762113533 72.680738542515 14.3890872965261
vertex 115.980762113533 73.5547909668034 13.2500000000001
endloop
endfacet
facet normal 1.0 3.27461624693723e-015 2.06577411560678e-015
outer loop
vertex 115.980762113533 74.048405917986 15.756754671997
vertex 115.980762113533 73.5547909668034 13.2500000000001
vertex 115.980762113533 74.1042432905789 11.9235047480639
endloop
endfacet
facet normal 1.0 3.27461624693723e-015 2.06577411560678e-015
outer loop
vertex 115.980762113533 74.048405917986 15.756754671997
vertex 115.980762113533 74.1042432905789 11.9235047480639
vertex 115.980762113533 75.229834570681 14.2170868756032
endloop
endfacet
facet normal 1.0 3.27461624693723e-015 2.06577411560678e-015
outer loop
vertex 115.980762113533 75.229834570681 14.2170868756032
vertex 115.980762113533 74.1042432905789 11.9235047480639
vertex 115.980762113533 74.291651245989 10.5000000000001
endloop
endfacet
facet normal 1.0 3.27461624693723e-015 2.06577411560678e-015
outer loop
vertex 115.980762113533 75.229834570681 14.2170868756032
vertex 115.980762113533 74.291651245989 10.5000000000001
vertex 115.980762113533 75.229834570681 6.78291312439691
endloop
endfacet
facet normal 1.0 3.27461624693723e-015 2.06577411560678e-015
outer loop
vertex 115.980762113533 75.229834570681 14.2170868756032
vertex 115.980762113533 75.229834570681 6.78291312439691
vertex 115.980762113533 75.9725116693994 8.57589424858661
endloop
endfacet
facet normal 1.0 3.27461624693723e-015 2.06577411560678e-015
outer loop
vertex 115.980762113533 75.229834570681 14.2170868756032
vertex 115.980762113533 75.9725116693994 8.57589424858661
vertex 115.980762113533 75.9725116693994 12.4241057514135
endloop
endfacet
facet normal 1.0 3.27461624693723e-015 2.06577411560678e-015
outer loop
vertex 115.980762113533 75.9725116693994 12.4241057514135
vertex 115.980762113533 75.9725116693994 8.57589424858661
vertex 115.980762113533 76.2258249971952 10.5000000000001
endloop
endfacet
facet normal -2.6283747201036e-015 0.965925826289068 -0.258819045102522
outer loop
vertex 90.9807621135331 75.9725116693993 8.57589424858656
vertex 115.980762113533 75.229834570681 6.78291312439691
vertex 90.9807621135331 75.229834570681 6.78291312439686
endloop
endfacet
facet normal -1.80301379968951e-015 0.866025403784439 -0.5
outer loop
vertex 115.980762113533 75.229834570681 6.78291312439691
vertex 90.9807621135331 75.9725116693993 8.57589424858656
vertex 115.980762113533 75.9725116693994 8.57589424858661
endloop
endfacet
facet normal -3.27461624693723e-015 1.0 -1.33666648434704e-015
outer loop
vertex 90.9807621135331 76.2258249971952 10.5
vertex 115.980762113533 75.9725116693994 8.57589424858661
vertex 90.9807621135331 75.9725116693993 8.57589424858656
endloop
endfacet
facet normal -2.6283747201036e-015 0.965925826289068 -0.258819045102522
outer loop
vertex 115.980762113533 75.9725116693994 8.57589424858661
vertex 90.9807621135331 76.2258249971952 10.5
vertex 115.980762113533 76.2258249971952 10.5000000000001
endloop
endfacet
facet normal -3.6976980881013e-015 0.965925826289069 0.25881904510252
outer loop
vertex 90.9807621135331 75.9725116693993 12.4241057514134
vertex 115.980762113533 76.2258249971952 10.5000000000001
vertex 90.9807621135331 76.2258249971952 10.5
endloop
endfacet
facet normal -3.27461624693723e-015 1.0 -1.71984420985985e-015
outer loop
vertex 115.980762113533 76.2258249971952 10.5000000000001
vertex 90.9807621135331 75.9725116693993 12.4241057514134
vertex 115.980762113533 75.9725116693994 12.4241057514135
endloop
endfacet
facet normal -3.86878791529629e-015 0.866025403784438 0.500000000000001
outer loop
vertex 90.9807621135331 75.229834570681 14.2170868756031
vertex 115.980762113533 75.9725116693994 12.4241057514135
vertex 90.9807621135331 75.9725116693993 12.4241057514134
endloop
endfacet
facet normal -3.6976980881013e-015 0.965925826289068 0.25881904510252
outer loop
vertex 115.980762113533 75.9725116693994 12.4241057514135
vertex 90.9807621135331 75.229834570681 14.2170868756031
vertex 115.980762113533 75.229834570681 14.2170868756032
endloop
endfacet
facet normal -3.77622623953816e-015 0.707106781186548 0.707106781186547
outer loop
vertex 90.9807621135331 74.0484059179859 15.756754671997
vertex 115.980762113533 75.229834570681 14.2170868756032
vertex 90.9807621135331 75.229834570681 14.2170868756031
endloop
endfacet
facet normal -3.86878791529629e-015 0.866025403784438 0.500000000000001
outer loop
vertex 115.980762113533 75.229834570681 14.2170868756032
vertex 90.9807621135331 74.0484059179859 15.756754671997
vertex 115.980762113533 74.048405917986 15.756754671997
endloop
endfacet
facet normal -3.42632098606442e-015 0.5 0.866025403784438
outer loop
vertex 115.980762113533 72.5087381215921 16.9381833246921
vertex 90.9807621135331 74.0484059179859 15.756754671997
vertex 90.9807621135331 72.508738121592 16.9381833246921
endloop
endfacet
facet normal -3.77622623953816e-015 0.707106781186548 0.707106781186547
outer loop
vertex 90.9807621135331 74.0484059179859 15.756754671997
vertex 115.980762113533 72.5087381215921 16.9381833246921
vertex 115.980762113533 74.048405917986 15.756754671997
endloop
endfacet
facet normal -2.84291761965354e-015 0.258819045102521 0.965925826289068
outer loop
vertex 90.9807621135331 70.7157569974023 17.6808604234104
vertex 115.980762113533 72.5087381215921 16.9381833246921
vertex 90.9807621135331 72.508738121592 16.9381833246921
endloop
endfacet
facet normal -3.42632098606442e-015 0.5 0.866025403784438
outer loop
vertex 115.980762113533 72.5087381215921 16.9381833246921
vertex 90.9807621135331 70.7157569974023 17.6808604234104
vertex 115.980762113533 70.7157569974024 17.6808604234105
endloop
endfacet
facet normal -2.475524321372e-015 0.13052619222005 0.991444861373811
outer loop
vertex 90.9807621135332 68.7916512459889 17.9341737512063
vertex 115.980762113533 70.7157569974024 17.6808604234105
vertex 90.9807621135331 70.7157569974023 17.6808604234104
endloop
endfacet
facet normal -2.84291761965354e-015 0.25881904510252 0.965925826289069
outer loop
vertex 115.980762113533 70.7157569974024 17.6808604234105
vertex 90.9807621135332 68.7916512459889 17.9341737512063
vertex 115.980762113533 68.791651245989 17.9341737512063
endloop
endfacet
facet normal -1.14785151943455e-015 -0.258819045102523 0.965925826289068
outer loop
vertex 115.980762113533 66.8675454945755 17.6808604234105
vertex 90.9807621135332 68.7916512459889 17.9341737512063
vertex 90.9807621135331 66.8675454945754 17.6808604234104
endloop
endfacet
facet normal -1.62067794198274e-015 -0.130526192220051 0.99144486137381
outer loop
vertex 90.9807621135332 68.7916512459889 17.9341737512063
vertex 115.980762113533 66.8675454945755 17.6808604234105
vertex 115.980762113533 68.791651245989 17.9341737512063
endloop
endfacet
facet normal -1.51704739127189e-016 -0.5 0.866025403784439
outer loop
vertex 90.9807621135332 65.0745643703858 16.9381833246921
vertex 115.980762113533 66.8675454945755 17.6808604234105
vertex 90.9807621135331 66.8675454945754 17.6808604234104
endloop
endfacet
facet normal -1.14785151943455e-015 -0.258819045102523 0.965925826289068
outer loop
vertex 115.980762113533 66.8675454945755 17.6808604234105
vertex 90.9807621135332 65.0745643703858 16.9381833246921
vertex 115.980762113533 65.0745643703859 16.9381833246921
endloop
endfacet
facet normal 8.54780468447756e-016 -0.707106781186546 0.707106781186549
outer loop
vertex 115.980762113533 63.534896573992 15.756754671997
vertex 90.9807621135332 65.0745643703858 16.9381833246921
vertex 90.9807621135332 63.5348965739919 15.756754671997
endloop
endfacet
facet normal -1.51704739127189e-016 -0.5 0.866025403784439
outer loop
vertex 90.9807621135332 65.0745643703858 16.9381833246921
vertex 115.980762113533 63.534896573992 15.756754671997
vertex 115.980762113533 65.0745643703859 16.9381833246921
endloop
endfacet
facet normal 1.8030137996895e-015 -0.866025403784437 0.500000000000002
outer loop
vertex 115.980762113533 62.3534679212969 14.2170868756032
vertex 90.9807621135332 63.5348965739919 15.756754671997
vertex 90.9807621135332 62.3534679212968 14.2170868756031
endloop
endfacet
facet normal 8.54780468447758e-016 -0.707106781186547 0.707106781186548
outer loop
vertex 90.9807621135332 63.5348965739919 15.756754671997
vertex 115.980762113533 62.3534679212969 14.2170868756032
vertex 115.980762113533 63.534896573992 15.756754671997
endloop
endfacet
facet normal 2.6283747201036e-015 -0.965925826289068 0.258819045102521
outer loop
vertex 115.980762113533 61.6107908225786 12.4241057514135
vertex 90.9807621135332 62.3534679212968 14.2170868756031
vertex 90.9807621135332 61.6107908225785 12.4241057514134
endloop
endfacet
facet normal 1.8030137996895e-015 -0.866025403784438 0.500000000000001
outer loop
vertex 90.9807621135332 62.3534679212968 14.2170868756031
vertex 115.980762113533 61.6107908225786 12.4241057514135
vertex 115.980762113533 62.3534679212969 14.2170868756032
endloop
endfacet
facet normal 3.27461624693724e-015 -1.0 -7.48533231234339e-016
outer loop
vertex 115.980762113533 61.3574774947827 10.5000000000001
vertex 90.9807621135332 61.6107908225785 12.4241057514134
vertex 90.9807621135332 61.3574774947826 10.5
endloop
endfacet
facet normal 2.6283747201036e-015 -0.965925826289068 0.258819045102521
outer loop
vertex 90.9807621135332 61.6107908225785 12.4241057514134
vertex 115.980762113533 61.3574774947827 10.5000000000001
vertex 115.980762113533 61.6107908225786 12.4241057514135
endloop
endfacet
facet normal 3.69769808810131e-015 -0.965925826289068 -0.258819045102523
outer loop
vertex 115.980762113533 61.6107908225786 8.57589424858663
vertex 90.9807621135332 61.3574774947826 10.5
vertex 90.9807621135332 61.6107908225785 8.57589424858657
endloop
endfacet
facet normal 3.27461624693723e-015 -1.0 6.14866582799637e-016
outer loop
vertex 90.9807621135332 61.3574774947826 10.5
vertex 115.980762113533 61.6107908225786 8.57589424858663
vertex 115.980762113533 61.3574774947827 10.5000000000001
endloop
endfacet
facet normal 3.86878791529629e-015 -0.866025403784437 -0.500000000000004
outer loop
vertex 115.980762113533 62.3534679212969 6.7829131243969
vertex 90.9807621135332 61.6107908225785 8.57589424858657
vertex 90.9807621135332 62.3534679212968 6.78291312439685
endloop
endfacet
facet normal 3.69769808810131e-015 -0.965925826289068 -0.258819045102522
outer loop
vertex 90.9807621135332 61.6107908225785 8.57589424858657
vertex 115.980762113533 62.3534679212969 6.7829131243969
vertex 115.980762113533 61.6107908225786 8.57589424858663
endloop
endfacet
facet normal 3.77622623953816e-015 -0.70710678118655 -0.707106781186545
outer loop
vertex 115.980762113533 63.534896573992 5.24324532800309
vertex 90.9807621135332 62.3534679212968 6.78291312439685
vertex 90.9807621135332 63.5348965739919 5.24324532800304
endloop
endfacet
facet normal 3.86878791529629e-015 -0.866025403784437 -0.500000000000004
outer loop
vertex 90.9807621135332 62.3534679212968 6.78291312439685
vertex 115.980762113533 63.534896573992 5.24324532800309
vertex 115.980762113533 62.3534679212969 6.7829131243969
endloop
endfacet
facet normal 3.42632098606443e-015 -0.500000000000003 -0.866025403784437
outer loop
vertex 115.980762113533 65.0745643703858 4.06181667530798
vertex 90.9807621135332 63.5348965739919 5.24324532800304
vertex 90.9807621135332 65.0745643703858 4.06181667530792
endloop
endfacet
facet normal 3.77622623953816e-015 -0.70710678118655 -0.707106781186545
outer loop
vertex 90.9807621135332 63.5348965739919 5.24324532800304
vertex 115.980762113533 65.0745643703858 4.06181667530798
vertex 115.980762113533 63.534896573992 5.24324532800309
endloop
endfacet
facet normal 2.84291761965355e-015 -0.258819045102522 -0.965925826289068
outer loop
vertex 115.980762113533 66.8675454945756 3.31913957658964
vertex 90.9807621135332 65.0745643703858 4.06181667530792
vertex 90.9807621135332 66.8675454945755 3.31913957658959
endloop
endfacet
facet normal 3.42632098606443e-015 -0.500000000000002 -0.866025403784438
outer loop
vertex 90.9807621135332 65.0745643703858 4.06181667530792
vertex 115.980762113533 66.8675454945756 3.31913957658964
vertex 115.980762113533 65.0745643703858 4.06181667530798
endloop
endfacet
facet normal 2.475524321372e-015 -0.130526192220051 -0.99144486137381
outer loop
vertex 115.980762113533 68.791651245989 3.06582624879379
vertex 90.9807621135332 66.8675454945755 3.31913957658959
vertex 90.9807621135332 68.7916512459889 3.06582624879374
endloop
endfacet
facet normal 2.84291761965354e-015 -0.25881904510252 -0.965925826289068
outer loop
vertex 90.9807621135332 66.8675454945755 3.31913957658959
vertex 115.980762113533 68.791651245989 3.06582624879379
vertex 115.980762113533 66.8675454945756 3.31913957658964
endloop
endfacet
facet normal 1.14785151943455e-015 0.258819045102521 -0.965925826289068
outer loop
vertex 115.980762113533 70.7157569974024 3.31913957658964
vertex 90.9807621135332 68.7916512459889 3.06582624879374
vertex 90.9807621135332 70.7157569974023 3.31913957658959
endloop
endfacet
facet normal 1.62067794198273e-015 0.130526192220053 -0.99144486137381
outer loop
vertex 90.9807621135332 68.7916512459889 3.06582624879374
vertex 115.980762113533 70.7157569974024 3.31913957658964
vertex 115.980762113533 68.791651245989 3.06582624879379
endloop
endfacet
facet normal 1.51704739127192e-016 0.499999999999999 -0.866025403784439
outer loop
vertex 115.980762113533 72.5087381215921 4.06181667530798
vertex 90.9807621135332 70.7157569974023 3.31913957658959
vertex 90.9807621135332 72.508738121592 4.06181667530793
endloop
endfacet
facet normal 1.14785151943456e-015 0.25881904510252 -0.965925826289068
outer loop
vertex 90.9807621135332 70.7157569974023 3.31913957658959
vertex 115.980762113533 72.5087381215921 4.06181667530798
vertex 115.980762113533 70.7157569974024 3.31913957658964
endloop
endfacet
facet normal -8.54780468447767e-016 0.707106781186548 -0.707106781186547
outer loop
vertex 115.980762113533 74.048405917986 5.24324532800307
vertex 90.9807621135332 72.508738121592 4.06181667530793
vertex 90.9807621135332 74.0484059179859 5.24324532800301
endloop
endfacet
facet normal 1.51704739127194e-016 0.499999999999998 -0.86602540378444
outer loop
vertex 90.9807621135332 72.508738121592 4.06181667530793
vertex 115.980762113533 74.048405917986 5.24324532800307
vertex 115.980762113533 72.5087381215921 4.06181667530798
endloop
endfacet
facet normal -1.80301379968951e-015 0.866025403784439 -0.5
outer loop
vertex 90.9807621135331 75.229834570681 6.78291312439686
vertex 115.980762113533 74.048405917986 5.24324532800307
vertex 90.9807621135332 74.0484059179859 5.24324532800301
endloop
endfacet
facet normal -8.54780468447767e-016 0.707106781186548 -0.707106781186547
outer loop
vertex 115.980762113533 74.048405917986 5.24324532800307
vertex 90.9807621135331 75.229834570681 6.78291312439686
vertex 115.980762113533 75.229834570681 6.78291312439691
endloop
endfacet
facet normal 0.219544608439144 -0.380262416344413 0.89844346489983
outer loop
vertex 88.3826859021799 62.7916512459889 16.0
vertex 81.1403810567667 63.3356912021467 18.0
vertex 77.9903810567666 56.7916512459889 16.0
endloop
endfacet
facet normal -4.03243604646757e-015 -0.292276307320825 0.956333916672886
outer loop
vertex 81.1403810567667 63.3356912021467 18.0
vertex 74.8403810567666 63.3356912021469 18.0
vertex 77.9903810567666 56.7916512459889 16.0
endloop
endfacet
facet normal -0.25311870706414 -0.146138153660414 0.956333916672886
outer loop
vertex 74.8403810567666 63.3356912021469 18.0
vertex 71.6903810567665 68.7916512459889 18.0
vertex 67.5980762113534 62.7916512459889 16.0
endloop
endfacet
facet normal -0.439089216878285 -4.13766953782609e-016 0.898443464899832
outer loop
vertex 71.6903810567665 68.7916512459889 18.0
vertex 67.5980762113533 74.7916512459888 16.0
vertex 67.5980762113534 62.7916512459889 16.0
endloop
endfacet
facet normal -0.252884634037075 0.146309701513086 0.956369611139483
outer loop
vertex 74.8403810567666 74.2476112898309 17.998250374912
vertex 67.5980762113533 74.7916512459888 16.0
vertex 71.6903810567665 68.7916512459889 18.0
endloop
endfacet
facet normal -0.219389537954085 0.379993826385536 0.898594971355378
outer loop
vertex 77.9903810567666 80.7916512459888 16.0
vertex 67.5980762113533 74.7916512459888 16.0
vertex 74.8403810567666 74.2476112898309 17.998250374912
endloop
endfacet
facet normal 0.21954460843913 0.380262416344389 0.898443464899843
outer loop
vertex 88.3826859021798 74.7916512459888 16.0
vertex 77.9903810567666 80.7916512459888 16.0
vertex 81.1403810567667 74.2476112898308 17.9999999999999
endloop
endfacet
facet normal -0.000265601311891843 0.292159368059374 0.956369611139485
outer loop
vertex 81.1403810567667 74.2476112898308 17.9999999999999
vertex 77.9903810567666 80.7916512459888 16.0
vertex 74.8403810567666 74.2476112898309 17.998250374912
endloop
endfacet
facet normal 0.253118707064142 -0.146138153660423 0.956333916672884
outer loop
vertex 88.3826859021799 62.7916512459889 16.0
vertex 84.2903810567667 68.7916512459886 18.0
vertex 81.1403810567667 63.3356912021467 18.0
endloop
endfacet
facet normal 0.25311870706413 0.14613815366042 0.956333916672888
outer loop
vertex 88.3826859021798 74.7916512459888 16.0
vertex 81.1403810567667 74.2476112898308 17.9999999999999
vertex 84.2903810567667 68.7916512459886 18.0
endloop
endfacet
facet normal -0.866025403784434 0.500000000000009 3.63707603740669e-014
outer loop
vertex 74.8403810567666 74.2476112898308 20.0
vertex 71.6903810567665 68.7916512459889 18.0
vertex 71.6903810567666 68.7916512459888 20.0
endloop
endfacet
facet normal -0.866025403784434 0.500000000000009 3.63707603740669e-014
outer loop
vertex 71.6903810567665 68.7916512459889 18.0
vertex 74.8403810567666 74.2476112898308 20.0
vertex 74.8403810567666 74.2476112898309 17.998250374912
endloop
endfacet
facet normal 7.80075586699582e-019 1.0 -5.61774774490982e-015
outer loop
vertex 74.8403810567666 74.2476112898308 20.0
vertex 81.1403810567667 74.2476112898308 17.9999999999999
vertex 74.8403810567666 74.2476112898309 17.998250374912
endloop
endfacet
facet normal 7.80075586699582e-019 1.0 -5.61774774490982e-015
outer loop
vertex 81.1403810567667 74.2476112898308 17.9999999999999
vertex 74.8403810567666 74.2476112898308 20.0
vertex 81.1403810567666 74.2476112898309 20.0
endloop
endfacet
facet normal -9.84750200254816e-015 -1.0 3.66595642731226e-014
outer loop
vertex 81.1403810567666 63.3356912021469 20.0
vertex 74.8403810567666 63.3356912021469 18.0
vertex 81.1403810567667 63.3356912021467 18.0
endloop
endfacet
facet normal -9.84750200254816e-015 -1.0 3.66595642731226e-014
outer loop
vertex 74.8403810567666 63.3356912021469 18.0
vertex 81.1403810567666 63.3356912021469 20.0
vertex 74.8403810567666 63.3356912021469 20.0
endloop
endfacet
facet normal -0.866025403784433 -0.500000000000009 1.87657989032818e-014
outer loop
vertex 74.8403810567666 63.3356912021469 20.0
vertex 71.6903810567665 68.7916512459889 18.0
vertex 74.8403810567666 63.3356912021469 18.0
endloop
endfacet
facet normal -0.866025403784433 -0.500000000000009 1.87657989032818e-014
outer loop
vertex 71.6903810567665 68.7916512459889 18.0
vertex 74.8403810567666 63.3356912021469 20.0
vertex 71.6903810567666 68.7916512459888 20.0
endloop
endfacet
facet normal 0.866025403784444 0.499999999999991 -8.5229862918417e-015
outer loop
vertex 81.1403810567667 74.2476112898308 17.9999999999999
vertex 84.2903810567666 68.7916512459889 20.0
vertex 84.2903810567667 68.7916512459886 18.0
endloop
endfacet
facet normal 0.866025403784444 0.499999999999991 -8.5229862918417e-015
outer loop
vertex 84.2903810567666 68.7916512459889 20.0
vertex 81.1403810567667 74.2476112898308 17.9999999999999
vertex 81.1403810567666 74.2476112898309 20.0
endloop
endfacet
facet normal 0.866025403784436 -0.500000000000004 8.35015537687486e-014
outer loop
vertex 84.2903810567667 68.7916512459886 18.0
vertex 81.1403810567666 63.3356912021469 20.0
vertex 81.1403810567667 63.3356912021467 18.0
endloop
endfacet
facet normal 0.866025403784436 -0.500000000000004 8.35015537687486e-014
outer loop
vertex 81.1403810567666 63.3356912021469 20.0
vertex 84.2903810567667 68.7916512459886 18.0
vertex 84.2903810567666 68.7916512459889 20.0
endloop
endfacet
facet normal 0.439089216878289 8.20235533399425e-016 0.898443464899829
outer loop
vertex 88.3826859021799 62.7916512459889 16.0
vertex 88.3826859021798 68.7916512459889 16.0
vertex 84.2903810567667 68.7916512459886 18.0
endloop
endfacet
facet normal 0.439089216878289 8.20235533399425e-016 0.898443464899829
outer loop
vertex 88.3826859021798 74.7916512459888 16.0
vertex 84.2903810567667 68.7916512459886 18.0
vertex 88.3826859021798 68.7916512459889 16.0
endloop
endfacet
facet normal -0.5 -0.866025403784438 -3.2860375878899e-032
outer loop
vertex 88.3826859021798 74.7916512459888 16.0
vertex 77.9903810567666 80.7916512459888 5.0
vertex 88.3826859021798 74.7916512459888 5.0
endloop
endfacet
facet normal -0.5 -0.866025403784438 -3.2860375878899e-032
outer loop
vertex 77.9903810567666 80.7916512459888 5.0
vertex 88.3826859021798 74.7916512459888 16.0
vertex 77.9903810567666 80.7916512459888 16.0
endloop
endfacet
facet normal 1.74999414006638e-015 0.130526192220051 -0.99144486137381
outer loop
vertex 88.3826859021798 68.7916512459889 16.0
vertex 115.980762113533 67.3681464979251 15.8125920445899
vertex 88.3826859021798 67.368146497925 15.8125920445899
endloop
endfacet
facet normal 1.30399151729367e-015 0.258819045102522 -0.965925826289068
outer loop
vertex 115.980762113533 67.3681464979251 15.8125920445899
vertex 88.3826859021798 68.7916512459889 16.0
vertex 115.980762113533 68.791651245989 16.0000000000001
endloop
endfacet
facet normal 2.88050324632489e-015 -0.258819045102521 -0.965925826289068
outer loop
vertex 115.980762113533 70.2151559940529 15.8125920445899
vertex 88.3826859021798 68.7916512459889 16.0
vertex 88.3826859021798 70.2151559940527 15.8125920445899
endloop
endfacet
facet normal 2.54505183336396e-015 -0.130526192220051 -0.99144486137381
outer loop
vertex 88.3826859021798 68.7916512459889 16.0
vertex 115.980762113533 70.2151559940529 15.8125920445899
vertex 115.980762113533 68.791651245989 16.0000000000001
endloop
endfacet
facet normal -1.0 -2.90681820483258e-015 -1.55797395830724e-015
outer loop
vertex 88.3826859021799 62.7916512459889 16.0
vertex 88.3826859021798 63.2916512459889 10.5
vertex 88.3826859021799 62.7916512459889 5.0
endloop
endfacet
facet normal -1.0 -2.90681820483258e-015 -1.55797395830724e-015
outer loop
vertex 88.3826859021798 63.2916512459889 10.5
vertex 88.3826859021799 62.7916512459889 16.0
vertex 88.3826859021798 63.479059201399 11.9235047480639
endloop
endfacet
facet normal -1.0 -2.90681820483258e-015 -1.55797395830724e-015
outer loop
vertex 88.3826859021798 63.479059201399 11.9235047480639
vertex 88.3826859021799 62.7916512459889 16.0
vertex 88.3826859021798 64.0285115251745 13.25
endloop
endfacet
facet normal -1.0 -2.90681820483258e-015 -1.55797395830724e-015
outer loop
vertex 88.3826859021798 64.0285115251745 13.25
vertex 88.3826859021799 62.7916512459889 16.0
vertex 88.3826859021798 64.9025639494628 14.389087296526
endloop
endfacet
facet normal -1.0 -2.90681820483258e-015 -1.55797395830724e-015
outer loop
vertex 88.3826859021798 64.9025639494628 14.389087296526
vertex 88.3826859021799 62.7916512459889 16.0
vertex 88.3826859021798 66.0416512459889 15.2631397208144
endloop
endfacet
facet normal -1.0 -2.90681820483258e-015 -1.55797395830724e-015
outer loop
vertex 88.3826859021798 66.0416512459889 15.2631397208144
vertex 88.3826859021799 62.7916512459889 16.0
vertex 88.3826859021798 67.368146497925 15.8125920445899
endloop
endfacet
facet normal -1.0 -2.90681820483258e-015 -1.55797395830724e-015
outer loop
vertex 88.3826859021798 67.368146497925 15.8125920445899
vertex 88.3826859021799 62.7916512459889 16.0
vertex 88.3826859021798 68.7916512459889 16.0
endloop
endfacet
facet normal -1.0 -2.90681820483258e-015 -1.55797395830724e-015
outer loop
vertex 88.3826859021799 62.7916512459889 5.0
vertex 88.3826859021798 67.368146497925 5.18740795541012
vertex 88.3826859021798 68.7916512459889 5.0
endloop
endfacet
facet normal -1.0 -2.90681820483258e-015 -1.55797395830724e-015
outer loop
vertex 88.3826859021798 67.368146497925 5.18740795541012
vertex 88.3826859021799 62.7916512459889 5.0
vertex 88.3826859021799 66.0416512459888 5.73686027918559
endloop
endfacet
facet normal -1.0 -2.90681820483258e-015 -1.55797395830724e-015
outer loop
vertex 88.3826859021799 66.0416512459888 5.73686027918559
vertex 88.3826859021799 62.7916512459889 5.0
vertex 88.3826859021799 64.9025639494628 6.61091270347399
endloop
endfacet
facet normal -1.0 -2.90681820483258e-015 -1.55797395830724e-015
outer loop
vertex 88.3826859021799 64.9025639494628 6.61091270347399
vertex 88.3826859021799 62.7916512459889 5.0
vertex 88.3826859021799 64.0285115251745 7.75
endloop
endfacet
facet normal -1.0 -2.90681820483258e-015 -1.55797395830724e-015
outer loop
vertex 88.3826859021799 64.0285115251745 7.75
vertex 88.3826859021799 62.7916512459889 5.0
vertex 88.3826859021799 63.479059201399 9.07649525193614
endloop
endfacet
facet normal -1.0 -2.90681820483258e-015 -1.55797395830724e-015
outer loop
vertex 88.3826859021799 63.479059201399 9.07649525193614
vertex 88.3826859021799 62.7916512459889 5.0
vertex 88.3826859021798 63.2916512459889 10.5
endloop
endfacet
facet normal -1.0 -2.44426125830554e-015 -1.55797395830724e-015
outer loop
vertex 88.3826859021798 74.7916512459888 16.0
vertex 88.3826859021798 70.2151559940527 15.8125920445899
vertex 88.3826859021798 68.7916512459889 16.0
endloop
endfacet
facet normal -1.0 -2.44426125830554e-015 -1.55797395830724e-015
outer loop
vertex 88.3826859021798 70.2151559940527 15.8125920445899
vertex 88.3826859021798 74.7916512459888 16.0
vertex 88.3826859021798 71.5416512459889 15.2631397208144
endloop
endfacet
facet normal -1.0 -2.44426125830554e-015 -1.55797395830724e-015
outer loop
vertex 88.3826859021798 71.5416512459889 15.2631397208144
vertex 88.3826859021798 74.7916512459888 16.0
vertex 88.3826859021798 72.6807385425149 14.389087296526
endloop
endfacet
facet normal -1.0 -2.44426125830554e-015 -1.55797395830724e-015
outer loop
vertex 88.3826859021798 72.6807385425149 14.389087296526
vertex 88.3826859021798 74.7916512459888 16.0
vertex 88.3826859021798 73.5547909668033 13.25
endloop
endfacet
facet normal -1.0 -2.44426125830554e-015 -1.55797395830724e-015
outer loop
vertex 88.3826859021798 73.5547909668033 13.25
vertex 88.3826859021798 74.7916512459888 16.0
vertex 88.3826859021798 74.1042432905787 11.9235047480639
endloop
endfacet
facet normal -1.0 -2.44426125830554e-015 -1.55797395830724e-015
outer loop
vertex 88.3826859021798 74.1042432905787 11.9235047480639
vertex 88.3826859021798 74.7916512459888 16.0
vertex 88.3826859021798 74.2916512459889 10.5
endloop
endfacet
facet normal -1.0 -2.44426125830554e-015 -1.55797395830724e-015
outer loop
vertex 88.3826859021798 70.2151559940527 5.18740795541012
vertex 88.3826859021798 74.7916512459888 5.0
vertex 88.3826859021798 68.7916512459889 5.0
endloop
endfacet
facet normal -1.0 -2.44426125830554e-015 -1.55797395830724e-015
outer loop
vertex 88.3826859021798 74.7916512459888 5.0
vertex 88.3826859021798 70.2151559940527 5.18740795541012
vertex 88.3826859021798 71.5416512459888 5.73686027918559
endloop
endfacet
facet normal -1.0 -2.44426125830554e-015 -1.55797395830724e-015
outer loop
vertex 88.3826859021798 74.7916512459888 5.0
vertex 88.3826859021798 71.5416512459888 5.73686027918559
vertex 88.3826859021798 72.6807385425149 6.61091270347398
endloop
endfacet
facet normal -1.0 -2.44426125830554e-015 -1.55797395830724e-015
outer loop
vertex 88.3826859021798 74.7916512459888 5.0
vertex 88.3826859021798 72.6807385425149 6.61091270347398
vertex 88.3826859021798 73.5547909668033 7.75
endloop
endfacet
facet normal -1.0 -2.44426125830554e-015 -1.55797395830724e-015
outer loop
vertex 88.3826859021798 74.7916512459888 5.0
vertex 88.3826859021798 73.5547909668033 7.75
vertex 88.3826859021798 74.1042432905787 9.07649525193613
endloop
endfacet
facet normal -1.0 -2.44426125830554e-015 -1.55797395830724e-015
outer loop
vertex 88.3826859021798 74.7916512459888 5.0
vertex 88.3826859021798 74.1042432905787 9.07649525193613
vertex 88.3826859021798 74.2916512459889 10.5
endloop
endfacet
facet normal -1.0 -2.44426125830554e-015 -1.55797395830724e-015
outer loop
vertex 88.3826859021798 74.7916512459888 5.0
vertex 88.3826859021798 74.2916512459889 10.5
vertex 88.3826859021798 74.7916512459888 16.0
endloop
endfacet
endsolid foot
