solid water-dispenser
facet normal 0.0 0.0 1.0
outer loop
vertex 8.96410161513775 16.8477128262399 8.99999999999998
vertex 5.63675134594812 24.4000000000004 8.99999999999998
vertex 5.63675134594812 16.8477128262408 8.99999999999998
endloop
endfacet
facet normal 0.0 0.0 1.0
outer loop
vertex 5.63675134594812 24.4000000000004 8.99999999999998
vertex 8.96410161513775 16.8477128262399 8.99999999999998
vertex 12.2914518843274 24.4000000000004 8.99999999999998
endloop
endfacet
facet normal 0.0 0.0 1.0
outer loop
vertex 12.2914518843274 24.4000000000004 8.99999999999998
vertex 8.96410161513775 16.8477128262399 8.99999999999998
vertex 12.2914518843274 16.8477128262408 8.99999999999998
endloop
endfacet
facet normal -0.774333922676927 0.447061898700188 0.447819868833826
outer loop
vertex 4.48205080756889 37.9262794416293 8.99999999999998
vertex 0.0 30.1631397208149 8.99999999999998
vertex 4.48205080756889 22.4000000000004 24.5
endloop
endfacet
facet normal -0.923879533224094 1.03519515910642e-029 -0.382683430644221
outer loop
vertex 4.63477298392672 16.8477128262408 7.83995989526007
vertex 5.08253174916492 8.17264973081088 6.75897460585555
vertex 4.63477298392672 8.17264973081088 7.83995989526007
endloop
endfacet
facet normal -0.923879533224094 1.03519515910642e-029 -0.382683430644221
outer loop
vertex 5.08253174916492 8.17264973081088 6.75897460585555
vertex 4.63477298392672 16.8477128262408 7.83995989526007
vertex 5.08253174916492 16.8477128262408 6.75897460585555
endloop
endfacet
facet normal -0.866025403784436 0.500000000000004 2.39316860869434e-017
outer loop
vertex 4.48205080756889 37.9262794416293 8.99999999999998
vertex 0.0 30.1631397208149 0.0
vertex 0.0 30.1631397208149 8.99999999999998
endloop
endfacet
facet normal -0.866025403784436 0.500000000000004 2.39316860869434e-017
outer loop
vertex 0.0 30.1631397208149 0.0
vertex 4.48205080756889 37.9262794416293 8.99999999999998
vertex 4.48205080756889 37.9262794416293 0.0
endloop
endfacet
facet normal 0.793353333109837 0.0 -0.608761438367701
outer loop
vertex 12.2914518843274 16.8477128262408 6.03670156852378
vertex 12.8456714477167 8.17264973081088 6.75897454801569
vertex 12.2914518843274 8.17264973081088 6.03670156852378
endloop
endfacet
facet normal 0.793353333109837 0.0 -0.608761438367701
outer loop
vertex 12.8456714477167 8.17264973081088 6.75897454801569
vertex 12.2914518843274 16.8477128262408 6.03670156852378
vertex 12.8456714477167 16.8477128262408 6.75897454801569
endloop
endfacet
facet normal 0.866025403784437 0.500000000000002 0.0
outer loop
vertex 13.4461524227066 37.9262794416293 0.0
vertex 17.9282032302755 30.1631397208149 8.99999999999998
vertex 17.9282032302755 30.1631397208149 0.0
endloop
endfacet
facet normal 0.866025403784437 0.500000000000002 0.0
outer loop
vertex 17.9282032302755 30.1631397208149 8.99999999999998
vertex 13.4461524227066 37.9262794416293 0.0
vertex 13.4461524227066 37.9262794416293 8.99999999999998
endloop
endfacet
facet normal -0.99144486145485 0.0 -0.130526191604492
outer loop
vertex 4.48205080756889 16.8477128262408 8.99999999999998
vertex 4.63477298392672 8.17264973081088 7.83995989526007
vertex 4.48205080756889 8.17264973081088 8.99999999999998
endloop
endfacet
facet normal -0.99144486145485 0.0 -0.130526191604492
outer loop
vertex 4.63477298392672 8.17264973081088 7.83995989526007
vertex 4.48205080756889 16.8477128262408 8.99999999999998
vertex 4.63477298392672 16.8477128262408 7.83995989526007
endloop
endfacet
facet normal 0.0 1.0 0.0
outer loop
vertex 4.48205080756889 37.9262794416293 8.99999999999998
vertex 13.4461524227066 37.9262794416293 0.0
vertex 4.48205080756889 37.9262794416293 0.0
endloop
endfacet
facet normal 0.0 1.0 0.0
outer loop
vertex 13.4461524227066 37.9262794416293 0.0
vertex 4.48205080756889 37.9262794416293 8.99999999999998
vertex 13.4461524227066 37.9262794416293 8.99999999999998
endloop
endfacet
facet normal 0.0 -1.0 0.0
outer loop
vertex 12.2914518843274 35.9262794416292 8.99999999999998
vertex 5.63675134594814 35.9262794416292 0.0
vertex 12.2914518843274 35.9262794416292 0.0
endloop
endfacet
facet normal 0.0 -1.0 0.0
outer loop
vertex 5.63675134594814 35.9262794416292 0.0
vertex 12.2914518843274 35.9262794416292 8.99999999999998
vertex 5.63675134594814 35.9262794416292 8.99999999999998
endloop
endfacet
facet normal 0.0 0.0 -1.0
outer loop
vertex 5.63675134594812 16.8477128262408 8.99999999999998
vertex 4.48205080756889 8.17264973081088 8.99999999999998
vertex 4.48205080756889 16.8477128262408 8.99999999999998
endloop
endfacet
facet normal 0.0 0.0 -1.0
outer loop
vertex 4.48205080756889 8.17264973081088 8.99999999999998
vertex 5.63675134594812 16.8477128262408 8.99999999999998
vertex 5.63675134594812 8.17264973081088 8.99999999999998
endloop
endfacet
facet normal 0.0 0.0 -1.0
outer loop
vertex 13.4461524227066 16.8477128262408 8.99999999999998
vertex 12.2914518843274 8.17264973081088 8.99999999999998
vertex 12.2914518843274 16.8477128262408 8.99999999999998
endloop
endfacet
facet normal 0.0 0.0 -1.0
outer loop
vertex 12.2914518843274 8.17264973081088 8.99999999999998
vertex 13.4461524227066 16.8477128262408 8.99999999999998
vertex 13.4461524227066 8.17264973081088 8.99999999999998
endloop
endfacet
facet normal 0.991444860482357 -6.70488214216976e-030 -0.130526198991314
outer loop
vertex 13.2934302290629 16.8477128262408 7.83995983074799
vertex 13.4461524227066 8.17264973081088 8.99999999999998
vertex 13.2934302290629 8.17264973081088 7.83995983074799
endloop
endfacet
facet normal 0.991444860482357 -6.70488214216976e-030 -0.130526198991314
outer loop
vertex 13.4461524227066 8.17264973081088 8.99999999999998
vertex 13.2934302290629 16.8477128262408 7.83995983074799
vertex 13.4461524227066 16.8477128262408 8.99999999999998
endloop
endfacet
facet normal 0.0 0.0 -1.0
outer loop
vertex 4.48205080756889 37.9262794416293 0.0
vertex 2.30940107675852 30.1631397208149 0.0
vertex 0.0 30.1631397208149 0.0
endloop
endfacet
facet normal 0.0 0.0 -1.0
outer loop
vertex 2.30940107675852 30.1631397208149 0.0
vertex 4.48205080756889 37.9262794416293 0.0
vertex 5.63675134594814 35.9262794416292 0.0
endloop
endfacet
facet normal 0.0 0.0 -1.0
outer loop
vertex 5.63675134594814 35.9262794416292 0.0
vertex 4.48205080756889 37.9262794416293 0.0
vertex 13.4461524227066 37.9262794416293 0.0
endloop
endfacet
facet normal 0.0 0.0 -1.0
outer loop
vertex 5.63675134594814 35.9262794416292 0.0
vertex 13.4461524227066 37.9262794416293 0.0
vertex 12.2914518843274 35.9262794416292 0.0
endloop
endfacet
facet normal 0.0 0.0 -1.0
outer loop
vertex 12.2914518843274 35.9262794416292 0.0
vertex 13.4461524227066 37.9262794416293 0.0
vertex 15.618802153517 30.1631397208149 0.0
endloop
endfacet
facet normal 0.0 0.0 -1.0
outer loop
vertex 15.618802153517 30.1631397208149 0.0
vertex 13.4461524227066 37.9262794416293 0.0
vertex 17.9282032302755 30.1631397208149 0.0
endloop
endfacet
facet normal 0.0 0.0 -1.0
outer loop
vertex 2.30940107675852 30.1631397208149 0.0
vertex 4.48205080756889 22.4000000000004 0.0
vertex 0.0 30.1631397208149 0.0
endloop
endfacet
facet normal 0.0 0.0 -1.0
outer loop
vertex 4.48205080756889 22.4000000000004 0.0
vertex 2.30940107675852 30.1631397208149 0.0
vertex 5.63675134594812 24.4000000000004 0.0
endloop
endfacet
facet normal 0.0 0.0 -1.0
outer loop
vertex 4.48205080756889 22.4000000000004 0.0
vertex 5.63675134594812 24.4000000000004 0.0
vertex 13.4461524227066 22.4000000000004 0.0
endloop
endfacet
facet normal 0.0 0.0 -1.0
outer loop
vertex 13.4461524227066 22.4000000000004 0.0
vertex 5.63675134594812 24.4000000000004 0.0
vertex 12.2914518843274 24.4000000000004 0.0
endloop
endfacet
facet normal 0.0 0.0 -1.0
outer loop
vertex 13.4461524227066 22.4000000000004 0.0
vertex 12.2914518843274 24.4000000000004 0.0
vertex 15.618802153517 30.1631397208149 0.0
endloop
endfacet
facet normal 0.0 0.0 -1.0
outer loop
vertex 13.4461524227066 22.4000000000004 0.0
vertex 15.618802153517 30.1631397208149 0.0
vertex 17.9282032302755 30.1631397208149 0.0
endloop
endfacet
facet normal 0.774333922676929 0.447061898700187 0.447819868833826
outer loop
vertex 13.4461524227066 37.9262794416293 8.99999999999998
vertex 13.4461524227066 22.4000000000004 24.5
vertex 17.9282032302755 30.1631397208149 8.99999999999998
endloop
endfacet
facet normal 0.923879527521653 0.0 -0.382683444411131
outer loop
vertex 12.8456714477167 16.8477128262408 6.75897454801569
vertex 13.2934302290629 8.17264973081088 7.83995983074799
vertex 12.8456714477167 8.17264973081088 6.75897454801569
endloop
endfacet
facet normal 0.923879527521653 0.0 -0.382683444411131
outer loop
vertex 13.2934302290629 8.17264973081088 7.83995983074799
vertex 12.8456714477167 16.8477128262408 6.75897454801569
vertex 13.2934302290629 16.8477128262408 7.83995983074799
endloop
endfacet
facet normal 2.44931020823669e-013 -1.0 -1.63676251424015e-013
outer loop
vertex 10.1241416876217 16.8477128262408 4.670671360146
vertex 8.96410161513775 16.8477128262399 8.99999999999998
vertex 8.96410158174388 16.8477128262408 4.51794919243111
endloop
endfacet
facet normal 2.44931020823669e-013 -1.0 -1.63676251424015e-013
outer loop
vertex 8.96410161513775 16.8477128262399 8.99999999999998
vertex 10.1241416876217 16.8477128262408 4.670671360146
vertex 12.2914518843274 16.8477128262408 8.99999999999998
endloop
endfacet
facet normal 0.0 -1.0 0.0
outer loop
vertex 5.63675134594812 16.8477128262408 8.99999999999998
vertex 5.08253174916492 16.8477128262408 6.75897460585555
vertex 5.38558635971738 16.8477128262408 6.36402614548842
endloop
endfacet
facet normal 0.0 -1.0 0.0
outer loop
vertex 5.08253174916492 16.8477128262408 6.75897460585555
vertex 5.63675134594812 16.8477128262408 8.99999999999998
vertex 4.63477298392672 16.8477128262408 7.83995989526007
endloop
endfacet
facet normal 0.0 -1.0 0.0
outer loop
vertex 4.63477298392672 16.8477128262408 7.83995989526007
vertex 5.63675134594812 16.8477128262408 8.99999999999998
vertex 4.48205080756889 16.8477128262408 8.99999999999998
endloop
endfacet
facet normal 0.321102033896512 -0.624140763881863 -0.712279292615254
outer loop
vertex 8.96410161513775 24.4000000000003 20.6
vertex 5.63675134594812 24.4000000000003 19.1
vertex 5.63675134594814 35.9262794416292 8.99999999999998
endloop
endfacet
facet normal 0.752186388893867 -0.434275014108656 -0.495601501696405
outer loop
vertex 5.63675134594814 35.9262794416292 8.99999999999998
vertex 5.63675134594812 24.4000000000003 19.1
vertex 2.30940107675852 30.1631397208149 8.99999999999998
endloop
endfacet
facet normal 0.258819036706376 0.0 -0.965925828538808
outer loop
vertex 10.1241416876217 22.4000000000004 4.670671360146
vertex 8.96410158174388 16.8477128262408 4.51794919243111
vertex 8.96410158174388 22.4000000000004 4.51794919243111
endloop
endfacet
facet normal -7.45057995445236e-009 0.0 -1.0
outer loop
vertex 8.96410158174388 16.8477128262408 4.51794919243111
vertex 10.1241416876217 22.4000000000004 4.670671360146
vertex 10.1241416876217 16.8477128262408 4.670671360146
endloop
endfacet
facet normal -0.866025403784444 0.499999999999992 4.46401547459088e-015
outer loop
vertex 15.618802153517 30.1631397208149 8.99999999999998
vertex 12.2914518843274 24.4000000000004 8.99999999999998
vertex 12.2914518843274 24.4000000000003 19.1
endloop
endfacet
facet normal 0.707106773284017 7.25926337203141e-017 -0.707106789089078
outer loop
vertex 12.1333900993728 22.4000000000004 5.83071144492587
vertex 12.2914518843274 16.8477128262408 6.03670156852378
vertex 12.1333900993728 16.8477128262408 5.83071144492587
endloop
endfacet
facet normal 0.793353333109835 1.43943187362959e-016 -0.608761438367703
outer loop
vertex 12.2914518843274 16.8477128262408 6.03670156852378
vertex 12.1333900993728 22.4000000000004 5.83071144492587
vertex 12.8456714477167 16.8477128262408 6.75897454801569
endloop
endfacet
facet normal 0.866025397575618 7.25926337203138e-017 -0.500000010753992
outer loop
vertex 12.8456714477167 16.8477128262408 6.75897454801569
vertex 12.1333900993728 22.4000000000004 5.83071144492587
vertex 12.8456714477167 22.4000000000004 6.75897454801569
endloop
endfacet
facet normal -0.752186388893866 -0.434275014108655 -0.495601501696406
outer loop
vertex 12.2914518843274 35.9262794416292 8.99999999999998
vertex 15.618802153517 30.1631397208149 8.99999999999998
vertex 12.2914518843274 24.4000000000003 19.1
endloop
endfacet
facet normal -0.321102033896512 -0.624140763881863 -0.712279292615255
outer loop
vertex 12.2914518843274 35.9262794416292 8.99999999999998
vertex 12.2914518843274 24.4000000000003 19.1
vertex 8.96410161513775 24.4000000000003 20.6
endloop
endfacet
facet normal 0.866025397575618 7.25926337203138e-017 -0.500000010753992
outer loop
vertex 12.8456714477167 22.4000000000004 6.75897454801569
vertex 13.2934302290629 16.8477128262408 7.83995983074799
vertex 12.8456714477167 16.8477128262408 6.75897454801569
endloop
endfacet
facet normal 0.96592582371793 0.0 -0.25881905469814
outer loop
vertex 13.2934302290629 16.8477128262408 7.83995983074799
vertex 12.8456714477167 22.4000000000004 6.75897454801569
vertex 13.2934302290629 22.4000000000004 7.83995983074799
endloop
endfacet
facet normal -0.258819051099786 0.0 -0.965925824682106
outer loop
vertex 7.80406147814179 22.4000000000004 4.67067137743194
vertex 6.72307619207336 16.8477128262408 5.11843015072409
vertex 6.72307619207336 22.4000000000004 5.11843015072409
endloop
endfacet
facet normal -0.500000004301588 0.0 -0.866025401300915
outer loop
vertex 6.72307619207336 16.8477128262408 5.11843015072409
vertex 7.80406147814179 22.4000000000004 4.67067137743194
vertex 7.80406147814179 16.8477128262408 4.67067137743194
endloop
endfacet
facet normal 0.707106773284017 7.25926337203141e-017 -0.707106789089078
outer loop
vertex 12.1333900993728 22.4000000000004 5.83071144492587
vertex 11.2051269803623 16.8477128262408 5.11843011733023
vertex 11.2051269803623 22.4000000000004 5.11843011733023
endloop
endfacet
facet normal 0.499999991396812 0.0 -0.866025408751491
outer loop
vertex 11.2051269803623 16.8477128262408 5.11843011733023
vertex 12.1333900993728 22.4000000000004 5.83071144492587
vertex 12.1333900993728 16.8477128262408 5.83071144492587
endloop
endfacet
facet normal -0.866025405026206 -6.11778930759846e-016 -0.499999997849196
outer loop
vertex 5.08253174916492 22.4000000000004 6.75897460585555
vertex 5.38558635971738 16.8477128262408 6.36402614548842
vertex 5.08253174916492 16.8477128262408 6.75897460585555
endloop
endfacet
facet normal -0.793353342181083 -1.21309015449639e-015 -0.608761426545824
outer loop
vertex 5.38558635971738 16.8477128262408 6.36402614548842
vertex 5.08253174916492 22.4000000000004 6.75897460585555
vertex 5.63675134594812 16.8477128262408 6.03670156055921
endloop
endfacet
facet normal -0.793353342181083 -1.21309015449639e-015 -0.608761426545824
outer loop
vertex 5.63675134594812 16.8477128262408 6.03670156055921
vertex 5.08253174916492 22.4000000000004 6.75897460585555
vertex 5.79481308367666 16.8477128262408 5.83071149215191
endloop
endfacet
facet normal -0.707106783820724 -6.11778930759847e-016 -0.707106778552371
outer loop
vertex 5.79481308367666 16.8477128262408 5.83071149215191
vertex 5.08253174916492 22.4000000000004 6.75897460585555
vertex 5.79481308367666 22.4000000000004 5.83071149215191
endloop
endfacet
facet normal 1.73172880618078e-017 -0.709357249400094 -0.704849127631958
outer loop
vertex 8.96410161513775 24.4000000000003 20.6
vertex 5.63675134594814 35.9262794416292 8.99999999999998
vertex 12.2914518843274 35.9262794416292 8.99999999999998
endloop
endfacet
facet normal 0.96592582371793 0.0 -0.25881905469814
outer loop
vertex 13.2934302290629 22.4000000000004 7.83995983074799
vertex 13.4461524227066 16.8477128262408 8.99999999999998
vertex 13.2934302290629 16.8477128262408 7.83995983074799
endloop
endfacet
facet normal 0.991444860482357 0.0 -0.130526198991314
outer loop
vertex 13.4461524227066 16.8477128262408 8.99999999999998
vertex 13.2934302290629 22.4000000000004 7.83995983074799
vertex 13.4461524227066 22.4000000000004 8.99999999999998
endloop
endfacet
facet normal 0.866025403784445 0.49999999999999 4.42941070347003e-015
outer loop
vertex 2.30940107675852 30.1631397208149 8.99999999999998
vertex 5.63675134594812 24.4000000000003 19.1
vertex 5.63675134594812 24.4000000000004 8.99999999999998
endloop
endfacet
facet normal -0.99144486145485 0.0 -0.130526191604492
outer loop
vertex 4.48205080756889 22.4000000000004 8.99999999999998
vertex 4.63477298392672 16.8477128262408 7.83995989526007
vertex 4.48205080756889 16.8477128262408 8.99999999999998
endloop
endfacet
facet normal -0.96592582661046 0.0 -0.258819043903069
outer loop
vertex 4.63477298392672 16.8477128262408 7.83995989526007
vertex 4.48205080756889 22.4000000000004 8.99999999999998
vertex 4.63477298392672 22.4000000000004 7.83995989526007
endloop
endfacet
facet normal -0.96592582661046 0.0 -0.258819043903069
outer loop
vertex 4.63477298392672 22.4000000000004 7.83995989526007
vertex 5.08253174916492 16.8477128262408 6.75897460585555
vertex 4.63477298392672 16.8477128262408 7.83995989526007
endloop
endfacet
facet normal -0.866025405026206 -6.11778930759846e-016 -0.499999997849196
outer loop
vertex 5.08253174916492 16.8477128262408 6.75897460585555
vertex 4.63477298392672 22.4000000000004 7.83995989526007
vertex 5.08253174916492 22.4000000000004 6.75897460585555
endloop
endfacet
facet normal -0.500000004301588 0.0 -0.866025401300915
outer loop
vertex 6.72307619207336 22.4000000000004 5.11843015072409
vertex 5.79481308367666 16.8477128262408 5.83071149215191
vertex 5.79481308367666 22.4000000000004 5.83071149215191
endloop
endfacet
facet normal -0.707106783820724 -6.11778930759847e-016 -0.707106778552371
outer loop
vertex 5.79481308367666 16.8477128262408 5.83071149215191
vertex 6.72307619207336 22.4000000000004 5.11843015072409
vertex 6.72307619207336 16.8477128262408 5.11843015072409
endloop
endfacet
facet normal 0.499999991396812 0.0 -0.866025408751491
outer loop
vertex 11.2051269803623 22.4000000000004 5.11843011733023
vertex 10.1241416876217 16.8477128262408 4.670671360146
vertex 10.1241416876217 22.4000000000004 4.670671360146
endloop
endfacet
facet normal 0.258819036706376 0.0 -0.965925828538808
outer loop
vertex 10.1241416876217 16.8477128262408 4.670671360146
vertex 11.2051269803623 22.4000000000004 5.11843011733023
vertex 11.2051269803623 16.8477128262408 5.11843011733023
endloop
endfacet
facet normal -7.45057995445236e-009 0.0 -1.0
outer loop
vertex 8.96410158174388 22.4000000000004 4.51794919243111
vertex 7.80406147814179 16.8477128262408 4.67067137743194
vertex 7.80406147814179 22.4000000000004 4.67067137743194
endloop
endfacet
facet normal -0.258819051099786 0.0 -0.965925824682106
outer loop
vertex 7.80406147814179 16.8477128262408 4.67067137743194
vertex 8.96410158174388 22.4000000000004 4.51794919243111
vertex 8.96410158174388 16.8477128262408 4.51794919243111
endloop
endfacet
facet normal 1.0 0.0 0.0
outer loop
vertex 5.63675134594812 8.17264973081088 8.99999999999998
vertex 5.63675134594812 24.4000000000003 19.1
vertex 5.63675134594812 8.17264973081043 19.1
endloop
endfacet
facet normal 1.0 0.0 0.0
outer loop
vertex 5.63675134594812 24.4000000000003 19.1
vertex 5.63675134594812 8.17264973081088 8.99999999999998
vertex 5.63675134594812 16.8477128262408 8.99999999999998
endloop
endfacet
facet normal 1.0 0.0 0.0
outer loop
vertex 5.63675134594812 24.4000000000003 19.1
vertex 5.63675134594812 16.8477128262408 8.99999999999998
vertex 5.63675134594812 24.4000000000004 8.99999999999998
endloop
endfacet
facet normal -1.0 0.0 0.0
outer loop
vertex 12.2914518843274 24.4000000000003 19.1
vertex 12.2914518843274 8.17264973081088 8.99999999999998
vertex 12.2914518843274 8.17264973081043 19.1
endloop
endfacet
facet normal -1.0 0.0 0.0
outer loop
vertex 12.2914518843274 8.17264973081088 8.99999999999998
vertex 12.2914518843274 24.4000000000003 19.1
vertex 12.2914518843274 16.8477128262408 8.99999999999998
endloop
endfacet
facet normal -1.0 0.0 0.0
outer loop
vertex 12.2914518843274 16.8477128262408 8.99999999999998
vertex 12.2914518843274 24.4000000000003 19.1
vertex 12.2914518843274 24.4000000000004 8.99999999999998
endloop
endfacet
facet normal 0.000385992220391703 0.706395927610968 0.707816815613083
outer loop
vertex 13.4461524227066 37.9262794416293 8.99999999999998
vertex 4.48205080756889 37.9262794416293 8.99999999999998
vertex 4.48205080756889 22.4000000000004 24.5
endloop
endfacet
facet normal 0.000385992220391703 0.706395927610968 0.707816815613083
outer loop
vertex 13.4461524227066 37.9262794416293 8.99999999999998
vertex 4.48205080756889 22.4000000000004 24.5
vertex 8.96410164853163 22.4000000000004 24.4820508075689
endloop
endfacet
facet normal -0.00283412458882732 0.706504766709739 0.70770260869537
outer loop
vertex 13.4461524227066 37.9262794416293 8.99999999999998
vertex 8.96410164853163 22.4000000000004 24.4820508075689
vertex 13.4461524227066 22.4000000000004 24.5
endloop
endfacet
facet normal 1.0 0.0 0.0
outer loop
vertex 13.4461524227066 5.70000000000024 8.99999999999998
vertex 13.4461524227066 22.4000000000004 20.0
vertex 13.4461524227066 5.70000000000001 20.0
endloop
endfacet
facet normal 1.0 0.0 0.0
outer loop
vertex 13.4461524227066 22.4000000000004 20.0
vertex 13.4461524227066 5.70000000000024 8.99999999999998
vertex 13.4461524227066 8.17264973081088 8.99999999999998
endloop
endfacet
facet normal 1.0 0.0 0.0
outer loop
vertex 13.4461524227066 22.4000000000004 20.0
vertex 13.4461524227066 8.17264973081088 8.99999999999998
vertex 13.4461524227066 16.8477128262408 8.99999999999998
endloop
endfacet
facet normal 1.0 0.0 0.0
outer loop
vertex 13.4461524227066 22.4000000000004 20.0
vertex 13.4461524227066 16.8477128262408 8.99999999999998
vertex 13.4461524227066 22.4000000000004 8.99999999999998
endloop
endfacet
facet normal -1.0 0.0 0.0
outer loop
vertex 4.48205080756889 22.4000000000004 20.0000000667878
vertex 4.48205080756889 5.70000000000024 8.99999999999998
vertex 4.48205080756889 5.70000000000001 20.0000000667878
endloop
endfacet
facet normal -1.0 0.0 0.0
outer loop
vertex 4.48205080756889 5.70000000000024 8.99999999999998
vertex 4.48205080756889 22.4000000000004 20.0000000667878
vertex 4.48205080756889 8.17264973081088 8.99999999999998
endloop
endfacet
facet normal -1.0 0.0 0.0
outer loop
vertex 4.48205080756889 8.17264973081088 8.99999999999998
vertex 4.48205080756889 22.4000000000004 20.0000000667878
vertex 4.48205080756889 16.8477128262408 8.99999999999998
endloop
endfacet
facet normal -1.0 0.0 0.0
outer loop
vertex 4.48205080756889 16.8477128262408 8.99999999999998
vertex 4.48205080756889 22.4000000000004 20.0000000667878
vertex 4.48205080756889 22.4000000000004 8.99999999999998
endloop
endfacet
facet normal 0.793353333109829 1.64675772083479e-029 -0.608761438367711
outer loop
vertex 12.1333900993728 16.8477128262408 5.83071144492587
vertex 12.2914518843274 8.17264973081088 6.03670156852378
vertex 12.1333900993728 8.17264973081088 5.83071144492587
endloop
endfacet
facet normal 0.793353333109829 1.64675772083479e-029 -0.608761438367711
outer loop
vertex 12.2914518843274 8.17264973081088 6.03670156852378
vertex 12.1333900993728 16.8477128262408 5.83071144492587
vertex 12.2914518843274 16.8477128262408 6.03670156852378
endloop
endfacet
facet normal 0.608761420634883 -2.94957247263611e-018 -0.793353346716707
outer loop
vertex 12.1333900993728 16.8477128262408 5.83071144492587
vertex 11.2051269803623 8.17264973081088 5.11843011733023
vertex 11.2051269803623 16.8477128262408 5.11843011733023
endloop
endfacet
facet normal 0.608761420634883 -2.94957247263611e-018 -0.793353346716707
outer loop
vertex 11.2051269803623 8.17264973081088 5.11843011733023
vertex 12.1333900993728 16.8477128262408 5.83071144492587
vertex 12.1333900993728 8.17264973081088 5.83071144492587
endloop
endfacet
facet normal 0.382683423760797 2.49918221369714e-029 -0.923879536075301
outer loop
vertex 11.2051269803623 16.8477128262408 5.11843011733023
vertex 10.1241416876217 8.17264973081088 4.670671360146
vertex 10.1241416876217 16.8477128262408 4.670671360146
endloop
endfacet
facet normal 0.382683423760797 2.49918221369714e-029 -0.923879536075301
outer loop
vertex 10.1241416876217 8.17264973081088 4.670671360146
vertex 11.2051269803623 16.8477128262408 5.11843011733023
vertex 11.2051269803623 8.17264973081088 5.11843011733023
endloop
endfacet
facet normal 0.0 -1.0 0.0
outer loop
vertex 11.2051269803623 16.8477128262408 5.11843011733023
vertex 12.2914518843274 16.8477128262408 8.99999999999998
vertex 10.1241416876217 16.8477128262408 4.670671360146
endloop
endfacet
facet normal 0.0 -1.0 0.0
outer loop
vertex 12.2914518843274 16.8477128262408 8.99999999999998
vertex 11.2051269803623 16.8477128262408 5.11843011733023
vertex 12.1333900993728 16.8477128262408 5.83071144492587
endloop
endfacet
facet normal 0.0 -1.0 0.0
outer loop
vertex 12.2914518843274 16.8477128262408 8.99999999999998
vertex 12.1333900993728 16.8477128262408 5.83071144492587
vertex 12.2914518843274 16.8477128262408 6.03670156852378
endloop
endfacet
facet normal 0.0 -1.0 0.0
outer loop
vertex 12.2914518843274 16.8477128262408 8.99999999999998
vertex 12.2914518843274 16.8477128262408 6.03670156852378
vertex 12.8456714477167 16.8477128262408 6.75897454801569
endloop
endfacet
facet normal 0.0 -1.0 0.0
outer loop
vertex 12.2914518843274 16.8477128262408 8.99999999999998
vertex 12.8456714477167 16.8477128262408 6.75897454801569
vertex 13.2934302290629 16.8477128262408 7.83995983074799
endloop
endfacet
facet normal 0.0 -1.0 0.0
outer loop
vertex 12.2914518843274 16.8477128262408 8.99999999999998
vertex 13.2934302290629 16.8477128262408 7.83995983074799
vertex 13.4461524227066 16.8477128262408 8.99999999999998
endloop
endfacet
facet normal -0.89420848531579 1.21093792320335e-029 0.44765073973941
outer loop
vertex 12.2914518843274 16.8477128262408 8.99999999999998
vertex 10.1241416876217 8.17264973081088 4.670671360146
vertex 12.2914518843274 8.17264973081088 8.99999999999998
endloop
endfacet
facet normal -0.89420848531579 1.21093792320335e-029 0.44765073973941
outer loop
vertex 10.1241416876217 8.17264973081088 4.670671360146
vertex 12.2914518843274 16.8477128262408 8.99999999999998
vertex 10.1241416876217 16.8477128262408 4.670671360146
endloop
endfacet
facet normal -0.79335334218107 1.91501974095957e-029 -0.60876142654584
outer loop
vertex 5.08253174916492 16.8477128262408 6.75897460585555
vertex 5.38558635971738 8.17264973081088 6.36402614548842
vertex 5.08253174916492 8.17264973081088 6.75897460585555
endloop
endfacet
facet normal -0.79335334218107 1.91501974095957e-029 -0.60876142654584
outer loop
vertex 5.38558635971738 8.17264973081088 6.36402614548842
vertex 5.08253174916492 16.8477128262408 6.75897460585555
vertex 5.38558635971738 16.8477128262408 6.36402614548842
endloop
endfacet
facet normal -1.33292100858813e-013 -1.0 -1.21739260298196e-013
outer loop
vertex 8.96410161513775 16.8477128262399 8.99999999999998
vertex 7.80406147814179 16.8477128262408 4.67067137743194
vertex 8.96410158174388 16.8477128262408 4.51794919243111
endloop
endfacet
facet normal -1.33292100858813e-013 -1.0 -1.21739260298196e-013
outer loop
vertex 7.80406147814179 16.8477128262408 4.67067137743194
vertex 8.96410161513775 16.8477128262399 8.99999999999998
vertex 6.72307619207336 16.8477128262408 5.11843015072409
endloop
endfacet
facet normal -1.33292100858813e-013 -1.0 -1.21739260298196e-013
outer loop
vertex 6.72307619207336 16.8477128262408 5.11843015072409
vertex 8.96410161513775 16.8477128262399 8.99999999999998
vertex 5.79481308367666 16.8477128262408 5.83071149215191
endloop
endfacet
facet normal -1.33292100858813e-013 -1.0 -1.21739260298196e-013
outer loop
vertex 5.79481308367666 16.8477128262408 5.83071149215191
vertex 8.96410161513775 16.8477128262399 8.99999999999998
vertex 5.63675134594812 16.8477128262408 6.03670156055921
endloop
endfacet
facet normal -1.33292100858813e-013 -1.0 -1.21739260298196e-013
outer loop
vertex 5.63675134594812 16.8477128262408 6.03670156055921
vertex 8.96410161513775 16.8477128262399 8.99999999999998
vertex 5.38558635971738 16.8477128262408 6.36402614548842
endloop
endfacet
facet normal -1.33292100858813e-013 -1.0 -1.21739260298196e-013
outer loop
vertex 5.38558635971738 16.8477128262408 6.36402614548842
vertex 8.96410161513775 16.8477128262399 8.99999999999998
vertex 5.63675134594812 16.8477128262408 8.99999999999998
endloop
endfacet
facet normal 0.995491199400343 -3.36612323669678e-030 -0.0948539504526115
outer loop
vertex 5.38558635971738 16.8477128262408 6.36402614548842
vertex 5.63675134594812 8.17264973081088 8.99999999999998
vertex 5.38558635971738 8.17264973081088 6.36402614548842
endloop
endfacet
facet normal 0.995491199400343 -3.36612323669678e-030 -0.0948539504526115
outer loop
vertex 5.63675134594812 8.17264973081088 8.99999999999998
vertex 5.38558635971738 16.8477128262408 6.36402614548842
vertex 5.63675134594812 16.8477128262408 8.99999999999998
endloop
endfacet
facet normal -0.410978033444046 0.0 -0.911645246807367
outer loop
vertex 12.2914518843274 24.4000000000003 19.1
vertex 8.96410161513775 8.17264973081043 20.6
vertex 8.96410161513775 24.4000000000003 20.6
endloop
endfacet
facet normal -0.410978033444046 0.0 -0.911645246807367
outer loop
vertex 8.96410161513775 8.17264973081043 20.6
vertex 12.2914518843274 24.4000000000003 19.1
vertex 12.2914518843274 8.17264973081043 19.1
endloop
endfacet
facet normal -0.866025403784444 0.499999999999992 -1.25664568299353e-029
outer loop
vertex 15.618802153517 30.1631397208149 8.99999999999998
vertex 12.2914518843274 24.4000000000004 0.0
vertex 12.2914518843274 24.4000000000004 8.99999999999998
endloop
endfacet
facet normal -0.866025403784444 0.499999999999992 -1.25664568299353e-029
outer loop
vertex 12.2914518843274 24.4000000000004 0.0
vertex 15.618802153517 30.1631397208149 8.99999999999998
vertex 15.618802153517 30.1631397208149 0.0
endloop
endfacet
facet normal 0.410978033444046 0.0 -0.911645246807367
outer loop
vertex 8.96410161513775 24.4000000000003 20.6
vertex 5.63675134594812 8.17264973081043 19.1
vertex 5.63675134594812 24.4000000000003 19.1
endloop
endfacet
facet normal 0.410978033444046 0.0 -0.911645246807367
outer loop
vertex 5.63675134594812 8.17264973081043 19.1
vertex 8.96410161513775 24.4000000000003 20.6
vertex 8.96410161513775 8.17264973081043 20.6
endloop
endfacet
facet normal 0.0 1.0 0.0
outer loop
vertex 5.63675134594812 24.4000000000004 8.99999999999998
vertex 12.2914518843274 24.4000000000004 0.0
vertex 5.63675134594812 24.4000000000004 0.0
endloop
endfacet
facet normal 0.0 1.0 0.0
outer loop
vertex 12.2914518843274 24.4000000000004 0.0
vertex 5.63675134594812 24.4000000000004 8.99999999999998
vertex 12.2914518843274 24.4000000000004 8.99999999999998
endloop
endfacet
facet normal 0.866025403784445 0.49999999999999 -1.19658430434711e-017
outer loop
vertex 2.30940107675852 30.1631397208149 0.0
vertex 5.63675134594812 24.4000000000004 8.99999999999998
vertex 5.63675134594812 24.4000000000004 0.0
endloop
endfacet
facet normal 0.866025403784445 0.49999999999999 -1.19658430434711e-017
outer loop
vertex 5.63675134594812 24.4000000000004 8.99999999999998
vertex 2.30940107675852 30.1631397208149 0.0
vertex 2.30940107675852 30.1631397208149 8.99999999999998
endloop
endfacet
facet normal -0.866025403784434 -0.500000000000008 0.0
outer loop
vertex 12.2914518843274 35.9262794416292 8.99999999999998
vertex 15.618802153517 30.1631397208149 0.0
vertex 15.618802153517 30.1631397208149 8.99999999999998
endloop
endfacet
facet normal -0.866025403784434 -0.500000000000008 0.0
outer loop
vertex 15.618802153517 30.1631397208149 0.0
vertex 12.2914518843274 35.9262794416292 8.99999999999998
vertex 12.2914518843274 35.9262794416292 0.0
endloop
endfacet
facet normal 0.866025403784434 -0.500000000000009 -1.36035885628557e-030
outer loop
vertex 5.63675134594814 35.9262794416292 0.0
vertex 2.30940107675852 30.1631397208149 8.99999999999998
vertex 2.30940107675852 30.1631397208149 0.0
endloop
endfacet
facet normal 0.866025403784434 -0.500000000000009 -1.36035885628557e-030
outer loop
vertex 2.30940107675852 30.1631397208149 8.99999999999998
vertex 5.63675134594814 35.9262794416292 0.0
vertex 5.63675134594814 35.9262794416292 8.99999999999998
endloop
endfacet
facet normal 0.0 1.0 0.0
outer loop
vertex 12.2914518843274 8.17264973081088 8.99999999999998
vertex 11.2051269803623 8.17264973081088 5.11843011733023
vertex 10.1241416876217 8.17264973081088 4.670671360146
endloop
endfacet
facet normal 0.0 1.0 0.0
outer loop
vertex 11.2051269803623 8.17264973081088 5.11843011733023
vertex 12.2914518843274 8.17264973081088 8.99999999999998
vertex 12.1333900993728 8.17264973081088 5.83071144492587
endloop
endfacet
facet normal 0.0 1.0 0.0
outer loop
vertex 12.1333900993728 8.17264973081088 5.83071144492587
vertex 12.2914518843274 8.17264973081088 8.99999999999998
vertex 12.2914518843274 8.17264973081088 6.03670156852378
endloop
endfacet
facet normal 0.0 1.0 0.0
outer loop
vertex 12.2914518843274 8.17264973081088 6.03670156852378
vertex 12.2914518843274 8.17264973081088 8.99999999999998
vertex 12.8456714477167 8.17264973081088 6.75897454801569
endloop
endfacet
facet normal 0.0 1.0 0.0
outer loop
vertex 12.8456714477167 8.17264973081088 6.75897454801569
vertex 12.2914518843274 8.17264973081088 8.99999999999998
vertex 13.2934302290629 8.17264973081088 7.83995983074799
endloop
endfacet
facet normal 0.0 1.0 0.0
outer loop
vertex 13.2934302290629 8.17264973081088 7.83995983074799
vertex 12.2914518843274 8.17264973081088 8.99999999999998
vertex 13.4461524227066 8.17264973081088 8.99999999999998
endloop
endfacet
facet normal -0.866025403784441 -0.499999999999995 -3.83164841776865e-017
outer loop
vertex 0.0 30.1631397208149 8.99999999999998
vertex 4.48205080756889 22.4000000000004 20.0000000667878
vertex 4.48205080756889 22.4000000000004 24.5
endloop
endfacet
facet normal -0.866025403784441 -0.499999999999995 -3.83164841776865e-017
outer loop
vertex 4.48205080756889 22.4000000000004 20.0000000667878
vertex 0.0 30.1631397208149 8.99999999999998
vertex 4.48205080756889 22.4000000000004 8.99999999999998
endloop
endfacet
facet normal -0.866025403784441 -0.499999999999995 -3.83164841776865e-017
outer loop
vertex 4.48205080756889 22.4000000000004 8.99999999999998
vertex 0.0 30.1631397208149 8.99999999999998
vertex 4.48205080756889 22.4000000000004 0.0
endloop
endfacet
facet normal -0.866025403784441 -0.499999999999995 -3.83164841776865e-017
outer loop
vertex 4.48205080756889 22.4000000000004 0.0
vertex 0.0 30.1631397208149 8.99999999999998
vertex 0.0 30.1631397208149 0.0
endloop
endfacet
facet normal 0.866025403784442 -0.499999999999995 -3.83164842611645e-017
outer loop
vertex 17.9282032302755 30.1631397208149 0.0
vertex 13.4461524227066 22.4000000000004 8.99999999999998
vertex 13.4461524227066 22.4000000000004 0.0
endloop
endfacet
facet normal 0.866025403784442 -0.499999999999995 -3.83164842611645e-017
outer loop
vertex 13.4461524227066 22.4000000000004 8.99999999999998
vertex 17.9282032302755 30.1631397208149 0.0
vertex 13.4461524227066 22.4000000000004 20.0
endloop
endfacet
facet normal 0.866025403784442 -0.499999999999995 -3.83164842611645e-017
outer loop
vertex 13.4461524227066 22.4000000000004 20.0
vertex 17.9282032302755 30.1631397208149 0.0
vertex 13.4461524227066 22.4000000000004 24.5
endloop
endfacet
facet normal 0.866025403784442 -0.499999999999995 -3.83164842611645e-017
outer loop
vertex 13.4461524227066 22.4000000000004 24.5
vertex 17.9282032302755 30.1631397208149 0.0
vertex 17.9282032302755 30.1631397208149 8.99999999999998
endloop
endfacet
facet normal 0.0 1.0 3.37520335525845e-014
outer loop
vertex 5.63675134594812 8.17264973081043 19.1
vertex 8.96410161513775 8.17264973081061 8.99999999999998
vertex 5.63675134594812 8.17264973081088 8.99999999999998
endloop
endfacet
facet normal 0.0 1.0 3.37520335525845e-014
outer loop
vertex 8.96410161513775 8.17264973081061 8.99999999999998
vertex 5.63675134594812 8.17264973081043 19.1
vertex 12.2914518843274 8.17264973081088 8.99999999999998
endloop
endfacet
facet normal 0.0 1.0 3.37520335525845e-014
outer loop
vertex 12.2914518843274 8.17264973081088 8.99999999999998
vertex 5.63675134594812 8.17264973081043 19.1
vertex 12.2914518843274 8.17264973081043 19.1
endloop
endfacet
facet normal 0.0 1.0 3.37520335525845e-014
outer loop
vertex 12.2914518843274 8.17264973081043 19.1
vertex 5.63675134594812 8.17264973081043 19.1
vertex 8.96410161513775 8.17264973081043 20.6
endloop
endfacet
facet normal -0.258819050650002 2.2225087707023e-010 -0.965925824802625
outer loop
vertex 7.80406147814179 8.17264973081088 4.67067137743194
vertex 6.72307619207336 5.70000000000024 5.11843015072409
vertex 6.72307619207336 8.17264973081088 5.11843015072409
endloop
endfacet
facet normal -0.500000004301588 0.0 -0.866025401300915
outer loop
vertex 6.72307619207336 5.70000000000024 5.11843015072409
vertex 7.80406147814179 8.17264973081088 4.67067137743194
vertex 7.80406147814179 5.70000000000024 4.67067137743194
endloop
endfacet
facet normal -0.500000004301588 0.0 -0.866025401300915
outer loop
vertex 6.72307619207336 8.17264973081088 5.11843015072409
vertex 5.79481308367666 5.70000000000024 5.83071149215191
vertex 5.79481308367666 8.17264973081088 5.83071149215191
endloop
endfacet
facet normal -0.707106783820724 1.10000740048841e-015 -0.707106778552371
outer loop
vertex 5.79481308367666 5.70000000000024 5.83071149215191
vertex 6.72307619207336 8.17264973081088 5.11843015072409
vertex 6.72307619207336 5.70000000000024 5.11843015072409
endloop
endfacet
facet normal 0.0 0.0 -1.0
outer loop
vertex 5.63675134594812 8.17264973081088 8.99999999999998
vertex 4.48205080756889 5.70000000000024 8.99999999999998
vertex 4.48205080756889 8.17264973081088 8.99999999999998
endloop
endfacet
facet normal 0.0 0.0 -1.0
outer loop
vertex 4.48205080756889 5.70000000000024 8.99999999999998
vertex 5.63675134594812 8.17264973081088 8.99999999999998
vertex 13.4461524227066 5.70000000000024 8.99999999999998
endloop
endfacet
facet normal 0.0 0.0 -1.0
outer loop
vertex 13.4461524227066 5.70000000000024 8.99999999999998
vertex 5.63675134594812 8.17264973081088 8.99999999999998
vertex 8.96410161513775 8.17264973081061 8.99999999999998
endloop
endfacet
facet normal 0.0 0.0 -1.0
outer loop
vertex 13.4461524227066 5.70000000000024 8.99999999999998
vertex 8.96410161513775 8.17264973081061 8.99999999999998
vertex 12.2914518843274 8.17264973081088 8.99999999999998
endloop
endfacet
facet normal 0.0 0.0 -1.0
outer loop
vertex 13.4461524227066 5.70000000000024 8.99999999999998
vertex 12.2914518843274 8.17264973081088 8.99999999999998
vertex 13.4461524227066 8.17264973081088 8.99999999999998
endloop
endfacet
facet normal -5.95814190476237e-009 1.94318381706106e-017 -1.0
outer loop
vertex 8.96410159844082 8.17264973081061 4.51794919243111
vertex 7.80406147814179 5.70000000000024 4.67067137743194
vertex 7.80406147814179 8.17264973081088 4.67067137743194
endloop
endfacet
facet normal -0.258819050649992 2.22250877070247e-010 -0.965925824802628
outer loop
vertex 7.80406147814179 5.70000000000024 4.67067137743194
vertex 8.96410159844082 8.17264973081061 4.51794919243111
vertex 8.96410158174388 5.70000000000024 4.51794919243111
endloop
endfacet
facet normal -0.866025405026206 1.10000740048841e-015 -0.499999997849195
outer loop
vertex 5.08253174916492 8.17264973081088 6.75897460585555
vertex 5.79481308367666 5.70000000000024 5.83071149215191
vertex 5.08253174916492 5.70000000000024 6.75897460585555
endloop
endfacet
facet normal -0.707106783820724 1.10000740048841e-015 -0.707106778552371
outer loop
vertex 5.79481308367666 5.70000000000024 5.83071149215191
vertex 5.08253174916492 8.17264973081088 6.75897460585555
vertex 5.79481308367666 8.17264973081088 5.83071149215191
endloop
endfacet
facet normal -0.707106783820724 1.10000740048841e-015 -0.707106778552371
outer loop
vertex 5.79481308367666 8.17264973081088 5.83071149215191
vertex 5.08253174916492 8.17264973081088 6.75897460585555
vertex 5.38558635971738 8.17264973081088 6.36402614548842
endloop
endfacet
facet normal -0.707106783820724 1.10000740048841e-015 -0.707106778552371
outer loop
vertex 5.79481308367666 8.17264973081088 5.83071149215191
vertex 5.38558635971738 8.17264973081088 6.36402614548842
vertex 5.63675133983668 8.17264973081088 6.03670156852378
endloop
endfacet
facet normal 0.0 -1.0 0.0
outer loop
vertex 10.1241416876217 5.70000000000024 4.670671360146
vertex 7.80406147814179 5.70000000000024 4.67067137743194
vertex 8.96410158174388 5.70000000000024 4.51794919243111
endloop
endfacet
facet normal 0.0 -1.0 0.0
outer loop
vertex 7.80406147814179 5.70000000000024 4.67067137743194
vertex 10.1241416876217 5.70000000000024 4.670671360146
vertex 11.2051269803623 5.70000000000024 5.11843011733023
endloop
endfacet
facet normal 0.0 -1.0 0.0
outer loop
vertex 7.80406147814179 5.70000000000024 4.67067137743194
vertex 11.2051269803623 5.70000000000024 5.11843011733023
vertex 6.72307619207336 5.70000000000024 5.11843015072409
endloop
endfacet
facet normal 0.0 -1.0 0.0
outer loop
vertex 6.72307619207336 5.70000000000024 5.11843015072409
vertex 11.2051269803623 5.70000000000024 5.11843011733023
vertex 12.1333900993728 5.70000000000024 5.83071144492587
endloop
endfacet
facet normal 0.0 -1.0 0.0
outer loop
vertex 6.72307619207336 5.70000000000024 5.11843015072409
vertex 12.1333900993728 5.70000000000024 5.83071144492587
vertex 5.79481308367666 5.70000000000024 5.83071149215191
endloop
endfacet
facet normal 0.0 -1.0 0.0
outer loop
vertex 5.79481308367666 5.70000000000024 5.83071149215191
vertex 12.1333900993728 5.70000000000024 5.83071144492587
vertex 12.8456714477167 5.70000000000024 6.75897454801569
endloop
endfacet
facet normal 0.0 -1.0 0.0
outer loop
vertex 5.79481308367666 5.70000000000024 5.83071149215191
vertex 12.8456714477167 5.70000000000024 6.75897454801569
vertex 5.08253174916492 5.70000000000024 6.75897460585555
endloop
endfacet
facet normal 0.0 -1.0 0.0
outer loop
vertex 5.08253174916492 5.70000000000024 6.75897460585555
vertex 12.8456714477167 5.70000000000024 6.75897454801569
vertex 13.2934302290629 5.70000000000024 7.83995983074799
endloop
endfacet
facet normal 0.0 -1.0 0.0
outer loop
vertex 5.08253174916492 5.70000000000024 6.75897460585555
vertex 13.2934302290629 5.70000000000024 7.83995983074799
vertex 4.63477298392672 5.70000000000024 7.83995989526007
endloop
endfacet
facet normal 0.0 -1.0 0.0
outer loop
vertex 4.63477298392672 5.70000000000024 7.83995989526007
vertex 13.2934302290629 5.70000000000024 7.83995983074799
vertex 13.4461524227066 5.70000000000024 8.99999999999998
endloop
endfacet
facet normal 0.0 -1.0 0.0
outer loop
vertex 4.63477298392672 5.70000000000024 7.83995989526007
vertex 13.4461524227066 5.70000000000024 8.99999999999998
vertex 4.48205080756889 5.70000000000024 8.99999999999998
endloop
endfacet
facet normal -0.96592582661046 0.0 -0.258819043903069
outer loop
vertex 4.63477298392672 8.17264973081088 7.83995989526007
vertex 5.08253174916492 5.70000000000024 6.75897460585555
vertex 4.63477298392672 5.70000000000024 7.83995989526007
endloop
endfacet
facet normal -0.866025405026206 1.10000740048841e-015 -0.499999997849195
outer loop
vertex 5.08253174916492 5.70000000000024 6.75897460585555
vertex 4.63477298392672 8.17264973081088 7.83995989526007
vertex 5.08253174916492 8.17264973081088 6.75897460585555
endloop
endfacet
facet normal -0.99144486145485 0.0 -0.130526191604492
outer loop
vertex 4.48205080756889 8.17264973081088 8.99999999999998
vertex 4.63477298392672 5.70000000000024 7.83995989526007
vertex 4.48205080756889 5.70000000000024 8.99999999999998
endloop
endfacet
facet normal -0.96592582661046 0.0 -0.258819043903069
outer loop
vertex 4.63477298392672 5.70000000000024 7.83995989526007
vertex 4.48205080756889 8.17264973081088 8.99999999999998
vertex 4.63477298392672 8.17264973081088 7.83995989526007
endloop
endfacet
facet normal 7.29886814951761e-014 1.0 1.74957286258341e-014
outer loop
vertex 7.80406147814179 8.17264973081088 4.67067137743194
vertex 8.96410161513775 8.17264973081061 8.99999999999998
vertex 8.96410159844082 8.17264973081061 4.51794919243111
endloop
endfacet
facet normal 7.29886814951761e-014 1.0 1.74957286258341e-014
outer loop
vertex 8.96410161513775 8.17264973081061 8.99999999999998
vertex 7.80406147814179 8.17264973081088 4.67067137743194
vertex 6.72307619207336 8.17264973081088 5.11843015072409
endloop
endfacet
facet normal 7.29886814951761e-014 1.0 1.74957286258341e-014
outer loop
vertex 8.96410161513775 8.17264973081061 8.99999999999998
vertex 6.72307619207336 8.17264973081088 5.11843015072409
vertex 5.79481308367666 8.17264973081088 5.83071149215191
endloop
endfacet
facet normal 7.29886814951761e-014 1.0 1.74957286258341e-014
outer loop
vertex 8.96410161513775 8.17264973081061 8.99999999999998
vertex 5.79481308367666 8.17264973081088 5.83071149215191
vertex 5.63675133983668 8.17264973081088 6.03670156852378
endloop
endfacet
facet normal 7.29886814951761e-014 1.0 1.74957286258341e-014
outer loop
vertex 8.96410161513775 8.17264973081061 8.99999999999998
vertex 5.63675133983668 8.17264973081088 6.03670156852378
vertex 5.38558635971738 8.17264973081088 6.36402614548842
endloop
endfacet
facet normal 7.29886814951761e-014 1.0 1.74957286258341e-014
outer loop
vertex 8.96410161513775 8.17264973081061 8.99999999999998
vertex 5.38558635971738 8.17264973081088 6.36402614548842
vertex 5.63675134594812 8.17264973081088 8.99999999999998
endloop
endfacet
facet normal 0.96592582371793 0.0 -0.25881905469814
outer loop
vertex 13.2934302290629 8.17264973081088 7.83995983074799
vertex 13.4461524227066 5.70000000000024 8.99999999999998
vertex 13.2934302290629 5.70000000000024 7.83995983074799
endloop
endfacet
facet normal 0.991444860482357 0.0 -0.130526198991314
outer loop
vertex 13.4461524227066 5.70000000000024 8.99999999999998
vertex 13.2934302290629 8.17264973081088 7.83995983074799
vertex 13.4461524227066 8.17264973081088 8.99999999999998
endloop
endfacet
facet normal 0.0 1.0 0.0
outer loop
vertex 5.08253174916492 8.17264973081088 6.75897460585555
vertex 5.63675134594812 8.17264973081088 8.99999999999998
vertex 5.38558635971738 8.17264973081088 6.36402614548842
endloop
endfacet
facet normal 0.0 1.0 0.0
outer loop
vertex 5.63675134594812 8.17264973081088 8.99999999999998
vertex 5.08253174916492 8.17264973081088 6.75897460585555
vertex 4.63477298392672 8.17264973081088 7.83995989526007
endloop
endfacet
facet normal 0.0 1.0 0.0
outer loop
vertex 5.63675134594812 8.17264973081088 8.99999999999998
vertex 4.63477298392672 8.17264973081088 7.83995989526007
vertex 4.48205080756889 8.17264973081088 8.99999999999998
endloop
endfacet
facet normal 0.866025397575618 -1.65772362093626e-016 -0.500000010753992
outer loop
vertex 12.8456714477167 8.17264973081088 6.75897454801569
vertex 13.2934302290629 5.70000000000024 7.83995983074799
vertex 12.8456714477167 5.70000000000024 6.75897454801569
endloop
endfacet
facet normal 0.96592582371793 0.0 -0.25881905469814
outer loop
vertex 13.2934302290629 5.70000000000024 7.83995983074799
vertex 12.8456714477167 8.17264973081088 6.75897454801569
vertex 13.2934302290629 8.17264973081088 7.83995983074799
endloop
endfacet
facet normal 0.707106773284017 -1.65772362093626e-016 -0.707106789089078
outer loop
vertex 12.1333900993728 8.17264973081088 5.83071144492587
vertex 12.8456714477167 5.70000000000024 6.75897454801569
vertex 12.1333900993728 5.70000000000024 5.83071144492587
endloop
endfacet
facet normal 0.866025397575618 -1.65772362093626e-016 -0.500000010753992
outer loop
vertex 12.8456714477167 5.70000000000024 6.75897454801569
vertex 12.1333900993728 8.17264973081088 5.83071144492587
vertex 12.8456714477167 8.17264973081088 6.75897454801569
endloop
endfacet
facet normal 0.866025397575618 -1.65772362093626e-016 -0.500000010753992
outer loop
vertex 12.8456714477167 8.17264973081088 6.75897454801569
vertex 12.1333900993728 8.17264973081088 5.83071144492587
vertex 12.2914518843274 8.17264973081088 6.03670156852378
endloop
endfacet
facet normal 0.707106773284017 -1.65772362093626e-016 -0.707106789089078
outer loop
vertex 12.1333900993728 8.17264973081088 5.83071144492587
vertex 11.2051269803623 5.70000000000024 5.11843011733023
vertex 11.2051269803623 8.17264973081088 5.11843011733023
endloop
endfacet
facet normal 0.499999991396812 0.0 -0.866025408751491
outer loop
vertex 11.2051269803623 5.70000000000024 5.11843011733023
vertex 12.1333900993728 8.17264973081088 5.83071144492587
vertex 12.1333900993728 5.70000000000024 5.83071144492587
endloop
endfacet
facet normal -5.95814190476237e-009 1.94318381706106e-017 -1.0
outer loop
vertex 8.96410159844082 8.17264973081061 4.51794919243111
vertex 10.1241416876217 5.70000000000024 4.670671360146
vertex 8.96410158174388 5.70000000000024 4.51794919243111
endloop
endfacet
facet normal 0.258819037156171 -2.2225085571665e-010 -0.965925828418286
outer loop
vertex 10.1241416876217 5.70000000000024 4.670671360146
vertex 8.96410159844082 8.17264973081061 4.51794919243111
vertex 10.1241416876217 8.17264973081088 4.670671360146
endloop
endfacet
facet normal 0.499999991396812 0.0 -0.866025408751491
outer loop
vertex 11.2051269803623 8.17264973081088 5.11843011733023
vertex 10.1241416876217 5.70000000000024 4.670671360146
vertex 10.1241416876217 8.17264973081088 4.670671360146
endloop
endfacet
facet normal 0.258819037156171 -2.2225085571665e-010 -0.965925828418286
outer loop
vertex 10.1241416876217 5.70000000000024 4.670671360146
vertex 11.2051269803623 8.17264973081088 5.11843011733023
vertex 11.2051269803623 5.70000000000024 5.11843011733023
endloop
endfacet
facet normal 0.0 -1.0 0.0
outer loop
vertex 4.63477300121266 22.4000000000004 21.160040169252
vertex 4.48205080756889 22.4000000000004 24.5
vertex 4.48205080756889 22.4000000000004 20.0000000667878
endloop
endfacet
facet normal 0.0 -1.0 0.0
outer loop
vertex 4.48205080756889 22.4000000000004 24.5
vertex 4.63477300121266 22.4000000000004 21.160040169252
vertex 5.08253178255879 22.4000000000004 22.2410254519843
endloop
endfacet
facet normal 0.0 -1.0 0.0
outer loop
vertex 4.48205080756889 22.4000000000004 24.5
vertex 5.08253178255879 22.4000000000004 22.2410254519843
vertex 5.79481313090274 22.4000000000004 23.1692885550742
endloop
endfacet
facet normal 0.0 -1.0 0.0
outer loop
vertex 4.48205080756889 22.4000000000004 24.5
vertex 5.79481313090274 22.4000000000004 23.1692885550742
vertex 6.72307624991325 22.4000000000004 23.8815698826698
endloop
endfacet
facet normal 0.0 -1.0 0.0
outer loop
vertex 4.48205080756889 22.4000000000004 24.5
vertex 6.72307624991325 22.4000000000004 23.8815698826698
vertex 7.80406154265381 22.4000000000004 24.329328639854
endloop
endfacet
facet normal 0.0 -1.0 0.0
outer loop
vertex 4.48205080756889 22.4000000000004 24.5
vertex 7.80406154265381 22.4000000000004 24.329328639854
vertex 8.96410164853163 22.4000000000004 24.4820508075689
endloop
endfacet
facet normal 0.258819051099767 0.0 0.965925824682111
outer loop
vertex 10.1241417521337 5.70000000000001 24.3293286225681
vertex 8.96410164853163 22.4000000000004 24.4820508075689
vertex 8.96410164853163 5.70000000000001 24.4820508075689
endloop
endfacet
facet normal 0.130526198991345 0.0 0.991444860482353
outer loop
vertex 8.96410164853163 22.4000000000004 24.4820508075689
vertex 10.1241417521337 5.70000000000001 24.3293286225681
vertex 10.1241417521337 22.4000000000004 24.3293286225681
endloop
endfacet
facet normal 0.0 -1.0 0.0
outer loop
vertex 13.4461524227066 22.4000000000004 24.5
vertex 13.2934302463488 22.4000000000004 21.16004010474
vertex 13.4461524227066 22.4000000000004 20.0
endloop
endfacet
facet normal 0.0 -1.0 0.0
outer loop
vertex 13.2934302463488 22.4000000000004 21.16004010474
vertex 13.4461524227066 22.4000000000004 24.5
vertex 12.8456714811106 22.4000000000004 22.2410253941445
endloop
endfacet
facet normal 0.0 -1.0 0.0
outer loop
vertex 12.8456714811106 22.4000000000004 22.2410253941445
vertex 13.4461524227066 22.4000000000004 24.5
vertex 12.1333901465989 22.4000000000004 23.1692885078481
endloop
endfacet
facet normal 0.0 -1.0 0.0
outer loop
vertex 12.1333901465989 22.4000000000004 23.1692885078481
vertex 13.4461524227066 22.4000000000004 24.5
vertex 11.2051270382022 22.4000000000004 23.8815698492759
endloop
endfacet
facet normal 0.0 -1.0 0.0
outer loop
vertex 11.2051270382022 22.4000000000004 23.8815698492759
vertex 13.4461524227066 22.4000000000004 24.5
vertex 10.1241417521337 22.4000000000004 24.3293286225681
endloop
endfacet
facet normal 0.0 -1.0 0.0
outer loop
vertex 10.1241417521337 22.4000000000004 24.3293286225681
vertex 13.4461524227066 22.4000000000004 24.5
vertex 8.96410164853163 22.4000000000004 24.4820508075689
endloop
endfacet
facet normal 0.991444861454852 0.0 0.130526191604477
outer loop
vertex 13.4461524227066 22.4000000000004 20.0
vertex 13.2934302463488 5.70000000000001 21.16004010474
vertex 13.4461524227066 5.70000000000001 20.0
endloop
endfacet
facet normal 0.965925826610462 0.0 0.258819043903062
outer loop
vertex 13.2934302463488 5.70000000000001 21.16004010474
vertex 13.4461524227066 22.4000000000004 20.0
vertex 13.2934302463488 22.4000000000004 21.16004010474
endloop
endfacet
facet normal -0.258819036706375 0.0 0.965925828538809
outer loop
vertex 7.80406154265381 5.70000000000001 24.329328639854
vertex 6.72307624991325 22.4000000000004 23.8815698826698
vertex 6.72307624991325 5.70000000000001 23.8815698826698
endloop
endfacet
facet normal -0.499999991396817 0.0 0.866025408751488
outer loop
vertex 6.72307624991325 22.4000000000004 23.8815698826698
vertex 7.80406154265381 5.70000000000001 24.329328639854
vertex 7.80406154265381 22.4000000000004 24.329328639854
endloop
endfacet
facet normal -0.707106773284006 0.0 0.707106789089089
outer loop
vertex 5.79481313090274 22.4000000000004 23.1692885550742
vertex 5.08253178255879 5.70000000000001 22.2410254519843
vertex 5.79481313090274 5.70000000000001 23.1692885550742
endloop
endfacet
facet normal -0.866025397575622 0.0 0.500000010753985
outer loop
vertex 5.08253178255879 5.70000000000001 22.2410254519843
vertex 5.79481313090274 22.4000000000004 23.1692885550742
vertex 5.08253178255879 22.4000000000004 22.2410254519843
endloop
endfacet
facet normal -0.130526184217628 0.0 0.99144486242735
outer loop
vertex 8.96410164853163 5.70000000000001 24.4820508075689
vertex 7.80406154265381 22.4000000000004 24.329328639854
vertex 7.80406154265381 5.70000000000001 24.329328639854
endloop
endfacet
facet normal -0.258819036706375 0.0 0.965925828538809
outer loop
vertex 7.80406154265381 22.4000000000004 24.329328639854
vertex 8.96410164853163 5.70000000000001 24.4820508075689
vertex 8.96410164853163 22.4000000000004 24.4820508075689
endloop
endfacet
facet normal 0.500000004301584 0.0 0.866025401300918
outer loop
vertex 11.2051270382022 5.70000000000001 23.8815698492759
vertex 10.1241417521337 22.4000000000004 24.3293286225681
vertex 10.1241417521337 5.70000000000001 24.3293286225681
endloop
endfacet
facet normal 0.258819051099767 0.0 0.965925824682111
outer loop
vertex 10.1241417521337 22.4000000000004 24.3293286225681
vertex 11.2051270382022 5.70000000000001 23.8815698492759
vertex 11.2051270382022 22.4000000000004 23.8815698492759
endloop
endfacet
facet normal 0.866025405026201 0.0 0.499999997849205
outer loop
vertex 12.8456714811106 22.4000000000004 22.2410253941445
vertex 12.1333901465989 5.70000000000001 23.1692885078481
vertex 12.8456714811106 5.70000000000001 22.2410253941445
endloop
endfacet
facet normal 0.707106783820727 0.0 0.707106778552368
outer loop
vertex 12.1333901465989 5.70000000000001 23.1692885078481
vertex 12.8456714811106 22.4000000000004 22.2410253941445
vertex 12.1333901465989 22.4000000000004 23.1692885078481
endloop
endfacet
facet normal -0.866025397575622 0.0 0.500000010753985
outer loop
vertex 5.08253178255879 22.4000000000004 22.2410254519843
vertex 4.63477300121266 5.70000000000001 21.160040169252
vertex 5.08253178255879 5.70000000000001 22.2410254519843
endloop
endfacet
facet normal -0.965925822753755 0.0 0.258819058296488
outer loop
vertex 4.63477300121266 5.70000000000001 21.160040169252
vertex 5.08253178255879 22.4000000000004 22.2410254519843
vertex 4.63477300121266 22.4000000000004 21.160040169252
endloop
endfacet
facet normal 0.0 -1.0 0.0
outer loop
vertex 13.4461524227066 22.4000000000004 0.0
vertex 11.2051269803623 22.4000000000004 5.11843011733023
vertex 4.48205080756889 22.4000000000004 0.0
endloop
endfacet
facet normal 0.0 -1.0 0.0
outer loop
vertex 11.2051269803623 22.4000000000004 5.11843011733023
vertex 13.4461524227066 22.4000000000004 0.0
vertex 12.1333900993728 22.4000000000004 5.83071144492587
endloop
endfacet
facet normal 0.0 -1.0 0.0
outer loop
vertex 12.1333900993728 22.4000000000004 5.83071144492587
vertex 13.4461524227066 22.4000000000004 0.0
vertex 12.8456714477167 22.4000000000004 6.75897454801569
endloop
endfacet
facet normal 0.0 -1.0 0.0
outer loop
vertex 12.8456714477167 22.4000000000004 6.75897454801569
vertex 13.4461524227066 22.4000000000004 0.0
vertex 13.2934302290629 22.4000000000004 7.83995983074799
endloop
endfacet
facet normal 0.0 -1.0 0.0
outer loop
vertex 13.2934302290629 22.4000000000004 7.83995983074799
vertex 13.4461524227066 22.4000000000004 0.0
vertex 13.4461524227066 22.4000000000004 8.99999999999998
endloop
endfacet
facet normal 0.0 -1.0 0.0
outer loop
vertex 4.48205080756889 22.4000000000004 0.0
vertex 11.2051269803623 22.4000000000004 5.11843011733023
vertex 10.1241416876217 22.4000000000004 4.670671360146
endloop
endfacet
facet normal 0.0 -1.0 0.0
outer loop
vertex 4.48205080756889 22.4000000000004 0.0
vertex 10.1241416876217 22.4000000000004 4.670671360146
vertex 8.96410158174388 22.4000000000004 4.51794919243111
endloop
endfacet
facet normal 0.0 -1.0 0.0
outer loop
vertex 4.48205080756889 22.4000000000004 0.0
vertex 4.63477298392672 22.4000000000004 7.83995989526007
vertex 4.48205080756889 22.4000000000004 8.99999999999998
endloop
endfacet
facet normal 0.0 -1.0 0.0
outer loop
vertex 4.63477298392672 22.4000000000004 7.83995989526007
vertex 4.48205080756889 22.4000000000004 0.0
vertex 5.08253174916492 22.4000000000004 6.75897460585555
endloop
endfacet
facet normal 0.0 -1.0 0.0
outer loop
vertex 5.08253174916492 22.4000000000004 6.75897460585555
vertex 4.48205080756889 22.4000000000004 0.0
vertex 5.79481308367666 22.4000000000004 5.83071149215191
endloop
endfacet
facet normal 0.0 -1.0 0.0
outer loop
vertex 5.79481308367666 22.4000000000004 5.83071149215191
vertex 4.48205080756889 22.4000000000004 0.0
vertex 6.72307619207336 22.4000000000004 5.11843015072409
endloop
endfacet
facet normal 0.0 -1.0 0.0
outer loop
vertex 6.72307619207336 22.4000000000004 5.11843015072409
vertex 4.48205080756889 22.4000000000004 0.0
vertex 7.80406147814179 22.4000000000004 4.67067137743194
endloop
endfacet
facet normal 0.0 -1.0 0.0
outer loop
vertex 7.80406147814179 22.4000000000004 4.67067137743194
vertex 4.48205080756889 22.4000000000004 0.0
vertex 8.96410158174388 22.4000000000004 4.51794919243111
endloop
endfacet
facet normal -0.499999991396817 0.0 0.866025408751488
outer loop
vertex 6.72307624991325 5.70000000000001 23.8815698826698
vertex 5.79481313090274 22.4000000000004 23.1692885550742
vertex 5.79481313090274 5.70000000000001 23.1692885550742
endloop
endfacet
facet normal -0.707106773284006 0.0 0.707106789089089
outer loop
vertex 5.79481313090274 22.4000000000004 23.1692885550742
vertex 6.72307624991325 5.70000000000001 23.8815698826698
vertex 6.72307624991325 22.4000000000004 23.8815698826698
endloop
endfacet
facet normal -0.965925822753755 0.0 0.258819058296488
outer loop
vertex 4.63477300121266 22.4000000000004 21.160040169252
vertex 4.48205080756889 5.70000000000001 20.0000000667878
vertex 4.63477300121266 5.70000000000001 21.160040169252
endloop
endfacet
facet normal -0.991444859509859 0.0 0.130526206378165
outer loop
vertex 4.48205080756889 5.70000000000001 20.0000000667878
vertex 4.63477300121266 22.4000000000004 21.160040169252
vertex 4.48205080756889 22.4000000000004 20.0000000667878
endloop
endfacet
facet normal 0.707106783820727 0.0 0.707106778552368
outer loop
vertex 12.1333901465989 5.70000000000001 23.1692885078481
vertex 11.2051270382022 22.4000000000004 23.8815698492759
vertex 11.2051270382022 5.70000000000001 23.8815698492759
endloop
endfacet
facet normal 0.500000004301584 0.0 0.866025401300918
outer loop
vertex 11.2051270382022 22.4000000000004 23.8815698492759
vertex 12.1333901465989 5.70000000000001 23.1692885078481
vertex 12.1333901465989 22.4000000000004 23.1692885078481
endloop
endfacet
facet normal 0.965925826610462 0.0 0.258819043903062
outer loop
vertex 13.2934302463488 22.4000000000004 21.16004010474
vertex 12.8456714811106 5.70000000000001 22.2410253941445
vertex 13.2934302463488 5.70000000000001 21.16004010474
endloop
endfacet
facet normal 0.866025405026201 0.0 0.499999997849205
outer loop
vertex 12.8456714811106 5.70000000000001 22.2410253941445
vertex 13.2934302463488 22.4000000000004 21.16004010474
vertex 12.8456714811106 22.4000000000004 22.2410253941445
endloop
endfacet
facet normal -9.76817234420176e-014 1.0 2.33932096674639e-014
outer loop
vertex 8.96410161513775 8.17264973081061 8.99999999999998
vertex 10.1241416876217 8.17264973081088 4.670671360146
vertex 8.96410159844082 8.17264973081061 4.51794919243111
endloop
endfacet
facet normal -9.76817234420176e-014 1.0 2.33932096674639e-014
outer loop
vertex 10.1241416876217 8.17264973081088 4.670671360146
vertex 8.96410161513775 8.17264973081061 8.99999999999998
vertex 12.2914518843274 8.17264973081088 8.99999999999998
endloop
endfacet
facet normal -7.16958128726547e-023 -1.0 -1.50921555456704e-014
outer loop
vertex 13.4461524227066 5.70000000000001 20.0
vertex 4.48205080756889 5.70000000000024 8.99999999999998
vertex 13.4461524227066 5.70000000000024 8.99999999999998
endloop
endfacet
facet normal -7.16958128726547e-023 -1.0 -1.50921555456704e-014
outer loop
vertex 4.48205080756889 5.70000000000024 8.99999999999998
vertex 13.4461524227066 5.70000000000001 20.0
vertex 4.48205080756889 5.70000000000001 20.0000000667878
endloop
endfacet
facet normal -7.16958128726547e-023 -1.0 -1.50921555456704e-014
outer loop
vertex 4.48205080756889 5.70000000000001 20.0000000667878
vertex 13.4461524227066 5.70000000000001 20.0
vertex 13.2934302463488 5.70000000000001 21.16004010474
endloop
endfacet
facet normal -7.16958128726547e-023 -1.0 -1.50921555456704e-014
outer loop
vertex 4.48205080756889 5.70000000000001 20.0000000667878
vertex 13.2934302463488 5.70000000000001 21.16004010474
vertex 4.63477300121266 5.70000000000001 21.160040169252
endloop
endfacet
facet normal -7.16958128726547e-023 -1.0 -1.50921555456704e-014
outer loop
vertex 4.63477300121266 5.70000000000001 21.160040169252
vertex 13.2934302463488 5.70000000000001 21.16004010474
vertex 12.8456714811106 5.70000000000001 22.2410253941445
endloop
endfacet
facet normal -7.16958128726547e-023 -1.0 -1.50921555456704e-014
outer loop
vertex 4.63477300121266 5.70000000000001 21.160040169252
vertex 12.8456714811106 5.70000000000001 22.2410253941445
vertex 5.08253178255879 5.70000000000001 22.2410254519843
endloop
endfacet
facet normal -7.16958128726547e-023 -1.0 -1.50921555456704e-014
outer loop
vertex 5.08253178255879 5.70000000000001 22.2410254519843
vertex 12.8456714811106 5.70000000000001 22.2410253941445
vertex 12.1333901465989 5.70000000000001 23.1692885078481
endloop
endfacet
facet normal -7.16958128726547e-023 -1.0 -1.50921555456704e-014
outer loop
vertex 5.08253178255879 5.70000000000001 22.2410254519843
vertex 12.1333901465989 5.70000000000001 23.1692885078481
vertex 5.79481313090274 5.70000000000001 23.1692885550742
endloop
endfacet
facet normal -7.16958128726547e-023 -1.0 -1.50921555456704e-014
outer loop
vertex 5.79481313090274 5.70000000000001 23.1692885550742
vertex 12.1333901465989 5.70000000000001 23.1692885078481
vertex 11.2051270382022 5.70000000000001 23.8815698492759
endloop
endfacet
facet normal -7.16958128726547e-023 -1.0 -1.50921555456704e-014
outer loop
vertex 5.79481313090274 5.70000000000001 23.1692885550742
vertex 11.2051270382022 5.70000000000001 23.8815698492759
vertex 6.72307624991325 5.70000000000001 23.8815698826698
endloop
endfacet
facet normal -7.16958128726547e-023 -1.0 -1.50921555456704e-014
outer loop
vertex 6.72307624991325 5.70000000000001 23.8815698826698
vertex 11.2051270382022 5.70000000000001 23.8815698492759
vertex 10.1241417521337 5.70000000000001 24.3293286225681
endloop
endfacet
facet normal -7.16958128726547e-023 -1.0 -1.50921555456704e-014
outer loop
vertex 6.72307624991325 5.70000000000001 23.8815698826698
vertex 10.1241417521337 5.70000000000001 24.3293286225681
vertex 7.80406154265381 5.70000000000001 24.329328639854
endloop
endfacet
facet normal -7.16958128726547e-023 -1.0 -1.50921555456704e-014
outer loop
vertex 7.80406154265381 5.70000000000001 24.329328639854
vertex 10.1241417521337 5.70000000000001 24.3293286225681
vertex 8.96410164853163 5.70000000000001 24.4820508075689
endloop
endfacet
endsolid water-dispenser
